<svg xmlns="http://www.w3.org/2000/svg" xmlns:xlink="http://www.w3.org/1999/xlink" contentStyleType="text/css" data-diagram-type="DESCRIPTION" height="793px" preserveAspectRatio="none" style="width:1980px;height:793px;background:#FFFFFF;" version="1.1" viewBox="0 0 1980 793" width="1980px" zoomAndPan="magnify"><defs/><g><!--cluster OrderManagementService--><g class="cluster" data-entity="OrderManagementService" data-source-line="8" data-uid="ent0002" id="cluster_OrderManagementService"><path d="M8.5,6 L183.0166,6 A3.75,3.75 0 0 1 185.5166,8.5 L192.5166,29.6094 L589.5,29.6094 A2.5,2.5 0 0 1 592,32.1094 L592,369.5 A2.5,2.5 0 0 1 589.5,372 L8.5,372 A2.5,2.5 0 0 1 6,369.5 L6,8.5 A2.5,2.5 0 0 1 8.5,6" fill="#DDDDDD" style="stroke:#000000;stroke-width:1.5;"/><line style="stroke:#000000;stroke-width:1.5;" x1="6" x2="192.5166" y1="29.6094" y2="29.6094"/><text fill="#000000" font-family="Helvetica" font-size="14" font-weight="bold" lengthAdjust="spacing" textLength="173.5166" x="10" y="22.5332">OrderManagementService</text></g><!--cluster AccountManagementService--><g class="cluster" data-entity="AccountManagementService" data-source-line="18" data-uid="ent0010" id="cluster_AccountManagementService"><path d="M1559.5,282 L1751.8926,282 A3.75,3.75 0 0 1 1754.3926,284.5 L1761.3926,305.6094 L1970.5,305.6094 A2.5,2.5 0 0 1 1973,308.1094 L1973,645.5 A2.5,2.5 0 0 1 1970.5,648 L1559.5,648 A2.5,2.5 0 0 1 1557,645.5 L1557,284.5 A2.5,2.5 0 0 1 1559.5,282" fill="#DDDDDD" style="stroke:#000000;stroke-width:1.5;"/><line style="stroke:#000000;stroke-width:1.5;" x1="1557" x2="1761.3926" y1="305.6094" y2="305.6094"/><text fill="#000000" font-family="Helvetica" font-size="14" font-weight="bold" lengthAdjust="spacing" textLength="191.3926" x="1561" y="298.5332">AccountManagementService</text></g><!--cluster ItemManagementService--><g class="cluster" data-entity="ItemManagementService" data-source-line="27" data-uid="ent0017" id="cluster_ItemManagementService"><path d="M744.5,282 L909.6787,282 A3.75,3.75 0 0 1 912.1787,284.5 L919.1787,305.6094 L1530.5,305.6094 A2.5,2.5 0 0 1 1533,308.1094 L1533,783.5 A2.5,2.5 0 0 1 1530.5,786 L744.5,786 A2.5,2.5 0 0 1 742,783.5 L742,284.5 A2.5,2.5 0 0 1 744.5,282" fill="#DDDDDD" style="stroke:#000000;stroke-width:1.5;"/><line style="stroke:#000000;stroke-width:1.5;" x1="742" x2="919.1787" y1="305.6094" y2="305.6094"/><text fill="#000000" font-family="Helvetica" font-size="14" font-weight="bold" lengthAdjust="spacing" textLength="164.1787" x="746" y="298.5332">ItemManagementService</text></g><!--entity PORT_OrderManagementService--><!--entity OrderActionBean--><g class="entity" data-entity="OrderActionBean" data-source-line="10" data-uid="ent0004" id="entity_OrderActionBean"><rect fill="#DDDDDD" height="37.6094" rx="2.5" ry="2.5" style="stroke:#181818;stroke-width:0.5;" width="127.3926" x="326.5" y="42"/><text fill="#000000" font-family="Helvetica" font-size="14" lengthAdjust="spacing" textLength="107.3926" x="336.5" y="66.5332">OrderActionBean</text></g><!--entity OrderService--><g class="entity" data-entity="OrderService" data-source-line="11" data-uid="ent0005" id="entity_OrderService"><rect fill="#DDDDDD" height="37.6094" rx="2.5" ry="2.5" style="stroke:#181818;stroke-width:0.5;" width="102.4688" x="339" y="180"/><text fill="#000000" font-family="Helvetica" font-size="14" lengthAdjust="spacing" textLength="82.4688" x="349" y="204.5332">OrderService</text></g><!--entity Sequence--><g class="entity" data-entity="Sequence" data-source-line="12" data-uid="ent0006" id="entity_Sequence"><rect fill="#DDDDDD" height="37.6094" rx="2.5" ry="2.5" style="stroke:#181818;stroke-width:0.5;" width="83.0547" x="376.5" y="318"/><text fill="#000000" font-family="Helvetica" font-size="14" lengthAdjust="spacing" textLength="63.0547" x="386.5" y="342.5332">Sequence</text></g><!--entity SequenceMapper--><g class="entity" data-entity="SequenceMapper" data-source-line="13" data-uid="ent0007" id="entity_SequenceMapper"><rect fill="#DDDDDD" height="37.6094" rx="2.5" ry="2.5" style="stroke:#181818;stroke-width:0.5;" width="130.5234" x="185.5" y="318"/><text fill="#000000" font-family="Helvetica" font-size="14" lengthAdjust="spacing" textLength="110.5234" x="195.5" y="342.5332">SequenceMapper</text></g><!--entity Order--><g class="entity" data-entity="Order" data-source-line="14" data-uid="ent0008" id="entity_Order"><rect fill="#DDDDDD" height="37.6094" rx="2.5" ry="2.5" style="stroke:#181818;stroke-width:0.5;" width="55.7861" x="520" y="318"/><text fill="#000000" font-family="Helvetica" font-size="14" lengthAdjust="spacing" textLength="35.7861" x="530" y="342.5332">Order</text></g><!--entity OrderMapper--><g class="entity" data-entity="OrderMapper" data-source-line="15" data-uid="ent0009" id="entity_OrderMapper"><rect fill="#DDDDDD" height="37.6094" rx="2.5" ry="2.5" style="stroke:#181818;stroke-width:0.5;" width="103.2549" x="22.5" y="318"/><text fill="#000000" font-family="Helvetica" font-size="14" lengthAdjust="spacing" textLength="83.2549" x="32.5" y="342.5332">OrderMapper</text></g><!--entity PORT_AccountManagementService--><!--entity AccountActionBean--><g class="entity" data-entity="AccountActionBean" data-source-line="20" data-uid="ent0012" id="entity_AccountActionBean"><rect fill="#DDDDDD" height="37.6094" rx="2.5" ry="2.5" style="stroke:#181818;stroke-width:0.5;" width="142.1924" x="1577" y="318"/><text fill="#000000" font-family="Helvetica" font-size="14" lengthAdjust="spacing" textLength="122.1924" x="1587" y="342.5332">AccountActionBean</text></g><!--entity AbstractActionBean--><g class="entity" data-entity="AbstractActionBean" data-source-line="21" data-uid="ent0013" id="entity_AbstractActionBean"><rect fill="#DDDDDD" height="37.6094" rx="2.5" ry="2.5" style="stroke:#181818;stroke-width:0.5;" width="142.958" x="1573.5" y="456"/><text fill="#000000" font-family="Helvetica" font-size="14" lengthAdjust="spacing" textLength="122.958" x="1583.5" y="480.5332">AbstractActionBean</text></g><!--entity AccountService--><g class="entity" data-entity="AccountService" data-source-line="22" data-uid="ent0014" id="entity_AccountService"><rect fill="#DDDDDD" height="37.6094" rx="2.5" ry="2.5" style="stroke:#181818;stroke-width:0.5;" width="117.2686" x="1839.5" y="456"/><text fill="#000000" font-family="Helvetica" font-size="14" lengthAdjust="spacing" textLength="97.2686" x="1849.5" y="480.5332">AccountService</text></g><!--entity AccountMapper--><g class="entity" data-entity="AccountMapper" data-source-line="23" data-uid="ent0015" id="entity_AccountMapper"><rect fill="#DDDDDD" height="37.6094" rx="2.5" ry="2.5" style="stroke:#181818;stroke-width:0.5;" width="118.0547" x="1839" y="594"/><text fill="#000000" font-family="Helvetica" font-size="14" lengthAdjust="spacing" textLength="98.0547" x="1849" y="618.5332">AccountMapper</text></g><!--entity Account--><g class="entity" data-entity="Account" data-source-line="24" data-uid="ent0016" id="entity_Account"><rect fill="#DDDDDD" height="37.6094" rx="2.5" ry="2.5" style="stroke:#181818;stroke-width:0.5;" width="70.5859" x="1707.5" y="594"/><text fill="#000000" font-family="Helvetica" font-size="14" lengthAdjust="spacing" textLength="50.5859" x="1717.5" y="618.5332">Account</text></g><!--entity PORT_ItemManagementService--><!--entity CartActionBean--><g class="entity" data-entity="CartActionBean" data-source-line="29" data-uid="ent0019" id="entity_CartActionBean"><rect fill="#DDDDDD" height="37.6094" rx="2.5" ry="2.5" style="stroke:#181818;stroke-width:0.5;" width="118.0547" x="1077" y="318"/><text fill="#000000" font-family="Helvetica" font-size="14" lengthAdjust="spacing" textLength="98.0547" x="1087" y="342.5332">CartActionBean</text></g><!--entity CatalogActionBean--><g class="entity" data-entity="CatalogActionBean" data-source-line="30" data-uid="ent0020" id="entity_CatalogActionBean"><rect fill="#DDDDDD" height="37.6094" rx="2.5" ry="2.5" style="stroke:#181818;stroke-width:0.5;" width="139.8613" x="1255" y="318"/><text fill="#000000" font-family="Helvetica" font-size="14" lengthAdjust="spacing" textLength="119.8613" x="1265" y="342.5332">CatalogActionBean</text></g><!--entity Category--><g class="entity" data-entity="Category" data-source-line="31" data-uid="ent0021" id="entity_Category"><rect fill="#DDDDDD" height="37.6094" rx="2.5" ry="2.5" style="stroke:#181818;stroke-width:0.5;" width="76.8066" x="939.5" y="318"/><text fill="#000000" font-family="Helvetica" font-size="14" lengthAdjust="spacing" textLength="56.8066" x="949.5" y="342.5332">Category</text></g><!--entity LineItem--><g class="entity" data-entity="LineItem" data-source-line="32" data-uid="ent0022" id="entity_LineItem"><rect fill="#DDDDDD" height="37.6094" rx="2.5" ry="2.5" style="stroke:#181818;stroke-width:0.5;" width="73.6963" x="758" y="456"/><text fill="#000000" font-family="Helvetica" font-size="14" lengthAdjust="spacing" textLength="53.6963" x="768" y="480.5332">LineItem</text></g><!--entity LineItemMapper--><g class="entity" data-entity="LineItemMapper" data-source-line="33" data-uid="ent0023" id="entity_LineItemMapper"><rect fill="#DDDDDD" height="37.6094" rx="2.5" ry="2.5" style="stroke:#181818;stroke-width:0.5;" width="121.165" x="758.5" y="318"/><text fill="#000000" font-family="Helvetica" font-size="14" lengthAdjust="spacing" textLength="101.165" x="768.5" y="342.5332">LineItemMapper</text></g><!--entity Cart--><g class="entity" data-entity="Cart" data-source-line="34" data-uid="ent0024" id="entity_Cart"><rect fill="#DDDDDD" height="37.6094" rx="2.5" ry="2.5" style="stroke:#181818;stroke-width:0.5;" width="46.4482" x="892" y="456"/><text fill="#000000" font-family="Helvetica" font-size="14" lengthAdjust="spacing" textLength="26.4482" x="902" y="480.5332">Cart</text></g><!--entity CatalogService--><g class="entity" data-entity="CatalogService" data-source-line="35" data-uid="ent0025" id="entity_CatalogService"><rect fill="#DDDDDD" height="37.6094" rx="2.5" ry="2.5" style="stroke:#181818;stroke-width:0.5;" width="114.9375" x="1260.5" y="456"/><text fill="#000000" font-family="Helvetica" font-size="14" lengthAdjust="spacing" textLength="94.9375" x="1270.5" y="480.5332">CatalogService</text></g><!--entity CartItem--><g class="entity" data-entity="CartItem" data-source-line="36" data-uid="ent0026" id="entity_CartItem"><rect fill="#DDDDDD" height="37.6094" rx="2.5" ry="2.5" style="stroke:#181818;stroke-width:0.5;" width="73.6758" x="789" y="594"/><text fill="#000000" font-family="Helvetica" font-size="14" lengthAdjust="spacing" textLength="53.6758" x="799" y="618.5332">CartItem</text></g><!--entity Item--><g class="entity" data-entity="Item" data-source-line="37" data-uid="ent0027" id="entity_Item"><rect fill="#DDDDDD" height="37.6094" rx="2.5" ry="2.5" style="stroke:#181818;stroke-width:0.5;" width="47.2275" x="923.5" y="594"/><text fill="#000000" font-family="Helvetica" font-size="14" lengthAdjust="spacing" textLength="27.2275" x="933.5" y="618.5332">Item</text></g><!--entity CategoryMapper--><g class="entity" data-entity="CategoryMapper" data-source-line="38" data-uid="ent0028" id="entity_CategoryMapper"><rect fill="#DDDDDD" height="37.6094" rx="2.5" ry="2.5" style="stroke:#181818;stroke-width:0.5;" width="124.2754" x="1209" y="594"/><text fill="#000000" font-family="Helvetica" font-size="14" lengthAdjust="spacing" textLength="104.2754" x="1219" y="618.5332">CategoryMapper</text></g><!--entity ItemMapper--><g class="entity" data-entity="ItemMapper" data-source-line="39" data-uid="ent0029" id="entity_ItemMapper"><rect fill="#DDDDDD" height="37.6094" rx="2.5" ry="2.5" style="stroke:#181818;stroke-width:0.5;" width="94.6963" x="1045.5" y="594"/><text fill="#000000" font-family="Helvetica" font-size="14" lengthAdjust="spacing" textLength="74.6963" x="1055.5" y="618.5332">ItemMapper</text></g><!--entity ProductMapper--><g class="entity" data-entity="ProductMapper" data-source-line="40" data-uid="ent0030" id="entity_ProductMapper"><rect fill="#DDDDDD" height="37.6094" rx="2.5" ry="2.5" style="stroke:#181818;stroke-width:0.5;" width="115.7168" x="1393" y="594"/><text fill="#000000" font-family="Helvetica" font-size="14" lengthAdjust="spacing" textLength="95.7168" x="1403" y="618.5332">ProductMapper</text></g><!--entity Product--><g class="entity" data-entity="Product" data-source-line="41" data-uid="ent0031" id="entity_Product"><rect fill="#DDDDDD" height="37.6094" rx="2.5" ry="2.5" style="stroke:#181818;stroke-width:0.5;" width="68.248" x="913" y="732"/><text fill="#000000" font-family="Helvetica" font-size="14" lengthAdjust="spacing" textLength="48.248" x="923" y="756.5332">Product</text></g><!--link Cart to CartItem--><g class="link" data-entity-1="Cart" data-entity-2="CartItem" data-source-line="44" data-uid="lnk32" id="link_Cart_CartItem"><path d="M902.5,494.25 C902.5,533.7 902.5,620 902.5,620 C902.5,620 888.77,620 869.35,620" fill="none" id="Cart-to-CartItem" style="stroke:#181818;stroke-width:3;"/><polygon fill="#181818" points="863.35,620,872.35,624,868.35,620,872.35,616,863.35,620" style="stroke:#181818;stroke-width:3;"/></g><!--link Cart to Item--><g class="link" data-entity-1="Cart" data-entity-2="Item" data-source-line="45" data-uid="lnk33" id="link_Cart_Item"><path d="M933.17,494.19 C933.17,520.55 933.17,561.7 933.17,587.97" fill="none" id="Cart-to-Item" style="stroke:#181818;stroke-width:1;"/><polygon fill="#181818" points="933.17,593.97,937.17,584.97,933.17,588.97,929.17,584.97,933.17,593.97" style="stroke:#181818;stroke-width:1;"/></g><!--link Item to Product--><g class="link" data-entity-1="Item" data-entity-2="Product" data-source-line="46" data-uid="lnk34" id="link_Item_Product"><path d="M947,632.19 C947,658.55 947,699.7 947,725.97" fill="none" id="Item-to-Product" style="stroke:#181818;stroke-width:1;"/><polygon fill="#181818" points="947,731.97,951,722.97,947,726.97,943,722.97,947,731.97" style="stroke:#181818;stroke-width:1;"/></g><!--link LineItem to CartItem--><g class="link" data-entity-1="LineItem" data-entity-2="CartItem" data-source-line="47" data-uid="lnk35" id="link_LineItem_CartItem"><path d="M803.33,494.19 C803.33,520.55 803.33,561.7 803.33,587.97" fill="none" id="LineItem-to-CartItem" style="stroke:#181818;stroke-width:1;"/><polygon fill="#181818" points="803.33,593.97,807.33,584.97,803.33,588.97,799.33,584.97,803.33,593.97" style="stroke:#181818;stroke-width:1;"/></g><!--link LineItem to Item--><g class="link" data-entity-1="LineItem" data-entity-2="Item" data-source-line="48" data-uid="lnk36" id="link_LineItem_Item"><path d="M817.67,494.02 C817.67,521.49 817.67,569 817.67,569 C817.67,569 928.33,569 928.33,569 C928.33,569 928.33,575.97 928.33,587.83" fill="none" id="LineItem-to-Item" style="stroke:#181818;stroke-width:1;"/><polygon fill="#181818" points="928.33,593.83,932.33,584.83,928.33,588.83,924.33,584.83,928.33,593.83" style="stroke:#181818;stroke-width:1;"/></g><!--link Order to LineItem--><g class="link" data-entity-1="Order" data-entity-2="LineItem" data-source-line="49" data-uid="lnk37" id="link_Order_LineItem"><path d="M562,356.19 C562,392.8 562,469 562,469 C562,469 686.04,469 751.82,469" fill="none" id="Order-to-LineItem" style="stroke:#181818;stroke-width:1;"/><polygon fill="#181818" points="757.82,469,748.82,465,752.82,469,748.82,473,757.82,469" style="stroke:#181818;stroke-width:1;"/><text fill="#000000" font-family="Helvetica" font-size="13" lengthAdjust="spacing" textLength="7.23" x="595.51" y="465.4951">1</text></g><!--link Order to Account--><g class="link" data-entity-1="Order" data-entity-2="Account" data-source-line="50" data-uid="lnk38" id="link_Order_Account"><path d="M534,356.13 C534,402.86 534,519 534,519 C534,519 1712,519 1712,519 C1712,519 1712,560.51 1712,587.98" fill="none" id="Order-to-Account" style="stroke:#181818;stroke-width:2;"/><polygon fill="#181818" points="1712,593.98,1716,584.98,1712,588.98,1708,584.98,1712,593.98" style="stroke:#181818;stroke-width:2;"/><text fill="#000000" font-family="Helvetica" font-size="13" lengthAdjust="spacing" textLength="7.23" x="1071.06" y="515.4951">9</text></g><!--link Order to Cart--><g class="link" data-entity-1="Order" data-entity-2="Cart" data-source-line="51" data-uid="lnk39" id="link_Order_Cart"><path d="M548,356.09 C548,384.86 548,436 548,436 C548,436 915,436 915,436 C915,436 915,440.06 915,449.96" fill="none" id="Order-to-Cart" style="stroke:#181818;stroke-width:1;"/><polygon fill="#181818" points="915,455.96,919,446.96,915,450.96,911,446.96,915,455.96" style="stroke:#181818;stroke-width:1;"/><text fill="#000000" font-family="Helvetica" font-size="13" lengthAdjust="spacing" textLength="7.23" x="693.52" y="432.4951">2</text></g><!--link AccountService to AccountMapper--><g class="link" data-entity-1="AccountService" data-entity-2="AccountMapper" data-source-line="52" data-uid="lnk40" id="link_AccountService_AccountMapper"><path d="M1898,494.19 C1898,520.55 1898,561.7 1898,587.97" fill="none" id="AccountService-to-AccountMapper" style="stroke:#181818;stroke-width:2;"/><polygon fill="#181818" points="1898,593.97,1902,584.97,1898,588.97,1894,584.97,1898,593.97" style="stroke:#181818;stroke-width:2;"/></g><!--link AccountService to Account--><g class="link" data-entity-1="AccountService" data-entity-2="Account" data-source-line="53" data-uid="lnk41" id="link_AccountService_Account"><path d="M1839.22,482 C1804.23,482 1766.6,482 1766.6,482 C1766.6,482 1766.6,551.62 1766.6,587.95" fill="none" id="AccountService-to-Account" style="stroke:#181818;stroke-width:1;"/><polygon fill="#181818" points="1766.6,593.95,1770.6,584.95,1766.6,588.95,1762.6,584.95,1766.6,593.95" style="stroke:#181818;stroke-width:1;"/></g><!--link CatalogService to CategoryMapper--><g class="link" data-entity-1="CatalogService" data-entity-2="CategoryMapper" data-source-line="54" data-uid="lnk42" id="link_CatalogService_CategoryMapper"><path d="M1296.75,494.19 C1296.75,520.55 1296.75,561.7 1296.75,587.97" fill="none" id="CatalogService-to-CategoryMapper" style="stroke:#181818;stroke-width:1;"/><polygon fill="#181818" points="1296.75,593.97,1300.75,584.97,1296.75,588.97,1292.75,584.97,1296.75,593.97" style="stroke:#181818;stroke-width:1;"/></g><!--link CatalogService to ItemMapper--><g class="link" data-entity-1="CatalogService" data-entity-2="ItemMapper" data-source-line="55" data-uid="lnk43" id="link_CatalogService_ItemMapper"><path d="M1260.24,485 C1203.26,485 1124.62,485 1124.62,485 C1124.62,485 1124.62,552.13 1124.62,587.84" fill="none" id="CatalogService-to-ItemMapper" style="stroke:#181818;stroke-width:1;"/><polygon fill="#181818" points="1124.62,593.84,1128.62,584.84,1124.62,588.84,1120.62,584.84,1124.62,593.84" style="stroke:#181818;stroke-width:1;"/></g><!--link CatalogService to ProductMapper--><g class="link" data-entity-1="CatalogService" data-entity-2="ProductMapper" data-source-line="56" data-uid="lnk44" id="link_CatalogService_ProductMapper"><path d="M1354.25,494.19 C1354.25,532.11 1354.25,613 1354.25,613 C1354.25,613 1366.28,613 1386.77,613" fill="none" id="CatalogService-to-ProductMapper" style="stroke:#181818;stroke-width:1;"/><polygon fill="#181818" points="1392.77,613,1383.77,609,1387.77,613,1383.77,617,1392.77,613" style="stroke:#181818;stroke-width:1;"/></g><!--link OrderService to Sequence--><g class="link" data-entity-1="OrderService" data-entity-2="Sequence" data-source-line="57" data-uid="lnk45" id="link_OrderService_Sequence"><path d="M408.75,218.19 C408.75,244.55 408.75,285.7 408.75,311.97" fill="none" id="OrderService-to-Sequence" style="stroke:#181818;stroke-width:1;"/><polygon fill="#181818" points="408.75,317.97,412.75,308.97,408.75,312.97,404.75,308.97,408.75,317.97" style="stroke:#181818;stroke-width:1;"/></g><!--link OrderService to SequenceMapper--><g class="link" data-entity-1="OrderService" data-entity-2="SequenceMapper" data-source-line="58" data-uid="lnk46" id="link_OrderService_SequenceMapper"><path d="M351.5,218.19 C351.5,256.11 351.5,337 351.5,337 C351.5,337 341.7,337 322.63,337" fill="none" id="OrderService-to-SequenceMapper" style="stroke:#181818;stroke-width:1;"/><polygon fill="#181818" points="316.63,337,325.63,341,321.63,337,325.63,333,316.63,337" style="stroke:#181818;stroke-width:1;"/></g><!--link OrderService to Order--><g class="link" data-entity-1="OrderService" data-entity-2="Order" data-source-line="59" data-uid="lnk47" id="link_OrderService_Order"><path d="M441.16,211 C484.17,211 538.67,211 538.67,211 C538.67,211 538.67,276.62 538.67,311.86" fill="none" id="OrderService-to-Order" style="stroke:#181818;stroke-width:2;"/><polygon fill="#181818" points="538.67,317.86,542.67,308.86,538.67,312.86,534.67,308.86,538.67,317.86" style="stroke:#181818;stroke-width:2;"/></g><!--link OrderService to LineItemMapper--><g class="link" data-entity-1="OrderService" data-entity-2="LineItemMapper" data-source-line="60" data-uid="lnk48" id="link_OrderService_LineItemMapper"><path d="M441.32,203 C555.19,203 819,203 819,203 C819,203 819,274.75 819,311.8" fill="none" id="OrderService-to-LineItemMapper" style="stroke:#181818;stroke-width:1;"/><polygon fill="#181818" points="819,317.8,823,308.8,819,312.8,815,308.8,819,317.8" style="stroke:#181818;stroke-width:1;"/><text fill="#000000" font-family="Helvetica" font-size="13" lengthAdjust="spacing" textLength="7.23" x="679.56" y="199.4951">2</text></g><!--link OrderService to OrderMapper--><g class="link" data-entity-1="OrderService" data-entity-2="OrderMapper" data-source-line="61" data-uid="lnk49" id="link_OrderService_OrderMapper"><path d="M338.88,199 C249.44,199 74,199 74,199 C74,199 74,273.89 74,311.81" fill="none" id="OrderService-to-OrderMapper" style="stroke:#181818;stroke-width:1;"/><polygon fill="#181818" points="74,317.81,78,308.81,74,312.81,70,308.81,74,317.81" style="stroke:#181818;stroke-width:1;"/></g><!--link OrderService to Item--><g class="link" data-entity-1="OrderService" data-entity-2="Item" data-source-line="62" data-uid="lnk50" id="link_OrderService_Item"><path d="M441.19,196 C567.85,196 885.75,196 885.75,196 C885.75,196 885.75,607 885.75,607 C885.75,607 900.22,607 917.49,607" fill="none" id="OrderService-to-Item" style="stroke:#181818;stroke-width:1;"/><polygon fill="#181818" points="923.49,607,914.49,603,918.49,607,914.49,611,923.49,607" style="stroke:#181818;stroke-width:1;"/><text fill="#000000" font-family="Helvetica" font-size="13" lengthAdjust="spacing" textLength="7.23" x="877.75" y="194.5851">1</text></g><!--link OrderService to LineItem--><g class="link" data-entity-1="OrderService" data-entity-2="LineItem" data-source-line="63" data-uid="lnk51" id="link_OrderService_LineItem"><path d="M364,218.01 C364,281.46 364,482 364,482 C364,482 647.34,482 751.88,482" fill="none" id="OrderService-to-LineItem" style="stroke:#181818;stroke-width:2;"/><polygon fill="#181818" points="757.88,482,748.88,478,752.88,482,748.88,486,757.88,482" style="stroke:#181818;stroke-width:2;"/><text fill="#000000" font-family="Helvetica" font-size="13" lengthAdjust="spacing" textLength="7.23" x="420.94" y="478.4951">5</text></g><!--link OrderService to ItemMapper--><g class="link" data-entity-1="OrderService" data-entity-2="ItemMapper" data-source-line="64" data-uid="lnk52" id="link_OrderService_ItemMapper"><path d="M441,188 C597.65,188 1061.25,188 1061.25,188 C1061.25,188 1061.25,505.22 1061.25,587.91" fill="none" id="OrderService-to-ItemMapper" style="stroke:#181818;stroke-width:1;"/><polygon fill="#181818" points="1061.25,593.91,1065.25,584.91,1061.25,588.91,1057.25,584.91,1061.25,593.91" style="stroke:#181818;stroke-width:1;"/><text fill="#000000" font-family="Helvetica" font-size="13" lengthAdjust="spacing" textLength="7.23" x="946.08" y="184.4951">3</text></g><!--link AccountActionBean to Account--><g class="link" data-entity-1="AccountActionBean" data-entity-2="Account" data-source-line="65" data-uid="lnk53" id="link_AccountActionBean_Account"><path d="M1719.02,344 C1726.19,344 1730.9,344 1730.9,344 C1730.9,344 1730.9,525.97 1730.9,587.65" fill="none" id="AccountActionBean-to-Account" style="stroke:#181818;stroke-width:3;"/><polygon fill="#181818" points="1730.9,593.65,1734.9,584.65,1730.9,588.65,1726.9,584.65,1730.9,593.65" style="stroke:#181818;stroke-width:3;"/></g><!--link AccountActionBean to AbstractActionBean--><g class="link" data-entity-1="AccountActionBean" data-entity-2="AbstractActionBean" data-source-line="66" data-uid="lnk54" id="link_AccountActionBean_AbstractActionBean"><path d="M1681.62,356.19 C1681.62,382.55 1681.62,423.7 1681.62,449.97" fill="none" id="AccountActionBean-to-AbstractActionBean" style="stroke:#181818;stroke-width:1;"/><polygon fill="#181818" points="1681.62,455.97,1685.62,446.97,1681.62,450.97,1677.62,446.97,1681.62,455.97" style="stroke:#181818;stroke-width:1;"/></g><!--link AccountActionBean to AccountService--><g class="link" data-entity-1="AccountActionBean" data-entity-2="AccountService" data-source-line="67" data-uid="lnk55" id="link_AccountActionBean_AccountService"><path d="M1719.17,331 C1738.74,331 1754.7,331 1754.7,331 C1754.7,331 1754.7,469 1754.7,469 C1754.7,469 1793.73,469 1833.3,469" fill="none" id="AccountActionBean-to-AccountService" style="stroke:#181818;stroke-width:2;"/><polygon fill="#181818" points="1839.3,469,1830.3,465,1834.3,469,1830.3,473,1839.3,469" style="stroke:#181818;stroke-width:2;"/></g><!--link AccountActionBean to CatalogService--><g class="link" data-entity-1="AccountActionBean" data-entity-2="CatalogService" data-source-line="68" data-uid="lnk56" id="link_AccountActionBean_CatalogService"><path d="M1576.92,337 C1559.25,337 1545.25,337 1545.25,337 C1545.25,337 1545.25,469 1545.25,469 C1545.25,469 1448.96,469 1381.64,469" fill="none" id="AccountActionBean-to-CatalogService" style="stroke:#181818;stroke-width:1;"/><polygon fill="#181818" points="1375.64,469,1384.64,473,1380.64,469,1384.64,465,1375.64,469" style="stroke:#181818;stroke-width:1;"/><text fill="#000000" font-family="Helvetica" font-size="13" lengthAdjust="spacing" textLength="7.23" x="1534.28" y="465.4951">3</text></g><!--link CartActionBean to Cart--><g class="link" data-entity-1="CartActionBean" data-entity-2="Cart" data-source-line="69" data-uid="lnk57" id="link_CartActionBean_Cart"><path d="M1092.88,356.03 C1092.88,391.92 1092.88,466 1092.88,466 C1092.88,466 992.47,466 944.25,466" fill="none" id="CartActionBean-to-Cart" style="stroke:#181818;stroke-width:2;"/><polygon fill="#181818" points="938.25,466,947.25,470,943.25,466,947.25,462,938.25,466" style="stroke:#181818;stroke-width:2;"/></g><!--link CartActionBean to AbstractActionBean--><g class="link" data-entity-1="CartActionBean" data-entity-2="AbstractActionBean" data-source-line="70" data-uid="lnk58" id="link_CartActionBean_AbstractActionBean"><path d="M1158.67,356.04 C1158.67,365.94 1158.67,376 1158.67,376 C1158.67,376 1646.75,376 1646.75,376 C1646.75,376 1646.75,421.14 1646.75,449.91" fill="none" id="CartActionBean-to-AbstractActionBean" style="stroke:#181818;stroke-width:1;"/><polygon fill="#181818" points="1646.75,455.91,1650.75,446.91,1646.75,450.91,1642.75,446.91,1646.75,455.91" style="stroke:#181818;stroke-width:1;"/><text fill="#000000" font-family="Helvetica" font-size="13" lengthAdjust="spacing" textLength="7.23" x="1424.69" y="372.4951">1</text></g><!--link CartActionBean to CatalogService--><g class="link" data-entity-1="CartActionBean" data-entity-2="CatalogService" data-source-line="71" data-uid="lnk59" id="link_CartActionBean_CatalogService"><path d="M1176.83,356.19 C1176.83,394.11 1176.83,475 1176.83,475 C1176.83,475 1215.19,475 1254.17,475" fill="none" id="CartActionBean-to-CatalogService" style="stroke:#181818;stroke-width:1;"/><polygon fill="#181818" points="1260.17,475,1251.17,471,1255.17,475,1251.17,479,1260.17,475" style="stroke:#181818;stroke-width:1;"/></g><!--link CartActionBean to CartItem--><g class="link" data-entity-1="CartActionBean" data-entity-2="CartItem" data-source-line="72" data-uid="lnk60" id="link_CartActionBean_CartItem"><path d="M1108.75,356.1 C1108.75,407.35 1108.75,544 1108.75,544 C1108.75,544 847.5,544 847.5,544 C847.5,544 847.5,567.36 847.5,587.78" fill="none" id="CartActionBean-to-CartItem" style="stroke:#181818;stroke-width:1;"/><polygon fill="#181818" points="847.5,593.78,851.5,584.78,847.5,588.78,843.5,584.78,847.5,593.78" style="stroke:#181818;stroke-width:1;"/></g><!--link CartActionBean to Item--><g class="link" data-entity-1="CartActionBean" data-entity-2="Item" data-source-line="73" data-uid="lnk61" id="link_CartActionBean_Item"><path d="M1076.75,337 C1052.93,337 1031,337 1031,337 C1031,337 1031,613 1031,613 C1031,613 1001.68,613 976.85,613" fill="none" id="CartActionBean-to-Item" style="stroke:#181818;stroke-width:1;"/><polygon fill="#181818" points="970.85,613,979.85,617,975.85,613,979.85,609,970.85,613" style="stroke:#181818;stroke-width:1;"/></g><!--link CatalogActionBean to AbstractActionBean--><g class="link" data-entity-1="CatalogActionBean" data-entity-2="AbstractActionBean" data-source-line="74" data-uid="lnk62" id="link_CatalogActionBean_AbstractActionBean"><path d="M1384.25,356.25 C1384.25,395.7 1384.25,482 1384.25,482 C1384.25,482 1490.21,482 1567.4,482" fill="none" id="CatalogActionBean-to-AbstractActionBean" style="stroke:#181818;stroke-width:1;"/><polygon fill="#181818" points="1573.4,482,1564.4,478,1568.4,482,1564.4,486,1573.4,482" style="stroke:#181818;stroke-width:1;"/><text fill="#000000" font-family="Helvetica" font-size="13" lengthAdjust="spacing" textLength="7.23" x="1407.95" y="478.4951">1</text></g><!--link CatalogActionBean to CatalogService--><g class="link" data-entity-1="CatalogActionBean" data-entity-2="CatalogService" data-source-line="75" data-uid="lnk63" id="link_CatalogActionBean_CatalogService"><path d="M1337.17,356.19 C1337.17,382.55 1337.17,423.7 1337.17,449.97" fill="none" id="CatalogActionBean-to-CatalogService" style="stroke:#181818;stroke-width:2;"/><polygon fill="#181818" points="1337.17,455.97,1341.17,446.97,1337.17,450.97,1333.17,446.97,1337.17,455.97" style="stroke:#181818;stroke-width:2;"/></g><!--link CatalogActionBean to Item--><g class="link" data-entity-1="CatalogActionBean" data-entity-2="Item" data-source-line="76" data-uid="lnk64" id="link_CatalogActionBean_Item"><path d="M1298.83,356.12 C1298.83,379.5 1298.83,416 1298.83,416 C1298.83,416 955,416 955,416 C955,416 955,538.18 955,587.75" fill="none" id="CatalogActionBean-to-Item" style="stroke:#181818;stroke-width:1;"/><polygon fill="#181818" points="955,593.75,959,584.75,955,588.75,951,584.75,955,593.75" style="stroke:#181818;stroke-width:1;"/></g><!--link OrderActionBean to Order--><g class="link" data-entity-1="OrderActionBean" data-entity-2="Order" data-source-line="77" data-uid="lnk65" id="link_OrderActionBean_Order"><path d="M443.5,80.09 C443.5,108.86 443.5,160 443.5,160 C443.5,160 557.33,160 557.33,160 C557.33,160 557.33,265.85 557.33,311.72" fill="none" id="OrderActionBean-to-Order" style="stroke:#181818;stroke-width:2;"/><polygon fill="#181818" points="557.33,317.72,561.33,308.72,557.33,312.72,553.33,308.72,557.33,317.72" style="stroke:#181818;stroke-width:2;"/></g><!--link OrderActionBean to AbstractActionBean--><g class="link" data-entity-1="OrderActionBean" data-entity-2="AbstractActionBean" data-source-line="78" data-uid="lnk66" id="link_OrderActionBean_AbstractActionBean"><path d="M332.75,80.46 C332.75,151.96 332.75,396 332.75,396 C332.75,396 1611.88,396 1611.88,396 C1611.88,396 1611.88,426.5 1611.88,449.88" fill="none" id="OrderActionBean-to-AbstractActionBean" style="stroke:#181818;stroke-width:1;"/><polygon fill="#181818" points="1611.88,455.88,1615.88,446.88,1611.88,450.88,1607.88,446.88,1611.88,455.88" style="stroke:#181818;stroke-width:1;"/><text fill="#000000" font-family="Helvetica" font-size="13" lengthAdjust="spacing" textLength="7.23" x="836.48" y="392.4951">1</text></g><!--link OrderActionBean to Account--><g class="link" data-entity-1="OrderActionBean" data-entity-2="Account" data-source-line="79" data-uid="lnk67" id="link_OrderActionBean_Account"><path d="M451,80.04 C451,89.94 451,100 451,100 C451,100 1742.8,100 1742.8,100 C1742.8,100 1742.8,494.7 1742.8,587.83" fill="none" id="OrderActionBean-to-Account" style="stroke:#181818;stroke-width:1;"/><polygon fill="#181818" points="1742.8,593.83,1746.8,584.83,1742.8,588.83,1738.8,584.83,1742.8,593.83" style="stroke:#181818;stroke-width:1;"/><text fill="#000000" font-family="Helvetica" font-size="13" lengthAdjust="spacing" textLength="7.23" x="1325.83" y="96.4951">2</text></g><!--link OrderActionBean to OrderService--><g class="link" data-entity-1="OrderActionBean" data-entity-2="OrderService" data-source-line="80" data-uid="lnk68" id="link_OrderActionBean_OrderService"><path d="M390,80.19 C390,106.55 390,147.7 390,173.97" fill="none" id="OrderActionBean-to-OrderService" style="stroke:#181818;stroke-width:1;"/><polygon fill="#181818" points="390,179.97,394,170.97,390,174.97,386,170.97,390,179.97" style="stroke:#181818;stroke-width:1;"/></g><!--link OrderActionBean to AccountActionBean--><g class="link" data-entity-1="OrderActionBean" data-entity-2="AccountActionBean" data-source-line="81" data-uid="lnk69" id="link_OrderActionBean_AccountActionBean"><path d="M448.5,80.32 C448.5,97.53 448.5,120 448.5,120 C448.5,120 1648,120 1648,120 C1648,120 1648,258.63 1648,311.74" fill="none" id="OrderActionBean-to-AccountActionBean" style="stroke:#181818;stroke-width:1;"/><polygon fill="#181818" points="1648,317.74,1652,308.74,1648,312.74,1644,308.74,1648,317.74" style="stroke:#181818;stroke-width:1;"/><text fill="#000000" font-family="Helvetica" font-size="13" lengthAdjust="spacing" textLength="7.23" x="1119.28" y="116.4951">4</text></g><!--link OrderActionBean to CartActionBean--><g class="link" data-entity-1="OrderActionBean" data-entity-2="CartActionBean" data-source-line="82" data-uid="lnk70" id="link_OrderActionBean_CartActionBean"><path d="M446,80.12 C446,103.5 446,140 446,140 C446,140 1136,140 1136,140 C1136,140 1136,262.18 1136,311.75" fill="none" id="OrderActionBean-to-CartActionBean" style="stroke:#181818;stroke-width:1;"/><polygon fill="#181818" points="1136,317.75,1140,308.75,1136,312.75,1132,308.75,1136,317.75" style="stroke:#181818;stroke-width:1;"/><text fill="#000000" font-family="Helvetica" font-size="13" lengthAdjust="spacing" textLength="7.23" x="841.94" y="136.4951">2</text></g><!--SRC=[dLLHQzim47xthn3PSo59jy525sWxnWRhMjQ-ZJ4q- -QOE98dAuKozjzdAvPyaYp997u8klk-kqzt9wdTLwoXWXv80R_fiPOVEPDVwG789wYVGLOvpNPL0UJggk52RhTPQnWDpVUqX9lkhnJyo8fRNdD1NdrGFmGKa4lAode6jAuOo9S6I9Tinv63yG9QQCZR9GvCsRuthfRBR5135lUY0757MRSu09EF89wh71Ow6VcRaL4HMNGVRSd3_RUddzDCitKZr-8hqdKkAyvkW38LpR55Y4QTPkcaavH7-7C4Di3r8Wwzeqq3mYASJ15Heve820L6QqFubuqTkSxphkVoh9w4k8ck33IdBvurGFxLIa5pZ-sPexbnQsrJb8RgQbcY90oVRC5d2OUpwZz9J1J_bWgtThOfH9EqvgN7TAn1CfHSl6YEMan3ltHtJByj1TMBE1GrnJQ52s2s7Tqi7XBR58vijEl5DDJ0mX1T9xGzsnIEZ2YfQZm8NXnpFDYM9Kh2S3pOgh0Nt-MkolSCslRzvO-BhIc8xrxrRkLIrV1SGuhCZ8E7CB734EK-tPkUpx0sP3M1MVSOVO0tv5qeZDhOXgmpvqO9nJgLE8PU8NJcZE14UZmTIVWu6KceDHAPzHHwMFsGpOIbOgfwAMyYe7Fq-pR42UXXJ23jqGYgH5FqPaP48_Goyvy-x_Je8OX3J_FYFOK95fx9GVASFCxKz1jnNX8lIU-FWGBwLV5JD5lE33YwZcB00UG-TFDbnvZhIUN9NEDb5ekBZiqPmjCySoEkqs1y7cQ7jXIzJjESLdR2_WC0]--></g></svg>