<svg xmlns="http://www.w3.org/2000/svg" xmlns:xlink="http://www.w3.org/1999/xlink" contentStyleType="text/css" data-diagram-type="DESCRIPTION" height="793px" preserveAspectRatio="none" style="width:2178px;height:793px;background:#FFFFFF;" version="1.1" viewBox="0 0 2178 793" width="2178px" zoomAndPan="magnify"><defs/><g><!--cluster order--><g class="cluster" data-entity="order" data-source-line="8" data-uid="ent0002" id="cluster_order"><path d="M8.5,6 L45.2861,6 A3.75,3.75 0 0 1 47.7861,8.5 L54.7861,29.6094 L833.5,29.6094 A2.5,2.5 0 0 1 836,32.1094 L836,645.5 A2.5,2.5 0 0 1 833.5,648 L8.5,648 A2.5,2.5 0 0 1 6,645.5 L6,8.5 A2.5,2.5 0 0 1 8.5,6" fill="#DDDDDD" style="stroke:#000000;stroke-width:1.5;"/><line style="stroke:#000000;stroke-width:1.5;" x1="6" x2="54.7861" y1="29.6094" y2="29.6094"/><text fill="#000000" font-family="Helvetica" font-size="14" font-weight="bold" lengthAdjust="spacing" textLength="35.7861" x="10" y="22.5332">order</text></g><!--cluster catalog--><g class="cluster" data-entity="catalog" data-source-line="23" data-uid="ent0015" id="cluster_catalog"><path d="M1557.5,420 L1607.5137,420 A3.75,3.75 0 0 1 1610.0137,422.5 L1617.0137,443.6094 L2168.5,443.6094 A2.5,2.5 0 0 1 2171,446.1094 L2171,783.5 A2.5,2.5 0 0 1 2168.5,786 L1557.5,786 A2.5,2.5 0 0 1 1555,783.5 L1555,422.5 A2.5,2.5 0 0 1 1557.5,420" fill="#DDDDDD" style="stroke:#000000;stroke-width:1.5;"/><line style="stroke:#000000;stroke-width:1.5;" x1="1555" x2="1617.0137" y1="443.6094" y2="443.6094"/><text fill="#000000" font-family="Helvetica" font-size="14" font-weight="bold" lengthAdjust="spacing" textLength="49.0137" x="1559" y="436.5332">catalog</text></g><!--cluster account--><g class="cluster" data-entity="account" data-source-line="37" data-uid="ent0027" id="cluster_account"><path d="M988.5,144 L1043.1758,144 A3.75,3.75 0 0 1 1045.6758,146.5 L1052.6758,167.6094 L1528.5,167.6094 A2.5,2.5 0 0 1 1531,170.1094 L1531,507.5 A2.5,2.5 0 0 1 1528.5,510 L988.5,510 A2.5,2.5 0 0 1 986,507.5 L986,146.5 A2.5,2.5 0 0 1 988.5,144" fill="#DDDDDD" style="stroke:#000000;stroke-width:1.5;"/><line style="stroke:#000000;stroke-width:1.5;" x1="986" x2="1052.6758" y1="167.6094" y2="167.6094"/><text fill="#000000" font-family="Helvetica" font-size="14" font-weight="bold" lengthAdjust="spacing" textLength="53.6758" x="990" y="160.5332">account</text></g><!--entity PORT_order--><!--entity OrderActionBean--><g class="entity" data-entity="OrderActionBean" data-source-line="10" data-uid="ent0004" id="entity_OrderActionBean"><rect fill="#DDDDDD" height="37.6094" rx="2.5" ry="2.5" style="stroke:#181818;stroke-width:0.5;" width="127.3926" x="570.5" y="42"/><text fill="#000000" font-family="Helvetica" font-size="14" lengthAdjust="spacing" textLength="107.3926" x="580.5" y="66.5332">OrderActionBean</text></g><!--entity _duplicate__order___AbstractActionBean--><g class="entity" data-entity="_duplicate__order___AbstractActionBean" data-source-line="11" data-uid="ent0005" id="entity__duplicate__order___AbstractActionBean"><rect fill="#DDDDDD" height="37.6094" rx="2.5" ry="2.5" style="stroke:#181818;stroke-width:0.5;" width="256.5645" x="562.5" y="180"/><text fill="#000000" font-family="Helvetica" font-size="14" lengthAdjust="spacing" textLength="236.5645" x="572.5" y="204.5332">[duplicate (order)] AbstractActionBean</text></g><!--entity OrderService--><g class="entity" data-entity="OrderService" data-source-line="12" data-uid="ent0006" id="entity_OrderService"><rect fill="#DDDDDD" height="37.6094" rx="2.5" ry="2.5" style="stroke:#181818;stroke-width:0.5;" width="102.4688" x="338" y="180"/><text fill="#000000" font-family="Helvetica" font-size="14" lengthAdjust="spacing" textLength="82.4688" x="348" y="204.5332">OrderService</text></g><!--entity Sequence--><g class="entity" data-entity="Sequence" data-source-line="13" data-uid="ent0007" id="entity_Sequence"><rect fill="#DDDDDD" height="37.6094" rx="2.5" ry="2.5" style="stroke:#181818;stroke-width:0.5;" width="83.0547" x="22.5" y="318"/><text fill="#000000" font-family="Helvetica" font-size="14" lengthAdjust="spacing" textLength="63.0547" x="32.5" y="342.5332">Sequence</text></g><!--entity SequenceMapper--><g class="entity" data-entity="SequenceMapper" data-source-line="14" data-uid="ent0008" id="entity_SequenceMapper"><rect fill="#DDDDDD" height="37.6094" rx="2.5" ry="2.5" style="stroke:#181818;stroke-width:0.5;" width="130.5234" x="572.5" y="318"/><text fill="#000000" font-family="Helvetica" font-size="14" lengthAdjust="spacing" textLength="110.5234" x="582.5" y="342.5332">SequenceMapper</text></g><!--entity Order--><g class="entity" data-entity="Order" data-source-line="15" data-uid="ent0009" id="entity_Order"><rect fill="#DDDDDD" height="37.6094" rx="2.5" ry="2.5" style="stroke:#181818;stroke-width:0.5;" width="55.7861" x="764" y="318"/><text fill="#000000" font-family="Helvetica" font-size="14" lengthAdjust="spacing" textLength="35.7861" x="774" y="342.5332">Order</text></g><!--entity LineItemMapper--><g class="entity" data-entity="LineItemMapper" data-source-line="16" data-uid="ent0010" id="entity_LineItemMapper"><rect fill="#DDDDDD" height="37.6094" rx="2.5" ry="2.5" style="stroke:#181818;stroke-width:0.5;" width="121.165" x="165.5" y="318"/><text fill="#000000" font-family="Helvetica" font-size="14" lengthAdjust="spacing" textLength="101.165" x="175.5" y="342.5332">LineItemMapper</text></g><!--entity OrderMapper--><g class="entity" data-entity="OrderMapper" data-source-line="17" data-uid="ent0011" id="entity_OrderMapper"><rect fill="#DDDDDD" height="37.6094" rx="2.5" ry="2.5" style="stroke:#181818;stroke-width:0.5;" width="103.2549" x="346.5" y="318"/><text fill="#000000" font-family="Helvetica" font-size="14" lengthAdjust="spacing" textLength="83.2549" x="356.5" y="342.5332">OrderMapper</text></g><!--entity LineItem--><g class="entity" data-entity="LineItem" data-source-line="18" data-uid="ent0012" id="entity_LineItem"><rect fill="#DDDDDD" height="37.6094" rx="2.5" ry="2.5" style="stroke:#181818;stroke-width:0.5;" width="73.6963" x="640" y="456"/><text fill="#000000" font-family="Helvetica" font-size="14" lengthAdjust="spacing" textLength="53.6963" x="650" y="480.5332">LineItem</text></g><!--entity Cart--><g class="entity" data-entity="Cart" data-source-line="19" data-uid="ent0013" id="entity_Cart"><rect fill="#DDDDDD" height="37.6094" rx="2.5" ry="2.5" style="stroke:#181818;stroke-width:0.5;" width="46.4482" x="774" y="456"/><text fill="#000000" font-family="Helvetica" font-size="14" lengthAdjust="spacing" textLength="26.4482" x="784" y="480.5332">Cart</text></g><!--entity CartItem--><g class="entity" data-entity="CartItem" data-source-line="20" data-uid="ent0014" id="entity_CartItem"><rect fill="#DDDDDD" height="37.6094" rx="2.5" ry="2.5" style="stroke:#181818;stroke-width:0.5;" width="73.6758" x="746" y="594"/><text fill="#000000" font-family="Helvetica" font-size="14" lengthAdjust="spacing" textLength="53.6758" x="756" y="618.5332">CartItem</text></g><!--entity PORT_catalog--><!--entity CartActionBean--><g class="entity" data-entity="CartActionBean" data-source-line="25" data-uid="ent0017" id="entity_CartActionBean"><rect fill="#DDDDDD" height="37.6094" rx="2.5" ry="2.5" style="stroke:#181818;stroke-width:0.5;" width="118.0547" x="1709" y="456"/><text fill="#000000" font-family="Helvetica" font-size="14" lengthAdjust="spacing" textLength="98.0547" x="1719" y="480.5332">CartActionBean</text></g><!--entity CatalogActionBean--><g class="entity" data-entity="CatalogActionBean" data-source-line="26" data-uid="ent0018" id="entity_CatalogActionBean"><rect fill="#DDDDDD" height="37.6094" rx="2.5" ry="2.5" style="stroke:#181818;stroke-width:0.5;" width="139.8613" x="1887" y="456"/><text fill="#000000" font-family="Helvetica" font-size="14" lengthAdjust="spacing" textLength="119.8613" x="1897" y="480.5332">CatalogActionBean</text></g><!--entity Category--><g class="entity" data-entity="Category" data-source-line="27" data-uid="ent0019" id="entity_Category"><rect fill="#DDDDDD" height="37.6094" rx="2.5" ry="2.5" style="stroke:#181818;stroke-width:0.5;" width="76.8066" x="1571.5" y="456"/><text fill="#000000" font-family="Helvetica" font-size="14" lengthAdjust="spacing" textLength="56.8066" x="1581.5" y="480.5332">Category</text></g><!--entity _duplicate__catalog___AbstractActionBean--><g class="entity" data-entity="_duplicate__catalog___AbstractActionBean" data-source-line="28" data-uid="ent0020" id="entity__duplicate__catalog___AbstractActionBean"><rect fill="#DDDDDD" height="37.6094" rx="2.5" ry="2.5" style="stroke:#181818;stroke-width:0.5;" width="269.0264" x="1678.5" y="594"/><text fill="#000000" font-family="Helvetica" font-size="14" lengthAdjust="spacing" textLength="249.0264" x="1688.5" y="618.5332">[duplicate (catalog)] AbstractActionBean</text></g><!--entity CatalogService--><g class="entity" data-entity="CatalogService" data-source-line="29" data-uid="ent0021" id="entity_CatalogService"><rect fill="#DDDDDD" height="37.6094" rx="2.5" ry="2.5" style="stroke:#181818;stroke-width:0.5;" width="114.9375" x="2007.5" y="594"/><text fill="#000000" font-family="Helvetica" font-size="14" lengthAdjust="spacing" textLength="94.9375" x="2017.5" y="618.5332">CatalogService</text></g><!--entity Item--><g class="entity" data-entity="Item" data-source-line="30" data-uid="ent0022" id="entity_Item"><rect fill="#DDDDDD" height="37.6094" rx="2.5" ry="2.5" style="stroke:#181818;stroke-width:0.5;" width="47.2275" x="1571.5" y="594"/><text fill="#000000" font-family="Helvetica" font-size="14" lengthAdjust="spacing" textLength="27.2275" x="1581.5" y="618.5332">Item</text></g><!--entity CategoryMapper--><g class="entity" data-entity="CategoryMapper" data-source-line="31" data-uid="ent0023" id="entity_CategoryMapper"><rect fill="#DDDDDD" height="37.6094" rx="2.5" ry="2.5" style="stroke:#181818;stroke-width:0.5;" width="124.2754" x="1855" y="732"/><text fill="#000000" font-family="Helvetica" font-size="14" lengthAdjust="spacing" textLength="104.2754" x="1865" y="756.5332">CategoryMapper</text></g><!--entity ItemMapper--><g class="entity" data-entity="ItemMapper" data-source-line="32" data-uid="ent0024" id="entity_ItemMapper"><rect fill="#DDDDDD" height="37.6094" rx="2.5" ry="2.5" style="stroke:#181818;stroke-width:0.5;" width="94.6963" x="1571.5" y="732"/><text fill="#000000" font-family="Helvetica" font-size="14" lengthAdjust="spacing" textLength="74.6963" x="1581.5" y="756.5332">ItemMapper</text></g><!--entity ProductMapper--><g class="entity" data-entity="ProductMapper" data-source-line="33" data-uid="ent0025" id="entity_ProductMapper"><rect fill="#DDDDDD" height="37.6094" rx="2.5" ry="2.5" style="stroke:#181818;stroke-width:0.5;" width="115.7168" x="2039" y="732"/><text fill="#000000" font-family="Helvetica" font-size="14" lengthAdjust="spacing" textLength="95.7168" x="2049" y="756.5332">ProductMapper</text></g><!--entity Product--><g class="entity" data-entity="Product" data-source-line="34" data-uid="ent0026" id="entity_Product"><rect fill="#DDDDDD" height="37.6094" rx="2.5" ry="2.5" style="stroke:#181818;stroke-width:0.5;" width="68.248" x="1727" y="732"/><text fill="#000000" font-family="Helvetica" font-size="14" lengthAdjust="spacing" textLength="48.248" x="1737" y="756.5332">Product</text></g><!--entity PORT_account--><!--entity AccountActionBean--><g class="entity" data-entity="AccountActionBean" data-source-line="39" data-uid="ent0029" id="entity_AccountActionBean"><rect fill="#DDDDDD" height="37.6094" rx="2.5" ry="2.5" style="stroke:#181818;stroke-width:0.5;" width="142.1924" x="1130" y="180"/><text fill="#000000" font-family="Helvetica" font-size="14" lengthAdjust="spacing" textLength="122.1924" x="1140" y="204.5332">AccountActionBean</text></g><!--entity _duplicate__account___AbstractActionBean--><g class="entity" data-entity="_duplicate__account___AbstractActionBean" data-source-line="40" data-uid="ent0030" id="entity__duplicate__account___AbstractActionBean"><rect fill="#DDDDDD" height="37.6094" rx="2.5" ry="2.5" style="stroke:#181818;stroke-width:0.5;" width="272.916" x="1064.5" y="318"/><text fill="#000000" font-family="Helvetica" font-size="14" lengthAdjust="spacing" textLength="252.916" x="1074.5" y="342.5332">[duplicate (account)] AbstractActionBean</text></g><!--entity AccountService--><g class="entity" data-entity="AccountService" data-source-line="41" data-uid="ent0031" id="entity_AccountService"><rect fill="#DDDDDD" height="37.6094" rx="2.5" ry="2.5" style="stroke:#181818;stroke-width:0.5;" width="117.2686" x="1397.5" y="318"/><text fill="#000000" font-family="Helvetica" font-size="14" lengthAdjust="spacing" textLength="97.2686" x="1407.5" y="342.5332">AccountService</text></g><!--entity AccountMapper--><g class="entity" data-entity="AccountMapper" data-source-line="42" data-uid="ent0032" id="entity_AccountMapper"><rect fill="#DDDDDD" height="37.6094" rx="2.5" ry="2.5" style="stroke:#181818;stroke-width:0.5;" width="118.0547" x="1393" y="456"/><text fill="#000000" font-family="Helvetica" font-size="14" lengthAdjust="spacing" textLength="98.0547" x="1403" y="480.5332">AccountMapper</text></g><!--entity Account--><g class="entity" data-entity="Account" data-source-line="43" data-uid="ent0033" id="entity_Account"><rect fill="#DDDDDD" height="37.6094" rx="2.5" ry="2.5" style="stroke:#181818;stroke-width:0.5;" width="70.5859" x="1131.5" y="456"/><text fill="#000000" font-family="Helvetica" font-size="14" lengthAdjust="spacing" textLength="50.5859" x="1141.5" y="480.5332">Account</text></g><!--link Cart to CartItem--><g class="link" data-entity-1="Cart" data-entity-2="CartItem" data-source-line="46" data-uid="lnk34" id="link_Cart_CartItem"><path d="M789.33,494.19 C789.33,520.55 789.33,561.7 789.33,587.97" fill="none" id="Cart-to-CartItem" style="stroke:#181818;stroke-width:3;"/><polygon fill="#181818" points="789.33,593.97,793.33,584.97,789.33,588.97,785.33,584.97,789.33,593.97" style="stroke:#181818;stroke-width:3;"/></g><!--link Cart to Item--><g class="link" data-entity-1="Cart" data-entity-2="Item" data-source-line="47" data-uid="lnk35" id="link_Cart_Item"><path d="M820.12,485 C890.6,485 1098,485 1098,485 C1098,485 1098,613 1098,613 C1098,613 1466.59,613 1565.36,613" fill="none" id="Cart-to-Item" style="stroke:#181818;stroke-width:1;"/><polygon fill="#181818" points="1571.36,613,1562.36,609,1566.36,613,1562.36,617,1571.36,613" style="stroke:#181818;stroke-width:1;"/><text fill="#000000" font-family="Helvetica" font-size="13" lengthAdjust="spacing" textLength="7.23" x="1123.74" y="609.4951">2</text></g><!--link Item to Product--><g class="link" data-entity-1="Item" data-entity-2="Product" data-source-line="48" data-uid="lnk36" id="link_Item_Product"><path d="M1618.85,620 C1642.27,620 1674.5,620 1674.5,620 C1674.5,620 1674.5,751 1674.5,751 C1674.5,751 1696.63,751 1720.81,751" fill="none" id="Item-to-Product" style="stroke:#181818;stroke-width:1;"/><polygon fill="#181818" points="1726.81,751,1717.81,747,1721.81,751,1717.81,755,1726.81,751" style="stroke:#181818;stroke-width:1;"/></g><!--link LineItem to CartItem--><g class="link" data-entity-1="LineItem" data-entity-2="CartItem" data-source-line="49" data-uid="lnk37" id="link_LineItem_CartItem"><path d="M714.17,482 C734.26,482 755,482 755,482 C755,482 755,551.62 755,587.95" fill="none" id="LineItem-to-CartItem" style="stroke:#181818;stroke-width:1;"/><polygon fill="#181818" points="755,593.95,759,584.95,755,588.95,751,584.95,755,593.95" style="stroke:#181818;stroke-width:1;"/></g><!--link LineItem to Item--><g class="link" data-entity-1="LineItem" data-entity-2="Item" data-source-line="50" data-uid="lnk38" id="link_LineItem_Item"><path d="M677,494.13 C677,509.32 677,528 677,528 C677,528 1595,528 1595,528 C1595,528 1595,562.63 1595,587.71" fill="none" id="LineItem-to-Item" style="stroke:#181818;stroke-width:1;"/><polygon fill="#181818" points="1595,593.71,1599,584.71,1595,588.71,1591,584.71,1595,593.71" style="stroke:#181818;stroke-width:1;"/><text fill="#000000" font-family="Helvetica" font-size="13" lengthAdjust="spacing" textLength="7.23" x="1143.92" y="524.4951">2</text></g><!--link Order to LineItem--><g class="link" data-entity-1="Order" data-entity-2="LineItem" data-source-line="51" data-uid="lnk39" id="link_Order_LineItem"><path d="M769,356.19 C769,392.8 769,469 769,469 C769,469 745.69,469 720.15,469" fill="none" id="Order-to-LineItem" style="stroke:#181818;stroke-width:1;"/><polygon fill="#181818" points="714.15,469,723.15,473,719.15,469,723.15,465,714.15,469" style="stroke:#181818;stroke-width:1;"/></g><!--link Order to Account--><g class="link" data-entity-1="Order" data-entity-2="Account" data-source-line="52" data-uid="lnk40" id="link_Order_Account"><path d="M820.2,337 C852.64,337 901.5,337 901.5,337 C901.5,337 901.5,475 901.5,475 C901.5,475 1053.12,475 1125.47,475" fill="none" id="Order-to-Account" style="stroke:#181818;stroke-width:2;"/><polygon fill="#181818" points="1131.47,475,1122.47,471,1126.47,475,1122.47,479,1131.47,475" style="stroke:#181818;stroke-width:2;"/><text fill="#000000" font-family="Helvetica" font-size="13" lengthAdjust="spacing" textLength="7.23" x="898.83" y="471.4951">9</text></g><!--link Order to Cart--><g class="link" data-entity-1="Order" data-entity-2="Cart" data-source-line="53" data-uid="lnk41" id="link_Order_Cart"><path d="M789.33,356.19 C789.33,382.55 789.33,423.7 789.33,449.97" fill="none" id="Order-to-Cart" style="stroke:#181818;stroke-width:1;"/><polygon fill="#181818" points="789.33,455.97,793.33,446.97,789.33,450.97,785.33,446.97,789.33,455.97" style="stroke:#181818;stroke-width:1;"/></g><!--link AccountService to AccountMapper--><g class="link" data-entity-1="AccountService" data-entity-2="AccountMapper" data-source-line="54" data-uid="lnk42" id="link_AccountService_AccountMapper"><path d="M1454.25,356.19 C1454.25,382.55 1454.25,423.7 1454.25,449.97" fill="none" id="AccountService-to-AccountMapper" style="stroke:#181818;stroke-width:2;"/><polygon fill="#181818" points="1454.25,455.97,1458.25,446.97,1454.25,450.97,1450.25,446.97,1454.25,455.97" style="stroke:#181818;stroke-width:2;"/></g><!--link AccountService to Account--><g class="link" data-entity-1="AccountService" data-entity-2="Account" data-source-line="55" data-uid="lnk43" id="link_AccountService_Account"><path d="M1397.25,344 C1379.8,344 1365.25,344 1365.25,344 C1365.25,344 1365.25,482 1365.25,482 C1365.25,482 1266.03,482 1208.9,482" fill="none" id="AccountService-to-Account" style="stroke:#181818;stroke-width:1;"/><polygon fill="#181818" points="1202.9,482,1211.9,486,1207.9,482,1211.9,478,1202.9,482" style="stroke:#181818;stroke-width:1;"/></g><!--link CatalogService to CategoryMapper--><g class="link" data-entity-1="CatalogService" data-entity-2="CategoryMapper" data-source-line="56" data-uid="lnk44" id="link_CatalogService_CategoryMapper"><path d="M2028.5,632.19 C2028.5,670.11 2028.5,751 2028.5,751 C2028.5,751 2010.81,751 1985.27,751" fill="none" id="CatalogService-to-CategoryMapper" style="stroke:#181818;stroke-width:1;"/><polygon fill="#181818" points="1979.27,751,1988.27,755,1984.27,751,1988.27,747,1979.27,751" style="stroke:#181818;stroke-width:1;"/></g><!--link CatalogService to ItemMapper--><g class="link" data-entity-1="CatalogService" data-entity-2="ItemMapper" data-source-line="57" data-uid="lnk45" id="link_CatalogService_ItemMapper"><path d="M2018,632.22 C2018,652.64 2018,682 2018,682 C2018,682 1657.5,682 1657.5,682 C1657.5,682 1657.5,705.36 1657.5,725.78" fill="none" id="CatalogService-to-ItemMapper" style="stroke:#181818;stroke-width:1;"/><polygon fill="#181818" points="1657.5,731.78,1661.5,722.78,1657.5,726.78,1653.5,722.78,1657.5,731.78" style="stroke:#181818;stroke-width:1;"/></g><!--link CatalogService to ProductMapper--><g class="link" data-entity-1="CatalogService" data-entity-2="ProductMapper" data-source-line="58" data-uid="lnk46" id="link_CatalogService_ProductMapper"><path d="M2080.75,632.19 C2080.75,658.55 2080.75,699.7 2080.75,725.97" fill="none" id="CatalogService-to-ProductMapper" style="stroke:#181818;stroke-width:1;"/><polygon fill="#181818" points="2080.75,731.97,2084.75,722.97,2080.75,726.97,2076.75,722.97,2080.75,731.97" style="stroke:#181818;stroke-width:1;"/></g><!--link OrderService to Sequence--><g class="link" data-entity-1="OrderService" data-entity-2="Sequence" data-source-line="59" data-uid="lnk47" id="link_OrderService_Sequence"><path d="M337.86,199 C246.34,199 64,199 64,199 C64,199 64,273.89 64,311.81" fill="none" id="OrderService-to-Sequence" style="stroke:#181818;stroke-width:1;"/><polygon fill="#181818" points="64,317.81,68,308.81,64,312.81,60,308.81,64,317.81" style="stroke:#181818;stroke-width:1;"/></g><!--link OrderService to SequenceMapper--><g class="link" data-entity-1="OrderService" data-entity-2="SequenceMapper" data-source-line="60" data-uid="lnk48" id="link_OrderService_SequenceMapper"><path d="M440.32,193 C471.75,193 506,193 506,193 C506,193 506,337 506,337 C506,337 533.26,337 566.39,337" fill="none" id="OrderService-to-SequenceMapper" style="stroke:#181818;stroke-width:1;"/><polygon fill="#181818" points="572.39,337,563.39,333,567.39,337,563.39,341,572.39,337" style="stroke:#181818;stroke-width:1;"/></g><!--link OrderService to Order--><g class="link" data-entity-1="OrderService" data-entity-2="Order" data-source-line="61" data-uid="lnk49" id="link_OrderService_Order"><path d="M408.83,218.02 C408.83,245.49 408.83,293 408.83,293 C408.83,293 782.5,293 782.5,293 C782.5,293 782.5,299.97 782.5,311.83" fill="none" id="OrderService-to-Order" style="stroke:#181818;stroke-width:2;"/><polygon fill="#181818" points="782.5,317.83,786.5,308.83,782.5,312.83,778.5,308.83,782.5,317.83" style="stroke:#181818;stroke-width:2;"/></g><!--link OrderService to LineItemMapper--><g class="link" data-entity-1="OrderService" data-entity-2="LineItemMapper" data-source-line="62" data-uid="lnk50" id="link_OrderService_LineItemMapper"><path d="M340.12,218.19 C340.12,256.11 340.12,337 340.12,337 C340.12,337 319.99,337 292.74,337" fill="none" id="OrderService-to-LineItemMapper" style="stroke:#181818;stroke-width:1;"/><polygon fill="#181818" points="286.74,337,295.74,341,291.74,337,295.74,333,286.74,337" style="stroke:#181818;stroke-width:1;"/></g><!--link OrderService to OrderMapper--><g class="link" data-entity-1="OrderService" data-entity-2="OrderMapper" data-source-line="63" data-uid="lnk51" id="link_OrderService_OrderMapper"><path d="M377.67,218.19 C377.67,244.55 377.67,285.7 377.67,311.97" fill="none" id="OrderService-to-OrderMapper" style="stroke:#181818;stroke-width:1;"/><polygon fill="#181818" points="377.67,317.97,381.67,308.97,377.67,312.97,373.67,308.97,377.67,317.97" style="stroke:#181818;stroke-width:1;"/></g><!--link OrderService to Item--><g class="link" data-entity-1="OrderService" data-entity-2="Item" data-source-line="64" data-uid="lnk52" id="link_OrderService_Item"><path d="M342.25,218.04 C342.25,290.37 342.25,544 342.25,544 C342.25,544 1583.25,544 1583.25,544 C1583.25,544 1583.25,567.36 1583.25,587.78" fill="none" id="OrderService-to-Item" style="stroke:#181818;stroke-width:1;"/><polygon fill="#181818" points="1583.25,593.78,1587.25,584.78,1583.25,588.78,1579.25,584.78,1583.25,593.78" style="stroke:#181818;stroke-width:1;"/><text fill="#000000" font-family="Helvetica" font-size="13" lengthAdjust="spacing" textLength="7.23" x="816.66" y="540.4951">1</text></g><!--link OrderService to LineItem--><g class="link" data-entity-1="OrderService" data-entity-2="LineItem" data-source-line="65" data-uid="lnk53" id="link_OrderService_LineItem"><path d="M344.38,218.41 C344.38,281.23 344.38,475 344.38,475 C344.38,475 547.01,475 633.81,475" fill="none" id="OrderService-to-LineItem" style="stroke:#181818;stroke-width:2;"/><polygon fill="#181818" points="639.81,475,630.81,471,634.81,475,630.81,479,639.81,475" style="stroke:#181818;stroke-width:2;"/></g><!--link OrderService to ItemMapper--><g class="link" data-entity-1="OrderService" data-entity-2="ItemMapper" data-source-line="66" data-uid="lnk54" id="link_OrderService_ItemMapper"><path d="M440.11,206 C459.84,206 477.75,206 477.75,206 C477.75,206 477.75,751 477.75,751 C477.75,751 1349.42,751 1565.41,751" fill="none" id="OrderService-to-ItemMapper" style="stroke:#181818;stroke-width:1;"/><polygon fill="#181818" points="1571.41,751,1562.41,747,1566.41,751,1562.41,755,1571.41,751" style="stroke:#181818;stroke-width:1;"/><text fill="#000000" font-family="Helvetica" font-size="13" lengthAdjust="spacing" textLength="7.23" x="725.26" y="747.4951">3</text></g><!--link AccountActionBean to Account--><g class="link" data-entity-1="AccountActionBean" data-entity-2="Account" data-source-line="67" data-uid="lnk55" id="link_AccountActionBean_Account"><path d="M1272.22,206 C1311.09,206 1351.38,206 1351.38,206 C1351.38,206 1351.38,469 1351.38,469 C1351.38,469 1262.13,469 1208.55,469" fill="none" id="AccountActionBean-to-Account" style="stroke:#181818;stroke-width:3;"/><polygon fill="#181818" points="1202.55,469,1211.55,473,1207.55,469,1211.55,465,1202.55,469" style="stroke:#181818;stroke-width:3;"/></g><!--link AccountActionBean to _duplicate__account___AbstractActionBean--><g class="link" data-entity-1="AccountActionBean" data-entity-2="_duplicate__account___AbstractActionBean" data-source-line="68" data-uid="lnk56" id="link_AccountActionBean__duplicate__account___AbstractActionBean"><path d="M1177.33,218.19 C1177.33,244.55 1177.33,285.7 1177.33,311.97" fill="none" id="AccountActionBean-to-_duplicate__account___AbstractActionBean" style="stroke:#181818;stroke-width:1;"/><polygon fill="#181818" points="1177.33,317.97,1181.33,308.97,1177.33,312.97,1173.33,308.97,1177.33,317.97" style="stroke:#181818;stroke-width:1;"/></g><!--link AccountActionBean to AccountService--><g class="link" data-entity-1="AccountActionBean" data-entity-2="AccountService" data-source-line="69" data-uid="lnk57" id="link_AccountActionBean_AccountService"><path d="M1272.17,193 C1321.78,193 1379.12,193 1379.12,193 C1379.12,193 1379.12,331 1379.12,331 C1379.12,331 1380.82,331 1391.34,331" fill="none" id="AccountActionBean-to-AccountService" style="stroke:#181818;stroke-width:2;"/><polygon fill="#181818" points="1397.34,331,1388.34,327,1392.34,331,1388.34,335,1397.34,331" style="stroke:#181818;stroke-width:2;"/></g><!--link AccountActionBean to CatalogService--><g class="link" data-entity-1="AccountActionBean" data-entity-2="CatalogService" data-source-line="70" data-uid="lnk58" id="link_AccountActionBean_CatalogService"><path d="M1224.67,218.17 C1224.67,230.03 1224.67,243 1224.67,243 C1224.67,243 2057,243 2057,243 C2057,243 2057,512.12 2057,587.89" fill="none" id="AccountActionBean-to-CatalogService" style="stroke:#181818;stroke-width:1;"/><polygon fill="#181818" points="2057,593.89,2061,584.89,2057,588.89,2053,584.89,2057,593.89" style="stroke:#181818;stroke-width:1;"/><text fill="#000000" font-family="Helvetica" font-size="13" lengthAdjust="spacing" textLength="7.23" x="1795.86" y="239.4951">3</text></g><!--link CartActionBean to Cart--><g class="link" data-entity-1="CartActionBean" data-entity-2="Cart" data-source-line="71" data-uid="lnk59" id="link_CartActionBean_Cart"><path d="M1748.33,455.78 C1748.33,435.36 1748.33,406 1748.33,406 C1748.33,406 804.67,406 804.67,406 C804.67,406 804.67,429.36 804.67,449.78" fill="none" id="CartActionBean-to-Cart" style="stroke:#181818;stroke-width:2;"/><polygon fill="#181818" points="804.67,455.78,808.67,446.78,804.67,450.78,800.67,446.78,804.67,455.78" style="stroke:#181818;stroke-width:2;"/><text fill="#000000" font-family="Helvetica" font-size="13" lengthAdjust="spacing" textLength="7.23" x="1268.5" y="402.4951">8</text></g><!--link CartActionBean to _duplicate__catalog___AbstractActionBean--><g class="link" data-entity-1="CartActionBean" data-entity-2="_duplicate__catalog___AbstractActionBean" data-source-line="72" data-uid="lnk60" id="link_CartActionBean__duplicate__catalog___AbstractActionBean"><path d="M1768,494.19 C1768,520.55 1768,561.7 1768,587.97" fill="none" id="CartActionBean-to-_duplicate__catalog___AbstractActionBean" style="stroke:#181818;stroke-width:1;"/><polygon fill="#181818" points="1768,593.97,1772,584.97,1768,588.97,1764,584.97,1768,593.97" style="stroke:#181818;stroke-width:1;"/></g><!--link CartActionBean to CatalogService--><g class="link" data-entity-1="CartActionBean" data-entity-2="CatalogService" data-source-line="73" data-uid="lnk61" id="link_CartActionBean_CatalogService"><path d="M1797.5,494.37 C1797.5,524.21 1797.5,578 1797.5,578 C1797.5,578 2014,578 2014,578 C2014,578 2014,579.69 2014,587.86" fill="none" id="CartActionBean-to-CatalogService" style="stroke:#181818;stroke-width:1;"/><polygon fill="#181818" points="2014,593.86,2018,584.86,2014,588.86,2010,584.86,2014,593.86" style="stroke:#181818;stroke-width:1;"/></g><!--link CartActionBean to CartItem--><g class="link" data-entity-1="CartActionBean" data-entity-2="CartItem" data-source-line="74" data-uid="lnk62" id="link_CartActionBean_CartItem"><path d="M1738.5,494.26 C1738.5,502.82 1738.5,511 1738.5,511 C1738.5,511 804.67,511 804.67,511 C804.67,511 804.67,558.27 804.67,587.81" fill="none" id="CartActionBean-to-CartItem" style="stroke:#181818;stroke-width:1;"/><polygon fill="#181818" points="804.67,593.81,808.67,584.81,804.67,588.81,800.67,584.81,804.67,593.81" style="stroke:#181818;stroke-width:1;"/><text fill="#000000" font-family="Helvetica" font-size="13" lengthAdjust="spacing" textLength="7.23" x="1230.54" y="507.4951">1</text></g><!--link CartActionBean to Item--><g class="link" data-entity-1="CartActionBean" data-entity-2="Item" data-source-line="75" data-uid="lnk63" id="link_CartActionBean_Item"><path d="M1708.75,475 C1688.34,475 1670.5,475 1670.5,475 C1670.5,475 1670.5,607 1670.5,607 C1670.5,607 1647.01,607 1624.89,607" fill="none" id="CartActionBean-to-Item" style="stroke:#181818;stroke-width:1;"/><polygon fill="#181818" points="1618.89,607,1627.89,611,1623.89,607,1627.89,603,1618.89,607" style="stroke:#181818;stroke-width:1;"/></g><!--link CatalogActionBean to _duplicate__catalog___AbstractActionBean--><g class="link" data-entity-1="CatalogActionBean" data-entity-2="_duplicate__catalog___AbstractActionBean" data-source-line="76" data-uid="lnk64" id="link_CatalogActionBean__duplicate__catalog___AbstractActionBean"><path d="M1927.33,494.19 C1927.33,520.55 1927.33,561.7 1927.33,587.97" fill="none" id="CatalogActionBean-to-_duplicate__catalog___AbstractActionBean" style="stroke:#181818;stroke-width:1;"/><polygon fill="#181818" points="1927.33,593.97,1931.33,584.97,1927.33,588.97,1923.33,584.97,1927.33,593.97" style="stroke:#181818;stroke-width:1;"/></g><!--link CatalogActionBean to CatalogService--><g class="link" data-entity-1="CatalogActionBean" data-entity-2="CatalogService" data-source-line="77" data-uid="lnk65" id="link_CatalogActionBean_CatalogService"><path d="M2020.5,494.19 C2020.5,520.55 2020.5,561.7 2020.5,587.97" fill="none" id="CatalogActionBean-to-CatalogService" style="stroke:#181818;stroke-width:2;"/><polygon fill="#181818" points="2020.5,593.97,2024.5,584.97,2020.5,588.97,2016.5,584.97,2020.5,593.97" style="stroke:#181818;stroke-width:2;"/></g><!--link CatalogActionBean to Item--><g class="link" data-entity-1="CatalogActionBean" data-entity-2="Item" data-source-line="78" data-uid="lnk66" id="link_CatalogActionBean_Item"><path d="M1907.17,494.09 C1907.17,519.42 1907.17,561 1907.17,561 C1907.17,561 1606.75,561 1606.75,561 C1606.75,561 1606.75,573.09 1606.75,587.93" fill="none" id="CatalogActionBean-to-Item" style="stroke:#181818;stroke-width:1;"/><polygon fill="#181818" points="1606.75,593.93,1610.75,584.93,1606.75,588.93,1602.75,584.93,1606.75,593.93" style="stroke:#181818;stroke-width:1;"/></g><!--link OrderActionBean to Order--><g class="link" data-entity-1="OrderActionBean" data-entity-2="Order" data-source-line="79" data-uid="lnk67" id="link_OrderActionBean_Order"><path d="M570.26,68 C550.71,68 534.25,68 534.25,68 C534.25,68 534.25,268 534.25,268 C534.25,268 801,268 801,268 C801,268 801,291.36 801,311.78" fill="none" id="OrderActionBean-to-Order" style="stroke:#181818;stroke-width:2;"/><polygon fill="#181818" points="801,317.78,805,308.78,801,312.78,797,308.78,801,317.78" style="stroke:#181818;stroke-width:2;"/></g><!--link OrderActionBean to _duplicate__order___AbstractActionBean--><g class="link" data-entity-1="OrderActionBean" data-entity-2="_duplicate__order___AbstractActionBean" data-source-line="80" data-uid="lnk68" id="link_OrderActionBean__duplicate__order___AbstractActionBean"><path d="M595.9,80.19 C595.9,106.55 595.9,147.7 595.9,173.97" fill="none" id="OrderActionBean-to-_duplicate__order___AbstractActionBean" style="stroke:#181818;stroke-width:1;"/><polygon fill="#181818" points="595.9,179.97,599.9,170.97,595.9,174.97,591.9,170.97,595.9,179.97" style="stroke:#181818;stroke-width:1;"/></g><!--link OrderActionBean to Account--><g class="link" data-entity-1="OrderActionBean" data-entity-2="Account" data-source-line="81" data-uid="lnk69" id="link_OrderActionBean_Account"><path d="M621.3,80.02 C621.3,107.49 621.3,155 621.3,155 C621.3,155 983,155 983,155 C983,155 983,466 983,466 C983,466 1071.54,466 1125.09,466" fill="none" id="OrderActionBean-to-Account" style="stroke:#181818;stroke-width:1;"/><polygon fill="#181818" points="1131.09,466,1122.09,462,1126.09,466,1122.09,470,1131.09,466" style="stroke:#181818;stroke-width:1;"/><text fill="#000000" font-family="Helvetica" font-size="13" lengthAdjust="spacing" textLength="7.23" x="975" y="162.6951">2</text></g><!--link OrderActionBean to OrderService--><g class="link" data-entity-1="OrderActionBean" data-entity-2="OrderService" data-source-line="82" data-uid="lnk70" id="link_OrderActionBean_OrderService"><path d="M570.27,55 C497.68,55 389,55 389,55 C389,55 389,134.71 389,173.88" fill="none" id="OrderActionBean-to-OrderService" style="stroke:#181818;stroke-width:1;"/><polygon fill="#181818" points="389,179.88,393,170.88,389,174.88,385,170.88,389,179.88" style="stroke:#181818;stroke-width:1;"/></g><!--link OrderActionBean to AccountActionBean--><g class="link" data-entity-1="OrderActionBean" data-entity-2="AccountActionBean" data-source-line="83" data-uid="lnk71" id="link_OrderActionBean_AccountActionBean"><path d="M646.7,80.22 C646.7,100.64 646.7,130 646.7,130 C646.7,130 1201,130 1201,130 C1201,130 1201,153.36 1201,173.78" fill="none" id="OrderActionBean-to-AccountActionBean" style="stroke:#181818;stroke-width:1;"/><polygon fill="#181818" points="1201,179.78,1205,170.78,1201,174.78,1197,170.78,1201,179.78" style="stroke:#181818;stroke-width:1;"/><text fill="#000000" font-family="Helvetica" font-size="13" lengthAdjust="spacing" textLength="7.23" x="915.85" y="126.4951">4</text></g><!--link OrderActionBean to CartActionBean--><g class="link" data-entity-1="OrderActionBean" data-entity-2="CartActionBean" data-source-line="84" data-uid="lnk72" id="link_OrderActionBean_CartActionBean"><path d="M672.1,80.17 C672.1,92.03 672.1,105 672.1,105 C672.1,105 1787.67,105 1787.67,105 C1787.67,105 1787.67,374.12 1787.67,449.89" fill="none" id="OrderActionBean-to-CartActionBean" style="stroke:#181818;stroke-width:1;"/><polygon fill="#181818" points="1787.67,455.89,1791.67,446.89,1787.67,450.89,1783.67,446.89,1787.67,455.89" style="stroke:#181818;stroke-width:1;"/><text fill="#000000" font-family="Helvetica" font-size="13" lengthAdjust="spacing" textLength="7.23" x="1384.91" y="101.4951">2</text></g><!--SRC=[fLPHRzCm47xthx362pnCQZk4e1gLkY444h29yJPDaKbC6pMrW-DEcX3_dSHndBETs9ve7zgSl_lkplVvdEPGife8SiG5_KLEbVp8cVn6ZXH_ejKZbMLEqBuiABwyhBcGcmrgZ4TDyWFPqQlsPoVuYHNNlE82l_YWFW0eQ2u9srK9qAfaL3xL5BV1zXmiC5xGXjRupG8I4tReZCl50kbiy1aN1HLd0pV-W_2O03vhlwJ1jpVVVsGAQ0epoLZmcmwppMN9sHKbJ3axjcd7- -9KL-tkIOfVga2l7l3sPoC5oQN3bnberkUKPPaF3UHtHyLZcTCnEMsOThcZlq-KQVZm48P-9NNTxIbmw4s1fCPifa5Vsav_blG8k6rJW1luWETm72l2DFIQ2AbWtPzvY64R7WpqBnfbsFQJL7oN8aGDZKYnY-OenpRDkIbopzEnpZhJ7HTFWuzwY0jU5vGcUGr-XkXryb3sjcdQpVGjf82-H20mspJF35nY6huLl3Zb4dXObg0JX4_gZkHvEs1bYkuqDAAxROzoEkXPuwhGuT9KeS7FK8NE2Ah2DWNTG3CiIz09mc4prFmulvVxCZymsZJlBnxEDsPS-ClBRbcfSerNIFtnbdNFaHbX7iBmpqDCZ7umU-k3vyJwgbiVQbtZTtCKNHR8sVWvddwBG-WbG2Fda4-4XaSr2X-FQHHgdKzatR4UThWX4s4nJhLVQZL2QD-U4J2uDYD8BPbb94DREGbxtd9U87-AUATcQ7uOgiXJvqU42ofK5v8ItT5GLvvpFtj1r21OuxSXe5TPwBwC4jb99i3r6qudW1XOppRtnU9_YWbnhIRhYKOVHHhY1GSkjPJvL_SuppXNLt4mF679r02ong_ZRawpsyJ-0G00]--></g></svg>