<svg xmlns="http://www.w3.org/2000/svg" xmlns:xlink="http://www.w3.org/1999/xlink" contentStyleType="text/css" data-diagram-type="DESCRIPTION" height="793px" preserveAspectRatio="none" style="width:2064px;height:793px;background:#FFFFFF;" version="1.1" viewBox="0 0 2064 793" width="2064px" zoomAndPan="magnify"><defs/><g><!--cluster patition1--><g class="cluster" data-entity="patition1" data-source-line="8" data-uid="ent0002" id="cluster_patition1"><path d="M683.5,6 L742.8311,6 A3.75,3.75 0 0 1 745.3311,8.5 L752.3311,29.6094 L960.5,29.6094 A2.5,2.5 0 0 1 963,32.1094 L963,369.5 A2.5,2.5 0 0 1 960.5,372 L683.5,372 A2.5,2.5 0 0 1 681,369.5 L681,8.5 A2.5,2.5 0 0 1 683.5,6" fill="#DDDDDD" style="stroke:#000000;stroke-width:1.5;"/><line style="stroke:#000000;stroke-width:1.5;" x1="681" x2="752.3311" y1="29.6094" y2="29.6094"/><text fill="#000000" font-family="Helvetica" font-size="14" font-weight="bold" lengthAdjust="spacing" textLength="58.3311" x="685" y="22.5332">patition1</text></g><!--cluster patition3--><g class="cluster" data-entity="patition3" data-source-line="16" data-uid="ent0008" id="cluster_patition3"><path d="M1445.5,282 L1504.8311,282 A3.75,3.75 0 0 1 1507.3311,284.5 L1514.3311,305.6094 L1734.5,305.6094 A2.5,2.5 0 0 1 1737,308.1094 L1737,507.5 A2.5,2.5 0 0 1 1734.5,510 L1445.5,510 A2.5,2.5 0 0 1 1443,507.5 L1443,284.5 A2.5,2.5 0 0 1 1445.5,282" fill="#DDDDDD" style="stroke:#000000;stroke-width:1.5;"/><line style="stroke:#000000;stroke-width:1.5;" x1="1443" x2="1514.3311" y1="305.6094" y2="305.6094"/><text fill="#000000" font-family="Helvetica" font-size="14" font-weight="bold" lengthAdjust="spacing" textLength="58.3311" x="1447" y="298.5332">patition3</text></g><!--cluster patition7--><g class="cluster" data-entity="patition7" data-source-line="22" data-uid="ent0012" id="cluster_patition7"><path d="M1763.5,144 L1822.8311,144 A3.75,3.75 0 0 1 1825.3311,146.5 L1832.3311,167.6094 L2054.5,167.6094 A2.5,2.5 0 0 1 2057,170.1094 L2057,507.5 A2.5,2.5 0 0 1 2054.5,510 L1763.5,510 A2.5,2.5 0 0 1 1761,507.5 L1761,146.5 A2.5,2.5 0 0 1 1763.5,144" fill="#DDDDDD" style="stroke:#000000;stroke-width:1.5;"/><line style="stroke:#000000;stroke-width:1.5;" x1="1761" x2="1832.3311" y1="167.6094" y2="167.6094"/><text fill="#000000" font-family="Helvetica" font-size="14" font-weight="bold" lengthAdjust="spacing" textLength="58.3311" x="1765" y="160.5332">patition7</text></g><!--cluster patition4--><g class="cluster" data-entity="patition4" data-source-line="29" data-uid="ent0017" id="cluster_patition4"><path d="M1539.5,558 L1598.8311,558 A3.75,3.75 0 0 1 1601.3311,560.5 L1608.3311,581.6094 L1950.5,581.6094 A2.5,2.5 0 0 1 1953,584.1094 L1953,645.5 A2.5,2.5 0 0 1 1950.5,648 L1539.5,648 A2.5,2.5 0 0 1 1537,645.5 L1537,560.5 A2.5,2.5 0 0 1 1539.5,558" fill="#DDDDDD" style="stroke:#000000;stroke-width:1.5;"/><line style="stroke:#000000;stroke-width:1.5;" x1="1537" x2="1608.3311" y1="581.6094" y2="581.6094"/><text fill="#000000" font-family="Helvetica" font-size="14" font-weight="bold" lengthAdjust="spacing" textLength="58.3311" x="1541" y="574.5332">patition4</text></g><!--cluster patition2--><g class="cluster" data-entity="patition2" data-source-line="35" data-uid="ent0021" id="cluster_patition2"><path d="M8.5,282 L67.8311,282 A3.75,3.75 0 0 1 70.3311,284.5 L77.3311,305.6094 L432.5,305.6094 A2.5,2.5 0 0 1 435,308.1094 L435,369.5 A2.5,2.5 0 0 1 432.5,372 L8.5,372 A2.5,2.5 0 0 1 6,369.5 L6,284.5 A2.5,2.5 0 0 1 8.5,282" fill="#DDDDDD" style="stroke:#000000;stroke-width:1.5;"/><line style="stroke:#000000;stroke-width:1.5;" x1="6" x2="77.3311" y1="305.6094" y2="305.6094"/><text fill="#000000" font-family="Helvetica" font-size="14" font-weight="bold" lengthAdjust="spacing" textLength="58.3311" x="10" y="298.5332">patition2</text></g><!--cluster patition5--><g class="cluster" data-entity="patition5" data-source-line="41" data-uid="ent0025" id="cluster_patition5"><path d="M551.5,420 L610.8311,420 A3.75,3.75 0 0 1 613.3311,422.5 L620.3311,443.6094 L956.5,443.6094 A2.5,2.5 0 0 1 959,446.1094 L959,507.5 A2.5,2.5 0 0 1 956.5,510 L551.5,510 A2.5,2.5 0 0 1 549,507.5 L549,422.5 A2.5,2.5 0 0 1 551.5,420" fill="#DDDDDD" style="stroke:#000000;stroke-width:1.5;"/><line style="stroke:#000000;stroke-width:1.5;" x1="549" x2="620.3311" y1="443.6094" y2="443.6094"/><text fill="#000000" font-family="Helvetica" font-size="14" font-weight="bold" lengthAdjust="spacing" textLength="58.3311" x="553" y="436.5332">patition5</text></g><!--cluster patition6--><g class="cluster" data-entity="patition6" data-source-line="47" data-uid="ent0029" id="cluster_patition6"><path d="M1190.5,696 L1249.8311,696 A3.75,3.75 0 0 1 1252.3311,698.5 L1259.3311,719.6094 L1583.5,719.6094 A2.5,2.5 0 0 1 1586,722.1094 L1586,783.5 A2.5,2.5 0 0 1 1583.5,786 L1190.5,786 A2.5,2.5 0 0 1 1188,783.5 L1188,698.5 A2.5,2.5 0 0 1 1190.5,696" fill="#DDDDDD" style="stroke:#000000;stroke-width:1.5;"/><line style="stroke:#000000;stroke-width:1.5;" x1="1188" x2="1259.3311" y1="719.6094" y2="719.6094"/><text fill="#000000" font-family="Helvetica" font-size="14" font-weight="bold" lengthAdjust="spacing" textLength="58.3311" x="1192" y="712.5332">patition6</text></g><!--cluster patition0--><g class="cluster" data-entity="patition0" data-source-line="53" data-uid="ent0033" id="cluster_patition0"><path d="M989.5,282 L1048.8311,282 A3.75,3.75 0 0 1 1051.3311,284.5 L1058.3311,305.6094 L1412.5,305.6094 A2.5,2.5 0 0 1 1415,308.1094 L1415,645.5 A2.5,2.5 0 0 1 1412.5,648 L989.5,648 A2.5,2.5 0 0 1 987,645.5 L987,284.5 A2.5,2.5 0 0 1 989.5,282" fill="#DDDDDD" style="stroke:#000000;stroke-width:1.5;"/><line style="stroke:#000000;stroke-width:1.5;" x1="987" x2="1058.3311" y1="305.6094" y2="305.6094"/><text fill="#000000" font-family="Helvetica" font-size="14" font-weight="bold" lengthAdjust="spacing" textLength="58.3311" x="991" y="298.5332">patition0</text></g><!--entity PORT_patition1--><!--entity OrderActionBean--><g class="entity" data-entity="OrderActionBean" data-source-line="10" data-uid="ent0004" id="entity_OrderActionBean"><rect fill="#DDDDDD" height="37.6094" rx="2.5" ry="2.5" style="stroke:#181818;stroke-width:0.5;" width="127.3926" x="697.5" y="42"/><text fill="#000000" font-family="Helvetica" font-size="14" lengthAdjust="spacing" textLength="107.3926" x="707.5" y="66.5332">OrderActionBean</text></g><!--entity OrderService--><g class="entity" data-entity="OrderService" data-source-line="11" data-uid="ent0005" id="entity_OrderService"><rect fill="#DDDDDD" height="37.6094" rx="2.5" ry="2.5" style="stroke:#181818;stroke-width:0.5;" width="102.4688" x="697" y="180"/><text fill="#000000" font-family="Helvetica" font-size="14" lengthAdjust="spacing" textLength="82.4688" x="707" y="204.5332">OrderService</text></g><!--entity Order--><g class="entity" data-entity="Order" data-source-line="12" data-uid="ent0006" id="entity_Order"><rect fill="#DDDDDD" height="37.6094" rx="2.5" ry="2.5" style="stroke:#181818;stroke-width:0.5;" width="55.7861" x="887" y="318"/><text fill="#000000" font-family="Helvetica" font-size="14" lengthAdjust="spacing" textLength="35.7861" x="897" y="342.5332">Order</text></g><!--entity OrderMapper--><g class="entity" data-entity="OrderMapper" data-source-line="13" data-uid="ent0007" id="entity_OrderMapper"><rect fill="#DDDDDD" height="37.6094" rx="2.5" ry="2.5" style="stroke:#181818;stroke-width:0.5;" width="103.2549" x="723.5" y="318"/><text fill="#000000" font-family="Helvetica" font-size="14" lengthAdjust="spacing" textLength="83.2549" x="733.5" y="342.5332">OrderMapper</text></g><!--entity PORT_patition3--><!--entity CatalogActionBean--><g class="entity" data-entity="CatalogActionBean" data-source-line="18" data-uid="ent0010" id="entity_CatalogActionBean"><rect fill="#DDDDDD" height="37.6094" rx="2.5" ry="2.5" style="stroke:#181818;stroke-width:0.5;" width="139.8613" x="1459" y="318"/><text fill="#000000" font-family="Helvetica" font-size="14" lengthAdjust="spacing" textLength="119.8613" x="1469" y="342.5332">CatalogActionBean</text></g><!--entity CatalogService--><g class="entity" data-entity="CatalogService" data-source-line="19" data-uid="ent0011" id="entity_CatalogService"><rect fill="#DDDDDD" height="37.6094" rx="2.5" ry="2.5" style="stroke:#181818;stroke-width:0.5;" width="114.9375" x="1465.5" y="456"/><text fill="#000000" font-family="Helvetica" font-size="14" lengthAdjust="spacing" textLength="94.9375" x="1475.5" y="480.5332">CatalogService</text></g><!--entity PORT_patition7--><!--entity AccountActionBean--><g class="entity" data-entity="AccountActionBean" data-source-line="24" data-uid="ent0014" id="entity_AccountActionBean"><rect fill="#DDDDDD" height="37.6094" rx="2.5" ry="2.5" style="stroke:#181818;stroke-width:0.5;" width="142.1924" x="1777" y="180"/><text fill="#000000" font-family="Helvetica" font-size="14" lengthAdjust="spacing" textLength="122.1924" x="1787" y="204.5332">AccountActionBean</text></g><!--entity AccountService--><g class="entity" data-entity="AccountService" data-source-line="25" data-uid="ent0015" id="entity_AccountService"><rect fill="#DDDDDD" height="37.6094" rx="2.5" ry="2.5" style="stroke:#181818;stroke-width:0.5;" width="117.2686" x="1903.5" y="318"/><text fill="#000000" font-family="Helvetica" font-size="14" lengthAdjust="spacing" textLength="97.2686" x="1913.5" y="342.5332">AccountService</text></g><!--entity AccountMapper--><g class="entity" data-entity="AccountMapper" data-source-line="26" data-uid="ent0016" id="entity_AccountMapper"><rect fill="#DDDDDD" height="37.6094" rx="2.5" ry="2.5" style="stroke:#181818;stroke-width:0.5;" width="118.0547" x="1903" y="456"/><text fill="#000000" font-family="Helvetica" font-size="14" lengthAdjust="spacing" textLength="98.0547" x="1913" y="480.5332">AccountMapper</text></g><!--entity PORT_patition4--><!--entity Category--><g class="entity" data-entity="Category" data-source-line="31" data-uid="ent0019" id="entity_Category"><rect fill="#DDDDDD" height="37.6094" rx="2.5" ry="2.5" style="stroke:#181818;stroke-width:0.5;" width="76.8066" x="1737.5" y="594"/><text fill="#000000" font-family="Helvetica" font-size="14" lengthAdjust="spacing" textLength="56.8066" x="1747.5" y="618.5332">Category</text></g><!--entity CategoryMapper--><g class="entity" data-entity="CategoryMapper" data-source-line="32" data-uid="ent0020" id="entity_CategoryMapper"><rect fill="#DDDDDD" height="37.6094" rx="2.5" ry="2.5" style="stroke:#181818;stroke-width:0.5;" width="124.2754" x="1553" y="594"/><text fill="#000000" font-family="Helvetica" font-size="14" lengthAdjust="spacing" textLength="104.2754" x="1563" y="618.5332">CategoryMapper</text></g><!--entity PORT_patition2--><!--entity Sequence--><g class="entity" data-entity="Sequence" data-source-line="37" data-uid="ent0023" id="entity_Sequence"><rect fill="#DDDDDD" height="37.6094" rx="2.5" ry="2.5" style="stroke:#181818;stroke-width:0.5;" width="83.0547" x="22.5" y="318"/><text fill="#000000" font-family="Helvetica" font-size="14" lengthAdjust="spacing" textLength="63.0547" x="32.5" y="342.5332">Sequence</text></g><!--entity SequenceMapper--><g class="entity" data-entity="SequenceMapper" data-source-line="38" data-uid="ent0024" id="entity_SequenceMapper"><rect fill="#DDDDDD" height="37.6094" rx="2.5" ry="2.5" style="stroke:#181818;stroke-width:0.5;" width="130.5234" x="165.5" y="318"/><text fill="#000000" font-family="Helvetica" font-size="14" lengthAdjust="spacing" textLength="110.5234" x="175.5" y="342.5332">SequenceMapper</text></g><!--entity PORT_patition5--><!--entity LineItem--><g class="entity" data-entity="LineItem" data-source-line="43" data-uid="ent0027" id="entity_LineItem"><rect fill="#DDDDDD" height="37.6094" rx="2.5" ry="2.5" style="stroke:#181818;stroke-width:0.5;" width="73.6963" x="747" y="456"/><text fill="#000000" font-family="Helvetica" font-size="14" lengthAdjust="spacing" textLength="53.6963" x="757" y="480.5332">LineItem</text></g><!--entity LineItemMapper--><g class="entity" data-entity="LineItemMapper" data-source-line="44" data-uid="ent0028" id="entity_LineItemMapper"><rect fill="#DDDDDD" height="37.6094" rx="2.5" ry="2.5" style="stroke:#181818;stroke-width:0.5;" width="121.165" x="565.5" y="456"/><text fill="#000000" font-family="Helvetica" font-size="14" lengthAdjust="spacing" textLength="101.165" x="575.5" y="480.5332">LineItemMapper</text></g><!--entity PORT_patition6--><!--entity Product--><g class="entity" data-entity="Product" data-source-line="49" data-uid="ent0031" id="entity_Product"><rect fill="#DDDDDD" height="37.6094" rx="2.5" ry="2.5" style="stroke:#181818;stroke-width:0.5;" width="68.248" x="1204" y="732"/><text fill="#000000" font-family="Helvetica" font-size="14" lengthAdjust="spacing" textLength="48.248" x="1214" y="756.5332">Product</text></g><!--entity ProductMapper--><g class="entity" data-entity="ProductMapper" data-source-line="50" data-uid="ent0032" id="entity_ProductMapper"><rect fill="#DDDDDD" height="37.6094" rx="2.5" ry="2.5" style="stroke:#181818;stroke-width:0.5;" width="115.7168" x="1332" y="732"/><text fill="#000000" font-family="Helvetica" font-size="14" lengthAdjust="spacing" textLength="95.7168" x="1342" y="756.5332">ProductMapper</text></g><!--entity PORT_patition0--><!--entity CartActionBean--><g class="entity" data-entity="CartActionBean" data-source-line="55" data-uid="ent0035" id="entity_CartActionBean"><rect fill="#DDDDDD" height="37.6094" rx="2.5" ry="2.5" style="stroke:#181818;stroke-width:0.5;" width="118.0547" x="1003" y="318"/><text fill="#000000" font-family="Helvetica" font-size="14" lengthAdjust="spacing" textLength="98.0547" x="1013" y="342.5332">CartActionBean</text></g><!--entity ItemMapper--><g class="entity" data-entity="ItemMapper" data-source-line="56" data-uid="ent0036" id="entity_ItemMapper"><rect fill="#DDDDDD" height="37.6094" rx="2.5" ry="2.5" style="stroke:#181818;stroke-width:0.5;" width="94.6963" x="1181.5" y="318"/><text fill="#000000" font-family="Helvetica" font-size="14" lengthAdjust="spacing" textLength="74.6963" x="1191.5" y="342.5332">ItemMapper</text></g><!--entity Cart--><g class="entity" data-entity="Cart" data-source-line="57" data-uid="ent0037" id="entity_Cart"><rect fill="#DDDDDD" height="37.6094" rx="2.5" ry="2.5" style="stroke:#181818;stroke-width:0.5;" width="46.4482" x="1065" y="456"/><text fill="#000000" font-family="Helvetica" font-size="14" lengthAdjust="spacing" textLength="26.4482" x="1075" y="480.5332">Cart</text></g><!--entity CartItem--><g class="entity" data-entity="CartItem" data-source-line="58" data-uid="ent0038" id="entity_CartItem"><rect fill="#DDDDDD" height="37.6094" rx="2.5" ry="2.5" style="stroke:#181818;stroke-width:0.5;" width="73.6758" x="1003" y="594"/><text fill="#000000" font-family="Helvetica" font-size="14" lengthAdjust="spacing" textLength="53.6758" x="1013" y="618.5332">CartItem</text></g><!--entity Item--><g class="entity" data-entity="Item" data-source-line="59" data-uid="ent0039" id="entity_Item"><rect fill="#DDDDDD" height="37.6094" rx="2.5" ry="2.5" style="stroke:#181818;stroke-width:0.5;" width="47.2275" x="1142.5" y="594"/><text fill="#000000" font-family="Helvetica" font-size="14" lengthAdjust="spacing" textLength="27.2275" x="1152.5" y="618.5332">Item</text></g><!--link Cart to CartItem--><g class="link" data-entity-1="Cart" data-entity-2="CartItem" data-source-line="62" data-uid="lnk40" id="link_Cart_CartItem"><path d="M1071,494.19 C1071,520.55 1071,561.7 1071,587.97" fill="none" id="Cart-to-CartItem" style="stroke:#181818;stroke-width:3;"/><polygon fill="#181818" points="1071,593.97,1075,584.97,1071,588.97,1067,584.97,1071,593.97" style="stroke:#181818;stroke-width:3;"/></g><!--link Cart to Item--><g class="link" data-entity-1="Cart" data-entity-2="Item" data-source-line="63" data-uid="lnk41" id="link_Cart_Item"><path d="M1094,494.25 C1094,533.7 1094,620 1094,620 C1094,620 1115.43,620 1136.42,620" fill="none" id="Cart-to-Item" style="stroke:#181818;stroke-width:1;"/><polygon fill="#181818" points="1142.42,620,1133.42,616,1137.42,620,1133.42,624,1142.42,620" style="stroke:#181818;stroke-width:1;"/></g><!--link Item to Product--><g class="link" data-entity-1="Item" data-entity-2="Product" data-source-line="64" data-uid="lnk42" id="link_Item_Product"><path d="M1166,632.19 C1166,670.11 1166,751 1166,751 C1166,751 1179.14,751 1197.69,751" fill="none" id="Item-to-Product" style="stroke:#181818;stroke-width:1;"/><polygon fill="#181818" points="1203.69,751,1194.69,747,1198.69,751,1194.69,755,1203.69,751" style="stroke:#181818;stroke-width:1;"/><text fill="#000000" font-family="Helvetica" font-size="13" lengthAdjust="spacing" textLength="7.23" x="1158" y="706.9351">1</text></g><!--link LineItem to CartItem--><g class="link" data-entity-1="LineItem" data-entity-2="CartItem" data-source-line="65" data-uid="lnk43" id="link_LineItem_CartItem"><path d="M796.33,494.19 C796.33,532.11 796.33,613 796.33,613 C796.33,613 928.83,613 996.99,613" fill="none" id="LineItem-to-CartItem" style="stroke:#181818;stroke-width:1;"/><polygon fill="#181818" points="1002.99,613,993.99,609,997.99,613,993.99,617,1002.99,613" style="stroke:#181818;stroke-width:1;"/><text fill="#000000" font-family="Helvetica" font-size="13" lengthAdjust="spacing" textLength="7.23" x="832.26" y="609.4951">2</text></g><!--link LineItem to Item--><g class="link" data-entity-1="LineItem" data-entity-2="Item" data-source-line="66" data-uid="lnk44" id="link_LineItem_Item"><path d="M771.67,494.22 C771.67,514.64 771.67,544 771.67,544 C771.67,544 1155.5,544 1155.5,544 C1155.5,544 1155.5,567.36 1155.5,587.78" fill="none" id="LineItem-to-Item" style="stroke:#181818;stroke-width:1;"/><polygon fill="#181818" points="1155.5,593.78,1159.5,584.78,1155.5,588.78,1151.5,584.78,1155.5,593.78" style="stroke:#181818;stroke-width:1;"/><text fill="#000000" font-family="Helvetica" font-size="13" lengthAdjust="spacing" textLength="7.23" x="955.58" y="540.4951">2</text></g><!--link Order to LineItem--><g class="link" data-entity-1="Order" data-entity-2="LineItem" data-source-line="67" data-uid="lnk45" id="link_Order_LineItem"><path d="M886.78,344 C874.49,344 862.83,344 862.83,344 C862.83,344 862.83,475 862.83,475 C862.83,475 847.56,475 827.11,475" fill="none" id="Order-to-LineItem" style="stroke:#181818;stroke-width:1;"/><polygon fill="#181818" points="821.11,475,830.11,479,826.11,475,830.11,471,821.11,475" style="stroke:#181818;stroke-width:1;"/><text fill="#000000" font-family="Helvetica" font-size="13" lengthAdjust="spacing" textLength="7.23" x="854.83" y="414.8851">1</text></g><!--link Order to Cart--><g class="link" data-entity-1="Order" data-entity-2="Cart" data-source-line="68" data-uid="lnk46" id="link_Order_Cart"><path d="M943.24,337 C958.81,337 975,337 975,337 C975,337 975,475 975,475 C975,475 1025.8,475 1058.86,475" fill="none" id="Order-to-Cart" style="stroke:#181818;stroke-width:1;"/><polygon fill="#181818" points="1064.86,475,1055.86,471,1059.86,475,1055.86,479,1064.86,475" style="stroke:#181818;stroke-width:1;"/><text fill="#000000" font-family="Helvetica" font-size="13" lengthAdjust="spacing" textLength="7.23" x="967" y="431.5451">2</text></g><!--link AccountService to AccountMapper--><g class="link" data-entity-1="AccountService" data-entity-2="AccountMapper" data-source-line="69" data-uid="lnk47" id="link_AccountService_AccountMapper"><path d="M1962,356.19 C1962,382.55 1962,423.7 1962,449.97" fill="none" id="AccountService-to-AccountMapper" style="stroke:#181818;stroke-width:3;"/><polygon fill="#181818" points="1962,455.97,1966,446.97,1962,450.97,1958,446.97,1962,455.97" style="stroke:#181818;stroke-width:3;"/></g><!--link CatalogService to CategoryMapper--><g class="link" data-entity-1="CatalogService" data-entity-2="CategoryMapper" data-source-line="70" data-uid="lnk48" id="link_CatalogService_CategoryMapper"><path d="M1566.75,494.19 C1566.75,520.55 1566.75,561.7 1566.75,587.97" fill="none" id="CatalogService-to-CategoryMapper" style="stroke:#181818;stroke-width:1;"/><polygon fill="#181818" points="1566.75,593.97,1570.75,584.97,1566.75,588.97,1562.75,584.97,1566.75,593.97" style="stroke:#181818;stroke-width:1;"/><text fill="#000000" font-family="Helvetica" font-size="13" lengthAdjust="spacing" textLength="7.23" x="1558.75" y="540.5751">2</text></g><!--link CatalogService to ItemMapper--><g class="link" data-entity-1="CatalogService" data-entity-2="ItemMapper" data-source-line="71" data-uid="lnk49" id="link_CatalogService_ItemMapper"><path d="M1465.33,469 C1382.05,469 1238,469 1238,469 C1238,469 1238,398.8 1238,362.19" fill="none" id="CatalogService-to-ItemMapper" style="stroke:#181818;stroke-width:1;"/><polygon fill="#181818" points="1238,356.19,1234,365.19,1238,361.19,1242,365.19,1238,356.19" style="stroke:#181818;stroke-width:1;"/><text fill="#000000" font-family="Helvetica" font-size="13" lengthAdjust="spacing" textLength="7.23" x="1287.26" y="465.4951">3</text></g><!--link CatalogService to ProductMapper--><g class="link" data-entity-1="CatalogService" data-entity-2="ProductMapper" data-source-line="72" data-uid="lnk50" id="link_CatalogService_ProductMapper"><path d="M1486.75,494.41 C1486.75,557.23 1486.75,751 1486.75,751 C1486.75,751 1474.72,751 1454.23,751" fill="none" id="CatalogService-to-ProductMapper" style="stroke:#181818;stroke-width:1;"/><polygon fill="#181818" points="1448.23,751,1457.23,755,1453.23,751,1457.23,747,1448.23,751" style="stroke:#181818;stroke-width:1;"/><text fill="#000000" font-family="Helvetica" font-size="13" lengthAdjust="spacing" textLength="7.23" x="1478.75" y="638.4551">3</text></g><!--link OrderService to Sequence--><g class="link" data-entity-1="OrderService" data-entity-2="Sequence" data-source-line="73" data-uid="lnk51" id="link_OrderService_Sequence"><path d="M696.87,193 C538.07,193 64,193 64,193 C64,193 64,272.71 64,311.88" fill="none" id="OrderService-to-Sequence" style="stroke:#181818;stroke-width:1;"/><polygon fill="#181818" points="64,317.88,68,308.88,64,312.88,60,308.88,64,317.88" style="stroke:#181818;stroke-width:1;"/><text fill="#000000" font-family="Helvetica" font-size="13" lengthAdjust="spacing" textLength="7.23" x="310" y="189.4951">2</text></g><!--link OrderService to SequenceMapper--><g class="link" data-entity-1="OrderService" data-entity-2="SequenceMapper" data-source-line="74" data-uid="lnk52" id="link_OrderService_SequenceMapper"><path d="M696.54,206 C565.77,206 231,206 231,206 C231,206 231,275.62 231,311.95" fill="none" id="OrderService-to-SequenceMapper" style="stroke:#181818;stroke-width:1;"/><polygon fill="#181818" points="231,317.95,235,308.95,231,312.95,227,308.95,231,317.95" style="stroke:#181818;stroke-width:1;"/><text fill="#000000" font-family="Helvetica" font-size="13" lengthAdjust="spacing" textLength="7.23" x="399.79" y="202.4951">2</text></g><!--link OrderService to Order--><g class="link" data-entity-1="OrderService" data-entity-2="Order" data-source-line="75" data-uid="lnk53" id="link_OrderService_Order"><path d="M799.01,211 C848.12,211 915,211 915,211 C915,211 915,276.62 915,311.86" fill="none" id="OrderService-to-Order" style="stroke:#181818;stroke-width:2;"/><polygon fill="#181818" points="915,317.86,919,308.86,915,312.86,911,308.86,915,317.86" style="stroke:#181818;stroke-width:2;"/></g><!--link OrderService to LineItemMapper--><g class="link" data-entity-1="OrderService" data-entity-2="LineItemMapper" data-source-line="76" data-uid="lnk54" id="link_OrderService_LineItemMapper"><path d="M705.83,218.42 C705.83,280.33 705.83,469 705.83,469 C705.83,469 703.64,469 692.51,469" fill="none" id="OrderService-to-LineItemMapper" style="stroke:#181818;stroke-width:1;"/><polygon fill="#181818" points="686.51,469,695.51,473,691.51,469,695.51,465,686.51,469" style="stroke:#181818;stroke-width:1;"/><text fill="#000000" font-family="Helvetica" font-size="13" lengthAdjust="spacing" textLength="7.23" x="697.83" y="349.8651">2</text></g><!--link OrderService to OrderMapper--><g class="link" data-entity-1="OrderService" data-entity-2="OrderMapper" data-source-line="77" data-uid="lnk55" id="link_OrderService_OrderMapper"><path d="M761.25,218.19 C761.25,244.55 761.25,285.7 761.25,311.97" fill="none" id="OrderService-to-OrderMapper" style="stroke:#181818;stroke-width:2;"/><polygon fill="#181818" points="761.25,317.97,765.25,308.97,761.25,312.97,757.25,308.97,761.25,317.97" style="stroke:#181818;stroke-width:2;"/></g><!--link OrderService to Item--><g class="link" data-entity-1="OrderService" data-entity-2="Item" data-source-line="78" data-uid="lnk56" id="link_OrderService_Item"><path d="M799.14,203 C911.21,203 1168.5,203 1168.5,203 C1168.5,203 1168.5,506.72 1168.5,587.77" fill="none" id="OrderService-to-Item" style="stroke:#181818;stroke-width:1;"/><polygon fill="#181818" points="1168.5,593.77,1172.5,584.77,1168.5,588.77,1164.5,584.77,1168.5,593.77" style="stroke:#181818;stroke-width:1;"/><text fill="#000000" font-family="Helvetica" font-size="13" lengthAdjust="spacing" textLength="7.23" x="1160.5" y="210.2051">1</text></g><!--link OrderService to LineItem--><g class="link" data-entity-1="OrderService" data-entity-2="LineItem" data-source-line="79" data-uid="lnk57" id="link_OrderService_LineItem"><path d="M714.67,218.01 C714.67,281.46 714.67,482 714.67,482 C714.67,482 724.41,482 740.9,482" fill="none" id="OrderService-to-LineItem" style="stroke:#181818;stroke-width:2;"/><polygon fill="#181818" points="746.9,482,737.9,478,741.9,482,737.9,486,746.9,482" style="stroke:#181818;stroke-width:2;"/><text fill="#000000" font-family="Helvetica" font-size="13" lengthAdjust="spacing" textLength="7.23" x="706.67" y="380.6151">5</text></g><!--link OrderService to ItemMapper--><g class="link" data-entity-1="OrderService" data-entity-2="ItemMapper" data-source-line="80" data-uid="lnk58" id="link_OrderService_ItemMapper"><path d="M799.02,196 C922.81,196 1229,196 1229,196 C1229,196 1229,273.5 1229,311.98" fill="none" id="OrderService-to-ItemMapper" style="stroke:#181818;stroke-width:1;"/><polygon fill="#181818" points="1229,317.98,1233,308.98,1229,312.98,1225,308.98,1229,317.98" style="stroke:#181818;stroke-width:1;"/><text fill="#000000" font-family="Helvetica" font-size="13" lengthAdjust="spacing" textLength="7.23" x="1067" y="192.4951">3</text></g><!--link AccountActionBean to AccountService--><g class="link" data-entity-1="AccountActionBean" data-entity-2="AccountService" data-source-line="81" data-uid="lnk59" id="link_AccountActionBean_AccountService"><path d="M1911.25,218.19 C1911.25,244.55 1911.25,285.7 1911.25,311.97" fill="none" id="AccountActionBean-to-AccountService" style="stroke:#181818;stroke-width:2;"/><polygon fill="#181818" points="1911.25,317.97,1915.25,308.97,1911.25,312.97,1907.25,308.97,1911.25,317.97" style="stroke:#181818;stroke-width:2;"/></g><!--link AccountActionBean to CatalogService--><g class="link" data-entity-1="AccountActionBean" data-entity-2="CatalogService" data-source-line="82" data-uid="lnk60" id="link_AccountActionBean_CatalogService"><path d="M1795.75,218.41 C1795.75,281.23 1795.75,475 1795.75,475 C1795.75,475 1666.53,475 1586.51,475" fill="none" id="AccountActionBean-to-CatalogService" style="stroke:#181818;stroke-width:1;"/><polygon fill="#181818" points="1580.51,475,1589.51,479,1585.51,475,1589.51,471,1580.51,475" style="stroke:#181818;stroke-width:1;"/><text fill="#000000" font-family="Helvetica" font-size="13" lengthAdjust="spacing" textLength="7.23" x="1787.75" y="450.8151">3</text></g><!--link CartActionBean to Cart--><g class="link" data-entity-1="CartActionBean" data-entity-2="Cart" data-source-line="83" data-uid="lnk61" id="link_CartActionBean_Cart"><path d="M1088,356.19 C1088,382.55 1088,423.7 1088,449.97" fill="none" id="CartActionBean-to-Cart" style="stroke:#181818;stroke-width:3;"/><polygon fill="#181818" points="1088,455.97,1092,446.97,1088,450.97,1084,446.97,1088,455.97" style="stroke:#181818;stroke-width:3;"/></g><!--link CartActionBean to CatalogService--><g class="link" data-entity-1="CartActionBean" data-entity-2="CatalogService" data-source-line="84" data-uid="lnk62" id="link_CartActionBean_CatalogService"><path d="M1117.67,356.25 C1117.67,395.7 1117.67,482 1117.67,482 C1117.67,482 1347.45,482 1459.36,482" fill="none" id="CartActionBean-to-CatalogService" style="stroke:#181818;stroke-width:1;"/><polygon fill="#181818" points="1465.36,482,1456.36,478,1460.36,482,1456.36,486,1465.36,482" style="stroke:#181818;stroke-width:1;"/><text fill="#000000" font-family="Helvetica" font-size="13" lengthAdjust="spacing" textLength="7.23" x="1220.64" y="478.4951">2</text></g><!--link CartActionBean to CartItem--><g class="link" data-entity-1="CartActionBean" data-entity-2="CartItem" data-source-line="85" data-uid="lnk63" id="link_CartActionBean_CartItem"><path d="M1034,356.41 C1034,407.21 1034,537.62 1034,587.98" fill="none" id="CartActionBean-to-CartItem" style="stroke:#181818;stroke-width:1;"/><polygon fill="#181818" points="1034,593.98,1038,584.98,1034,588.98,1030,584.98,1034,593.98" style="stroke:#181818;stroke-width:1;"/></g><!--link CartActionBean to Item--><g class="link" data-entity-1="CartActionBean" data-entity-2="Item" data-source-line="86" data-uid="lnk64" id="link_CartActionBean_Item"><path d="M1114.33,356.42 C1114.33,418.33 1114.33,607 1114.33,607 C1114.33,607 1122.7,607 1136.28,607" fill="none" id="CartActionBean-to-Item" style="stroke:#181818;stroke-width:1;"/><polygon fill="#181818" points="1142.28,607,1133.28,603,1137.28,607,1133.28,611,1142.28,607" style="stroke:#181818;stroke-width:1;"/></g><!--link CatalogActionBean to CatalogService--><g class="link" data-entity-1="CatalogActionBean" data-entity-2="CatalogService" data-source-line="87" data-uid="lnk65" id="link_CatalogActionBean_CatalogService"><path d="M1523,356.19 C1523,382.55 1523,423.7 1523,449.97" fill="none" id="CatalogActionBean-to-CatalogService" style="stroke:#181818;stroke-width:2;"/><polygon fill="#181818" points="1523,455.97,1527,446.97,1523,450.97,1519,446.97,1523,455.97" style="stroke:#181818;stroke-width:2;"/></g><!--link CatalogActionBean to Item--><g class="link" data-entity-1="CatalogActionBean" data-entity-2="Item" data-source-line="88" data-uid="lnk66" id="link_CatalogActionBean_Item"><path d="M1458.93,337 C1455.53,337 1453.5,337 1453.5,337 C1453.5,337 1453.5,613 1453.5,613 C1453.5,613 1264.19,613 1195.53,613" fill="none" id="CatalogActionBean-to-Item" style="stroke:#181818;stroke-width:1;"/><polygon fill="#181818" points="1189.53,613,1198.53,617,1194.53,613,1198.53,609,1189.53,613" style="stroke:#181818;stroke-width:1;"/><text fill="#000000" font-family="Helvetica" font-size="13" lengthAdjust="spacing" textLength="7.23" x="1445.5" y="600.7651">1</text></g><!--link OrderActionBean to Order--><g class="link" data-entity-1="OrderActionBean" data-entity-2="Order" data-source-line="89" data-uid="lnk67" id="link_OrderActionBean_Order"><path d="M824.84,61 C836.29,61 844.67,61 844.67,61 C844.67,61 844.67,331 844.67,331 C844.67,331 861.23,331 880.8,331" fill="none" id="OrderActionBean-to-Order" style="stroke:#181818;stroke-width:2;"/><polygon fill="#181818" points="886.8,331,877.8,327,881.8,331,877.8,335,886.8,331" style="stroke:#181818;stroke-width:2;"/></g><!--link OrderActionBean to OrderService--><g class="link" data-entity-1="OrderActionBean" data-entity-2="OrderService" data-source-line="90" data-uid="lnk68" id="link_OrderActionBean_OrderService"><path d="M748.25,80.19 C748.25,106.55 748.25,147.7 748.25,173.97" fill="none" id="OrderActionBean-to-OrderService" style="stroke:#181818;stroke-width:1;"/><polygon fill="#181818" points="748.25,179.97,752.25,170.97,748.25,174.97,744.25,170.97,748.25,179.97" style="stroke:#181818;stroke-width:1;"/></g><!--link OrderActionBean to AccountActionBean--><g class="link" data-entity-1="OrderActionBean" data-entity-2="AccountActionBean" data-source-line="91" data-uid="lnk69" id="link_OrderActionBean_AccountActionBean"><path d="M807.5,80.01 C807.5,115.44 807.5,188 807.5,188 C807.5,188 1536.26,188 1770.89,188" fill="none" id="OrderActionBean-to-AccountActionBean" style="stroke:#181818;stroke-width:2;"/><polygon fill="#181818" points="1776.89,188,1767.89,184,1771.89,188,1767.89,192,1776.89,188" style="stroke:#181818;stroke-width:2;"/><text fill="#000000" font-family="Helvetica" font-size="13" lengthAdjust="spacing" textLength="7.23" x="1230.2" y="184.4951">4</text></g><!--link OrderActionBean to CartActionBean--><g class="link" data-entity-1="OrderActionBean" data-entity-2="CartActionBean" data-source-line="92" data-uid="lnk70" id="link_OrderActionBean_CartActionBean"><path d="M816,80.22 C816,100.64 816,130 816,130 C816,130 1062,130 1062,130 C1062,130 1062,260.65 1062,311.9" fill="none" id="OrderActionBean-to-CartActionBean" style="stroke:#181818;stroke-width:1;"/><polygon fill="#181818" points="1062,317.9,1066,308.9,1062,312.9,1058,308.9,1062,317.9" style="stroke:#181818;stroke-width:1;"/><text fill="#000000" font-family="Helvetica" font-size="13" lengthAdjust="spacing" textLength="7.23" x="1000.06" y="126.4951">2</text></g><!--SRC=[bLPTQzim57tthn3fSy5nFWgX2xGTOuDjBMlVnXZ2ldLC7CcJbK8P- -_pft9bnLTn-f3ewfoZSpyijzndek2A7rW2h_oOwqzIwE_y0Empv6-WivW7kom1TdjRIAMtsw0qZ8B7Uvx2VVMLAdaKoOFCfM9N7viF0Yg8DHTfVW4qpmJezm9OTTXEeWqX4oYXOEiG2tEnhuFpC0mwDsnMS9tfJ8hvhDTdVmDsCi5crHylsTFZZvVV1cmIDAOiogDAGDt5DVGUk6W41Z62-0pgBOlXnEe21EM49K3VU55WQBisX7-1MvN5bAeiF5Lvu9hdCXtKnOcIP5mREqJcSJCbZnjF7dTnN0sb7kJXH4aopiCEaJJKGYj29h-SalpItqH8fNhlEz0iQ2WoROT8rz4Krv77zJFyEOBewjqlQ2XoROT8rwifhbSUrr-hw-sBXaF3x1Sq5BcsGwJhzHJNQu_h9oMJOwnROlkR12BBLeHq74vn77fdMcddLbBUHtbGxpErTaunskCGq_1-CNwuEHQNgb6__gbtMRmNK9OV5h-kjqRCtPxNsyrMe-HizItSi7bWPj116RCR5X4m0sdVLSw-OTQdZM2Q36gDmRtfv6pTaC7WRN56rhgQwWDy5DJn3LjuuVPqrmphxUxWpJrb2kQ58lEZXAWcDBiUqS45Sg5eLsvQskxng20QXzK5YgYoxjlO4RV7nyFeHmGtkEsv6gEOvuu2dTUDBg2Wvva2Tg3X_rXEDMmF7iQP7bBQQDWeGTnWlwZRhmrR-WyPrAkgzNy0]--></g></svg>