<svg xmlns="http://www.w3.org/2000/svg" xmlns:xlink="http://www.w3.org/1999/xlink" contentStyleType="text/css" data-diagram-type="DESCRIPTION" height="517px" preserveAspectRatio="none" style="width:1637px;height:517px;background:#FFFFFF;" version="1.1" viewBox="0 0 1637 517" width="1637px" zoomAndPan="magnify"><defs/><g><!--cluster partition1--><g class="cluster" data-entity="partition1" data-source-line="8" data-uid="ent0002" id="cluster_partition1"><path d="M8.5,6.3564 L73.2793,6.3564 A3.75,3.75 0 0 1 75.7793,8.8564 L82.7793,29.9658 L481.5,29.9658 A2.5,2.5 0 0 1 484,32.4658 L484,507.8564 A2.5,2.5 0 0 1 481.5,510.3564 L8.5,510.3564 A2.5,2.5 0 0 1 6,507.8564 L6,8.8564 A2.5,2.5 0 0 1 8.5,6.3564" fill="#DDDDDD" style="stroke:#000000;stroke-width:1.5;"/><line style="stroke:#000000;stroke-width:1.5;" x1="6" x2="82.7793" y1="29.9658" y2="29.9658"/><text fill="#000000" font-family="Helvetica" font-size="14" font-weight="bold" lengthAdjust="spacing" textLength="63.7793" x="10" y="22.8896">partition1</text></g><!--cluster partition0--><g class="cluster" data-entity="partition0" data-source-line="17" data-uid="ent0009" id="cluster_partition0"><path d="M1098.5,6.3564 L1163.2793,6.3564 A3.75,3.75 0 0 1 1165.7793,8.8564 L1172.7793,29.9658 L1627.5,29.9658 A2.5,2.5 0 0 1 1630,32.4658 L1630,507.8564 A2.5,2.5 0 0 1 1627.5,510.3564 L1098.5,510.3564 A2.5,2.5 0 0 1 1096,507.8564 L1096,8.8564 A2.5,2.5 0 0 1 1098.5,6.3564" fill="#DDDDDD" style="stroke:#000000;stroke-width:1.5;"/><line style="stroke:#000000;stroke-width:1.5;" x1="1096" x2="1172.7793" y1="29.9658" y2="29.9658"/><text fill="#000000" font-family="Helvetica" font-size="14" font-weight="bold" lengthAdjust="spacing" textLength="63.7793" x="1100" y="22.8896">partition0</text></g><!--cluster partition2--><g class="cluster" data-entity="partition2" data-source-line="29" data-uid="ent0019" id="cluster_partition2"><path d="M510.5,144.3564 L575.2793,144.3564 A3.75,3.75 0 0 1 577.7793,146.8564 L584.7793,167.9658 L1065.5,167.9658 A2.5,2.5 0 0 1 1068,170.4658 L1068,369.8564 A2.5,2.5 0 0 1 1065.5,372.3564 L510.5,372.3564 A2.5,2.5 0 0 1 508,369.8564 L508,146.8564 A2.5,2.5 0 0 1 510.5,144.3564" fill="#DDDDDD" style="stroke:#000000;stroke-width:1.5;"/><line style="stroke:#000000;stroke-width:1.5;" x1="508" x2="584.7793" y1="167.9658" y2="167.9658"/><text fill="#000000" font-family="Helvetica" font-size="14" font-weight="bold" lengthAdjust="spacing" textLength="63.7793" x="512" y="160.8896">partition2</text></g><!--entity PORT_partition1--><!--entity OrderActionBean--><g class="entity" data-entity="OrderActionBean" data-source-line="10" data-uid="ent0004" id="entity_OrderActionBean"><rect fill="#DDDDDD" height="37.6094" rx="2.5" ry="2.5" style="stroke:#181818;stroke-width:0.5;" width="127.3926" x="218.5" y="42.3564"/><text fill="#000000" font-family="Helvetica" font-size="14" lengthAdjust="spacing" textLength="107.3926" x="228.5" y="66.8896">OrderActionBean</text></g><!--entity AccountActionBean--><g class="entity" data-entity="AccountActionBean" data-source-line="11" data-uid="ent0005" id="entity_AccountActionBean"><rect fill="#DDDDDD" height="37.6094" rx="2.5" ry="2.5" style="stroke:#181818;stroke-width:0.5;" width="142.1924" x="193" y="180.3564"/><text fill="#000000" font-family="Helvetica" font-size="14" lengthAdjust="spacing" textLength="122.1924" x="203" y="204.8896">AccountActionBean</text></g><!--entity AbstractActionBean--><g class="entity" data-entity="AbstractActionBean" data-source-line="12" data-uid="ent0006" id="entity_AbstractActionBean"><rect fill="#DDDDDD" height="37.6094" rx="2.5" ry="2.5" style="stroke:#181818;stroke-width:0.5;" width="142.958" x="324.5" y="318.3564"/><text fill="#000000" font-family="Helvetica" font-size="14" lengthAdjust="spacing" textLength="122.958" x="334.5" y="342.8896">AbstractActionBean</text></g><!--entity AccountService--><g class="entity" data-entity="AccountService" data-source-line="13" data-uid="ent0007" id="entity_AccountService"><rect fill="#DDDDDD" height="37.6094" rx="2.5" ry="2.5" style="stroke:#181818;stroke-width:0.5;" width="117.2686" x="84.5" y="318.3564"/><text fill="#000000" font-family="Helvetica" font-size="14" lengthAdjust="spacing" textLength="97.2686" x="94.5" y="342.8896">AccountService</text></g><!--entity Account--><g class="entity" data-entity="Account" data-source-line="14" data-uid="ent0008" id="entity_Account"><rect fill="#DDDDDD" height="37.6094" rx="2.5" ry="2.5" style="stroke:#181818;stroke-width:0.5;" width="70.5859" x="167.5" y="456.3564"/><text fill="#000000" font-family="Helvetica" font-size="14" lengthAdjust="spacing" textLength="50.5859" x="177.5" y="480.8896">Account</text></g><!--entity PORT_partition0--><!--entity CartActionBean--><g class="entity" data-entity="CartActionBean" data-source-line="19" data-uid="ent0011" id="entity_CartActionBean"><rect fill="#DDDDDD" height="37.6094" rx="2.5" ry="2.5" style="stroke:#181818;stroke-width:0.5;" width="118.0547" x="1112" y="180.3564"/><text fill="#000000" font-family="Helvetica" font-size="14" lengthAdjust="spacing" textLength="98.0547" x="1122" y="204.8896">CartActionBean</text></g><!--entity OrderService--><g class="entity" data-entity="OrderService" data-source-line="20" data-uid="ent0012" id="entity_OrderService"><rect fill="#DDDDDD" height="37.6094" rx="2.5" ry="2.5" style="stroke:#181818;stroke-width:0.5;" width="102.4688" x="1390" y="42.3564"/><text fill="#000000" font-family="Helvetica" font-size="14" lengthAdjust="spacing" textLength="82.4688" x="1400" y="66.8896">OrderService</text></g><!--entity Sequence--><g class="entity" data-entity="Sequence" data-source-line="21" data-uid="ent0013" id="entity_Sequence"><rect fill="#DDDDDD" height="37.6094" rx="2.5" ry="2.5" style="stroke:#181818;stroke-width:0.5;" width="83.0547" x="1406.5" y="180.3564"/><text fill="#000000" font-family="Helvetica" font-size="14" lengthAdjust="spacing" textLength="63.0547" x="1416.5" y="204.8896">Sequence</text></g><!--entity Order--><g class="entity" data-entity="Order" data-source-line="22" data-uid="ent0014" id="entity_Order"><rect fill="#DDDDDD" height="37.6094" rx="2.5" ry="2.5" style="stroke:#181818;stroke-width:0.5;" width="55.7861" x="1290" y="180.3564"/><text fill="#000000" font-family="Helvetica" font-size="14" lengthAdjust="spacing" textLength="35.7861" x="1300" y="204.8896">Order</text></g><!--entity LineItem--><g class="entity" data-entity="LineItem" data-source-line="23" data-uid="ent0015" id="entity_LineItem"><rect fill="#DDDDDD" height="37.6094" rx="2.5" ry="2.5" style="stroke:#181818;stroke-width:0.5;" width="73.6963" x="1436" y="318.3564"/><text fill="#000000" font-family="Helvetica" font-size="14" lengthAdjust="spacing" textLength="53.6963" x="1446" y="342.8896">LineItem</text></g><!--entity Cart--><g class="entity" data-entity="Cart" data-source-line="24" data-uid="ent0016" id="entity_Cart"><rect fill="#DDDDDD" height="37.6094" rx="2.5" ry="2.5" style="stroke:#181818;stroke-width:0.5;" width="46.4482" x="1330" y="318.3564"/><text fill="#000000" font-family="Helvetica" font-size="14" lengthAdjust="spacing" textLength="26.4482" x="1340" y="342.8896">Cart</text></g><!--entity CartItem--><g class="entity" data-entity="CartItem" data-source-line="25" data-uid="ent0017" id="entity_CartItem"><rect fill="#DDDDDD" height="37.6094" rx="2.5" ry="2.5" style="stroke:#181818;stroke-width:0.5;" width="73.6758" x="1316" y="456.3564"/><text fill="#000000" font-family="Helvetica" font-size="14" lengthAdjust="spacing" textLength="53.6758" x="1326" y="480.8896">CartItem</text></g><!--entity Item--><g class="entity" data-entity="Item" data-source-line="26" data-uid="ent0018" id="entity_Item"><rect fill="#DDDDDD" height="37.6094" rx="2.5" ry="2.5" style="stroke:#181818;stroke-width:0.5;" width="47.2275" x="1195.5" y="456.3564"/><text fill="#000000" font-family="Helvetica" font-size="14" lengthAdjust="spacing" textLength="27.2275" x="1205.5" y="480.8896">Item</text></g><!--entity PORT_partition2--><!--entity CatalogActionBean--><g class="entity" data-entity="CatalogActionBean" data-source-line="31" data-uid="ent0021" id="entity_CatalogActionBean"><rect fill="#DDDDDD" height="37.6094" rx="2.5" ry="2.5" style="stroke:#181818;stroke-width:0.5;" width="139.8613" x="524" y="180.3564"/><text fill="#000000" font-family="Helvetica" font-size="14" lengthAdjust="spacing" textLength="119.8613" x="534" y="204.8896">CatalogActionBean</text></g><!--entity Category--><g class="entity" data-entity="Category" data-source-line="32" data-uid="ent0022" id="entity_Category"><rect fill="#DDDDDD" height="37.6094" rx="2.5" ry="2.5" style="stroke:#181818;stroke-width:0.5;" width="76.8066" x="724.5" y="180.3564"/><text fill="#000000" font-family="Helvetica" font-size="14" lengthAdjust="spacing" textLength="56.8066" x="734.5" y="204.8896">Category</text></g><!--entity Product--><g class="entity" data-entity="Product" data-source-line="33" data-uid="ent0023" id="entity_Product"><rect fill="#DDDDDD" height="37.6094" rx="2.5" ry="2.5" style="stroke:#181818;stroke-width:0.5;" width="68.248" x="862" y="180.3564"/><text fill="#000000" font-family="Helvetica" font-size="14" lengthAdjust="spacing" textLength="48.248" x="872" y="204.8896">Product</text></g><!--entity CatalogService--><g class="entity" data-entity="CatalogService" data-source-line="34" data-uid="ent0024" id="entity_CatalogService"><rect fill="#DDDDDD" height="37.6094" rx="2.5" ry="2.5" style="stroke:#181818;stroke-width:0.5;" width="114.9375" x="908.5" y="318.3564"/><text fill="#000000" font-family="Helvetica" font-size="14" lengthAdjust="spacing" textLength="94.9375" x="918.5" y="342.8896">CatalogService</text></g><!--link Cart to CartItem--><g class="link" data-entity-1="Cart" data-entity-2="CartItem" data-source-line="37" data-uid="lnk25" id="link_Cart_CartItem"><path d="M1353,356.5464 C1353,382.9064 1353,424.0564 1353,450.3264" fill="none" id="Cart-to-CartItem" style="stroke:#181818;stroke-width:3;"/><polygon fill="#181818" points="1353,456.3264,1357,447.3264,1353,451.3264,1349,447.3264,1353,456.3264" style="stroke:#181818;stroke-width:3;"/></g><!--link Cart to Item--><g class="link" data-entity-1="Cart" data-entity-2="Item" data-source-line="38" data-uid="lnk26" id="link_Cart_Item"><path d="M1329.93,347.3564 C1295.91,347.3564 1236.25,347.3564 1236.25,347.3564 C1236.25,347.3564 1236.25,414.4864 1236.25,450.1964" fill="none" id="Cart-to-Item" style="stroke:#181818;stroke-width:1;"/><polygon fill="#181818" points="1236.25,456.1964,1240.25,447.1964,1236.25,451.1964,1232.25,447.1964,1236.25,456.1964" style="stroke:#181818;stroke-width:1;"/></g><!--link Item to Product--><g class="link" data-entity-1="Item" data-entity-2="Product" data-source-line="39" data-uid="lnk27" id="link_Item_Product"><path d="M1195.27,469.3564 C1119.02,469.3564 885.25,469.3564 885.25,469.3564 C885.25,469.3564 885.25,286.6864 885.25,224.7764" fill="none" id="Item-to-Product" style="stroke:#181818;stroke-width:1;"/><polygon fill="#181818" points="885.25,218.7764,881.25,227.7764,885.25,223.7764,889.25,227.7764,885.25,218.7764" style="stroke:#181818;stroke-width:1;"/><text fill="#000000" font-family="Helvetica" font-size="13" lengthAdjust="spacing" textLength="7.23" x="906.97" y="465.8516">1</text></g><!--link LineItem to CartItem--><g class="link" data-entity-1="LineItem" data-entity-2="CartItem" data-source-line="40" data-uid="lnk28" id="link_LineItem_CartItem"><path d="M1435.87,337.3564 C1411.08,337.3564 1383,337.3564 1383,337.3564 C1383,337.3564 1383,412.2464 1383,450.1664" fill="none" id="LineItem-to-CartItem" style="stroke:#181818;stroke-width:1;"/><polygon fill="#181818" points="1383,456.1664,1387,447.1664,1383,451.1664,1379,447.1664,1383,456.1664" style="stroke:#181818;stroke-width:1;"/></g><!--link LineItem to Item--><g class="link" data-entity-1="LineItem" data-entity-2="Item" data-source-line="41" data-uid="lnk29" id="link_LineItem_Item"><path d="M1473,356.5764 C1473,376.9964 1473,406.3564 1473,406.3564 C1473,406.3564 1239.38,406.3564 1239.38,406.3564 C1239.38,406.3564 1239.38,429.7164 1239.38,450.1364" fill="none" id="LineItem-to-Item" style="stroke:#181818;stroke-width:1;"/><polygon fill="#181818" points="1239.38,456.1364,1243.38,447.1364,1239.38,451.1364,1235.38,447.1364,1239.38,456.1364" style="stroke:#181818;stroke-width:1;"/></g><!--link Order to LineItem--><g class="link" data-entity-1="Order" data-entity-2="LineItem" data-source-line="42" data-uid="lnk30" id="link_Order_LineItem"><path d="M1340.67,218.6164 C1340.67,248.9264 1340.67,304.3564 1340.67,304.3564 C1340.67,304.3564 1462.75,304.3564 1462.75,304.3564 C1462.75,304.3564 1462.75,304.8964 1462.75,312.1564" fill="none" id="Order-to-LineItem" style="stroke:#181818;stroke-width:1;"/><polygon fill="#181818" points="1462.75,318.1564,1466.75,309.1564,1462.75,313.1564,1458.75,309.1564,1462.75,318.1564" style="stroke:#181818;stroke-width:1;"/></g><!--link Order to Account--><g class="link" data-entity-1="Order" data-entity-2="Account" data-source-line="43" data-uid="lnk31" id="link_Order_Account"><path d="M1303,218.3864 C1303,241.1964 1303,276.3564 1303,276.3564 C1303,276.3564 229.25,276.3564 229.25,276.3564 C229.25,276.3564 229.25,400.4664 229.25,450.2764" fill="none" id="Order-to-Account" style="stroke:#181818;stroke-width:2;"/><polygon fill="#181818" points="229.25,456.2764,233.25,447.2764,229.25,451.2764,225.25,447.2764,229.25,456.2764" style="stroke:#181818;stroke-width:2;"/><text fill="#000000" font-family="Helvetica" font-size="13" lengthAdjust="spacing" textLength="7.23" x="697.15" y="272.8516">9</text></g><!--link Order to Cart--><g class="link" data-entity-1="Order" data-entity-2="Cart" data-source-line="44" data-uid="lnk32" id="link_Order_Cart"><path d="M1335.33,218.5464 C1335.33,244.9064 1335.33,286.0564 1335.33,312.3264" fill="none" id="Order-to-Cart" style="stroke:#181818;stroke-width:1;"/><polygon fill="#181818" points="1335.33,318.3264,1339.33,309.3264,1335.33,313.3264,1331.33,309.3264,1335.33,318.3264" style="stroke:#181818;stroke-width:1;"/></g><!--link AccountService to Account--><g class="link" data-entity-1="AccountService" data-entity-2="Account" data-source-line="45" data-uid="lnk33" id="link_AccountService_Account"><path d="M184.5,356.5464 C184.5,382.9064 184.5,424.0564 184.5,450.3264" fill="none" id="AccountService-to-Account" style="stroke:#181818;stroke-width:1;"/><polygon fill="#181818" points="184.5,456.3264,188.5,447.3264,184.5,451.3264,180.5,447.3264,184.5,456.3264" style="stroke:#181818;stroke-width:1;"/></g><!--link OrderService to Sequence--><g class="link" data-entity-1="OrderService" data-entity-2="Sequence" data-source-line="46" data-uid="lnk34" id="link_OrderService_Sequence"><path d="M1448,80.5464 C1448,106.9064 1448,148.0564 1448,174.3264" fill="none" id="OrderService-to-Sequence" style="stroke:#181818;stroke-width:1;"/><polygon fill="#181818" points="1448,180.3264,1452,171.3264,1448,175.3264,1444,171.3264,1448,180.3264" style="stroke:#181818;stroke-width:1;"/></g><!--link OrderService to Order--><g class="link" data-entity-1="OrderService" data-entity-2="Order" data-source-line="47" data-uid="lnk35" id="link_OrderService_Order"><path d="M1398.25,80.5464 C1398.25,118.4664 1398.25,199.3564 1398.25,199.3564 C1398.25,199.3564 1375.21,199.3564 1352.07,199.3564" fill="none" id="OrderService-to-Order" style="stroke:#181818;stroke-width:2;"/><polygon fill="#181818" points="1346.07,199.3564,1355.07,203.3564,1351.07,199.3564,1355.07,195.3564,1346.07,199.3564" style="stroke:#181818;stroke-width:2;"/></g><!--link OrderService to Item--><g class="link" data-entity-1="OrderService" data-entity-2="Item" data-source-line="48" data-uid="lnk36" id="link_OrderService_Item"><path d="M1389.88,61.3564 C1328.33,61.3564 1233.12,61.3564 1233.12,61.3564 C1233.12,61.3564 1233.12,368.7964 1233.12,450.2164" fill="none" id="OrderService-to-Item" style="stroke:#181818;stroke-width:1;"/><polygon fill="#181818" points="1233.12,456.2164,1237.12,447.2164,1233.12,451.2164,1229.12,447.2164,1233.12,456.2164" style="stroke:#181818;stroke-width:1;"/></g><!--link OrderService to LineItem--><g class="link" data-entity-1="OrderService" data-entity-2="LineItem" data-source-line="49" data-uid="lnk37" id="link_OrderService_LineItem"><path d="M1492.15,61.3564 C1497.48,61.3564 1501,61.3564 1501,61.3564 C1501,61.3564 1501,249.1264 1501,311.9464" fill="none" id="OrderService-to-LineItem" style="stroke:#181818;stroke-width:2;"/><polygon fill="#181818" points="1501,317.9464,1505,308.9464,1501,312.9464,1497,308.9464,1501,317.9464" style="stroke:#181818;stroke-width:2;"/></g><!--link AccountActionBean to Account--><g class="link" data-entity-1="AccountActionBean" data-entity-2="Account" data-source-line="50" data-uid="lnk38" id="link_AccountActionBean_Account"><path d="M210.75,218.7664 C210.75,269.5664 210.75,399.9764 210.75,450.3364" fill="none" id="AccountActionBean-to-Account" style="stroke:#181818;stroke-width:3;"/><polygon fill="#181818" points="210.75,456.3364,214.75,447.3364,210.75,451.3364,206.75,447.3364,210.75,456.3364" style="stroke:#181818;stroke-width:3;"/></g><!--link AccountActionBean to AbstractActionBean--><g class="link" data-entity-1="AccountActionBean" data-entity-2="AbstractActionBean" data-source-line="51" data-uid="lnk39" id="link_AccountActionBean_AbstractActionBean"><path d="M328,218.5464 C328,244.9064 328,286.0564 328,312.3264" fill="none" id="AccountActionBean-to-AbstractActionBean" style="stroke:#181818;stroke-width:1;"/><polygon fill="#181818" points="328,318.3264,332,309.3264,328,313.3264,324,309.3264,328,318.3264" style="stroke:#181818;stroke-width:1;"/></g><!--link AccountActionBean to AccountService--><g class="link" data-entity-1="AccountActionBean" data-entity-2="AccountService" data-source-line="52" data-uid="lnk40" id="link_AccountActionBean_AccountService"><path d="M197.25,218.5464 C197.25,244.9064 197.25,286.0564 197.25,312.3264" fill="none" id="AccountActionBean-to-AccountService" style="stroke:#181818;stroke-width:2;"/><polygon fill="#181818" points="197.25,318.3264,201.25,309.3264,197.25,313.3264,193.25,309.3264,197.25,318.3264" style="stroke:#181818;stroke-width:2;"/></g><!--link AccountActionBean to CatalogService--><g class="link" data-entity-1="AccountActionBean" data-entity-2="CatalogService" data-source-line="53" data-uid="lnk41" id="link_AccountActionBean_CatalogService"><path d="M331.5,218.6064 C331.5,231.9564 331.5,247.3564 331.5,247.3564 C331.5,247.3564 919.25,247.3564 919.25,247.3564 C919.25,247.3564 919.25,285.8464 919.25,312.2664" fill="none" id="AccountActionBean-to-CatalogService" style="stroke:#181818;stroke-width:1;"/><polygon fill="#181818" points="919.25,318.2664,923.25,309.2664,919.25,313.2664,915.25,309.2664,919.25,318.2664" style="stroke:#181818;stroke-width:1;"/><text fill="#000000" font-family="Helvetica" font-size="13" lengthAdjust="spacing" textLength="7.23" x="638.46" y="243.8516">3</text></g><!--link CartActionBean to Cart--><g class="link" data-entity-1="CartActionBean" data-entity-2="Cart" data-source-line="54" data-uid="lnk42" id="link_CartActionBean_Cart"><path d="M1221.38,218.5464 C1221.38,256.4664 1221.38,337.3564 1221.38,337.3564 C1221.38,337.3564 1285.98,337.3564 1323.77,337.3564" fill="none" id="CartActionBean-to-Cart" style="stroke:#181818;stroke-width:2;"/><polygon fill="#181818" points="1329.77,337.3564,1320.77,333.3564,1324.77,337.3564,1320.77,341.3564,1329.77,337.3564" style="stroke:#181818;stroke-width:2;"/></g><!--link CartActionBean to AbstractActionBean--><g class="link" data-entity-1="CartActionBean" data-entity-2="AbstractActionBean" data-source-line="55" data-uid="lnk43" id="link_CartActionBean_AbstractActionBean"><path d="M1139.83,218.7364 C1139.83,226.3764 1139.83,233.3564 1139.83,233.3564 C1139.83,233.3564 447,233.3564 447,233.3564 C447,233.3564 447,282.2564 447,312.2764" fill="none" id="CartActionBean-to-AbstractActionBean" style="stroke:#181818;stroke-width:1;"/><polygon fill="#181818" points="447,318.2764,451,309.2764,447,313.2764,443,309.2764,447,318.2764" style="stroke:#181818;stroke-width:1;"/><text fill="#000000" font-family="Helvetica" font-size="13" lengthAdjust="spacing" textLength="7.23" x="750.26" y="247.8516">1</text></g><!--link CartActionBean to CatalogService--><g class="link" data-entity-1="CartActionBean" data-entity-2="CatalogService" data-source-line="56" data-uid="lnk44" id="link_CartActionBean_CatalogService"><path d="M1167.67,218.3864 C1167.67,254.2764 1167.67,328.3564 1167.67,328.3564 C1167.67,328.3564 1089.13,328.3564 1029.52,328.3564" fill="none" id="CartActionBean-to-CatalogService" style="stroke:#181818;stroke-width:1;"/><polygon fill="#181818" points="1023.52,328.3564,1032.52,332.3564,1028.52,328.3564,1032.52,324.3564,1023.52,328.3564" style="stroke:#181818;stroke-width:1;"/><text fill="#000000" font-family="Helvetica" font-size="13" lengthAdjust="spacing" textLength="7.23" x="1142.58" y="324.8516">2</text></g><!--link CartActionBean to CartItem--><g class="link" data-entity-1="CartActionBean" data-entity-2="CartItem" data-source-line="57" data-uid="lnk45" id="link_CartActionBean_CartItem"><path d="M1204.12,218.6564 C1204.12,245.3664 1204.12,290.3564 1204.12,290.3564 C1204.12,290.3564 1323,290.3564 1323,290.3564 C1323,290.3564 1323,402.9864 1323,450.2564" fill="none" id="CartActionBean-to-CartItem" style="stroke:#181818;stroke-width:1;"/><polygon fill="#181818" points="1323,456.2564,1327,447.2564,1323,451.2564,1319,447.2564,1323,456.2564" style="stroke:#181818;stroke-width:1;"/></g><!--link CartActionBean to Item--><g class="link" data-entity-1="CartActionBean" data-entity-2="Item" data-source-line="58" data-uid="lnk46" id="link_CartActionBean_Item"><path d="M1212.75,218.7664 C1212.75,269.5664 1212.75,399.9764 1212.75,450.3364" fill="none" id="CartActionBean-to-Item" style="stroke:#181818;stroke-width:1;"/><polygon fill="#181818" points="1212.75,456.3364,1216.75,447.3364,1212.75,451.3364,1208.75,447.3364,1212.75,456.3364" style="stroke:#181818;stroke-width:1;"/></g><!--link CatalogActionBean to AbstractActionBean--><g class="link" data-entity-1="CatalogActionBean" data-entity-2="AbstractActionBean" data-source-line="59" data-uid="lnk47" id="link_CatalogActionBean_AbstractActionBean"><path d="M523.94,199.3564 C478.04,199.3564 426.5,199.3564 426.5,199.3564 C426.5,199.3564 426.5,274.2464 426.5,312.1664" fill="none" id="CatalogActionBean-to-AbstractActionBean" style="stroke:#181818;stroke-width:1;"/><polygon fill="#181818" points="426.5,318.1664,430.5,309.1664,426.5,313.1664,422.5,309.1664,426.5,318.1664" style="stroke:#181818;stroke-width:1;"/><text fill="#000000" font-family="Helvetica" font-size="13" lengthAdjust="spacing" textLength="7.23" x="418.5" y="206.5416">1</text></g><!--link CatalogActionBean to CatalogService--><g class="link" data-entity-1="CatalogActionBean" data-entity-2="CatalogService" data-source-line="60" data-uid="lnk48" id="link_CatalogActionBean_CatalogService"><path d="M617.33,218.5464 C617.33,256.4664 617.33,337.3564 617.33,337.3564 C617.33,337.3564 803.39,337.3564 902.42,337.3564" fill="none" id="CatalogActionBean-to-CatalogService" style="stroke:#181818;stroke-width:2;"/><polygon fill="#181818" points="908.42,337.3564,899.42,333.3564,903.42,337.3564,899.42,341.3564,908.42,337.3564" style="stroke:#181818;stroke-width:2;"/></g><!--link CatalogActionBean to Item--><g class="link" data-entity-1="CatalogActionBean" data-entity-2="Item" data-source-line="61" data-uid="lnk49" id="link_CatalogActionBean_Item"><path d="M570.67,218.3664 C570.67,281.8164 570.67,482.3564 570.67,482.3564 C570.67,482.3564 1072.19,482.3564 1189.16,482.3564" fill="none" id="CatalogActionBean-to-Item" style="stroke:#181818;stroke-width:1;"/><polygon fill="#181818" points="1195.16,482.3564,1186.16,478.3564,1190.16,482.3564,1186.16,486.3564,1195.16,482.3564" style="stroke:#181818;stroke-width:1;"/><text fill="#000000" font-family="Helvetica" font-size="13" lengthAdjust="spacing" textLength="7.23" x="742.92" y="478.8516">1</text></g><!--link OrderActionBean to Order--><g class="link" data-entity-1="OrderActionBean" data-entity-2="Order" data-source-line="62" data-uid="lnk50" id="link_OrderActionBean_Order"><path d="M339.2,80.4864 C339.2,95.6764 339.2,114.3564 339.2,114.3564 C339.2,114.3564 1318,114.3564 1318,114.3564 C1318,114.3564 1318,148.9864 1318,174.0664" fill="none" id="OrderActionBean-to-Order" style="stroke:#181818;stroke-width:2;"/><polygon fill="#181818" points="1318,180.0664,1322,171.0664,1318,175.0664,1314,171.0664,1318,180.0664" style="stroke:#181818;stroke-width:2;"/><text fill="#000000" font-family="Helvetica" font-size="13" lengthAdjust="spacing" textLength="7.23" x="836.52" y="110.8516">7</text></g><!--link OrderActionBean to AbstractActionBean--><g class="link" data-entity-1="OrderActionBean" data-entity-2="AbstractActionBean" data-source-line="63" data-uid="lnk51" id="link_OrderActionBean_AbstractActionBean"><path d="M343.4,80.7664 C343.4,131.5664 343.4,261.9764 343.4,312.3364" fill="none" id="OrderActionBean-to-AbstractActionBean" style="stroke:#181818;stroke-width:1;"/><polygon fill="#181818" points="343.4,318.3364,347.4,309.3364,343.4,313.3364,339.4,309.3364,343.4,318.3364" style="stroke:#181818;stroke-width:1;"/></g><!--link OrderActionBean to Account--><g class="link" data-entity-1="OrderActionBean" data-entity-2="Account" data-source-line="64" data-uid="lnk52" id="link_OrderActionBean_Account"><path d="M341.3,80.5364 C341.3,130.5964 341.3,261.3564 341.3,261.3564 C341.3,261.3564 220,261.3564 220,261.3564 C220,261.3564 220,397.3064 220,449.9864" fill="none" id="OrderActionBean-to-Account" style="stroke:#181818;stroke-width:1;"/><polygon fill="#181818" points="220,455.9864,224,446.9864,220,450.9864,216,446.9864,220,455.9864" style="stroke:#181818;stroke-width:1;"/></g><!--link OrderActionBean to OrderService--><g class="link" data-entity-1="OrderActionBean" data-entity-2="OrderService" data-source-line="65" data-uid="lnk53" id="link_OrderActionBean_OrderService"><path d="M282,41.9864 C282,33.0364 282,24.3564 282,24.3564 C282,24.3564 1441,24.3564 1441,24.3564 C1441,24.3564 1441,27.0364 1441,35.9864" fill="none" id="OrderActionBean-to-OrderService" style="stroke:#181818;stroke-width:1;"/><polygon fill="#181818" points="1441,41.9864,1445,32.9864,1441,36.9864,1437,32.9864,1441,41.9864" style="stroke:#181818;stroke-width:1;"/><text fill="#000000" font-family="Helvetica" font-size="13" lengthAdjust="spacing" textLength="7.23" x="853.5" y="20.8516">3</text></g><!--link OrderActionBean to AccountActionBean--><g class="link" data-entity-1="OrderActionBean" data-entity-2="AccountActionBean" data-source-line="66" data-uid="lnk54" id="link_OrderActionBean_AccountActionBean"><path d="M276.75,80.5464 C276.75,106.9064 276.75,148.0564 276.75,174.3264" fill="none" id="OrderActionBean-to-AccountActionBean" style="stroke:#181818;stroke-width:1;"/><polygon fill="#181818" points="276.75,180.3264,280.75,171.3264,276.75,175.3264,272.75,171.3264,276.75,180.3264" style="stroke:#181818;stroke-width:1;"/></g><!--link OrderActionBean to CartActionBean--><g class="link" data-entity-1="OrderActionBean" data-entity-2="CartActionBean" data-source-line="67" data-uid="lnk55" id="link_OrderActionBean_CartActionBean"><path d="M337.1,80.4464 C337.1,105.7764 337.1,147.3564 337.1,147.3564 C337.1,147.3564 1171,147.3564 1171,147.3564 C1171,147.3564 1171,159.4464 1171,174.2864" fill="none" id="OrderActionBean-to-CartActionBean" style="stroke:#181818;stroke-width:1;"/><polygon fill="#181818" points="1171,180.2864,1175,171.2864,1171,175.2864,1167,171.2864,1171,180.2864" style="stroke:#181818;stroke-width:1;"/><text fill="#000000" font-family="Helvetica" font-size="13" lengthAdjust="spacing" textLength="7.23" x="729.06" y="143.8516">2</text></g><!--SRC=[bLLTQzim57tNhn3PSy5nOMEX2xGTOuEnbdLlOmnDldDC7CcJbK8P- - -J5KkHzMKdVKXrxpbNvtuf_RvX7H7aW2luJOwj_C2P_48EW3z2-mooeGJjcWhmpKt7XTnkKMyP7Q5xKiET-ge5FxBgdhTSu5VlzSS12g2IiBfT06qR1lAb0wmkst77mNW5FNJuTU469cm_6DT5WKOrUALSif4DP-kLkG3_HVYi0g_K7-dnuyFNRp_FQ9kYbJNXF8WAn2qTe7T0c8xWsUB4MqfLnjAZ1jO4-LSl1Q41Ep1dxtu2yTnGS2yUJLcQYxV0VoXIwkAYKXSpfRvNG2_XgIdJ8JTLrn2dFC6V8x0HRWwPwEUmST1dDRwV91mqpXpIIThKqX0RpHpYK0kRGAAzAY_gLJdRAqbQNWVjygn9CjHSl1YEFiIXZu9NHtggsFX_Lf0x1rEJMnrT-wllSjVGFOE-VtVzusfhInswruDRktIT0vTHji5hPDiVe6pyD4IxJuCM-0mhuYy7lzdO3NwR2Z4eGDvB4816FvgiKO0oMvE6QL7QEnFgd5GoZCqzV3-3DXhzUUWfrU0zdM6vXHx5Bhd7cyGDlaRUonPSebkL0INqwn6SemLooWKKPpTom17almFBfUUOPQX-oLrwruRe_WztV5mLz4qMcfgTUOwxMZdWP1k6SLaQ-X8rNYlL6Fm7]--></g></svg>