<svg xmlns="http://www.w3.org/2000/svg" xmlns:xlink="http://www.w3.org/1999/xlink" contentStyleType="text/css" data-diagram-type="DESCRIPTION" height="793px" preserveAspectRatio="none" style="width:3597px;height:793px;background:#FFFFFF;" version="1.1" viewBox="0 0 3597 793" width="3597px" zoomAndPan="magnify"><defs/><g><!--cluster partition0--><g class="cluster" data-entity="partition0" data-source-line="8" data-uid="ent0002" id="cluster_partition0"><path d="M1514.5,6 L1579.2793,6 A3.75,3.75 0 0 1 1581.7793,8.5 L1588.7793,29.6094 L2995.5,29.6094 A2.5,2.5 0 0 1 2998,32.1094 L2998,507.5 A2.5,2.5 0 0 1 2995.5,510 L1514.5,510 A2.5,2.5 0 0 1 1512,507.5 L1512,8.5 A2.5,2.5 0 0 1 1514.5,6" fill="#DDDDDD" style="stroke:#000000;stroke-width:1.5;"/><line style="stroke:#000000;stroke-width:1.5;" x1="1512" x2="1588.7793" y1="29.6094" y2="29.6094"/><text fill="#000000" font-family="Helvetica" font-size="14" font-weight="bold" lengthAdjust="spacing" textLength="63.7793" x="1516" y="22.5332">partition0</text></g><!--cluster partition1--><g class="cluster" data-entity="partition1" data-source-line="20" data-uid="ent0012" id="cluster_partition1"><path d="M8.5,282 L73.2793,282 A3.75,3.75 0 0 1 75.7793,284.5 L82.7793,305.6094 L1450.5,305.6094 A2.5,2.5 0 0 1 1453,308.1094 L1453,783.5 A2.5,2.5 0 0 1 1450.5,786 L8.5,786 A2.5,2.5 0 0 1 6,783.5 L6,284.5 A2.5,2.5 0 0 1 8.5,282" fill="#DDDDDD" style="stroke:#000000;stroke-width:1.5;"/><line style="stroke:#000000;stroke-width:1.5;" x1="6" x2="82.7793" y1="305.6094" y2="305.6094"/><text fill="#000000" font-family="Helvetica" font-size="14" font-weight="bold" lengthAdjust="spacing" textLength="63.7793" x="10" y="298.5332">partition1</text></g><!--cluster partition2--><g class="cluster" data-entity="partition2" data-source-line="36" data-uid="ent0026" id="cluster_partition2"><path d="M3024.5,144 L3089.2793,144 A3.75,3.75 0 0 1 3091.7793,146.5 L3098.7793,167.6094 L3587.5,167.6094 A2.5,2.5 0 0 1 3590,170.1094 L3590,507.5 A2.5,2.5 0 0 1 3587.5,510 L3024.5,510 A2.5,2.5 0 0 1 3022,507.5 L3022,146.5 A2.5,2.5 0 0 1 3024.5,144" fill="#DDDDDD" style="stroke:#000000;stroke-width:1.5;"/><line style="stroke:#000000;stroke-width:1.5;" x1="3022" x2="3098.7793" y1="167.6094" y2="167.6094"/><text fill="#000000" font-family="Helvetica" font-size="14" font-weight="bold" lengthAdjust="spacing" textLength="63.7793" x="3026" y="160.5332">partition2</text></g><!--entity PORT_partition0--><!--entity OrderActionBean_partition0_partition0--><g class="entity" data-entity="OrderActionBean_partition0_partition0" data-source-line="10" data-uid="ent0004" id="entity_OrderActionBean_partition0_partition0"><rect fill="#DDDDDD" height="37.6094" rx="2.5" ry="2.5" style="stroke:#181818;stroke-width:0.5;" width="271.002" x="2588.5" y="42"/><text fill="#000000" font-family="Helvetica" font-size="14" lengthAdjust="spacing" textLength="251.002" x="2598.5" y="66.5332">OrderActionBean@partition0@partition0</text></g><!--entity OrderService_partition0_partition0--><g class="entity" data-entity="OrderService_partition0_partition0" data-source-line="11" data-uid="ent0005" id="entity_OrderService_partition0_partition0"><rect fill="#DDDDDD" height="37.6094" rx="2.5" ry="2.5" style="stroke:#181818;stroke-width:0.5;" width="246.0781" x="2318" y="180"/><text fill="#000000" font-family="Helvetica" font-size="14" lengthAdjust="spacing" textLength="226.0781" x="2328" y="204.5332">OrderService@partition0@partition0</text></g><!--entity LineItemMapper_partition0_partition0--><g class="entity" data-entity="LineItemMapper_partition0_partition0" data-source-line="12" data-uid="ent0006" id="entity_LineItemMapper_partition0_partition0"><rect fill="#DDDDDD" height="37.6094" rx="2.5" ry="2.5" style="stroke:#181818;stroke-width:0.5;" width="264.7744" x="2150.5" y="318"/><text fill="#000000" font-family="Helvetica" font-size="14" lengthAdjust="spacing" textLength="244.7744" x="2160.5" y="342.5332">LineItemMapper@partition0@partition0</text></g><!--entity Order_partition0_partition0--><g class="entity" data-entity="Order_partition0_partition0" data-source-line="13" data-uid="ent0007" id="entity_Order_partition0_partition0"><rect fill="#DDDDDD" height="37.6094" rx="2.5" ry="2.5" style="stroke:#181818;stroke-width:0.5;" width="199.3955" x="2782.5" y="318"/><text fill="#000000" font-family="Helvetica" font-size="14" lengthAdjust="spacing" textLength="179.3955" x="2792.5" y="342.5332">Order@partition0@partition0</text></g><!--entity OrderMapper_partition0_partition0--><g class="entity" data-entity="OrderMapper_partition0_partition0" data-source-line="14" data-uid="ent0008" id="entity_OrderMapper_partition0_partition0"><rect fill="#DDDDDD" height="37.6094" rx="2.5" ry="2.5" style="stroke:#181818;stroke-width:0.5;" width="246.8643" x="2475.5" y="318"/><text fill="#000000" font-family="Helvetica" font-size="14" lengthAdjust="spacing" textLength="226.8643" x="2485.5" y="342.5332">OrderMapper@partition0@partition0</text></g><!--entity Sequence_partition0_partition0--><g class="entity" data-entity="Sequence_partition0_partition0" data-source-line="15" data-uid="ent0009" id="entity_Sequence_partition0_partition0"><rect fill="#DDDDDD" height="37.6094" rx="2.5" ry="2.5" style="stroke:#181818;stroke-width:0.5;" width="226.6641" x="1528.5" y="318"/><text fill="#000000" font-family="Helvetica" font-size="14" lengthAdjust="spacing" textLength="206.6641" x="1538.5" y="342.5332">Sequence@partition0@partition0</text></g><!--entity SequenceMapper_partition0_partition0--><g class="entity" data-entity="SequenceMapper_partition0_partition0" data-source-line="16" data-uid="ent0010" id="entity_SequenceMapper_partition0_partition0"><rect fill="#DDDDDD" height="37.6094" rx="2.5" ry="2.5" style="stroke:#181818;stroke-width:0.5;" width="274.1328" x="1816" y="318"/><text fill="#000000" font-family="Helvetica" font-size="14" lengthAdjust="spacing" textLength="254.1328" x="1826" y="342.5332">SequenceMapper@partition0@partition0</text></g><!--entity LineItem_partition0_partition0--><g class="entity" data-entity="LineItem_partition0_partition0" data-source-line="17" data-uid="ent0011" id="entity_LineItem_partition0_partition0"><rect fill="#DDDDDD" height="37.6094" rx="2.5" ry="2.5" style="stroke:#181818;stroke-width:0.5;" width="217.3057" x="1528.5" y="456"/><text fill="#000000" font-family="Helvetica" font-size="14" lengthAdjust="spacing" textLength="197.3057" x="1538.5" y="480.5332">LineItem@partition0@partition0</text></g><!--entity PORT_partition1--><!--entity AccountActionBean_partition1_partition1--><g class="entity" data-entity="AccountActionBean_partition1_partition1" data-source-line="22" data-uid="ent0014" id="entity_AccountActionBean_partition1_partition1"><rect fill="#DDDDDD" height="37.6094" rx="2.5" ry="2.5" style="stroke:#181818;stroke-width:0.5;" width="285.8018" x="1060" y="318"/><text fill="#000000" font-family="Helvetica" font-size="14" lengthAdjust="spacing" textLength="265.8018" x="1070" y="342.5332">AccountActionBean@partition1@partition1</text></g><!--entity CartActionBean_partition1_partition1--><g class="entity" data-entity="CartActionBean_partition1_partition1" data-source-line="23" data-uid="ent0015" id="entity_CartActionBean_partition1_partition1"><rect fill="#DDDDDD" height="37.6094" rx="2.5" ry="2.5" style="stroke:#181818;stroke-width:0.5;" width="261.6641" x="616" y="318"/><text fill="#000000" font-family="Helvetica" font-size="14" lengthAdjust="spacing" textLength="241.6641" x="626" y="342.5332">CartActionBean@partition1@partition1</text></g><!--entity CatalogActionBean_partition1_partition1--><g class="entity" data-entity="CatalogActionBean_partition1_partition1" data-source-line="24" data-uid="ent0016" id="entity_CatalogActionBean_partition1_partition1"><rect fill="#DDDDDD" height="37.6094" rx="2.5" ry="2.5" style="stroke:#181818;stroke-width:0.5;" width="283.4707" x="272.5" y="318"/><text fill="#000000" font-family="Helvetica" font-size="14" lengthAdjust="spacing" textLength="263.4707" x="282.5" y="342.5332">CatalogActionBean@partition1@partition1</text></g><!--entity Category_partition1_partition1--><g class="entity" data-entity="Category_partition1_partition1" data-source-line="25" data-uid="ent0017" id="entity_Category_partition1_partition1"><rect fill="#DDDDDD" height="37.6094" rx="2.5" ry="2.5" style="stroke:#181818;stroke-width:0.5;" width="220.416" x="870" y="456"/><text fill="#000000" font-family="Helvetica" font-size="14" lengthAdjust="spacing" textLength="200.416" x="880" y="480.5332">Category@partition1@partition1</text></g><!--entity Cart_partition1_partition1--><g class="entity" data-entity="Cart_partition1_partition1" data-source-line="26" data-uid="ent0018" id="entity_Cart_partition1_partition1"><rect fill="#DDDDDD" height="37.6094" rx="2.5" ry="2.5" style="stroke:#181818;stroke-width:0.5;" width="190.0576" x="1191" y="456"/><text fill="#000000" font-family="Helvetica" font-size="14" lengthAdjust="spacing" textLength="170.0576" x="1201" y="480.5332">Cart@partition1@partition1</text></g><!--entity CatalogService_partition1_partition1--><g class="entity" data-entity="CatalogService_partition1_partition1" data-source-line="27" data-uid="ent0019" id="entity_CatalogService_partition1_partition1"><rect fill="#DDDDDD" height="37.6094" rx="2.5" ry="2.5" style="stroke:#181818;stroke-width:0.5;" width="258.5469" x="331.5" y="456"/><text fill="#000000" font-family="Helvetica" font-size="14" lengthAdjust="spacing" textLength="238.5469" x="341.5" y="480.5332">CatalogService@partition1@partition1</text></g><!--entity CartItem_partition1_partition1--><g class="entity" data-entity="CartItem_partition1_partition1" data-source-line="28" data-uid="ent0020" id="entity_CartItem_partition1_partition1"><rect fill="#DDDDDD" height="37.6094" rx="2.5" ry="2.5" style="stroke:#181818;stroke-width:0.5;" width="217.2852" x="1219.5" y="594"/><text fill="#000000" font-family="Helvetica" font-size="14" lengthAdjust="spacing" textLength="197.2852" x="1229.5" y="618.5332">CartItem@partition1@partition1</text></g><!--entity Item_partition1_partition1--><g class="entity" data-entity="Item_partition1_partition1" data-source-line="29" data-uid="ent0021" id="entity_Item_partition1_partition1"><rect fill="#DDDDDD" height="37.6094" rx="2.5" ry="2.5" style="stroke:#181818;stroke-width:0.5;" width="190.8369" x="968.5" y="594"/><text fill="#000000" font-family="Helvetica" font-size="14" lengthAdjust="spacing" textLength="170.8369" x="978.5" y="618.5332">Item@partition1@partition1</text></g><!--entity CategoryMapper_partition1_partition1--><g class="entity" data-entity="CategoryMapper_partition1_partition1" data-source-line="30" data-uid="ent0022" id="entity_CategoryMapper_partition1_partition1"><rect fill="#DDDDDD" height="37.6094" rx="2.5" ry="2.5" style="stroke:#181818;stroke-width:0.5;" width="267.8848" x="640" y="594"/><text fill="#000000" font-family="Helvetica" font-size="14" lengthAdjust="spacing" textLength="247.8848" x="650" y="618.5332">CategoryMapper@partition1@partition1</text></g><!--entity ItemMapper_partition1_partition1--><g class="entity" data-entity="ItemMapper_partition1_partition1" data-source-line="31" data-uid="ent0023" id="entity_ItemMapper_partition1_partition1"><rect fill="#DDDDDD" height="37.6094" rx="2.5" ry="2.5" style="stroke:#181818;stroke-width:0.5;" width="238.3057" x="22" y="594"/><text fill="#000000" font-family="Helvetica" font-size="14" lengthAdjust="spacing" textLength="218.3057" x="32" y="618.5332">ItemMapper@partition1@partition1</text></g><!--entity ProductMapper_partition1_partition1--><g class="entity" data-entity="ProductMapper_partition1_partition1" data-source-line="32" data-uid="ent0024" id="entity_ProductMapper_partition1_partition1"><rect fill="#DDDDDD" height="37.6094" rx="2.5" ry="2.5" style="stroke:#181818;stroke-width:0.5;" width="259.3262" x="320.5" y="594"/><text fill="#000000" font-family="Helvetica" font-size="14" lengthAdjust="spacing" textLength="239.3262" x="330.5" y="618.5332">ProductMapper@partition1@partition1</text></g><!--entity Product_partition1_partition1--><g class="entity" data-entity="Product_partition1_partition1" data-source-line="33" data-uid="ent0025" id="entity_Product_partition1_partition1"><rect fill="#DDDDDD" height="37.6094" rx="2.5" ry="2.5" style="stroke:#181818;stroke-width:0.5;" width="211.8574" x="958" y="732"/><text fill="#000000" font-family="Helvetica" font-size="14" lengthAdjust="spacing" textLength="191.8574" x="968" y="756.5332">Product@partition1@partition1</text></g><!--entity PORT_partition2--><!--entity AccountActionBean_partition2_partition2--><g class="entity" data-entity="AccountActionBean_partition2_partition2" data-source-line="38" data-uid="ent0028" id="entity_AccountActionBean_partition2_partition2"><rect fill="#DDDDDD" height="37.6094" rx="2.5" ry="2.5" style="stroke:#181818;stroke-width:0.5;" width="285.8018" x="3038" y="180"/><text fill="#000000" font-family="Helvetica" font-size="14" lengthAdjust="spacing" textLength="265.8018" x="3048" y="204.5332">AccountActionBean@partition2@partition2</text></g><!--entity AccountService_partition2_partition2--><g class="entity" data-entity="AccountService_partition2_partition2" data-source-line="39" data-uid="ent0029" id="entity_AccountService_partition2_partition2"><rect fill="#DDDDDD" height="37.6094" rx="2.5" ry="2.5" style="stroke:#181818;stroke-width:0.5;" width="260.8779" x="3050.5" y="318"/><text fill="#000000" font-family="Helvetica" font-size="14" lengthAdjust="spacing" textLength="240.8779" x="3060.5" y="342.5332">AccountService@partition2@partition2</text></g><!--entity Account_partition2_partition2--><g class="entity" data-entity="Account_partition2_partition2" data-source-line="40" data-uid="ent0030" id="entity_Account_partition2_partition2"><rect fill="#DDDDDD" height="37.6094" rx="2.5" ry="2.5" style="stroke:#181818;stroke-width:0.5;" width="214.1953" x="3360" y="456"/><text fill="#000000" font-family="Helvetica" font-size="14" lengthAdjust="spacing" textLength="194.1953" x="3370" y="480.5332">Account@partition2@partition2</text></g><!--entity AccountMapper_partition2_partition2--><g class="entity" data-entity="AccountMapper_partition2_partition2" data-source-line="41" data-uid="ent0031" id="entity_AccountMapper_partition2_partition2"><rect fill="#DDDDDD" height="37.6094" rx="2.5" ry="2.5" style="stroke:#181818;stroke-width:0.5;" width="261.6641" x="3038" y="456"/><text fill="#000000" font-family="Helvetica" font-size="14" lengthAdjust="spacing" textLength="241.6641" x="3048" y="480.5332">AccountMapper@partition2@partition2</text></g><!--link AccountActionBean_partition2_partition2 to Account_partition2_partition2--><g class="link" data-entity-1="AccountActionBean_partition2_partition2" data-entity-2="Account_partition2_partition2" data-source-line="44" data-uid="lnk32" id="link_AccountActionBean_partition2_partition2_Account_partition2_partition2"><path d="M3317.75,218.42 C3317.75,280.33 3317.75,469 3317.75,469 C3317.75,469 3329.99,469 3353.72,469" fill="none" id="AccountActionBean_partition2_partition2-to-Account_partition2_partition2" style="stroke:#181818;stroke-width:3;"/><polygon fill="#181818" points="3359.72,469,3350.72,465,3354.72,469,3350.72,473,3359.72,469" style="stroke:#181818;stroke-width:3;"/></g><!--link AccountActionBean_partition2_partition2 to AccountService_partition2_partition2--><g class="link" data-entity-1="AccountActionBean_partition2_partition2" data-entity-2="AccountService_partition2_partition2" data-source-line="45" data-uid="lnk33" id="link_AccountActionBean_partition2_partition2_AccountService_partition2_partition2"><path d="M3181,218.19 C3181,244.55 3181,285.7 3181,311.97" fill="none" id="AccountActionBean_partition2_partition2-to-AccountService_partition2_partition2" style="stroke:#181818;stroke-width:2;"/><polygon fill="#181818" points="3181,317.97,3185,308.97,3181,312.97,3177,308.97,3181,317.97" style="stroke:#181818;stroke-width:2;"/></g><!--link AccountActionBean_partition2_partition2 to CatalogService_partition1_partition1--><g class="link" data-entity-1="AccountActionBean_partition2_partition2" data-entity-2="CatalogService_partition1_partition1" data-source-line="46" data-uid="lnk34" id="link_AccountActionBean_partition2_partition2_CatalogService_partition1_partition1"><path d="M3044.25,218.13 C3044.25,233.32 3044.25,252 3044.25,252 C3044.25,252 573,252 573,252 C573,252 573,396.06 573,449.99" fill="none" id="AccountActionBean_partition2_partition2-to-CatalogService_partition1_partition1" style="stroke:#181818;stroke-width:1;"/><polygon fill="#181818" points="573,455.99,577,446.99,573,450.99,569,446.99,573,455.99" style="stroke:#181818;stroke-width:1;"/><text fill="#000000" font-family="Helvetica" font-size="13" lengthAdjust="spacing" textLength="7.23" x="1715.56" y="248.4951">3</text></g><!--link AccountService_partition2_partition2 to Account_partition2_partition2--><g class="link" data-entity-1="AccountService_partition2_partition2" data-entity-2="Account_partition2_partition2" data-source-line="47" data-uid="lnk35" id="link_AccountService_partition2_partition2_Account_partition2_partition2"><path d="M3305.75,356.25 C3305.75,395.7 3305.75,482 3305.75,482 C3305.75,482 3324.11,482 3353.89,482" fill="none" id="AccountService_partition2_partition2-to-Account_partition2_partition2" style="stroke:#181818;stroke-width:1;"/><polygon fill="#181818" points="3359.89,482,3350.89,478,3354.89,482,3350.89,486,3359.89,482" style="stroke:#181818;stroke-width:1;"/></g><!--link AccountService_partition2_partition2 to AccountMapper_partition2_partition2--><g class="link" data-entity-1="AccountService_partition2_partition2" data-entity-2="AccountMapper_partition2_partition2" data-source-line="48" data-uid="lnk36" id="link_AccountService_partition2_partition2_AccountMapper_partition2_partition2"><path d="M3175.25,356.19 C3175.25,382.55 3175.25,423.7 3175.25,449.97" fill="none" id="AccountService_partition2_partition2-to-AccountMapper_partition2_partition2" style="stroke:#181818;stroke-width:3;"/><polygon fill="#181818" points="3175.25,455.97,3179.25,446.97,3175.25,450.97,3171.25,446.97,3175.25,455.97" style="stroke:#181818;stroke-width:3;"/></g><!--link Cart_partition1_partition1 to CartItem_partition1_partition1--><g class="link" data-entity-1="Cart_partition1_partition1" data-entity-2="CartItem_partition1_partition1" data-source-line="49" data-uid="lnk37" id="link_Cart_partition1_partition1_CartItem_partition1_partition1"><path d="M1300.25,494.19 C1300.25,520.55 1300.25,561.7 1300.25,587.97" fill="none" id="Cart_partition1_partition1-to-CartItem_partition1_partition1" style="stroke:#181818;stroke-width:3;"/><polygon fill="#181818" points="1300.25,593.97,1304.25,584.97,1300.25,588.97,1296.25,584.97,1300.25,593.97" style="stroke:#181818;stroke-width:3;"/></g><!--link Cart_partition1_partition1 to Item_partition1_partition1--><g class="link" data-entity-1="Cart_partition1_partition1" data-entity-2="Item_partition1_partition1" data-source-line="50" data-uid="lnk38" id="link_Cart_partition1_partition1_Item_partition1_partition1"><path d="M1205.25,494.19 C1205.25,532.11 1205.25,613 1205.25,613 C1205.25,613 1190.97,613 1165.78,613" fill="none" id="Cart_partition1_partition1-to-Item_partition1_partition1" style="stroke:#181818;stroke-width:1;"/><polygon fill="#181818" points="1159.78,613,1168.78,617,1164.78,613,1168.78,609,1159.78,613" style="stroke:#181818;stroke-width:1;"/></g><!--link CartActionBean_partition1_partition1 to Cart_partition1_partition1--><g class="link" data-entity-1="CartActionBean_partition1_partition1" data-entity-2="Cart_partition1_partition1" data-source-line="51" data-uid="lnk39" id="link_CartActionBean_partition1_partition1_Cart_partition1_partition1"><path d="M874,356.03 C874,378.84 874,414 874,414 C874,414 1268.5,414 1268.5,414 C1268.5,414 1268.5,431.83 1268.5,449.7" fill="none" id="CartActionBean_partition1_partition1-to-Cart_partition1_partition1" style="stroke:#181818;stroke-width:3;"/><polygon fill="#181818" points="1268.5,455.7,1272.5,446.7,1268.5,450.7,1264.5,446.7,1268.5,455.7" style="stroke:#181818;stroke-width:3;"/></g><!--link CartActionBean_partition1_partition1 to CartItem_partition1_partition1--><g class="link" data-entity-1="CartActionBean_partition1_partition1" data-entity-2="CartItem_partition1_partition1" data-source-line="52" data-uid="lnk40" id="link_CartActionBean_partition1_partition1_CartItem_partition1_partition1"><path d="M876,356.25 C876,369.6 876,385 876,385 C876,385 1399.5,385 1399.5,385 C1399.5,385 1399.5,533.16 1399.5,587.95" fill="none" id="CartActionBean_partition1_partition1-to-CartItem_partition1_partition1" style="stroke:#181818;stroke-width:1;"/><polygon fill="#181818" points="1399.5,593.95,1403.5,584.95,1399.5,588.95,1395.5,584.95,1399.5,593.95" style="stroke:#181818;stroke-width:1;"/></g><!--link CartActionBean_partition1_partition1 to CatalogService_partition1_partition1--><g class="link" data-entity-1="CartActionBean_partition1_partition1" data-entity-2="CatalogService_partition1_partition1" data-source-line="53" data-uid="lnk41" id="link_CartActionBean_partition1_partition1_CatalogService_partition1_partition1"><path d="M628,356.19 C628,394.11 628,475 628,475 C628,475 618.3,475 596.52,475" fill="none" id="CartActionBean_partition1_partition1-to-CatalogService_partition1_partition1" style="stroke:#181818;stroke-width:1;"/><polygon fill="#181818" points="590.52,475,599.52,479,595.52,475,599.52,471,590.52,475" style="stroke:#181818;stroke-width:1;"/></g><!--link CartActionBean_partition1_partition1 to Item_partition1_partition1--><g class="link" data-entity-1="CartActionBean_partition1_partition1" data-entity-2="Item_partition1_partition1" data-source-line="54" data-uid="lnk42" id="link_CartActionBean_partition1_partition1_Item_partition1_partition1"><path d="M872,356.3 C872,383.01 872,428 872,428 C872,428 1124.75,428 1124.75,428 C1124.75,428 1124.75,540.63 1124.75,587.9" fill="none" id="CartActionBean_partition1_partition1-to-Item_partition1_partition1" style="stroke:#181818;stroke-width:1;"/><polygon fill="#181818" points="1124.75,593.9,1128.75,584.9,1124.75,588.9,1120.75,584.9,1124.75,593.9" style="stroke:#181818;stroke-width:1;"/></g><!--link CatalogActionBean_partition1_partition1 to CatalogService_partition1_partition1--><g class="link" data-entity-1="CatalogActionBean_partition1_partition1" data-entity-2="CatalogService_partition1_partition1" data-source-line="55" data-uid="lnk43" id="link_CatalogActionBean_partition1_partition1_CatalogService_partition1_partition1"><path d="M406.17,356.19 C406.17,382.55 406.17,423.7 406.17,449.97" fill="none" id="CatalogActionBean_partition1_partition1-to-CatalogService_partition1_partition1" style="stroke:#181818;stroke-width:2;"/><polygon fill="#181818" points="406.17,455.97,410.17,446.97,406.17,450.97,402.17,446.97,406.17,455.97" style="stroke:#181818;stroke-width:2;"/></g><!--link CatalogActionBean_partition1_partition1 to Item_partition1_partition1--><g class="link" data-entity-1="CatalogActionBean_partition1_partition1" data-entity-2="Item_partition1_partition1" data-source-line="56" data-uid="lnk44" id="link_CatalogActionBean_partition1_partition1_Item_partition1_partition1"><path d="M480.83,356.26 C480.83,386.57 480.83,442 480.83,442 C480.83,442 1107.38,442 1107.38,442 C1107.38,442 1107.38,543 1107.38,587.72" fill="none" id="CatalogActionBean_partition1_partition1-to-Item_partition1_partition1" style="stroke:#181818;stroke-width:1;"/><polygon fill="#181818" points="1107.38,593.72,1111.38,584.72,1107.38,588.72,1103.38,584.72,1107.38,593.72" style="stroke:#181818;stroke-width:1;"/></g><!--link CatalogService_partition1_partition1 to CategoryMapper_partition1_partition1--><g class="link" data-entity-1="CatalogService_partition1_partition1" data-entity-2="CategoryMapper_partition1_partition1" data-source-line="57" data-uid="lnk45" id="link_CatalogService_partition1_partition1_CategoryMapper_partition1_partition1"><path d="M585,494.19 C585,532.11 585,613 585,613 C585,613 603.01,613 633.92,613" fill="none" id="CatalogService_partition1_partition1-to-CategoryMapper_partition1_partition1" style="stroke:#181818;stroke-width:1;"/><polygon fill="#181818" points="639.92,613,630.92,609,634.92,613,630.92,617,639.92,613" style="stroke:#181818;stroke-width:1;"/></g><!--link CatalogService_partition1_partition1 to ItemMapper_partition1_partition1--><g class="link" data-entity-1="CatalogService_partition1_partition1" data-entity-2="ItemMapper_partition1_partition1" data-source-line="58" data-uid="lnk46" id="link_CatalogService_partition1_partition1_ItemMapper_partition1_partition1"><path d="M331.31,475 C242.6,475 141,475 141,475 C141,475 141,549.89 141,587.81" fill="none" id="CatalogService_partition1_partition1-to-ItemMapper_partition1_partition1" style="stroke:#181818;stroke-width:1;"/><polygon fill="#181818" points="141,593.81,145,584.81,141,588.81,137,584.81,141,593.81" style="stroke:#181818;stroke-width:1;"/></g><!--link CatalogService_partition1_partition1 to ProductMapper_partition1_partition1--><g class="link" data-entity-1="CatalogService_partition1_partition1" data-entity-2="ProductMapper_partition1_partition1" data-source-line="59" data-uid="lnk47" id="link_CatalogService_partition1_partition1_ProductMapper_partition1_partition1"><path d="M455.5,494.19 C455.5,520.55 455.5,561.7 455.5,587.97" fill="none" id="CatalogService_partition1_partition1-to-ProductMapper_partition1_partition1" style="stroke:#181818;stroke-width:1;"/><polygon fill="#181818" points="455.5,593.97,459.5,584.97,455.5,588.97,451.5,584.97,455.5,593.97" style="stroke:#181818;stroke-width:1;"/></g><!--link Item_partition1_partition1 to Product_partition1_partition1--><g class="link" data-entity-1="Item_partition1_partition1" data-entity-2="Product_partition1_partition1" data-source-line="60" data-uid="lnk48" id="link_Item_partition1_partition1_Product_partition1_partition1"><path d="M1064,632.19 C1064,658.55 1064,699.7 1064,725.97" fill="none" id="Item_partition1_partition1-to-Product_partition1_partition1" style="stroke:#181818;stroke-width:1;"/><polygon fill="#181818" points="1064,731.97,1068,722.97,1064,726.97,1060,722.97,1064,731.97" style="stroke:#181818;stroke-width:1;"/></g><!--link LineItem_partition0_partition0 to CartItem_partition1_partition1--><g class="link" data-entity-1="LineItem_partition0_partition0" data-entity-2="CartItem_partition1_partition1" data-source-line="61" data-uid="lnk49" id="link_LineItem_partition0_partition0_CartItem_partition1_partition1"><path d="M1528.46,475 C1473.39,475 1418,475 1418,475 C1418,475 1418,549.89 1418,587.81" fill="none" id="LineItem_partition0_partition0-to-CartItem_partition1_partition1" style="stroke:#181818;stroke-width:1;"/><polygon fill="#181818" points="1418,593.81,1422,584.81,1418,588.81,1414,584.81,1418,593.81" style="stroke:#181818;stroke-width:1;"/><text fill="#000000" font-family="Helvetica" font-size="13" lengthAdjust="spacing" textLength="7.23" x="1410" y="475.6651">2</text></g><!--link LineItem_partition0_partition0 to Item_partition1_partition1--><g class="link" data-entity-1="LineItem_partition0_partition0" data-entity-2="Item_partition1_partition1" data-source-line="62" data-uid="lnk50" id="link_LineItem_partition0_partition0_Item_partition1_partition1"><path d="M1637,494.22 C1637,514.64 1637,544 1637,544 C1637,544 1142.12,544 1142.12,544 C1142.12,544 1142.12,567.36 1142.12,587.78" fill="none" id="LineItem_partition0_partition0-to-Item_partition1_partition1" style="stroke:#181818;stroke-width:1;"/><polygon fill="#181818" points="1142.12,593.78,1146.12,584.78,1142.12,588.78,1138.12,584.78,1142.12,593.78" style="stroke:#181818;stroke-width:1;"/><text fill="#000000" font-family="Helvetica" font-size="13" lengthAdjust="spacing" textLength="7.23" x="1381.56" y="540.4951">2</text></g><!--link Order_partition0_partition0 to Account_partition2_partition2--><g class="link" data-entity-1="Order_partition0_partition0" data-entity-2="Account_partition2_partition2" data-source-line="63" data-uid="lnk51" id="link_Order_partition0_partition0_Account_partition2_partition2"><path d="M2931.75,356.28 C2931.75,374.48 2931.75,399 2931.75,399 C2931.75,399 3368,399 3368,399 C3368,399 3368,427.31 3368,449.82" fill="none" id="Order_partition0_partition0-to-Account_partition2_partition2" style="stroke:#181818;stroke-width:3;"/><polygon fill="#181818" points="3368,455.82,3372,446.82,3368,450.82,3364,446.82,3368,455.82" style="stroke:#181818;stroke-width:3;"/><text fill="#000000" font-family="Helvetica" font-size="13" lengthAdjust="spacing" textLength="7.23" x="3148.92" y="395.4951">9</text></g><!--link Order_partition0_partition0 to Cart_partition1_partition1--><g class="link" data-entity-1="Order_partition0_partition0" data-entity-2="Cart_partition1_partition1" data-source-line="64" data-uid="lnk52" id="link_Order_partition0_partition0_Cart_partition1_partition1"><path d="M2832.25,356.38 C2832.25,364.02 2832.25,371 2832.25,371 C2832.25,371 1363.5,371 1363.5,371 C1363.5,371 1363.5,419.9 1363.5,449.92" fill="none" id="Order_partition0_partition0-to-Cart_partition1_partition1" style="stroke:#181818;stroke-width:1;"/><polygon fill="#181818" points="1363.5,455.92,1367.5,446.92,1363.5,450.92,1359.5,446.92,1363.5,455.92" style="stroke:#181818;stroke-width:1;"/><text fill="#000000" font-family="Helvetica" font-size="13" lengthAdjust="spacing" textLength="7.23" x="2054.72" y="385.4951">2</text></g><!--link Order_partition0_partition0 to LineItem_partition0_partition0--><g class="link" data-entity-1="Order_partition0_partition0" data-entity-2="LineItem_partition0_partition0" data-source-line="65" data-uid="lnk53" id="link_Order_partition0_partition0_LineItem_partition0_partition0"><path d="M2882,356.19 C2882,394.11 2882,475 2882,475 C2882,475 2054.71,475 1751.58,475" fill="none" id="Order_partition0_partition0-to-LineItem_partition0_partition0" style="stroke:#181818;stroke-width:1;"/><polygon fill="#181818" points="1745.58,475,1754.58,479,1750.58,475,1754.58,471,1745.58,475" style="stroke:#181818;stroke-width:1;"/></g><!--link OrderActionBean_partition0_partition0 to Account_partition2_partition2--><g class="link" data-entity-1="OrderActionBean_partition0_partition0" data-entity-2="Account_partition2_partition2" data-source-line="66" data-uid="lnk54" id="link_OrderActionBean_partition0_partition0_Account_partition2_partition2"><path d="M2828.7,80.1 C2828.7,134.27 2828.7,285 2828.7,285 C2828.7,285 3376,285 3376,285 C3376,285 3376,401.43 3376,449.74" fill="none" id="OrderActionBean_partition0_partition0-to-Account_partition2_partition2" style="stroke:#181818;stroke-width:1;"/><polygon fill="#181818" points="3376,455.74,3380,446.74,3376,450.74,3372,446.74,3376,455.74" style="stroke:#181818;stroke-width:1;"/><text fill="#000000" font-family="Helvetica" font-size="13" lengthAdjust="spacing" textLength="7.23" x="3077.27" y="281.4951">2</text></g><!--link OrderActionBean_partition0_partition0 to AccountActionBean_partition2_partition2--><g class="link" data-entity-1="OrderActionBean_partition0_partition0" data-entity-2="AccountActionBean_partition2_partition2" data-source-line="67" data-uid="lnk55" id="link_OrderActionBean_partition0_partition0_AccountActionBean_partition2_partition2"><path d="M2844.1,80.03 C2844.1,115.92 2844.1,190 2844.1,190 C2844.1,190 2939.94,190 3031.64,190" fill="none" id="OrderActionBean_partition0_partition0-to-AccountActionBean_partition2_partition2" style="stroke:#181818;stroke-width:1;"/><polygon fill="#181818" points="3037.64,190,3028.64,186,3032.64,190,3028.64,194,3037.64,190" style="stroke:#181818;stroke-width:1;"/><text fill="#000000" font-family="Helvetica" font-size="13" lengthAdjust="spacing" textLength="7.23" x="2877.88" y="186.4951">3</text></g><!--link OrderActionBean_partition0_partition0 to CartActionBean_partition1_partition1--><g class="link" data-entity-1="OrderActionBean_partition0_partition0" data-entity-2="CartActionBean_partition1_partition1" data-source-line="68" data-uid="lnk56" id="link_OrderActionBean_partition0_partition0_CartActionBean_partition1_partition1"><path d="M2588.11,61 C2141.45,61 747,61 747,61 C747,61 747,248.77 747,311.59" fill="none" id="OrderActionBean_partition0_partition0-to-CartActionBean_partition1_partition1" style="stroke:#181818;stroke-width:1;"/><polygon fill="#181818" points="747,317.59,751,308.59,747,312.59,743,308.59,747,317.59" style="stroke:#181818;stroke-width:1;"/><text fill="#000000" font-family="Helvetica" font-size="13" lengthAdjust="spacing" textLength="7.23" x="1531.26" y="57.4951">2</text></g><!--link OrderActionBean_partition0_partition0 to Order_partition0_partition0--><g class="link" data-entity-1="OrderActionBean_partition0_partition0" data-entity-2="Order_partition0_partition0" data-source-line="69" data-uid="lnk57" id="link_OrderActionBean_partition0_partition0_Order_partition0_partition0"><path d="M2813.3,80.41 C2813.3,131.21 2813.3,261.62 2813.3,311.98" fill="none" id="OrderActionBean_partition0_partition0-to-Order_partition0_partition0" style="stroke:#181818;stroke-width:3;"/><polygon fill="#181818" points="2813.3,317.98,2817.3,308.98,2813.3,312.98,2809.3,308.98,2813.3,317.98" style="stroke:#181818;stroke-width:3;"/></g><!--link OrderActionBean_partition0_partition0 to OrderService_partition0_partition0--><g class="link" data-entity-1="OrderActionBean_partition0_partition0" data-entity-2="OrderService_partition0_partition0" data-source-line="70" data-uid="lnk58" id="link_OrderActionBean_partition0_partition0_OrderService_partition0_partition0"><path d="M2655.5,80.19 C2655.5,118.11 2655.5,199 2655.5,199 C2655.5,199 2618.03,199 2570.22,199" fill="none" id="OrderActionBean_partition0_partition0-to-OrderService_partition0_partition0" style="stroke:#181818;stroke-width:1;"/><polygon fill="#181818" points="2564.22,199,2573.22,203,2569.22,199,2573.22,195,2564.22,199" style="stroke:#181818;stroke-width:1;"/></g><!--link OrderService_partition0_partition0 to LineItemMapper_partition0_partition0--><g class="link" data-entity-1="OrderService_partition0_partition0" data-entity-2="LineItemMapper_partition0_partition0" data-source-line="71" data-uid="lnk59" id="link_OrderService_partition0_partition0_LineItemMapper_partition0_partition0"><path d="M2366.75,218.19 C2366.75,244.55 2366.75,285.7 2366.75,311.97" fill="none" id="OrderService_partition0_partition0-to-LineItemMapper_partition0_partition0" style="stroke:#181818;stroke-width:1;"/><polygon fill="#181818" points="2366.75,317.97,2370.75,308.97,2366.75,312.97,2362.75,308.97,2366.75,317.97" style="stroke:#181818;stroke-width:1;"/></g><!--link OrderService_partition0_partition0 to Order_partition0_partition0--><g class="link" data-entity-1="OrderService_partition0_partition0" data-entity-2="Order_partition0_partition0" data-source-line="72" data-uid="lnk60" id="link_OrderService_partition0_partition0_Order_partition0_partition0"><path d="M2564.07,209 C2667.27,209 2797.9,209 2797.9,209 C2797.9,209 2797.9,276.13 2797.9,311.84" fill="none" id="OrderService_partition0_partition0-to-Order_partition0_partition0" style="stroke:#181818;stroke-width:2;"/><polygon fill="#181818" points="2797.9,317.84,2801.9,308.84,2797.9,312.84,2793.9,308.84,2797.9,317.84" style="stroke:#181818;stroke-width:2;"/></g><!--link OrderService_partition0_partition0 to OrderMapper_partition0_partition0--><g class="link" data-entity-1="OrderService_partition0_partition0" data-entity-2="OrderMapper_partition0_partition0" data-source-line="73" data-uid="lnk61" id="link_OrderService_partition0_partition0_OrderMapper_partition0_partition0"><path d="M2519.75,218.19 C2519.75,244.55 2519.75,285.7 2519.75,311.97" fill="none" id="OrderService_partition0_partition0-to-OrderMapper_partition0_partition0" style="stroke:#181818;stroke-width:2;"/><polygon fill="#181818" points="2519.75,317.97,2523.75,308.97,2519.75,312.97,2515.75,308.97,2519.75,317.97" style="stroke:#181818;stroke-width:2;"/></g><!--link OrderService_partition0_partition0 to Sequence_partition0_partition0--><g class="link" data-entity-1="OrderService_partition0_partition0" data-entity-2="Sequence_partition0_partition0" data-source-line="74" data-uid="lnk62" id="link_OrderService_partition0_partition0_Sequence_partition0_partition0"><path d="M2317.91,193 C2093.78,193 1642,193 1642,193 C1642,193 1642,272.71 1642,311.88" fill="none" id="OrderService_partition0_partition0-to-Sequence_partition0_partition0" style="stroke:#181818;stroke-width:1;"/><polygon fill="#181818" points="1642,317.88,1646,308.88,1642,312.88,1638,308.88,1642,317.88" style="stroke:#181818;stroke-width:1;"/></g><!--link OrderService_partition0_partition0 to SequenceMapper_partition0_partition0--><g class="link" data-entity-1="OrderService_partition0_partition0" data-entity-2="SequenceMapper_partition0_partition0" data-source-line="75" data-uid="lnk63" id="link_OrderService_partition0_partition0_SequenceMapper_partition0_partition0"><path d="M2317.86,206 C2173.29,206 1953,206 1953,206 C1953,206 1953,275.62 1953,311.95" fill="none" id="OrderService_partition0_partition0-to-SequenceMapper_partition0_partition0" style="stroke:#181818;stroke-width:1;"/><polygon fill="#181818" points="1953,317.95,1957,308.95,1953,312.95,1949,308.95,1953,317.95" style="stroke:#181818;stroke-width:1;"/></g><!--SRC=[hPXjQzim4CVV-rE8z7KXTc6mqONqWR71jfPrxyeOmhub9exaoKgXZ7ttAQP9vAUxazRsHQ4-__v_dNHtYPfDgMffv5OKy4lkAlj1A_jLRa5yXEe9R9dBP5qM82ulQstiOf4qnpTgcM_a2gxTdvNHErNSw4eRSNRR_dY11d8hrQfYX5Qb0ljSWt1YQ-qzKBg01chnPkw3fThi_vdEvycB6p5pZsnfIwtciuE0-9E8aminSx-o4VTttxx_F4KVbtYqrNddpXHWhl9zw3L8jJozkFGL7RSNwKduQjCY3s2UoXmeXPUm4FndbzrF5hPVP5s3GGIwWS4heAm70qd3NbG8_05-xq2XkJw4n619szt0cAraR2A1_PkCr4uQL3ifKJjNUUwAtevLJxhqDHrv4El9-8gZGZVkEKkb6nWcOMMbLqoLNcoW4AoqUSRvRKXeYeZ4HAHZqBEcSZ7eMZp7tQC-whfxr6aiWGp57VQYN_EJczQlUPvZ4Z_MjcdqlT75BhSalHCN8K2Z2UXejyg2kbKMtwsofQ-9TwlCLyI41hKpfJAe7RO4pOw0zW_B5Bf_M4O5tBvoStd-QDTblb7GDEylVfmly2L4OJCFYsOzYfxkwQn- -4vS9ApD7-1PEU4p_JnZ-vaWysF0mxis5zKkby2G4tZKssi1K-PYOw3q8Of4ervv7si65SMq6qvdEiQBRIoxvAIEH5DJEXBB6Cy9yi5cYZT18hvW19Q0QtPPC9B0OTysmyQ8mxrburAyWmHPQrbuMXBUZKFOZ3YPZ0QJGt4_tY8bM4qjRWdjOK2s9zOoVMkJC2vs9iy6TeSG2ivOAOZXlQRBTldu_Sn_8J6l_m00]--></g></svg>