<svg xmlns="http://www.w3.org/2000/svg" xmlns:xlink="http://www.w3.org/1999/xlink" contentStyleType="text/css" data-diagram-type="DESCRIPTION" height="793px" preserveAspectRatio="none" style="width:2925px;height:793px;background:#FFFFFF;" version="1.1" viewBox="0 0 2925 793" width="2925px" zoomAndPan="magnify"><defs/><g><!--cluster microservice1--><g class="cluster" data-entity="microservice1" data-source-line="8" data-uid="ent0002" id="cluster_microservice1"><path d="M1410.5,6.3564 L1505.6787,6.3564 A3.75,3.75 0 0 1 1508.1787,8.8564 L1515.1787,29.9658 L2797.5,29.9658 A2.5,2.5 0 0 1 2800,32.4658 L2800,231.8564 A2.5,2.5 0 0 1 2797.5,234.3564 L1410.5,234.3564 A2.5,2.5 0 0 1 1408,231.8564 L1408,8.8564 A2.5,2.5 0 0 1 1410.5,6.3564" fill="#DDDDDD" style="stroke:#000000;stroke-width:1.5;"/><line style="stroke:#000000;stroke-width:1.5;" x1="1408" x2="1515.1787" y1="29.9658" y2="29.9658"/><text fill="#000000" font-family="Helvetica" font-size="14" font-weight="bold" lengthAdjust="spacing" textLength="94.1787" x="1412" y="22.8896">microservice1</text></g><!--cluster microservice0--><g class="cluster" data-entity="microservice0" data-source-line="18" data-uid="ent0010" id="cluster_microservice0"><path d="M2312.5,558.3564 L2407.6787,558.3564 A3.75,3.75 0 0 1 2410.1787,560.8564 L2417.1787,581.9658 L2915.5,581.9658 A2.5,2.5 0 0 1 2918,584.4658 L2918,783.8564 A2.5,2.5 0 0 1 2915.5,786.3564 L2312.5,786.3564 A2.5,2.5 0 0 1 2310,783.8564 L2310,560.8564 A2.5,2.5 0 0 1 2312.5,558.3564" fill="#DDDDDD" style="stroke:#000000;stroke-width:1.5;"/><line style="stroke:#000000;stroke-width:1.5;" x1="2310" x2="2417.1787" y1="581.9658" y2="581.9658"/><text fill="#000000" font-family="Helvetica" font-size="14" font-weight="bold" lengthAdjust="spacing" textLength="94.1787" x="2314" y="574.8896">microservice0</text></g><!--cluster microservice2--><g class="cluster" data-entity="microservice2" data-source-line="26" data-uid="ent0016" id="cluster_microservice2"><path d="M8.5,6.3564 L103.6787,6.3564 A3.75,3.75 0 0 1 106.1787,8.8564 L113.1787,29.9658 L1381.5,29.9658 A2.5,2.5 0 0 1 1384,32.4658 L1384,645.8564 A2.5,2.5 0 0 1 1381.5,648.3564 L8.5,648.3564 A2.5,2.5 0 0 1 6,645.8564 L6,8.8564 A2.5,2.5 0 0 1 8.5,6.3564" fill="#DDDDDD" style="stroke:#000000;stroke-width:1.5;"/><line style="stroke:#000000;stroke-width:1.5;" x1="6" x2="113.1787" y1="29.9658" y2="29.9658"/><text fill="#000000" font-family="Helvetica" font-size="14" font-weight="bold" lengthAdjust="spacing" textLength="94.1787" x="10" y="22.8896">microservice2</text></g><!--entity PORT_microservice1--><!--entity AccountService_microservice1--><g class="entity" data-entity="AccountService_microservice1" data-source-line="10" data-uid="ent0004" id="entity_AccountService_microservice1"><rect fill="#DDDDDD" height="37.6094" rx="2.5" ry="2.5" style="stroke:#181818;stroke-width:0.5;" width="217.832" x="2444" y="42.3564"/><text fill="#000000" font-family="Helvetica" font-size="14" lengthAdjust="spacing" textLength="197.832" x="2454" y="66.8896">AccountService@microservice1</text></g><!--entity CartItem_microservice1--><g class="entity" data-entity="CartItem_microservice1" data-source-line="11" data-uid="ent0005" id="entity_CartItem_microservice1"><rect fill="#DDDDDD" height="37.6094" rx="2.5" ry="2.5" style="stroke:#181818;stroke-width:0.5;" width="174.2393" x="2210" y="42.3564"/><text fill="#000000" font-family="Helvetica" font-size="14" lengthAdjust="spacing" textLength="154.2393" x="2220" y="66.8896">CartItem@microservice1</text></g><!--entity LineItem_microservice1--><g class="entity" data-entity="LineItem_microservice1" data-source-line="12" data-uid="ent0006" id="entity_LineItem_microservice1"><rect fill="#DDDDDD" height="37.6094" rx="2.5" ry="2.5" style="stroke:#181818;stroke-width:0.5;" width="174.2598" x="1976" y="42.3564"/><text fill="#000000" font-family="Helvetica" font-size="14" lengthAdjust="spacing" textLength="154.2598" x="1986" y="66.8896">LineItem@microservice1</text></g><!--entity OrderActionBean_microservice1--><g class="entity" data-entity="OrderActionBean_microservice1" data-source-line="13" data-uid="ent0007" id="entity_OrderActionBean_microservice1"><rect fill="#DDDDDD" height="37.6094" rx="2.5" ry="2.5" style="stroke:#181818;stroke-width:0.5;" width="227.9561" x="1688" y="42.3564"/><text fill="#000000" font-family="Helvetica" font-size="14" lengthAdjust="spacing" textLength="207.9561" x="1698" y="66.8896">OrderActionBean@microservice1</text></g><!--entity OrderMapper_microservice1--><g class="entity" data-entity="OrderMapper_microservice1" data-source-line="14" data-uid="ent0008" id="entity_OrderMapper_microservice1"><rect fill="#DDDDDD" height="37.6094" rx="2.5" ry="2.5" style="stroke:#181818;stroke-width:0.5;" width="203.8184" x="1424" y="42.3564"/><text fill="#000000" font-family="Helvetica" font-size="14" lengthAdjust="spacing" textLength="183.8184" x="1434" y="66.8896">OrderMapper@microservice1</text></g><!--entity AccountMapper_microservice1--><g class="entity" data-entity="AccountMapper_microservice1" data-source-line="15" data-uid="ent0009" id="entity_AccountMapper_microservice1"><rect fill="#DDDDDD" height="37.6094" rx="2.5" ry="2.5" style="stroke:#181818;stroke-width:0.5;" width="218.6182" x="2242.5" y="180.3564"/><text fill="#000000" font-family="Helvetica" font-size="14" lengthAdjust="spacing" textLength="198.6182" x="2252.5" y="204.8896">AccountMapper@microservice1</text></g><!--entity PORT_microservice0--><!--entity AccountMapper_microservice0--><g class="entity" data-entity="AccountMapper_microservice0" data-source-line="20" data-uid="ent0012" id="entity_AccountMapper_microservice0"><rect fill="#DDDDDD" height="37.6094" rx="2.5" ry="2.5" style="stroke:#181818;stroke-width:0.5;" width="218.6182" x="2326.5" y="594.3564"/><text fill="#000000" font-family="Helvetica" font-size="14" lengthAdjust="spacing" textLength="198.6182" x="2336.5" y="618.8896">AccountMapper@microservice0</text></g><!--entity LineItem_microservice0--><g class="entity" data-entity="LineItem_microservice0" data-source-line="21" data-uid="ent0013" id="entity_LineItem_microservice0"><rect fill="#DDDDDD" height="37.6094" rx="2.5" ry="2.5" style="stroke:#181818;stroke-width:0.5;" width="174.2598" x="2728" y="594.3564"/><text fill="#000000" font-family="Helvetica" font-size="14" lengthAdjust="spacing" textLength="154.2598" x="2738" y="618.8896">LineItem@microservice0</text></g><!--entity LineItemMapper_microservice0--><g class="entity" data-entity="LineItemMapper_microservice0" data-source-line="22" data-uid="ent0014" id="entity_LineItemMapper_microservice0"><rect fill="#DDDDDD" height="37.6094" rx="2.5" ry="2.5" style="stroke:#181818;stroke-width:0.5;" width="221.7285" x="2464" y="732.3564"/><text fill="#000000" font-family="Helvetica" font-size="14" lengthAdjust="spacing" textLength="201.7285" x="2474" y="756.8896">LineItemMapper@microservice0</text></g><!--entity Order_microservice0--><g class="entity" data-entity="Order_microservice0" data-source-line="23" data-uid="ent0015" id="entity_Order_microservice0"><rect fill="#DDDDDD" height="37.6094" rx="2.5" ry="2.5" style="stroke:#181818;stroke-width:0.5;" width="156.3496" x="2746" y="732.3564"/><text fill="#000000" font-family="Helvetica" font-size="14" lengthAdjust="spacing" textLength="136.3496" x="2756" y="756.8896">Order@microservice0</text></g><!--entity PORT_microservice2--><!--entity AbstractActionBean_microservice2--><g class="entity" data-entity="AbstractActionBean_microservice2" data-source-line="28" data-uid="ent0018" id="entity_AbstractActionBean_microservice2"><rect fill="#DDDDDD" height="37.6094" rx="2.5" ry="2.5" style="stroke:#181818;stroke-width:0.5;" width="243.5215" x="769" y="42.3564"/><text fill="#000000" font-family="Helvetica" font-size="14" lengthAdjust="spacing" textLength="223.5215" x="779" y="66.8896">AbstractActionBean@microservice2</text></g><!--entity CatalogActionBean_microservice2--><g class="entity" data-entity="CatalogActionBean_microservice2" data-source-line="29" data-uid="ent0019" id="entity_CatalogActionBean_microservice2"><rect fill="#DDDDDD" height="37.6094" rx="2.5" ry="2.5" style="stroke:#181818;stroke-width:0.5;" width="240.4248" x="1128" y="318.3564"/><text fill="#000000" font-family="Helvetica" font-size="14" lengthAdjust="spacing" textLength="220.4248" x="1138" y="342.8896">CatalogActionBean@microservice2</text></g><!--entity Category_microservice2--><g class="entity" data-entity="Category_microservice2" data-source-line="30" data-uid="ent0020" id="entity_Category_microservice2"><rect fill="#DDDDDD" height="37.6094" rx="2.5" ry="2.5" style="stroke:#181818;stroke-width:0.5;" width="177.3701" x="589.5" y="180.3564"/><text fill="#000000" font-family="Helvetica" font-size="14" lengthAdjust="spacing" textLength="157.3701" x="599.5" y="204.8896">Category@microservice2</text></g><!--entity LineItem_microservice2--><g class="entity" data-entity="LineItem_microservice2" data-source-line="31" data-uid="ent0021" id="entity_LineItem_microservice2"><rect fill="#DDDDDD" height="37.6094" rx="2.5" ry="2.5" style="stroke:#181818;stroke-width:0.5;" width="174.2598" x="1190" y="42.3564"/><text fill="#000000" font-family="Helvetica" font-size="14" lengthAdjust="spacing" textLength="154.2598" x="1200" y="66.8896">LineItem@microservice2</text></g><!--entity OrderActionBean_microservice2--><g class="entity" data-entity="OrderActionBean_microservice2" data-source-line="32" data-uid="ent0022" id="entity_OrderActionBean_microservice2"><rect fill="#DDDDDD" height="37.6094" rx="2.5" ry="2.5" style="stroke:#181818;stroke-width:0.5;" width="227.9561" x="355" y="42.3564"/><text fill="#000000" font-family="Helvetica" font-size="14" lengthAdjust="spacing" textLength="207.9561" x="365" y="66.8896">OrderActionBean@microservice2</text></g><!--entity Product_microservice2--><g class="entity" data-entity="Product_microservice2" data-source-line="33" data-uid="ent0023" id="entity_Product_microservice2"><rect fill="#DDDDDD" height="37.6094" rx="2.5" ry="2.5" style="stroke:#181818;stroke-width:0.5;" width="168.8115" x="826.5" y="180.3564"/><text fill="#000000" font-family="Helvetica" font-size="14" lengthAdjust="spacing" textLength="148.8115" x="836.5" y="204.8896">Product@microservice2</text></g><!--entity AccountActionBean_microservice2--><g class="entity" data-entity="AccountActionBean_microservice2" data-source-line="34" data-uid="ent0024" id="entity_AccountActionBean_microservice2"><rect fill="#DDDDDD" height="37.6094" rx="2.5" ry="2.5" style="stroke:#181818;stroke-width:0.5;" width="242.7559" x="84.5" y="318.3564"/><text fill="#000000" font-family="Helvetica" font-size="14" lengthAdjust="spacing" textLength="222.7559" x="94.5" y="342.8896">AccountActionBean@microservice2</text></g><!--entity CartActionBean_microservice2--><g class="entity" data-entity="CartActionBean_microservice2" data-source-line="35" data-uid="ent0025" id="entity_CartActionBean_microservice2"><rect fill="#DDDDDD" height="37.6094" rx="2.5" ry="2.5" style="stroke:#181818;stroke-width:0.5;" width="218.6182" x="604.5" y="318.3564"/><text fill="#000000" font-family="Helvetica" font-size="14" lengthAdjust="spacing" textLength="198.6182" x="614.5" y="342.8896">CartActionBean@microservice2</text></g><!--entity OrderService_microservice2--><g class="entity" data-entity="OrderService_microservice2" data-source-line="36" data-uid="ent0026" id="entity_OrderService_microservice2"><rect fill="#DDDDDD" height="37.6094" rx="2.5" ry="2.5" style="stroke:#181818;stroke-width:0.5;" width="203.0322" x="1055.5" y="180.3564"/><text fill="#000000" font-family="Helvetica" font-size="14" lengthAdjust="spacing" textLength="183.0322" x="1065.5" y="204.8896">OrderService@microservice2</text></g><!--entity AccountService_microservice2--><g class="entity" data-entity="AccountService_microservice2" data-source-line="37" data-uid="ent0027" id="entity_AccountService_microservice2"><rect fill="#DDDDDD" height="37.6094" rx="2.5" ry="2.5" style="stroke:#181818;stroke-width:0.5;" width="217.832" x="98" y="456.3564"/><text fill="#000000" font-family="Helvetica" font-size="14" lengthAdjust="spacing" textLength="197.832" x="108" y="480.8896">AccountService@microservice2</text></g><!--entity CatalogService_microservice2--><g class="entity" data-entity="CatalogService_microservice2" data-source-line="38" data-uid="ent0028" id="entity_CatalogService_microservice2"><rect fill="#DDDDDD" height="37.6094" rx="2.5" ry="2.5" style="stroke:#181818;stroke-width:0.5;" width="215.501" x="895" y="456.3564"/><text fill="#000000" font-family="Helvetica" font-size="14" lengthAdjust="spacing" textLength="195.501" x="905" y="480.8896">CatalogService@microservice2</text></g><!--entity Order_microservice2--><g class="entity" data-entity="Order_microservice2" data-source-line="39" data-uid="ent0029" id="entity_Order_microservice2"><rect fill="#DDDDDD" height="37.6094" rx="2.5" ry="2.5" style="stroke:#181818;stroke-width:0.5;" width="156.3496" x="388" y="318.3564"/><text fill="#000000" font-family="Helvetica" font-size="14" lengthAdjust="spacing" textLength="136.3496" x="398" y="342.8896">Order@microservice2</text></g><!--entity Sequence_microservice2--><g class="entity" data-entity="Sequence_microservice2" data-source-line="40" data-uid="ent0030" id="entity_Sequence_microservice2"><rect fill="#DDDDDD" height="37.6094" rx="2.5" ry="2.5" style="stroke:#181818;stroke-width:0.5;" width="183.6182" x="884" y="318.3564"/><text fill="#000000" font-family="Helvetica" font-size="14" lengthAdjust="spacing" textLength="163.6182" x="894" y="342.8896">Sequence@microservice2</text></g><!--entity AccountMapper_microservice2--><g class="entity" data-entity="AccountMapper_microservice2" data-source-line="41" data-uid="ent0031" id="entity_AccountMapper_microservice2"><rect fill="#DDDDDD" height="37.6094" rx="2.5" ry="2.5" style="stroke:#181818;stroke-width:0.5;" width="218.6182" x="97.5" y="594.3564"/><text fill="#000000" font-family="Helvetica" font-size="14" lengthAdjust="spacing" textLength="198.6182" x="107.5" y="618.8896">AccountMapper@microservice2</text></g><!--entity Account_microservice2--><g class="entity" data-entity="Account_microservice2" data-source-line="42" data-uid="ent0032" id="entity_Account_microservice2"><rect fill="#DDDDDD" height="37.6094" rx="2.5" ry="2.5" style="stroke:#181818;stroke-width:0.5;" width="171.1494" x="378.5" y="456.3564"/><text fill="#000000" font-family="Helvetica" font-size="14" lengthAdjust="spacing" textLength="151.1494" x="388.5" y="480.8896">Account@microservice2</text></g><!--entity Cart_microservice2--><g class="entity" data-entity="Cart_microservice2" data-source-line="43" data-uid="ent0033" id="entity_Cart_microservice2"><rect fill="#DDDDDD" height="37.6094" rx="2.5" ry="2.5" style="stroke:#181818;stroke-width:0.5;" width="147.0117" x="687.5" y="456.3564"/><text fill="#000000" font-family="Helvetica" font-size="14" lengthAdjust="spacing" textLength="127.0117" x="697.5" y="480.8896">Cart@microservice2</text></g><!--entity CartItem_microservice2--><g class="entity" data-entity="CartItem_microservice2" data-source-line="44" data-uid="ent0034" id="entity_CartItem_microservice2"><rect fill="#DDDDDD" height="37.6094" rx="2.5" ry="2.5" style="stroke:#181818;stroke-width:0.5;" width="174.2393" x="674" y="594.3564"/><text fill="#000000" font-family="Helvetica" font-size="14" lengthAdjust="spacing" textLength="154.2393" x="684" y="618.8896">CartItem@microservice2</text></g><!--entity Item_microservice2--><g class="entity" data-entity="Item_microservice2" data-source-line="45" data-uid="ent0035" id="entity_Item_microservice2"><rect fill="#DDDDDD" height="37.6094" rx="2.5" ry="2.5" style="stroke:#181818;stroke-width:0.5;" width="147.791" x="1138" y="594.3564"/><text fill="#000000" font-family="Helvetica" font-size="14" lengthAdjust="spacing" textLength="127.791" x="1148" y="618.8896">Item@microservice2</text></g><!--link AccountActionBean_microservice2 to Account_microservice2--><g class="link" data-entity-1="AccountActionBean_microservice2" data-entity-2="Account_microservice2" data-source-line="48" data-uid="lnk36" id="link_AccountActionBean_microservice2_Account_microservice2"><path d="M327.53,344.3564 C357.73,344.3564 381.67,344.3564 381.67,344.3564 C381.67,344.3564 381.67,413.9764 381.67,450.3064" fill="none" id="AccountActionBean_microservice2-to-Account_microservice2" style="stroke:#181818;stroke-width:3;"/><polygon fill="#181818" points="381.67,456.3064,385.67,447.3064,381.67,451.3064,377.67,447.3064,381.67,456.3064" style="stroke:#181818;stroke-width:3;"/></g><!--link AccountActionBean_microservice2 to AccountService_microservice2--><g class="link" data-entity-1="AccountActionBean_microservice2" data-entity-2="AccountService_microservice2" data-source-line="49" data-uid="lnk37" id="link_AccountActionBean_microservice2_AccountService_microservice2"><path d="M207,356.5464 C207,382.9064 207,424.0564 207,450.3264" fill="none" id="AccountActionBean_microservice2-to-AccountService_microservice2" style="stroke:#181818;stroke-width:1;"/><polygon fill="#181818" points="207,456.3264,211,447.3264,207,451.3264,203,447.3264,207,456.3264" style="stroke:#181818;stroke-width:1;"/></g><!--link AccountActionBean_microservice2 to CatalogService_microservice2--><g class="link" data-entity-1="AccountActionBean_microservice2" data-entity-2="CatalogService_microservice2" data-source-line="50" data-uid="lnk38" id="link_AccountActionBean_microservice2_CatalogService_microservice2"><path d="M322,356.4464 C322,381.7764 322,423.3564 322,423.3564 C322,423.3564 981.5,423.3564 981.5,423.3564 C981.5,423.3564 981.5,435.4464 981.5,450.2864" fill="none" id="AccountActionBean_microservice2-to-CatalogService_microservice2" style="stroke:#181818;stroke-width:1;"/><polygon fill="#181818" points="981.5,456.2864,985.5,447.2864,981.5,451.2864,977.5,447.2864,981.5,456.2864" style="stroke:#181818;stroke-width:1;"/></g><!--link AccountService_microservice1 to Account_microservice2--><g class="link" data-entity-1="AccountService_microservice1" data-entity-2="Account_microservice2" data-source-line="51" data-uid="lnk39" id="link_AccountService_microservice1_Account_microservice2"><path d="M2489.5,80.4664 C2489.5,150.6864 2489.5,390.3564 2489.5,390.3564 C2489.5,390.3564 492,390.3564 492,390.3564 C492,390.3564 492,424.9864 492,450.0664" fill="none" id="AccountService_microservice1-to-Account_microservice2" style="stroke:#181818;stroke-width:1;"/><polygon fill="#181818" points="492,456.0664,496,447.0664,492,451.0664,488,447.0664,492,456.0664" style="stroke:#181818;stroke-width:1;"/><text fill="#000000" font-family="Helvetica" font-size="13" lengthAdjust="spacing" textLength="7.23" x="1604.84" y="386.8516">1</text></g><!--link AccountService_microservice1 to AccountMapper_microservice0--><g class="link" data-entity-1="AccountService_microservice1" data-entity-2="AccountMapper_microservice0" data-source-line="52" data-uid="lnk40" id="link_AccountService_microservice1_AccountMapper_microservice0"><path d="M2517.5,80.3564 C2517.5,165.1964 2517.5,502.8964 2517.5,588.1464" fill="none" id="AccountService_microservice1-to-AccountMapper_microservice0" style="stroke:#181818;stroke-width:1;"/><polygon fill="#181818" points="2517.5,594.1464,2521.5,585.1464,2517.5,589.1464,2513.5,585.1464,2517.5,594.1464" style="stroke:#181818;stroke-width:1;"/><text fill="#000000" font-family="Helvetica" font-size="13" lengthAdjust="spacing" textLength="7.23" x="2509.5" y="333.7516">1</text></g><!--link AccountService_microservice1 to AccountMapper_microservice1--><g class="link" data-entity-1="AccountService_microservice1" data-entity-2="AccountMapper_microservice1" data-source-line="53" data-uid="lnk41" id="link_AccountService_microservice1_AccountMapper_microservice1"><path d="M2452.75,80.5464 C2452.75,106.9064 2452.75,148.0564 2452.75,174.3264" fill="none" id="AccountService_microservice1-to-AccountMapper_microservice1" style="stroke:#181818;stroke-width:1;"/><polygon fill="#181818" points="2452.75,180.3264,2456.75,171.3264,2452.75,175.3264,2448.75,171.3264,2452.75,180.3264" style="stroke:#181818;stroke-width:1;"/></g><!--link AccountService_microservice2 to AccountMapper_microservice0--><g class="link" data-entity-1="AccountService_microservice2" data-entity-2="AccountMapper_microservice0" data-source-line="54" data-uid="lnk42" id="link_AccountService_microservice2_AccountMapper_microservice0"><path d="M243.33,494.5764 C243.33,514.9964 243.33,544.3564 243.33,544.3564 C243.33,544.3564 2394,544.3564 2394,544.3564 C2394,544.3564 2394,567.7164 2394,588.1364" fill="none" id="AccountService_microservice2-to-AccountMapper_microservice0" style="stroke:#181818;stroke-width:1;"/><polygon fill="#181818" points="2394,594.1364,2398,585.1364,2394,589.1364,2390,585.1364,2394,594.1364" style="stroke:#181818;stroke-width:1;"/><text fill="#000000" font-family="Helvetica" font-size="13" lengthAdjust="spacing" textLength="7.23" x="1310.67" y="540.8516">2</text></g><!--link AccountService_microservice2 to AccountMapper_microservice2--><g class="link" data-entity-1="AccountService_microservice2" data-entity-2="AccountMapper_microservice2" data-source-line="55" data-uid="lnk43" id="link_AccountService_microservice2_AccountMapper_microservice2"><path d="M170.67,494.5464 C170.67,520.9064 170.67,562.0564 170.67,588.3264" fill="none" id="AccountService_microservice2-to-AccountMapper_microservice2" style="stroke:#181818;stroke-width:1;"/><polygon fill="#181818" points="170.67,594.3264,174.67,585.3264,170.67,589.3264,166.67,585.3264,170.67,594.3264" style="stroke:#181818;stroke-width:1;"/></g><!--link Cart_microservice2 to CartItem_microservice2--><g class="link" data-entity-1="Cart_microservice2" data-entity-2="CartItem_microservice2" data-source-line="56" data-uid="lnk44" id="link_Cart_microservice2_CartItem_microservice2"><path d="M761,494.5464 C761,520.9064 761,562.0564 761,588.3264" fill="none" id="Cart_microservice2-to-CartItem_microservice2" style="stroke:#181818;stroke-width:2;"/><polygon fill="#181818" points="761,594.3264,765,585.3264,761,589.3264,757,585.3264,761,594.3264" style="stroke:#181818;stroke-width:2;"/></g><!--link Cart_microservice2 to Item_microservice2--><g class="link" data-entity-1="Cart_microservice2" data-entity-2="Item_microservice2" data-source-line="57" data-uid="lnk45" id="link_Cart_microservice2_Item_microservice2"><path d="M834.63,482.3564 C863.34,482.3564 889.5,482.3564 889.5,482.3564 C889.5,482.3564 889.5,607.3564 889.5,607.3564 C889.5,607.3564 1036.36,607.3564 1131.61,607.3564" fill="none" id="Cart_microservice2-to-Item_microservice2" style="stroke:#181818;stroke-width:1;"/><polygon fill="#181818" points="1137.61,607.3564,1128.61,603.3564,1132.61,607.3564,1128.61,611.3564,1137.61,607.3564" style="stroke:#181818;stroke-width:1;"/></g><!--link CartActionBean_microservice2 to Cart_microservice2--><g class="link" data-entity-1="CartActionBean_microservice2" data-entity-2="Cart_microservice2" data-source-line="58" data-uid="lnk46" id="link_CartActionBean_microservice2_Cart_microservice2"><path d="M755.5,356.5464 C755.5,382.9064 755.5,424.0564 755.5,450.3264" fill="none" id="CartActionBean_microservice2-to-Cart_microservice2" style="stroke:#181818;stroke-width:2;"/><polygon fill="#181818" points="755.5,456.3264,759.5,447.3264,755.5,451.3264,751.5,447.3264,755.5,456.3264" style="stroke:#181818;stroke-width:2;"/></g><!--link CartActionBean_microservice2 to CartItem_microservice2--><g class="link" data-entity-1="CartActionBean_microservice2" data-entity-2="CartItem_microservice2" data-source-line="59" data-uid="lnk47" id="link_CartActionBean_microservice2_CartItem_microservice2"><path d="M680.75,356.7664 C680.75,407.5664 680.75,537.9764 680.75,588.3364" fill="none" id="CartActionBean_microservice2-to-CartItem_microservice2" style="stroke:#181818;stroke-width:1;"/><polygon fill="#181818" points="680.75,594.3364,684.75,585.3364,680.75,589.3364,676.75,585.3364,680.75,594.3364" style="stroke:#181818;stroke-width:1;"/></g><!--link CartActionBean_microservice2 to CatalogService_microservice2--><g class="link" data-entity-1="CartActionBean_microservice2" data-entity-2="CatalogService_microservice2" data-source-line="60" data-uid="lnk48" id="link_CartActionBean_microservice2_CatalogService_microservice2"><path d="M823.55,344.3564 C835.53,344.3564 843.5,344.3564 843.5,344.3564 C843.5,344.3564 843.5,469.3564 843.5,469.3564 C843.5,469.3564 860.4,469.3564 888.84,469.3564" fill="none" id="CartActionBean_microservice2-to-CatalogService_microservice2" style="stroke:#181818;stroke-width:1;"/><polygon fill="#181818" points="894.84,469.3564,885.84,465.3564,889.84,469.3564,885.84,473.3564,894.84,469.3564" style="stroke:#181818;stroke-width:1;"/></g><!--link CartActionBean_microservice2 to Item_microservice2--><g class="link" data-entity-1="CartActionBean_microservice2" data-entity-2="Item_microservice2" data-source-line="61" data-uid="lnk49" id="link_CartActionBean_microservice2_Item_microservice2"><path d="M823.66,331.3564 C847.63,331.3564 866,331.3564 866,331.3564 C866,331.3564 866,620.3564 866,620.3564 C866,620.3564 1030.11,620.3564 1131.77,620.3564" fill="none" id="CartActionBean_microservice2-to-Item_microservice2" style="stroke:#181818;stroke-width:1;"/><polygon fill="#181818" points="1137.77,620.3564,1128.77,616.3564,1132.77,620.3564,1128.77,624.3564,1137.77,620.3564" style="stroke:#181818;stroke-width:1;"/></g><!--link CatalogActionBean_microservice2 to CatalogService_microservice2--><g class="link" data-entity-1="CatalogActionBean_microservice2" data-entity-2="CatalogService_microservice2" data-source-line="62" data-uid="lnk50" id="link_CatalogActionBean_microservice2_CatalogService_microservice2"><path d="M1133,356.5464 C1133,394.4664 1133,475.3564 1133,475.3564 C1133,475.3564 1130.23,475.3564 1117.24,475.3564" fill="none" id="CatalogActionBean_microservice2-to-CatalogService_microservice2" style="stroke:#181818;stroke-width:2;"/><polygon fill="#181818" points="1111.24,475.3564,1120.24,479.3564,1116.24,475.3564,1120.24,471.3564,1111.24,475.3564" style="stroke:#181818;stroke-width:2;"/></g><!--link CatalogActionBean_microservice2 to Item_microservice2--><g class="link" data-entity-1="CatalogActionBean_microservice2" data-entity-2="Item_microservice2" data-source-line="63" data-uid="lnk51" id="link_CatalogActionBean_microservice2_Item_microservice2"><path d="M1212,356.7664 C1212,407.5664 1212,537.9764 1212,588.3364" fill="none" id="CatalogActionBean_microservice2-to-Item_microservice2" style="stroke:#181818;stroke-width:1;"/><polygon fill="#181818" points="1212,594.3364,1216,585.3364,1212,589.3364,1208,585.3364,1212,594.3364" style="stroke:#181818;stroke-width:1;"/></g><!--link LineItem_microservice1 to CartItem_microservice2--><g class="link" data-entity-1="LineItem_microservice1" data-entity-2="CartItem_microservice2" data-source-line="64" data-uid="lnk52" id="link_LineItem_microservice1_CartItem_microservice2"><path d="M2063,80.7464 C2063,137.3564 2063,298.3564 2063,298.3564 C2063,298.3564 839,298.3564 839,298.3564 C839,298.3564 839,519.7364 839,588.1264" fill="none" id="LineItem_microservice1-to-CartItem_microservice2" style="stroke:#181818;stroke-width:1;"/><polygon fill="#181818" points="839,594.1264,843,585.1264,839,589.1264,835,585.1264,839,594.1264" style="stroke:#181818;stroke-width:1;"/><text fill="#000000" font-family="Helvetica" font-size="13" lengthAdjust="spacing" textLength="7.23" x="1403.92" y="294.8516">2</text></g><!--link LineItem_microservice1 to Item_microservice2--><g class="link" data-entity-1="LineItem_microservice1" data-entity-2="Item_microservice2" data-source-line="65" data-uid="lnk53" id="link_LineItem_microservice1_Item_microservice2"><path d="M2106.5,80.3564 C2106.5,177.4164 2106.5,613.3564 2106.5,613.3564 C2106.5,613.3564 1506.99,613.3564 1292.34,613.3564" fill="none" id="LineItem_microservice1-to-Item_microservice2" style="stroke:#181818;stroke-width:1;"/><polygon fill="#181818" points="1286.34,613.3564,1295.34,617.3564,1291.34,613.3564,1295.34,609.3564,1286.34,613.3564" style="stroke:#181818;stroke-width:1;"/><text fill="#000000" font-family="Helvetica" font-size="13" lengthAdjust="spacing" textLength="7.23" x="1954.92" y="609.8516">2</text></g><!--link LineItem_microservice1 to LineItem_microservice2--><g class="link" data-entity-1="LineItem_microservice1" data-entity-2="LineItem_microservice2" data-source-line="66" data-uid="lnk54" id="link_LineItem_microservice1_LineItem_microservice2"><path d="M2063,41.9864 C2063,33.0364 2063,24.3564 2063,24.3564 C2063,24.3564 1277,24.3564 1277,24.3564 C1277,24.3564 1277,27.0364 1277,35.9864" fill="none" id="LineItem_microservice1-to-LineItem_microservice2" style="stroke:#181818;stroke-width:1;"/><polygon fill="#181818" points="1277,41.9864,1281,32.9864,1277,36.9864,1273,32.9864,1277,41.9864" style="stroke:#181818;stroke-width:1;"/><text fill="#000000" font-family="Helvetica" font-size="13" lengthAdjust="spacing" textLength="7.23" x="1662" y="20.8516">1</text></g><!--link Order_microservice2 to Account_microservice2--><g class="link" data-entity-1="Order_microservice2" data-entity-2="Account_microservice2" data-source-line="67" data-uid="lnk55" id="link_Order_microservice2_Account_microservice2"><path d="M440,356.5464 C440,382.9064 440,424.0564 440,450.3264" fill="none" id="Order_microservice2-to-Account_microservice2" style="stroke:#181818;stroke-width:3;"/><polygon fill="#181818" points="440,456.3264,444,447.3264,440,451.3264,436,447.3264,440,456.3264" style="stroke:#181818;stroke-width:3;"/></g><!--link Order_microservice2 to Cart_microservice2--><g class="link" data-entity-1="Order_microservice2" data-entity-2="Cart_microservice2" data-source-line="68" data-uid="lnk56" id="link_Order_microservice2_Cart_microservice2"><path d="M544.26,344.3564 C558.84,344.3564 569.6,344.3564 569.6,344.3564 C569.6,344.3564 569.6,475.3564 569.6,475.3564 C569.6,475.3564 627.36,475.3564 681.27,475.3564" fill="none" id="Order_microservice2-to-Cart_microservice2" style="stroke:#181818;stroke-width:1;"/><polygon fill="#181818" points="687.27,475.3564,678.27,471.3564,682.27,475.3564,678.27,479.3564,687.27,475.3564" style="stroke:#181818;stroke-width:1;"/></g><!--link Order_microservice2 to LineItem_microservice1--><g class="link" data-entity-1="Order_microservice2" data-entity-2="LineItem_microservice1" data-source-line="69" data-uid="lnk57" id="link_Order_microservice2_LineItem_microservice1"><path d="M427,318.2364 C427,294.8564 427,258.3564 427,258.3564 C427,258.3564 2019.5,258.3564 2019.5,258.3564 C2019.5,258.3564 2019.5,136.1764 2019.5,86.6064" fill="none" id="Order_microservice2-to-LineItem_microservice1" style="stroke:#181818;stroke-width:1;"/><polygon fill="#181818" points="2019.5,80.6064,2015.5,89.6064,2019.5,85.6064,2023.5,89.6064,2019.5,80.6064" style="stroke:#181818;stroke-width:1;"/><text fill="#000000" font-family="Helvetica" font-size="13" lengthAdjust="spacing" textLength="7.23" x="1274.19" y="254.8516">1</text></g><!--link OrderActionBean_microservice1 to CartActionBean_microservice2--><g class="link" data-entity-1="OrderActionBean_microservice1" data-entity-2="CartActionBean_microservice2" data-source-line="70" data-uid="lnk58" id="link_OrderActionBean_microservice1_CartActionBean_microservice2"><path d="M1859,80.6164 C1859,133.7264 1859,278.3564 1859,278.3564 C1859,278.3564 796.25,278.3564 796.25,278.3564 C796.25,278.3564 796.25,294.8264 796.25,312.0364" fill="none" id="OrderActionBean_microservice1-to-CartActionBean_microservice2" style="stroke:#181818;stroke-width:1;"/><polygon fill="#181818" points="796.25,318.0364,800.25,309.0364,796.25,313.0364,792.25,309.0364,796.25,318.0364" style="stroke:#181818;stroke-width:1;"/><text fill="#000000" font-family="Helvetica" font-size="13" lengthAdjust="spacing" textLength="7.23" x="1398.66" y="274.8516">1</text></g><!--link OrderActionBean_microservice1 to OrderActionBean_microservice2--><g class="link" data-entity-1="OrderActionBean_microservice1" data-entity-2="OrderActionBean_microservice2" data-source-line="71" data-uid="lnk59" id="link_OrderActionBean_microservice1_OrderActionBean_microservice2"><path d="M1745,80.4864 C1745,95.6764 1745,114.3564 1745,114.3564 C1745,114.3564 556.2,114.3564 556.2,114.3564 C556.2,114.3564 556.2,101.6764 556.2,86.4864" fill="none" id="OrderActionBean_microservice1-to-OrderActionBean_microservice2" style="stroke:#181818;stroke-width:1;"/><polygon fill="#181818" points="556.2,80.4864,552.2,89.4864,556.2,85.4864,560.2,89.4864,556.2,80.4864" style="stroke:#181818;stroke-width:1;"/><text fill="#000000" font-family="Helvetica" font-size="13" lengthAdjust="spacing" textLength="7.23" x="1142.6" y="110.8516">2</text></g><!--link OrderActionBean_microservice1 to OrderService_microservice2--><g class="link" data-entity-1="OrderActionBean_microservice1" data-entity-2="OrderService_microservice2" data-source-line="72" data-uid="lnk60" id="link_OrderActionBean_microservice1_OrderService_microservice2"><path d="M1802,80.6064 C1802,120.0564 1802,206.3564 1802,206.3564 C1802,206.3564 1446.6,206.3564 1264.85,206.3564" fill="none" id="OrderActionBean_microservice1-to-OrderService_microservice2" style="stroke:#181818;stroke-width:1;"/><polygon fill="#181818" points="1258.85,206.3564,1267.85,210.3564,1263.85,206.3564,1267.85,202.3564,1258.85,206.3564" style="stroke:#181818;stroke-width:1;"/><text fill="#000000" font-family="Helvetica" font-size="13" lengthAdjust="spacing" textLength="7.23" x="1585.3" y="202.8516">1</text></g><!--link OrderActionBean_microservice2 to Account_microservice2--><g class="link" data-entity-1="OrderActionBean_microservice2" data-entity-2="Account_microservice2" data-source-line="73" data-uid="lnk61" id="link_OrderActionBean_microservice2_Account_microservice2"><path d="M384.83,80.4964 C384.83,149.6664 384.83,380.3264 384.83,449.9464" fill="none" id="OrderActionBean_microservice2-to-Account_microservice2" style="stroke:#181818;stroke-width:1;"/><polygon fill="#181818" points="384.83,455.9464,388.83,446.9464,384.83,450.9464,380.83,446.9464,384.83,455.9464" style="stroke:#181818;stroke-width:1;"/></g><!--link OrderActionBean_microservice2 to AccountActionBean_microservice2--><g class="link" data-entity-1="OrderActionBean_microservice2" data-entity-2="AccountActionBean_microservice2" data-source-line="74" data-uid="lnk62" id="link_OrderActionBean_microservice2_AccountActionBean_microservice2"><path d="M366.75,80.7764 C366.75,142.6864 366.75,331.3564 366.75,331.3564 C366.75,331.3564 356.26,331.3564 333.84,331.3564" fill="none" id="OrderActionBean_microservice2-to-AccountActionBean_microservice2" style="stroke:#181818;stroke-width:2;"/><polygon fill="#181818" points="327.84,331.3564,336.84,335.3564,332.84,331.3564,336.84,327.3564,327.84,331.3564" style="stroke:#181818;stroke-width:2;"/></g><!--link OrderActionBean_microservice2 to CartActionBean_microservice2--><g class="link" data-entity-1="OrderActionBean_microservice2" data-entity-2="CartActionBean_microservice2" data-source-line="75" data-uid="lnk63" id="link_OrderActionBean_microservice2_CartActionBean_microservice2"><path d="M576.3,80.7764 C576.3,142.6864 576.3,331.3564 576.3,331.3564 C576.3,331.3564 581.96,331.3564 598.5,331.3564" fill="none" id="OrderActionBean_microservice2-to-CartActionBean_microservice2" style="stroke:#181818;stroke-width:1;"/><polygon fill="#181818" points="604.5,331.3564,595.5,327.3564,599.5,331.3564,595.5,335.3564,604.5,331.3564" style="stroke:#181818;stroke-width:1;"/></g><!--link OrderActionBean_microservice2 to Order_microservice2--><g class="link" data-entity-1="OrderActionBean_microservice2" data-entity-2="Order_microservice2" data-source-line="76" data-uid="lnk64" id="link_OrderActionBean_microservice2_Order_microservice2"><path d="M466,80.7664 C466,131.5664 466,261.9764 466,312.3364" fill="none" id="OrderActionBean_microservice2-to-Order_microservice2" style="stroke:#181818;stroke-width:2;"/><polygon fill="#181818" points="466,318.3364,470,309.3364,466,313.3364,462,309.3364,466,318.3364" style="stroke:#181818;stroke-width:2;"/></g><!--link OrderActionBean_microservice2 to OrderService_microservice2--><g class="link" data-entity-1="OrderActionBean_microservice2" data-entity-2="OrderService_microservice2" data-source-line="77" data-uid="lnk65" id="link_OrderActionBean_microservice2_OrderService_microservice2"><path d="M562.9,80.4464 C562.9,105.7764 562.9,147.3564 562.9,147.3564 C562.9,147.3564 1122.75,147.3564 1122.75,147.3564 C1122.75,147.3564 1122.75,159.4464 1122.75,174.2864" fill="none" id="OrderActionBean_microservice2-to-OrderService_microservice2" style="stroke:#181818;stroke-width:1;"/><polygon fill="#181818" points="1122.75,180.2864,1126.75,171.2864,1122.75,175.2864,1118.75,171.2864,1122.75,180.2864" style="stroke:#181818;stroke-width:1;"/></g><!--link OrderService_microservice2 to Order_microservice2--><g class="link" data-entity-1="OrderService_microservice2" data-entity-2="Order_microservice2" data-source-line="78" data-uid="lnk66" id="link_OrderService_microservice2_Order_microservice2"><path d="M1059.67,218.3964 C1059.67,228.2964 1059.67,238.3564 1059.67,238.3564 C1059.67,238.3564 505,238.3564 505,238.3564 C505,238.3564 505,283.4964 505,312.2664" fill="none" id="OrderService_microservice2-to-Order_microservice2" style="stroke:#181818;stroke-width:2;"/><polygon fill="#181818" points="505,318.2664,509,309.2664,505,313.2664,501,309.2664,505,318.2664" style="stroke:#181818;stroke-width:2;"/></g><!--link OrderService_microservice2 to OrderMapper_microservice1--><g class="link" data-entity-1="OrderService_microservice2" data-entity-2="OrderMapper_microservice1" data-source-line="79" data-uid="lnk67" id="link_OrderService_microservice2_OrderMapper_microservice1"><path d="M1258.81,193.3564 C1368.03,193.3564 1526,193.3564 1526,193.3564 C1526,193.3564 1526,123.1564 1526,86.5464" fill="none" id="OrderService_microservice2-to-OrderMapper_microservice1" style="stroke:#181818;stroke-width:1;"/><polygon fill="#181818" points="1526,80.5464,1522,89.5464,1526,85.5464,1530,89.5464,1526,80.5464" style="stroke:#181818;stroke-width:1;"/><text fill="#000000" font-family="Helvetica" font-size="13" lengthAdjust="spacing" textLength="7.23" x="1440.81" y="189.8516">2</text></g><!--link OrderService_microservice2 to Sequence_microservice2--><g class="link" data-entity-1="OrderService_microservice2" data-entity-2="Sequence_microservice2" data-source-line="80" data-uid="lnk68" id="link_OrderService_microservice2_Sequence_microservice2"><path d="M1063.83,218.5464 C1063.83,244.9064 1063.83,286.0564 1063.83,312.3264" fill="none" id="OrderService_microservice2-to-Sequence_microservice2" style="stroke:#181818;stroke-width:1;"/><polygon fill="#181818" points="1063.83,318.3264,1067.83,309.3264,1063.83,313.3264,1059.83,309.3264,1063.83,318.3264" style="stroke:#181818;stroke-width:1;"/></g><!--SRC=[hPXDZzCm48Rl-HLMEQ-K68a3MYfs5o6GW5snt112nXdIg6aS77Ub5UA_awPjIB8pzhYqFLIgPnw_cNdzqRRhicwKLHkHmq-rhTnRKxjFQWFY7LGFu4gjabMPWxYyR8nrosNI3XcDqcjLm7NtKLYphVCRKnahdhtfNwD02zgfkgWOeLLPWtjiG7IJhSnee3OvjD285-aOhEhrxiiiJPE36h7ObDgQ5kn3gI5R7ESGlnFnJuXOT6_LYhlRpr- -JnA61nt4JTAkjExak_jzzElPN1rn6Z1ZeyWRPTrx1ni4TXpYO3vqbICmno4EvjRcOA-qAqrz3Qf6QBC8DlIZQXgm570_oe4TAapY9kC4y4-2-oMDzKlAymiYDWs8JIFQdD9j3c18OTC03h9l8qBgloS0L1zaR1zag0y_McULTeIpvRuPJu9cSn3hrwdA55xoanWc60fZ7t5UFyJ1e8wHj6Da_COWWni30Rsp9jzgXy0E8np8OGtvMpkFuJN0ka1RRIIohn5sUenAY9qTCleuag7Zo6zd6ZaDO3yqzRGSm3tysaADgZaEHLGBsVDaO3Fs0saKrsM4jxZfnF96hmy4Xa1uqhkzExIgBhwwLQdNDRJjg-VVBfPuMQ8msGY3MZ2UvZDquhtFKS9cCxuKsMaSzF0z9yrBah6wvDbeCa7iFywN-yPX_WwbzbCJQIpJ37EV2iW2uizatJWKgiL_Qq6AufN3fr6AY5yopEBs5kKY_ZETk5hj5Yzsx35tob1gHbYJbKSysY2P_Cs7AY3xV0BFVxFSjUKK8BvBXUH9vguV0P4Z29KGgydNWbXfY7jYvT05Jpozu2jXdZZqNms3YPWa_Dxv5m00]--></g></svg>