<svg xmlns="http://www.w3.org/2000/svg" xmlns:xlink="http://www.w3.org/1999/xlink" contentStyleType="text/css" data-diagram-type="DESCRIPTION" height="517px" preserveAspectRatio="none" style="width:2199px;height:517px;background:#FFFFFF;" version="1.1" viewBox="0 0 2199 517" width="2199px" zoomAndPan="magnify"><defs/><g><!--cluster VisitManagementService--><g class="cluster" data-entity="VisitManagementService" data-source-line="8" data-uid="ent0002" id="cluster_VisitManagementService"><path d="M1733.5,6 L1899.458,6 A3.75,3.75 0 0 1 1901.958,8.5 L1908.958,29.6094 L2189.5,29.6094 A2.5,2.5 0 0 1 2192,32.1094 L2192,231.5 A2.5,2.5 0 0 1 2189.5,234 L1733.5,234 A2.5,2.5 0 0 1 1731,231.5 L1731,8.5 A2.5,2.5 0 0 1 1733.5,6" fill="#DDDDDD" style="stroke:#000000;stroke-width:1.5;"/><line style="stroke:#000000;stroke-width:1.5;" x1="1731" x2="1908.958" y1="29.6094" y2="29.6094"/><text fill="#000000" font-family="Helvetica" font-size="14" font-weight="bold" lengthAdjust="spacing" textLength="164.958" x="1735" y="22.5332">VisitManagementService</text></g><!--cluster VetManagementService--><g class="cluster" data-entity="VetManagementService" data-source-line="15" data-uid="ent0007" id="cluster_VetManagementService"><path d="M1214.5,144 L1372.6787,144 A3.75,3.75 0 0 1 1375.1787,146.5 L1382.1787,167.6094 L1704.5,167.6094 A2.5,2.5 0 0 1 1707,170.1094 L1707,369.5 A2.5,2.5 0 0 1 1704.5,372 L1214.5,372 A2.5,2.5 0 0 1 1212,369.5 L1212,146.5 A2.5,2.5 0 0 1 1214.5,144" fill="#DDDDDD" style="stroke:#000000;stroke-width:1.5;"/><line style="stroke:#000000;stroke-width:1.5;" x1="1212" x2="1382.1787" y1="167.6094" y2="167.6094"/><text fill="#000000" font-family="Helvetica" font-size="14" font-weight="bold" lengthAdjust="spacing" textLength="157.1787" x="1216" y="160.5332">VetManagementService</text></g><!--cluster PetMangementService--><g class="cluster" data-entity="PetMangementService" data-source-line="25" data-uid="ent0015" id="cluster_PetMangementService"><path d="M8.5,6 L158.8926,6 A3.75,3.75 0 0 1 161.3926,8.5 L168.3926,29.6094 L1059.5,29.6094 A2.5,2.5 0 0 1 1062,32.1094 L1062,507.5 A2.5,2.5 0 0 1 1059.5,510 L8.5,510 A2.5,2.5 0 0 1 6,507.5 L6,8.5 A2.5,2.5 0 0 1 8.5,6" fill="#DDDDDD" style="stroke:#000000;stroke-width:1.5;"/><line style="stroke:#000000;stroke-width:1.5;" x1="6" x2="168.3926" y1="29.6094" y2="29.6094"/><text fill="#000000" font-family="Helvetica" font-size="14" font-weight="bold" lengthAdjust="spacing" textLength="149.3926" x="10" y="22.5332">PetMangementService</text></g><!--entity PORT_VisitManagementService--><!--entity VisitController--><g class="entity" data-entity="VisitController" data-source-line="10" data-uid="ent0004" id="entity_VisitController"><rect fill="#DDDDDD" height="37.6094" rx="2.5" ry="2.5" style="stroke:#181818;stroke-width:0.5;" width="107.1377" x="1946.5" y="42"/><text fill="#000000" font-family="Helvetica" font-size="14" lengthAdjust="spacing" textLength="87.1377" x="1956.5" y="66.5332">VisitController</text></g><!--entity WelcomeController--><g class="entity" data-entity="WelcomeController" data-source-line="11" data-uid="ent0005" id="entity_WelcomeController"><rect fill="#DDDDDD" height="37.6094" rx="2.5" ry="2.5" style="stroke:#181818;stroke-width:0.5;" width="139.0342" x="1747.5" y="42"/><text fill="#000000" font-family="Helvetica" font-size="14" lengthAdjust="spacing" textLength="119.0342" x="1757.5" y="66.5332">WelcomeController</text></g><!--entity Visit--><g class="entity" data-entity="Visit" data-source-line="12" data-uid="ent0006" id="entity_Visit"><rect fill="#DDDDDD" height="37.6094" rx="2.5" ry="2.5" style="stroke:#181818;stroke-width:0.5;" width="46.4482" x="1864" y="180"/><text fill="#000000" font-family="Helvetica" font-size="14" lengthAdjust="spacing" textLength="26.4482" x="1874" y="204.5332">Visit</text></g><!--entity PORT_VetManagementService--><!--entity Specialty--><g class="entity" data-entity="Specialty" data-source-line="17" data-uid="ent0009" id="entity_Specialty"><rect fill="#DDDDDD" height="37.6094" rx="2.5" ry="2.5" style="stroke:#181818;stroke-width:0.5;" width="76.8066" x="1329.5" y="180"/><text fill="#000000" font-family="Helvetica" font-size="14" lengthAdjust="spacing" textLength="56.8066" x="1339.5" y="204.5332">Specialty</text></g><!--entity Vet--><g class="entity" data-entity="Vet" data-source-line="18" data-uid="ent0010" id="entity_Vet"><rect fill="#DDDDDD" height="37.6094" rx="2.5" ry="2.5" style="stroke:#181818;stroke-width:0.5;" width="41.0137" x="1228.5" y="180"/><text fill="#000000" font-family="Helvetica" font-size="14" lengthAdjust="spacing" textLength="21.0137" x="1238.5" y="204.5332">Vet</text></g><!--entity VetController--><g class="entity" data-entity="VetController" data-source-line="19" data-uid="ent0011" id="entity_VetController"><rect fill="#DDDDDD" height="37.6094" rx="2.5" ry="2.5" style="stroke:#181818;stroke-width:0.5;" width="101.7031" x="1467" y="180"/><text fill="#000000" font-family="Helvetica" font-size="14" lengthAdjust="spacing" textLength="81.7031" x="1477" y="204.5332">VetController</text></g><!--entity NamedEntity--><g class="entity" data-entity="NamedEntity" data-source-line="20" data-uid="ent0012" id="entity_NamedEntity"><rect fill="#DDDDDD" height="37.6094" rx="2.5" ry="2.5" style="stroke:#181818;stroke-width:0.5;" width="100.1445" x="1228" y="318"/><text fill="#000000" font-family="Helvetica" font-size="14" lengthAdjust="spacing" textLength="80.1445" x="1238" y="342.5332">NamedEntity</text></g><!--entity VetRepository--><g class="entity" data-entity="VetRepository" data-source-line="21" data-uid="ent0013" id="entity_VetRepository"><rect fill="#DDDDDD" height="37.6094" rx="2.5" ry="2.5" style="stroke:#181818;stroke-width:0.5;" width="107.9307" x="1417" y="318"/><text fill="#000000" font-family="Helvetica" font-size="14" lengthAdjust="spacing" textLength="87.9307" x="1427" y="342.5332">VetRepository</text></g><!--entity Vets--><g class="entity" data-entity="Vets" data-source-line="22" data-uid="ent0014" id="entity_Vets"><rect fill="#DDDDDD" height="37.6094" rx="2.5" ry="2.5" style="stroke:#181818;stroke-width:0.5;" width="48.0137" x="1585" y="318"/><text fill="#000000" font-family="Helvetica" font-size="14" lengthAdjust="spacing" textLength="28.0137" x="1595" y="342.5332">Vets</text></g><!--entity PORT_PetMangementService--><!--entity CacheConfiguration--><g class="entity" data-entity="CacheConfiguration" data-source-line="27" data-uid="ent0017" id="entity_CacheConfiguration"><rect fill="#DDDDDD" height="37.6094" rx="2.5" ry="2.5" style="stroke:#181818;stroke-width:0.5;" width="143.7441" x="724" y="42"/><text fill="#000000" font-family="Helvetica" font-size="14" lengthAdjust="spacing" textLength="123.7441" x="734" y="66.5332">CacheConfiguration</text></g><!--entity CrashController--><g class="entity" data-entity="CrashController" data-source-line="28" data-uid="ent0018" id="entity_CrashController"><rect fill="#DDDDDD" height="37.6094" rx="2.5" ry="2.5" style="stroke:#181818;stroke-width:0.5;" width="118.0342" x="928" y="42"/><text fill="#000000" font-family="Helvetica" font-size="14" lengthAdjust="spacing" textLength="98.0342" x="938" y="66.5332">CrashController</text></g><!--entity OwnerController--><g class="entity" data-entity="OwnerController" data-source-line="29" data-uid="ent0019" id="entity_OwnerController"><rect fill="#DDDDDD" height="37.6094" rx="2.5" ry="2.5" style="stroke:#181818;stroke-width:0.5;" width="121.9238" x="226" y="42"/><text fill="#000000" font-family="Helvetica" font-size="14" lengthAdjust="spacing" textLength="101.9238" x="236" y="66.5332">OwnerController</text></g><!--entity PetClinicApplication--><g class="entity" data-entity="PetClinicApplication" data-source-line="30" data-uid="ent0020" id="entity_PetClinicApplication"><rect fill="#DDDDDD" height="37.6094" rx="2.5" ry="2.5" style="stroke:#181818;stroke-width:0.5;" width="143.7305" x="682" y="180"/><text fill="#000000" font-family="Helvetica" font-size="14" lengthAdjust="spacing" textLength="123.7305" x="692" y="204.5332">PetClinicApplication</text></g><!--entity PetClinicRuntimeHints--><g class="entity" data-entity="PetClinicRuntimeHints" data-source-line="31" data-uid="ent0021" id="entity_PetClinicRuntimeHints"><rect fill="#DDDDDD" height="37.6094" rx="2.5" ry="2.5" style="stroke:#181818;stroke-width:0.5;" width="159.2686" x="886.5" y="180"/><text fill="#000000" font-family="Helvetica" font-size="14" lengthAdjust="spacing" textLength="139.2686" x="896.5" y="204.5332">PetClinicRuntimeHints</text></g><!--entity PetController--><g class="entity" data-entity="PetController" data-source-line="32" data-uid="ent0022" id="entity_PetController"><rect fill="#DDDDDD" height="37.6094" rx="2.5" ry="2.5" style="stroke:#181818;stroke-width:0.5;" width="101.7031" x="64" y="42"/><text fill="#000000" font-family="Helvetica" font-size="14" lengthAdjust="spacing" textLength="81.7031" x="74" y="66.5332">PetController</text></g><!--entity PetTypeFormatter--><g class="entity" data-entity="PetTypeFormatter" data-source-line="33" data-uid="ent0023" id="entity_PetTypeFormatter"><rect fill="#DDDDDD" height="37.6094" rx="2.5" ry="2.5" style="stroke:#181818;stroke-width:0.5;" width="132.8135" x="408.5" y="42"/><text fill="#000000" font-family="Helvetica" font-size="14" lengthAdjust="spacing" textLength="112.8135" x="418.5" y="66.5332">PetTypeFormatter</text></g><!--entity Owner--><g class="entity" data-entity="Owner" data-source-line="34" data-uid="ent0024" id="entity_Owner"><rect fill="#DDDDDD" height="37.6094" rx="2.5" ry="2.5" style="stroke:#181818;stroke-width:0.5;" width="61.2344" x="240.5" y="180"/><text fill="#000000" font-family="Helvetica" font-size="14" lengthAdjust="spacing" textLength="41.2344" x="250.5" y="204.5332">Owner</text></g><!--entity PetValidator--><g class="entity" data-entity="PetValidator" data-source-line="35" data-uid="ent0025" id="entity_PetValidator"><rect fill="#DDDDDD" height="37.6094" rx="2.5" ry="2.5" style="stroke:#181818;stroke-width:0.5;" width="96.2686" x="84" y="180"/><text fill="#000000" font-family="Helvetica" font-size="14" lengthAdjust="spacing" textLength="76.2686" x="94" y="204.5332">PetValidator</text></g><!--entity OwnerRepository--><g class="entity" data-entity="OwnerRepository" data-source-line="36" data-uid="ent0026" id="entity_OwnerRepository"><rect fill="#DDDDDD" height="37.6094" rx="2.5" ry="2.5" style="stroke:#181818;stroke-width:0.5;" width="128.1514" x="362" y="180"/><text fill="#000000" font-family="Helvetica" font-size="14" lengthAdjust="spacing" textLength="108.1514" x="372" y="204.5332">OwnerRepository</text></g><!--entity PetType--><g class="entity" data-entity="PetType" data-source-line="37" data-uid="ent0027" id="entity_PetType"><rect fill="#DDDDDD" height="37.6094" rx="2.5" ry="2.5" style="stroke:#181818;stroke-width:0.5;" width="72.1377" x="550" y="180"/><text fill="#000000" font-family="Helvetica" font-size="14" lengthAdjust="spacing" textLength="52.1377" x="560" y="204.5332">PetType</text></g><!--entity Person--><g class="entity" data-entity="Person" data-source-line="38" data-uid="ent0028" id="entity_Person"><rect fill="#DDDDDD" height="37.6094" rx="2.5" ry="2.5" style="stroke:#181818;stroke-width:0.5;" width="64.3584" x="970" y="318"/><text fill="#000000" font-family="Helvetica" font-size="14" lengthAdjust="spacing" textLength="44.3584" x="980" y="342.5332">Person</text></g><!--entity Pet--><g class="entity" data-entity="Pet" data-source-line="39" data-uid="ent0029" id="entity_Pet"><rect fill="#DDDDDD" height="37.6094" rx="2.5" ry="2.5" style="stroke:#181818;stroke-width:0.5;" width="41.0137" x="250.5" y="318"/><text fill="#000000" font-family="Helvetica" font-size="14" lengthAdjust="spacing" textLength="21.0137" x="260.5" y="342.5332">Pet</text></g><!--entity BaseEntity--><g class="entity" data-entity="BaseEntity" data-source-line="40" data-uid="ent0030" id="entity_BaseEntity"><rect fill="#DDDDDD" height="37.6094" rx="2.5" ry="2.5" style="stroke:#181818;stroke-width:0.5;" width="86.9238" x="958.5" y="456"/><text fill="#000000" font-family="Helvetica" font-size="14" lengthAdjust="spacing" textLength="66.9238" x="968.5" y="480.5332">BaseEntity</text></g><!--link NamedEntity to BaseEntity--><g class="link" data-entity-1="NamedEntity" data-entity-2="BaseEntity" data-source-line="43" data-uid="lnk31" id="link_NamedEntity_BaseEntity"><path d="M1227.76,344 C1157.86,344 1039.75,344 1039.75,344 C1039.75,344 1039.75,413.62 1039.75,449.95" fill="none" id="NamedEntity-to-BaseEntity" style="stroke:#181818;stroke-width:1;"/><polygon fill="#181818" points="1039.75,455.95,1043.75,446.95,1039.75,450.95,1035.75,446.95,1039.75,455.95" style="stroke:#181818;stroke-width:1;"/><text fill="#000000" font-family="Helvetica" font-size="13" lengthAdjust="spacing" textLength="7.23" x="1069.78" y="340.4951">1</text></g><!--link Person to BaseEntity--><g class="link" data-entity-1="Person" data-entity-2="BaseEntity" data-source-line="44" data-uid="lnk32" id="link_Person_BaseEntity"><path d="M1002,356.19 C1002,382.55 1002,423.7 1002,449.97" fill="none" id="Person-to-BaseEntity" style="stroke:#181818;stroke-width:1;"/><polygon fill="#181818" points="1002,455.97,1006,446.97,1002,450.97,998,446.97,1002,455.97" style="stroke:#181818;stroke-width:1;"/></g><!--link Owner to Person--><g class="link" data-entity-1="Owner" data-entity-2="Person" data-source-line="45" data-uid="lnk33" id="link_Owner_Person"><path d="M296.5,218.19 C296.5,256.11 296.5,337 296.5,337 C296.5,337 825.84,337 963.85,337" fill="none" id="Owner-to-Person" style="stroke:#181818;stroke-width:1;"/><polygon fill="#181818" points="969.85,337,960.85,333,964.85,337,960.85,341,969.85,337" style="stroke:#181818;stroke-width:1;"/></g><!--link Owner to Pet--><g class="link" data-entity-1="Owner" data-entity-2="Pet" data-source-line="46" data-uid="lnk34" id="link_Owner_Pet"><path d="M260.75,218.19 C260.75,244.55 260.75,285.7 260.75,311.97" fill="none" id="Owner-to-Pet" style="stroke:#181818;stroke-width:3;"/><polygon fill="#181818" points="260.75,317.97,264.75,308.97,260.75,312.97,256.75,308.97,260.75,317.97" style="stroke:#181818;stroke-width:3;"/></g><!--link OwnerController to Owner--><g class="link" data-entity-1="OwnerController" data-entity-2="Owner" data-source-line="47" data-uid="lnk35" id="link_OwnerController_Owner"><path d="M260.83,80.19 C260.83,106.55 260.83,147.7 260.83,173.97" fill="none" id="OwnerController-to-Owner" style="stroke:#181818;stroke-width:3;"/><polygon fill="#181818" points="260.83,179.97,264.83,170.97,260.83,174.97,256.83,170.97,260.83,179.97" style="stroke:#181818;stroke-width:3;"/></g><!--link OwnerController to OwnerRepository--><g class="link" data-entity-1="OwnerController" data-entity-2="OwnerRepository" data-source-line="48" data-uid="lnk36" id="link_OwnerController_OwnerRepository"><path d="M324.75,80.19 C324.75,118.11 324.75,199 324.75,199 C324.75,199 335.78,199 355.88,199" fill="none" id="OwnerController-to-OwnerRepository" style="stroke:#181818;stroke-width:3;"/><polygon fill="#181818" points="361.88,199,352.88,195,356.88,199,352.88,203,361.88,199" style="stroke:#181818;stroke-width:3;"/></g><!--link Pet to NamedEntity--><g class="link" data-entity-1="Pet" data-entity-2="NamedEntity" data-source-line="49" data-uid="lnk37" id="link_Pet_NamedEntity"><path d="M281.25,317.83 C281.25,305.97 281.25,293 281.25,293 C281.25,293 1242.17,293 1242.17,293 C1242.17,293 1242.17,299.97 1242.17,311.83" fill="none" id="Pet-to-NamedEntity" style="stroke:#181818;stroke-width:1;"/><polygon fill="#181818" points="1242.17,317.83,1246.17,308.83,1242.17,312.83,1238.17,308.83,1242.17,317.83" style="stroke:#181818;stroke-width:1;"/><text fill="#000000" font-family="Helvetica" font-size="13" lengthAdjust="spacing" textLength="7.23" x="753.71" y="289.4951">1</text></g><!--link PetController to OwnerRepository--><g class="link" data-entity-1="PetController" data-entity-2="OwnerRepository" data-source-line="50" data-uid="lnk38" id="link_PetController_OwnerRepository"><path d="M138.67,80.02 C138.67,107.49 138.67,155 138.67,155 C138.67,155 385.25,155 385.25,155 C385.25,155 385.25,161.97 385.25,173.83" fill="none" id="PetController-to-OwnerRepository" style="stroke:#181818;stroke-width:2;"/><polygon fill="#181818" points="385.25,179.83,389.25,170.83,385.25,174.83,381.25,170.83,385.25,179.83" style="stroke:#181818;stroke-width:2;"/></g><!--link PetController to Owner--><g class="link" data-entity-1="PetController" data-entity-2="Owner" data-source-line="51" data-uid="lnk39" id="link_PetController_Owner"><path d="M166.19,61 C185.55,61 203,61 203,61 C203,61 203,199 203,199 C203,199 216.19,199 234.18,199" fill="none" id="PetController-to-Owner" style="stroke:#181818;stroke-width:3;"/><polygon fill="#181818" points="240.18,199,231.18,195,235.18,199,231.18,203,240.18,199" style="stroke:#181818;stroke-width:3;"/></g><!--link PetController to Pet--><g class="link" data-entity-1="PetController" data-entity-2="Pet" data-source-line="52" data-uid="lnk40" id="link_PetController_Pet"><path d="M74,80.01 C74,143.46 74,344 74,344 C74,344 193.71,344 244.29,344" fill="none" id="PetController-to-Pet" style="stroke:#181818;stroke-width:2;"/><polygon fill="#181818" points="250.29,344,241.29,340,245.29,344,241.29,348,250.29,344" style="stroke:#181818;stroke-width:2;"/></g><!--link PetController to PetValidator--><g class="link" data-entity-1="PetController" data-entity-2="PetValidator" data-source-line="53" data-uid="lnk41" id="link_PetController_PetValidator"><path d="M111.33,80.19 C111.33,106.55 111.33,147.7 111.33,173.97" fill="none" id="PetController-to-PetValidator" style="stroke:#181818;stroke-width:1;"/><polygon fill="#181818" points="111.33,179.97,115.33,170.97,111.33,174.97,107.33,170.97,111.33,179.97" style="stroke:#181818;stroke-width:1;"/></g><!--link PetType to NamedEntity--><g class="link" data-entity-1="PetType" data-entity-2="NamedEntity" data-source-line="54" data-uid="lnk42" id="link_PetType_NamedEntity"><path d="M586,218.22 C586,238.64 586,268 586,268 C586,268 1255.83,268 1255.83,268 C1255.83,268 1255.83,291.36 1255.83,311.78" fill="none" id="PetType-to-NamedEntity" style="stroke:#181818;stroke-width:1;"/><polygon fill="#181818" points="1255.83,317.78,1259.83,308.78,1255.83,312.78,1251.83,308.78,1255.83,317.78" style="stroke:#181818;stroke-width:1;"/><text fill="#000000" font-family="Helvetica" font-size="13" lengthAdjust="spacing" textLength="7.23" x="912.92" y="264.4951">1</text></g><!--link PetTypeFormatter to OwnerRepository--><g class="link" data-entity-1="PetTypeFormatter" data-entity-2="OwnerRepository" data-source-line="55" data-uid="lnk43" id="link_PetTypeFormatter_OwnerRepository"><path d="M435.67,80.19 C435.67,106.55 435.67,147.7 435.67,173.97" fill="none" id="PetTypeFormatter-to-OwnerRepository" style="stroke:#181818;stroke-width:1;"/><polygon fill="#181818" points="435.67,179.97,439.67,170.97,435.67,174.97,431.67,170.97,435.67,179.97" style="stroke:#181818;stroke-width:1;"/></g><!--link PetTypeFormatter to PetType--><g class="link" data-entity-1="PetTypeFormatter" data-entity-2="PetType" data-source-line="56" data-uid="lnk44" id="link_PetTypeFormatter_PetType"><path d="M515.75,80.19 C515.75,118.11 515.75,199 515.75,199 C515.75,199 526.5,199 543.64,199" fill="none" id="PetTypeFormatter-to-PetType" style="stroke:#181818;stroke-width:1;"/><polygon fill="#181818" points="549.64,199,540.64,195,544.64,199,540.64,203,549.64,199" style="stroke:#181818;stroke-width:1;"/></g><!--link PetValidator to Pet--><g class="link" data-entity-1="PetValidator" data-entity-2="Pet" data-source-line="57" data-uid="lnk45" id="link_PetValidator_Pet"><path d="M132,218.19 C132,254.8 132,331 132,331 C132,331 205.82,331 244.49,331" fill="none" id="PetValidator-to-Pet" style="stroke:#181818;stroke-width:2;"/><polygon fill="#181818" points="250.49,331,241.49,327,245.49,331,241.49,335,250.49,331" style="stroke:#181818;stroke-width:2;"/></g><!--link Visit to BaseEntity--><g class="link" data-entity-1="Visit" data-entity-2="BaseEntity" data-source-line="58" data-uid="lnk46" id="link_Visit_BaseEntity"><path d="M1887,218.41 C1887,281.23 1887,475 1887,475 C1887,475 1229.71,475 1051.59,475" fill="none" id="Visit-to-BaseEntity" style="stroke:#181818;stroke-width:1;"/><polygon fill="#181818" points="1045.59,475,1054.59,479,1050.59,475,1054.59,471,1045.59,475" style="stroke:#181818;stroke-width:1;"/><text fill="#000000" font-family="Helvetica" font-size="13" lengthAdjust="spacing" textLength="7.23" x="1586.59" y="471.4951">1</text></g><!--link VisitController to Owner--><g class="link" data-entity-1="VisitController" data-entity-2="Owner" data-source-line="59" data-uid="lnk47" id="link_VisitController_Owner"><path d="M1973.25,80.17 C1973.25,92.03 1973.25,105 1973.25,105 C1973.25,105 281.17,105 281.17,105 C281.17,105 281.17,146.51 281.17,173.98" fill="none" id="VisitController-to-Owner" style="stroke:#181818;stroke-width:1;"/><polygon fill="#181818" points="281.17,179.98,285.17,170.98,281.17,174.98,277.17,170.98,281.17,179.98" style="stroke:#181818;stroke-width:1;"/><text fill="#000000" font-family="Helvetica" font-size="13" lengthAdjust="spacing" textLength="7.23" x="1094.13" y="101.4951">2</text></g><!--link VisitController to OwnerRepository--><g class="link" data-entity-1="VisitController" data-entity-2="OwnerRepository" data-source-line="60" data-uid="lnk48" id="link_VisitController_OwnerRepository"><path d="M2000,80.22 C2000,100.64 2000,130 2000,130 C2000,130 462.83,130 462.83,130 C462.83,130 462.83,153.36 462.83,173.78" fill="none" id="VisitController-to-OwnerRepository" style="stroke:#181818;stroke-width:1;"/><polygon fill="#181818" points="462.83,179.78,466.83,170.78,462.83,174.78,458.83,170.78,462.83,179.78" style="stroke:#181818;stroke-width:1;"/><text fill="#000000" font-family="Helvetica" font-size="13" lengthAdjust="spacing" textLength="7.23" x="1223.42" y="126.4951">2</text></g><!--link VisitController to Pet--><g class="link" data-entity-1="VisitController" data-entity-2="Pet" data-source-line="61" data-uid="lnk49" id="link_VisitController_Pet"><path d="M2026.75,80.13 C2026.75,126.86 2026.75,243 2026.75,243 C2026.75,243 271,243 271,243 C271,243 271,284.51 271,311.98" fill="none" id="VisitController-to-Pet" style="stroke:#181818;stroke-width:1;"/><polygon fill="#181818" points="271,317.98,275,308.98,271,312.98,267,308.98,271,317.98" style="stroke:#181818;stroke-width:1;"/><text fill="#000000" font-family="Helvetica" font-size="13" lengthAdjust="spacing" textLength="7.23" x="1184.82" y="239.4951">1</text></g><!--link VisitController to Visit--><g class="link" data-entity-1="VisitController" data-entity-2="Visit" data-source-line="62" data-uid="lnk50" id="link_VisitController_Visit"><path d="M1946.44,61 C1921.93,61 1898.25,61 1898.25,61 C1898.25,61 1898.25,135.89 1898.25,173.81" fill="none" id="VisitController-to-Visit" style="stroke:#181818;stroke-width:1;"/><polygon fill="#181818" points="1898.25,179.81,1902.25,170.81,1898.25,174.81,1894.25,170.81,1898.25,179.81" style="stroke:#181818;stroke-width:1;"/></g><!--link Specialty to NamedEntity--><g class="link" data-entity-1="Specialty" data-entity-2="NamedEntity" data-source-line="63" data-uid="lnk51" id="link_Specialty_NamedEntity"><path d="M1329.33,199 C1313.46,199 1298.75,199 1298.75,199 C1298.75,199 1298.75,273.89 1298.75,311.81" fill="none" id="Specialty-to-NamedEntity" style="stroke:#181818;stroke-width:1;"/><polygon fill="#181818" points="1298.75,317.81,1302.75,308.81,1298.75,312.81,1294.75,308.81,1298.75,317.81" style="stroke:#181818;stroke-width:1;"/></g><!--link Vet to Person--><g class="link" data-entity-1="Vet" data-entity-2="Person" data-source-line="64" data-uid="lnk52" id="link_Vet_Person"><path d="M1228.46,199 C1196.12,199 1137,199 1137,199 C1137,199 1137,331 1137,331 C1137,331 1080.27,331 1040.34,331" fill="none" id="Vet-to-Person" style="stroke:#181818;stroke-width:1;"/><polygon fill="#181818" points="1034.34,331,1043.34,335,1039.34,331,1043.34,327,1034.34,331" style="stroke:#181818;stroke-width:1;"/><text fill="#000000" font-family="Helvetica" font-size="13" lengthAdjust="spacing" textLength="7.23" x="1129" y="267.0951">1</text></g><!--link VetController to VetRepository--><g class="link" data-entity-1="VetController" data-entity-2="VetRepository" data-source-line="65" data-uid="lnk53" id="link_VetController_VetRepository"><path d="M1496,218.19 C1496,244.55 1496,285.7 1496,311.97" fill="none" id="VetController-to-VetRepository" style="stroke:#181818;stroke-width:1;"/><polygon fill="#181818" points="1496,317.97,1500,308.97,1496,312.97,1492,308.97,1496,317.97" style="stroke:#181818;stroke-width:1;"/></g><!--link VetController to Vets--><g class="link" data-entity-1="VetController" data-entity-2="Vets" data-source-line="66" data-uid="lnk54" id="link_VetController_Vets"><path d="M1569.26,199 C1589.04,199 1607,199 1607,199 C1607,199 1607,273.89 1607,311.81" fill="none" id="VetController-to-Vets" style="stroke:#181818;stroke-width:2;"/><polygon fill="#181818" points="1607,317.81,1611,308.81,1607,312.81,1603,308.81,1607,317.81" style="stroke:#181818;stroke-width:2;"/></g><!--SRC=[dLLDRniX4BtpAv1xZcIxKWzLQgbn4-NInd8Yzr155M8dNcGMLe1JMLN_UzblbeNTJUo3pV3UO-OniwjFJEH4aGmdy4BEtDn9ONwG3F0zy5SmZ1AKiWJmzNKkbTbia6uPEQ4dSeGR-tDKyYoIhUHIuG_Voey3L40D4KS-0ygP07F90Tl3Kkbi29c0XXn_Mhh2H9oAu6gvH7KsU75WcfdlHDX51i8yWdfb51RDOVWlmbr6U66_HEFTm_xfTvZPbjwcs-ENfArrJKdEGPLgNYnC_0cSoWmywY0wScftLWlwXnmZu9qsm9jDUCo1CiBDfLHfLv7SeSuSJ1JW6mgJTXPDczmAm-ead7Nqb3taqhedrQKvfOj4IRh1wg3hkzAzDviUe4rulYKqBVhaXHtFYXWcHQas34VeYkZKizcBXOaFVmGeZ-Z5maHRujREDwDVyvpR1qkRScXZGc9_jZURmJqJzNq4T-8Y_VHtq-rb8K_skNGdLKQCwNYzu8XXdKrH_GFXB26sznhjDZ2YwxMm5nkjnIqX1bIwlQFYRrIlqGe3ReW6PpIxfJj1xi1U_J8feoS1MdzPFLzjNCfdl49rDYCmL7azG5JCmEx7QjSWlvS7e18m4zPT1IhS6QJZ5bqLPYAQwuZcTAOJcaNDSKXjMjUBgEcOERNqfsF029GpmQWHg3STmPAgz-9K8_blwd2A5hgU2NLcRnQfw8fPYPG0rBrQn-n7Xr2lrKDJdZP-txqNuGXuNOFrVm00]--></g></svg>