<svg xmlns="http://www.w3.org/2000/svg" xmlns:xlink="http://www.w3.org/1999/xlink" contentStyleType="text/css" data-diagram-type="DESCRIPTION" height="655px" preserveAspectRatio="none" style="width:2500px;height:655px;background:#FFFFFF;" version="1.1" viewBox="0 0 2500 655" width="2500px" zoomAndPan="magnify"><defs/><g><!--cluster visits--><g class="cluster" data-entity="visits" data-source-line="8" data-uid="ent0002" id="cluster_visits"><path d="M1093.5,6 L1130.2998,6 A3.75,3.75 0 0 1 1132.7998,8.5 L1139.7998,29.6094 L1674.5,29.6094 A2.5,2.5 0 0 1 1677,32.1094 L1677,369.5 A2.5,2.5 0 0 1 1674.5,372 L1093.5,372 A2.5,2.5 0 0 1 1091,369.5 L1091,8.5 A2.5,2.5 0 0 1 1093.5,6" fill="#DDDDDD" style="stroke:#000000;stroke-width:1.5;"/><line style="stroke:#000000;stroke-width:1.5;" x1="1091" x2="1139.7998" y1="29.6094" y2="29.6094"/><text fill="#000000" font-family="Helvetica" font-size="14" font-weight="bold" lengthAdjust="spacing" textLength="35.7998" x="1095" y="22.5332">visits</text></g><!--cluster vets--><g class="cluster" data-entity="vets" data-source-line="18" data-uid="ent0010" id="cluster_vets"><path d="M8.5,6 L37.5205,6 A3.75,3.75 0 0 1 40.0205,8.5 L47.0205,29.6094 L1060.5,29.6094 A2.5,2.5 0 0 1 1063,32.1094 L1063,369.5 A2.5,2.5 0 0 1 1060.5,372 L8.5,372 A2.5,2.5 0 0 1 6,369.5 L6,8.5 A2.5,2.5 0 0 1 8.5,6" fill="#DDDDDD" style="stroke:#000000;stroke-width:1.5;"/><line style="stroke:#000000;stroke-width:1.5;" x1="6" x2="47.0205" y1="29.6094" y2="29.6094"/><text fill="#000000" font-family="Helvetica" font-size="14" font-weight="bold" lengthAdjust="spacing" textLength="28.0205" x="10" y="22.5332">vets</text></g><!--cluster customers--><g class="cluster" data-entity="customers" data-source-line="32" data-uid="ent0022" id="cluster_customers"><path d="M1707.5,6 L1779.3066,6 A3.75,3.75 0 0 1 1781.8066,8.5 L1788.8066,29.6094 L2490.5,29.6094 A2.5,2.5 0 0 1 2493,32.1094 L2493,645.5 A2.5,2.5 0 0 1 2490.5,648 L1707.5,648 A2.5,2.5 0 0 1 1705,645.5 L1705,8.5 A2.5,2.5 0 0 1 1707.5,6" fill="#DDDDDD" style="stroke:#000000;stroke-width:1.5;"/><line style="stroke:#000000;stroke-width:1.5;" x1="1705" x2="1788.8066" y1="29.6094" y2="29.6094"/><text fill="#000000" font-family="Helvetica" font-size="14" font-weight="bold" lengthAdjust="spacing" textLength="70.8066" x="1709" y="22.5332">customers</text></g><!--entity PORT_visits--><!--entity VisitController--><g class="entity" data-entity="VisitController" data-source-line="10" data-uid="ent0004" id="entity_VisitController"><rect fill="#DDDDDD" height="37.6094" rx="2.5" ry="2.5" style="stroke:#181818;stroke-width:0.5;" width="107.1377" x="1431.5" y="42"/><text fill="#000000" font-family="Helvetica" font-size="14" lengthAdjust="spacing" textLength="87.1377" x="1441.5" y="66.5332">VisitController</text></g><!--entity _duplicate__visits___NamedEntity--><g class="entity" data-entity="_duplicate__visits___NamedEntity" data-source-line="11" data-uid="ent0005" id="entity__duplicate__visits___NamedEntity"><rect fill="#DDDDDD" height="37.6094" rx="2.5" ry="2.5" style="stroke:#181818;stroke-width:0.5;" width="212.1787" x="1343" y="180"/><text fill="#000000" font-family="Helvetica" font-size="14" lengthAdjust="spacing" textLength="192.1787" x="1353" y="204.5332">[duplicate (visits)] NamedEntity</text></g><!--entity _duplicate__visits___Person--><g class="entity" data-entity="_duplicate__visits___Person" data-source-line="12" data-uid="ent0006" id="entity__duplicate__visits___Person"><rect fill="#DDDDDD" height="37.6094" rx="2.5" ry="2.5" style="stroke:#181818;stroke-width:0.5;" width="176.3926" x="1107" y="180"/><text fill="#000000" font-family="Helvetica" font-size="14" lengthAdjust="spacing" textLength="156.3926" x="1117" y="204.5332">[duplicate (visits)] Person</text></g><!--entity _duplicate__visits___PetClinicApplication--><g class="entity" data-entity="_duplicate__visits___PetClinicApplication" data-source-line="13" data-uid="ent0007" id="entity__duplicate__visits___PetClinicApplication"><rect fill="#DDDDDD" height="37.6094" rx="2.5" ry="2.5" style="stroke:#181818;stroke-width:0.5;" width="255.7646" x="1111" y="42"/><text fill="#000000" font-family="Helvetica" font-size="14" lengthAdjust="spacing" textLength="235.7646" x="1121" y="66.5332">[duplicate (visits)] PetClinicApplication</text></g><!--entity Visit--><g class="entity" data-entity="Visit" data-source-line="14" data-uid="ent0008" id="entity_Visit"><rect fill="#DDDDDD" height="37.6094" rx="2.5" ry="2.5" style="stroke:#181818;stroke-width:0.5;" width="46.4482" x="1615" y="180"/><text fill="#000000" font-family="Helvetica" font-size="14" lengthAdjust="spacing" textLength="26.4482" x="1625" y="204.5332">Visit</text></g><!--entity _duplicate__visits___BaseEntity--><g class="entity" data-entity="_duplicate__visits___BaseEntity" data-source-line="15" data-uid="ent0009" id="entity__duplicate__visits___BaseEntity"><rect fill="#DDDDDD" height="37.6094" rx="2.5" ry="2.5" style="stroke:#181818;stroke-width:0.5;" width="198.958" x="1349.5" y="318"/><text fill="#000000" font-family="Helvetica" font-size="14" lengthAdjust="spacing" textLength="178.958" x="1359.5" y="342.5332">[duplicate (visits)] BaseEntity</text></g><!--entity PORT_vets--><!--entity CacheConfiguration--><g class="entity" data-entity="CacheConfiguration" data-source-line="20" data-uid="ent0012" id="entity_CacheConfiguration"><rect fill="#DDDDDD" height="37.6094" rx="2.5" ry="2.5" style="stroke:#181818;stroke-width:0.5;" width="143.7441" x="903" y="42"/><text fill="#000000" font-family="Helvetica" font-size="14" lengthAdjust="spacing" textLength="123.7441" x="913" y="66.5332">CacheConfiguration</text></g><!--entity Specialty--><g class="entity" data-entity="Specialty" data-source-line="21" data-uid="ent0013" id="entity_Specialty"><rect fill="#DDDDDD" height="37.6094" rx="2.5" ry="2.5" style="stroke:#181818;stroke-width:0.5;" width="76.8066" x="363.5" y="42"/><text fill="#000000" font-family="Helvetica" font-size="14" lengthAdjust="spacing" textLength="56.8066" x="373.5" y="66.5332">Specialty</text></g><!--entity Vet--><g class="entity" data-entity="Vet" data-source-line="22" data-uid="ent0014" id="entity_Vet"><rect fill="#DDDDDD" height="37.6094" rx="2.5" ry="2.5" style="stroke:#181818;stroke-width:0.5;" width="41.0137" x="630.5" y="42"/><text fill="#000000" font-family="Helvetica" font-size="14" lengthAdjust="spacing" textLength="21.0137" x="640.5" y="66.5332">Vet</text></g><!--entity VetController--><g class="entity" data-entity="VetController" data-source-line="23" data-uid="ent0015" id="entity_VetController"><rect fill="#DDDDDD" height="37.6094" rx="2.5" ry="2.5" style="stroke:#181818;stroke-width:0.5;" width="101.7031" x="94" y="42"/><text fill="#000000" font-family="Helvetica" font-size="14" lengthAdjust="spacing" textLength="81.7031" x="104" y="66.5332">VetController</text></g><!--entity _duplicate__vets___PetClinicApplication--><g class="entity" data-entity="_duplicate__vets___PetClinicApplication" data-source-line="24" data-uid="ent0016" id="entity__duplicate__vets___PetClinicApplication"><rect fill="#DDDDDD" height="37.6094" rx="2.5" ry="2.5" style="stroke:#181818;stroke-width:0.5;" width="250.3301" x="797" y="180"/><text fill="#000000" font-family="Helvetica" font-size="14" lengthAdjust="spacing" textLength="230.3301" x="807" y="204.5332">[duplicate (vets)] PetClinicApplication</text></g><!--entity _duplicate__vets___NamedEntity--><g class="entity" data-entity="_duplicate__vets___NamedEntity" data-source-line="25" data-uid="ent0017" id="entity__duplicate__vets___NamedEntity"><rect fill="#DDDDDD" height="37.6094" rx="2.5" ry="2.5" style="stroke:#181818;stroke-width:0.5;" width="206.7441" x="298.5" y="180"/><text fill="#000000" font-family="Helvetica" font-size="14" lengthAdjust="spacing" textLength="186.7441" x="308.5" y="204.5332">[duplicate (vets)] NamedEntity</text></g><!--entity _duplicate__vets___Person--><g class="entity" data-entity="_duplicate__vets___Person" data-source-line="26" data-uid="ent0018" id="entity__duplicate__vets___Person"><rect fill="#DDDDDD" height="37.6094" rx="2.5" ry="2.5" style="stroke:#181818;stroke-width:0.5;" width="170.958" x="565.5" y="180"/><text fill="#000000" font-family="Helvetica" font-size="14" lengthAdjust="spacing" textLength="150.958" x="575.5" y="204.5332">[duplicate (vets)] Person</text></g><!--entity VetRepository--><g class="entity" data-entity="VetRepository" data-source-line="27" data-uid="ent0019" id="entity_VetRepository"><rect fill="#DDDDDD" height="37.6094" rx="2.5" ry="2.5" style="stroke:#181818;stroke-width:0.5;" width="107.9307" x="22" y="180"/><text fill="#000000" font-family="Helvetica" font-size="14" lengthAdjust="spacing" textLength="87.9307" x="32" y="204.5332">VetRepository</text></g><!--entity Vets--><g class="entity" data-entity="Vets" data-source-line="28" data-uid="ent0020" id="entity_Vets"><rect fill="#DDDDDD" height="37.6094" rx="2.5" ry="2.5" style="stroke:#181818;stroke-width:0.5;" width="48.0137" x="190" y="180"/><text fill="#000000" font-family="Helvetica" font-size="14" lengthAdjust="spacing" textLength="28.0137" x="200" y="204.5332">Vets</text></g><!--entity _duplicate__vets___BaseEntity--><g class="entity" data-entity="_duplicate__vets___BaseEntity" data-source-line="29" data-uid="ent0021" id="entity__duplicate__vets___BaseEntity"><rect fill="#DDDDDD" height="37.6094" rx="2.5" ry="2.5" style="stroke:#181818;stroke-width:0.5;" width="193.5234" x="429" y="318"/><text fill="#000000" font-family="Helvetica" font-size="14" lengthAdjust="spacing" textLength="173.5234" x="439" y="342.5332">[duplicate (vets)] BaseEntity</text></g><!--entity PORT_customers--><!--entity OwnerController--><g class="entity" data-entity="OwnerController" data-source-line="34" data-uid="ent0024" id="entity_OwnerController"><rect fill="#DDDDDD" height="37.6094" rx="2.5" ry="2.5" style="stroke:#181818;stroke-width:0.5;" width="121.9238" x="2071" y="42"/><text fill="#000000" font-family="Helvetica" font-size="14" lengthAdjust="spacing" textLength="101.9238" x="2081" y="66.5332">OwnerController</text></g><!--entity PetController--><g class="entity" data-entity="PetController" data-source-line="35" data-uid="ent0025" id="entity_PetController"><rect fill="#DDDDDD" height="37.6094" rx="2.5" ry="2.5" style="stroke:#181818;stroke-width:0.5;" width="101.7031" x="2253" y="42"/><text fill="#000000" font-family="Helvetica" font-size="14" lengthAdjust="spacing" textLength="81.7031" x="2263" y="66.5332">PetController</text></g><!--entity PetType--><g class="entity" data-entity="PetType" data-source-line="36" data-uid="ent0026" id="entity_PetType"><rect fill="#DDDDDD" height="37.6094" rx="2.5" ry="2.5" style="stroke:#181818;stroke-width:0.5;" width="72.1377" x="2104" y="318"/><text fill="#000000" font-family="Helvetica" font-size="14" lengthAdjust="spacing" textLength="52.1377" x="2114" y="342.5332">PetType</text></g><!--entity _duplicate__customers___PetClinicApplication--><g class="entity" data-entity="_duplicate__customers___PetClinicApplication" data-source-line="37" data-uid="ent0027" id="entity__duplicate__customers___PetClinicApplication"><rect fill="#DDDDDD" height="37.6094" rx="2.5" ry="2.5" style="stroke:#181818;stroke-width:0.5;" width="289.2266" x="1721.5" y="42"/><text fill="#000000" font-family="Helvetica" font-size="14" lengthAdjust="spacing" textLength="269.2266" x="1731.5" y="66.5332">[duplicate (customers)] PetClinicApplication</text></g><!--entity OwnerRepository--><g class="entity" data-entity="OwnerRepository" data-source-line="38" data-uid="ent0028" id="entity_OwnerRepository"><rect fill="#DDDDDD" height="37.6094" rx="2.5" ry="2.5" style="stroke:#181818;stroke-width:0.5;" width="128.1514" x="2068" y="180"/><text fill="#000000" font-family="Helvetica" font-size="14" lengthAdjust="spacing" textLength="108.1514" x="2078" y="204.5332">OwnerRepository</text></g><!--entity Owner--><g class="entity" data-entity="Owner" data-source-line="39" data-uid="ent0029" id="entity_Owner"><rect fill="#DDDDDD" height="37.6094" rx="2.5" ry="2.5" style="stroke:#181818;stroke-width:0.5;" width="61.2344" x="1946.5" y="180"/><text fill="#000000" font-family="Helvetica" font-size="14" lengthAdjust="spacing" textLength="41.2344" x="1956.5" y="204.5332">Owner</text></g><!--entity PetValidator--><g class="entity" data-entity="PetValidator" data-source-line="40" data-uid="ent0030" id="entity_PetValidator"><rect fill="#DDDDDD" height="37.6094" rx="2.5" ry="2.5" style="stroke:#181818;stroke-width:0.5;" width="96.2686" x="2318" y="180"/><text fill="#000000" font-family="Helvetica" font-size="14" lengthAdjust="spacing" textLength="76.2686" x="2328" y="204.5332">PetValidator</text></g><!--entity _duplicate__customers___Person--><g class="entity" data-entity="_duplicate__customers___Person" data-source-line="41" data-uid="ent0031" id="entity__duplicate__customers___Person"><rect fill="#DDDDDD" height="37.6094" rx="2.5" ry="2.5" style="stroke:#181818;stroke-width:0.5;" width="209.8545" x="1864" y="456"/><text fill="#000000" font-family="Helvetica" font-size="14" lengthAdjust="spacing" textLength="189.8545" x="1874" y="480.5332">[duplicate (customers)] Person</text></g><!--entity Pet--><g class="entity" data-entity="Pet" data-source-line="42" data-uid="ent0032" id="entity_Pet"><rect fill="#DDDDDD" height="37.6094" rx="2.5" ry="2.5" style="stroke:#181818;stroke-width:0.5;" width="41.0137" x="2236.5" y="318"/><text fill="#000000" font-family="Helvetica" font-size="14" lengthAdjust="spacing" textLength="21.0137" x="2246.5" y="342.5332">Pet</text></g><!--entity _duplicate__customers___NamedEntity--><g class="entity" data-entity="_duplicate__customers___NamedEntity" data-source-line="43" data-uid="ent0033" id="entity__duplicate__customers___NamedEntity"><rect fill="#DDDDDD" height="37.6094" rx="2.5" ry="2.5" style="stroke:#181818;stroke-width:0.5;" width="245.6406" x="2134" y="456"/><text fill="#000000" font-family="Helvetica" font-size="14" lengthAdjust="spacing" textLength="225.6406" x="2144" y="480.5332">[duplicate (customers)] NamedEntity</text></g><!--entity _duplicate__customers___BaseEntity--><g class="entity" data-entity="_duplicate__customers___BaseEntity" data-source-line="44" data-uid="ent0034" id="entity__duplicate__customers___BaseEntity"><rect fill="#DDDDDD" height="37.6094" rx="2.5" ry="2.5" style="stroke:#181818;stroke-width:0.5;" width="232.4199" x="1997" y="594"/><text fill="#000000" font-family="Helvetica" font-size="14" lengthAdjust="spacing" textLength="212.4199" x="2007" y="618.5332">[duplicate (customers)] BaseEntity</text></g><!--link _duplicate__customers___NamedEntity to _duplicate__customers___BaseEntity--><g class="link" data-entity-1="_duplicate__customers___NamedEntity" data-entity-2="_duplicate__customers___BaseEntity" data-source-line="47" data-uid="lnk35" id="link__duplicate__customers___NamedEntity__duplicate__customers___BaseEntity"><path d="M2181.5,494.19 C2181.5,520.55 2181.5,561.7 2181.5,587.97" fill="none" id="_duplicate__customers___NamedEntity-to-_duplicate__customers___BaseEntity" style="stroke:#181818;stroke-width:1;"/><polygon fill="#181818" points="2181.5,593.97,2185.5,584.97,2181.5,588.97,2177.5,584.97,2181.5,593.97" style="stroke:#181818;stroke-width:1;"/></g><!--link _duplicate__vets___NamedEntity to _duplicate__vets___BaseEntity--><g class="link" data-entity-1="_duplicate__vets___NamedEntity" data-entity-2="_duplicate__vets___BaseEntity" data-source-line="48" data-uid="lnk36" id="link__duplicate__vets___NamedEntity__duplicate__vets___BaseEntity"><path d="M467.25,218.19 C467.25,244.55 467.25,285.7 467.25,311.97" fill="none" id="_duplicate__vets___NamedEntity-to-_duplicate__vets___BaseEntity" style="stroke:#181818;stroke-width:1;"/><polygon fill="#181818" points="467.25,317.97,471.25,308.97,467.25,312.97,463.25,308.97,467.25,317.97" style="stroke:#181818;stroke-width:1;"/></g><!--link _duplicate__visits___NamedEntity to _duplicate__visits___BaseEntity--><g class="link" data-entity-1="_duplicate__visits___NamedEntity" data-entity-2="_duplicate__visits___BaseEntity" data-source-line="49" data-uid="lnk37" id="link__duplicate__visits___NamedEntity__duplicate__visits___BaseEntity"><path d="M1449,218.19 C1449,244.55 1449,285.7 1449,311.97" fill="none" id="_duplicate__visits___NamedEntity-to-_duplicate__visits___BaseEntity" style="stroke:#181818;stroke-width:1;"/><polygon fill="#181818" points="1449,317.97,1453,308.97,1449,312.97,1445,308.97,1449,317.97" style="stroke:#181818;stroke-width:1;"/></g><!--link _duplicate__customers___Person to _duplicate__customers___BaseEntity--><g class="link" data-entity-1="_duplicate__customers___Person" data-entity-2="_duplicate__customers___BaseEntity" data-source-line="50" data-uid="lnk38" id="link__duplicate__customers___Person__duplicate__customers___BaseEntity"><path d="M2035.5,494.19 C2035.5,520.55 2035.5,561.7 2035.5,587.97" fill="none" id="_duplicate__customers___Person-to-_duplicate__customers___BaseEntity" style="stroke:#181818;stroke-width:1;"/><polygon fill="#181818" points="2035.5,593.97,2039.5,584.97,2035.5,588.97,2031.5,584.97,2035.5,593.97" style="stroke:#181818;stroke-width:1;"/></g><!--link _duplicate__vets___Person to _duplicate__vets___BaseEntity--><g class="link" data-entity-1="_duplicate__vets___Person" data-entity-2="_duplicate__vets___BaseEntity" data-source-line="51" data-uid="lnk39" id="link__duplicate__vets___Person__duplicate__vets___BaseEntity"><path d="M594.25,218.19 C594.25,244.55 594.25,285.7 594.25,311.97" fill="none" id="_duplicate__vets___Person-to-_duplicate__vets___BaseEntity" style="stroke:#181818;stroke-width:1;"/><polygon fill="#181818" points="594.25,317.97,598.25,308.97,594.25,312.97,590.25,308.97,594.25,317.97" style="stroke:#181818;stroke-width:1;"/></g><!--link _duplicate__visits___Person to _duplicate__visits___BaseEntity--><g class="link" data-entity-1="_duplicate__visits___Person" data-entity-2="_duplicate__visits___BaseEntity" data-source-line="52" data-uid="lnk40" id="link__duplicate__visits___Person__duplicate__visits___BaseEntity"><path d="M1195,218.19 C1195,256.11 1195,337 1195,337 C1195,337 1272.18,337 1343.34,337" fill="none" id="_duplicate__visits___Person-to-_duplicate__visits___BaseEntity" style="stroke:#181818;stroke-width:1;"/><polygon fill="#181818" points="1349.34,337,1340.34,333,1344.34,337,1340.34,341,1349.34,337" style="stroke:#181818;stroke-width:1;"/></g><!--link Owner to _duplicate__customers___Person--><g class="link" data-entity-1="Owner" data-entity-2="_duplicate__customers___Person" data-source-line="53" data-uid="lnk41" id="link_Owner__duplicate__customers___Person"><path d="M1987.17,218.41 C1987.17,269.21 1987.17,399.62 1987.17,449.98" fill="none" id="Owner-to-_duplicate__customers___Person" style="stroke:#181818;stroke-width:1;"/><polygon fill="#181818" points="1987.17,455.98,1991.17,446.98,1987.17,450.98,1983.17,446.98,1987.17,455.98" style="stroke:#181818;stroke-width:1;"/></g><!--link Owner to Pet--><g class="link" data-entity-1="Owner" data-entity-2="Pet" data-source-line="54" data-uid="lnk42" id="link_Owner_Pet"><path d="M1966.83,218.22 C1966.83,238.64 1966.83,268 1966.83,268 C1966.83,268 2242,268 2242,268 C2242,268 2242,291.36 2242,311.78" fill="none" id="Owner-to-Pet" style="stroke:#181818;stroke-width:3;"/><polygon fill="#181818" points="2242,317.78,2246,308.78,2242,312.78,2238,308.78,2242,317.78" style="stroke:#181818;stroke-width:3;"/></g><!--link OwnerController to Owner--><g class="link" data-entity-1="OwnerController" data-entity-2="Owner" data-source-line="55" data-uid="lnk43" id="link_OwnerController_Owner"><path d="M2070.91,61 C2053.54,61 2039.25,61 2039.25,61 C2039.25,61 2039.25,199 2039.25,199 C2039.25,199 2029.44,199 2013.76,199" fill="none" id="OwnerController-to-Owner" style="stroke:#181818;stroke-width:3;"/><polygon fill="#181818" points="2007.76,199,2016.76,203,2012.76,199,2016.76,195,2007.76,199" style="stroke:#181818;stroke-width:3;"/></g><!--link OwnerController to OwnerRepository--><g class="link" data-entity-1="OwnerController" data-entity-2="OwnerRepository" data-source-line="56" data-uid="lnk44" id="link_OwnerController_OwnerRepository"><path d="M2152.33,80.19 C2152.33,106.55 2152.33,147.7 2152.33,173.97" fill="none" id="OwnerController-to-OwnerRepository" style="stroke:#181818;stroke-width:3;"/><polygon fill="#181818" points="2152.33,179.97,2156.33,170.97,2152.33,174.97,2148.33,170.97,2152.33,179.97" style="stroke:#181818;stroke-width:3;"/></g><!--link Pet to _duplicate__customers___NamedEntity--><g class="link" data-entity-1="Pet" data-entity-2="_duplicate__customers___NamedEntity" data-source-line="57" data-uid="lnk45" id="link_Pet__duplicate__customers___NamedEntity"><path d="M2257,356.19 C2257,382.55 2257,423.7 2257,449.97" fill="none" id="Pet-to-_duplicate__customers___NamedEntity" style="stroke:#181818;stroke-width:1;"/><polygon fill="#181818" points="2257,455.97,2261,446.97,2257,450.97,2253,446.97,2257,455.97" style="stroke:#181818;stroke-width:1;"/></g><!--link PetController to OwnerRepository--><g class="link" data-entity-1="PetController" data-entity-2="OwnerRepository" data-source-line="58" data-uid="lnk46" id="link_PetController_OwnerRepository"><path d="M2262.8,80.19 C2262.8,116.8 2262.8,193 2262.8,193 C2262.8,193 2235.33,193 2202.25,193" fill="none" id="PetController-to-OwnerRepository" style="stroke:#181818;stroke-width:2;"/><polygon fill="#181818" points="2196.25,193,2205.25,197,2201.25,193,2205.25,189,2196.25,193" style="stroke:#181818;stroke-width:2;"/></g><!--link PetController to Owner--><g class="link" data-entity-1="PetController" data-entity-2="Owner" data-source-line="59" data-uid="lnk47" id="link_PetController_Owner"><path d="M2257.9,80.09 C2257.9,108.86 2257.9,160 2257.9,160 C2257.9,160 1987.17,160 1987.17,160 C1987.17,160 1987.17,164.06 1987.17,173.96" fill="none" id="PetController-to-Owner" style="stroke:#181818;stroke-width:3;"/><polygon fill="#181818" points="1987.17,179.96,1991.17,170.96,1987.17,174.96,1983.17,170.96,1987.17,179.96" style="stroke:#181818;stroke-width:3;"/></g><!--link PetController to Pet--><g class="link" data-entity-1="PetController" data-entity-2="Pet" data-source-line="60" data-uid="lnk48" id="link_PetController_Pet"><path d="M2267.7,80.41 C2267.7,131.21 2267.7,261.62 2267.7,311.98" fill="none" id="PetController-to-Pet" style="stroke:#181818;stroke-width:2;"/><polygon fill="#181818" points="2267.7,317.98,2271.7,308.98,2267.7,312.98,2263.7,308.98,2267.7,317.98" style="stroke:#181818;stroke-width:2;"/></g><!--link PetController to PetValidator--><g class="link" data-entity-1="PetController" data-entity-2="PetValidator" data-source-line="61" data-uid="lnk49" id="link_PetController_PetValidator"><path d="M2336.5,80.19 C2336.5,106.55 2336.5,147.7 2336.5,173.97" fill="none" id="PetController-to-PetValidator" style="stroke:#181818;stroke-width:1;"/><polygon fill="#181818" points="2336.5,179.97,2340.5,170.97,2336.5,174.97,2332.5,170.97,2336.5,179.97" style="stroke:#181818;stroke-width:1;"/></g><!--link PetType to _duplicate__customers___NamedEntity--><g class="link" data-entity-1="PetType" data-entity-2="_duplicate__customers___NamedEntity" data-source-line="62" data-uid="lnk50" id="link_PetType__duplicate__customers___NamedEntity"><path d="M2155,356.19 C2155,382.55 2155,423.7 2155,449.97" fill="none" id="PetType-to-_duplicate__customers___NamedEntity" style="stroke:#181818;stroke-width:1;"/><polygon fill="#181818" points="2155,455.97,2159,446.97,2155,450.97,2151,446.97,2155,455.97" style="stroke:#181818;stroke-width:1;"/></g><!--link PetValidator to Pet--><g class="link" data-entity-1="PetValidator" data-entity-2="Pet" data-source-line="63" data-uid="lnk51" id="link_PetValidator_Pet"><path d="M2317.93,206 C2295.05,206 2272.6,206 2272.6,206 C2272.6,206 2272.6,275.62 2272.6,311.95" fill="none" id="PetValidator-to-Pet" style="stroke:#181818;stroke-width:2;"/><polygon fill="#181818" points="2272.6,317.95,2276.6,308.95,2272.6,312.95,2268.6,308.95,2272.6,317.95" style="stroke:#181818;stroke-width:2;"/></g><!--link Visit to _duplicate__visits___BaseEntity--><g class="link" data-entity-1="Visit" data-entity-2="_duplicate__visits___BaseEntity" data-source-line="64" data-uid="lnk52" id="link_Visit__duplicate__visits___BaseEntity"><path d="M1638,218.19 C1638,256.11 1638,337 1638,337 C1638,337 1600.19,337 1554.76,337" fill="none" id="Visit-to-_duplicate__visits___BaseEntity" style="stroke:#181818;stroke-width:1;"/><polygon fill="#181818" points="1548.76,337,1557.76,341,1553.76,337,1557.76,333,1548.76,337" style="stroke:#181818;stroke-width:1;"/></g><!--link VisitController to Owner--><g class="link" data-entity-1="VisitController" data-entity-2="Owner" data-source-line="65" data-uid="lnk53" id="link_VisitController_Owner"><path d="M1458.25,80.12 C1458.25,103.5 1458.25,140 1458.25,140 C1458.25,140 1966.83,140 1966.83,140 C1966.83,140 1966.83,156.47 1966.83,173.68" fill="none" id="VisitController-to-Owner" style="stroke:#181818;stroke-width:1;"/><polygon fill="#181818" points="1966.83,179.68,1970.83,170.68,1966.83,174.68,1962.83,170.68,1966.83,179.68" style="stroke:#181818;stroke-width:1;"/><text fill="#000000" font-family="Helvetica" font-size="13" lengthAdjust="spacing" textLength="7.23" x="1694.44" y="136.4951">2</text></g><!--link VisitController to OwnerRepository--><g class="link" data-entity-1="VisitController" data-entity-2="OwnerRepository" data-source-line="66" data-uid="lnk54" id="link_VisitController_OwnerRepository"><path d="M1485,80.32 C1485,97.53 1485,120 1485,120 C1485,120 2111.67,120 2111.67,120 C2111.67,120 2111.67,150.5 2111.67,173.88" fill="none" id="VisitController-to-OwnerRepository" style="stroke:#181818;stroke-width:1;"/><polygon fill="#181818" points="2111.67,179.88,2115.67,170.88,2111.67,174.88,2107.67,170.88,2111.67,179.88" style="stroke:#181818;stroke-width:1;"/><text fill="#000000" font-family="Helvetica" font-size="13" lengthAdjust="spacing" textLength="7.23" x="1800.43" y="116.4951">2</text></g><!--link VisitController to Pet--><g class="link" data-entity-1="VisitController" data-entity-2="Pet" data-source-line="67" data-uid="lnk55" id="link_VisitController_Pet"><path d="M1511.75,80.04 C1511.75,89.94 1511.75,100 1511.75,100 C1511.75,100 2247.5,100 2247.5,100 C2247.5,100 2247.5,255 2247.5,311.61" fill="none" id="VisitController-to-Pet" style="stroke:#181818;stroke-width:1;"/><polygon fill="#181818" points="2247.5,317.61,2251.5,308.61,2247.5,312.61,2243.5,308.61,2247.5,317.61" style="stroke:#181818;stroke-width:1;"/><text fill="#000000" font-family="Helvetica" font-size="13" lengthAdjust="spacing" textLength="7.23" x="1970.45" y="96.4951">1</text></g><!--link VisitController to Visit--><g class="link" data-entity-1="VisitController" data-entity-2="Visit" data-source-line="68" data-uid="lnk56" id="link_VisitController_Visit"><path d="M1538.52,61 C1558.76,61 1577,61 1577,61 C1577,61 1577,199 1577,199 C1577,199 1591.66,199 1608.94,199" fill="none" id="VisitController-to-Visit" style="stroke:#181818;stroke-width:1;"/><polygon fill="#181818" points="1614.94,199,1605.94,195,1609.94,199,1605.94,203,1614.94,199" style="stroke:#181818;stroke-width:1;"/></g><!--link Specialty to _duplicate__vets___NamedEntity--><g class="link" data-entity-1="Specialty" data-entity-2="_duplicate__vets___NamedEntity" data-source-line="69" data-uid="lnk57" id="link_Specialty__duplicate__vets___NamedEntity"><path d="M402,80.19 C402,106.55 402,147.7 402,173.97" fill="none" id="Specialty-to-_duplicate__vets___NamedEntity" style="stroke:#181818;stroke-width:1;"/><polygon fill="#181818" points="402,179.97,406,170.97,402,174.97,398,170.97,402,179.97" style="stroke:#181818;stroke-width:1;"/></g><!--link Vet to _duplicate__vets___Person--><g class="link" data-entity-1="Vet" data-entity-2="_duplicate__vets___Person" data-source-line="70" data-uid="lnk58" id="link_Vet__duplicate__vets___Person"><path d="M651,80.19 C651,106.55 651,147.7 651,173.97" fill="none" id="Vet-to-_duplicate__vets___Person" style="stroke:#181818;stroke-width:1;"/><polygon fill="#181818" points="651,179.97,655,170.97,651,174.97,647,170.97,651,179.97" style="stroke:#181818;stroke-width:1;"/></g><!--link VetController to VetRepository--><g class="link" data-entity-1="VetController" data-entity-2="VetRepository" data-source-line="71" data-uid="lnk59" id="link_VetController_VetRepository"><path d="M112,80.19 C112,106.55 112,147.7 112,173.97" fill="none" id="VetController-to-VetRepository" style="stroke:#181818;stroke-width:1;"/><polygon fill="#181818" points="112,179.97,116,170.97,112,174.97,108,170.97,112,179.97" style="stroke:#181818;stroke-width:1;"/></g><!--link VetController to Vets--><g class="link" data-entity-1="VetController" data-entity-2="Vets" data-source-line="72" data-uid="lnk60" id="link_VetController_Vets"><path d="M196.17,61 C207.9,61 217,61 217,61 C217,61 217,135.89 217,173.81" fill="none" id="VetController-to-Vets" style="stroke:#181818;stroke-width:2;"/><polygon fill="#181818" points="217,179.81,221,170.81,217,174.81,213,170.81,217,179.81" style="stroke:#181818;stroke-width:2;"/></g><!--SRC=[hLPBQnin4BxhLuZqqXu2jWizXDJGk2qzDKiQV0bX4RiJMtWjBPASOah_UxKlhRmFFKBjW-tPRxvvw9knv86oaWXon3cya5EXldEcVf8Zu1zGl8AY6K5xcWE-lIsvKEiraiQZ9Dc1xE1EV-m4Fx5ymmikyBklzSi22iWKORiY05fG1kfS0jR1zjnwm7WE4ahyQM4J4tQeZCl50hNPuAjNAgcILnqv_eDmdm6-qcyYSNB_y9WsI5EQIUS2lwr06zqLmOi2HEqzi4qxFkMdij3zKu3VDv4-FEEgjVatfgWwrqof0QLjEccQMg08wWI4v6oUjNaUHQWs-ZnezgLi7b8t_HZjw6ZVnuYCxeW4N_DwZ27-YonrGA0smAkC3Sdse5NmGdSdqNTdR9vs_rL2HadHrc9-pVGCsew1cWKCHGfn4eM8GuV88vy8v9m4UCCSW7CAm3i3kbyFK78j8oxENGTxowoJxB0oE4cNZY54nTb9AdxKnOH8sO0zUhx_pK0CH3ImJJic8-qbVkrfoADUz1sy-kxldoabLAd68KgkTTK3CGni3iSUFblvbXGq9vgdAzyOOdimgVRBgkSbdxHR9G4L5zSrl7Rmg0cs0pWcnEQV7fEGRAwVr9vc1mPIVbu-Nwy3GY3FYd9IZkOQUV_wtNpZ_plaaS1_AZc4BR3Q8Ag9GflX2gwd2JFXzR7oqk97mpKt0jM0G5Y_950rMC5fMcUFBXUeJR6QYUFFtiDPzM4UicmXPb6XRcc_jRv-vKscqjmDewKnl9gF21eLtE1L8DHQ-K5ErP7VuAKVM0DGV-yB6IYxXLkVjYxc5MtTHtjnrt60LorO_WC0]--></g></svg>