<svg xmlns="http://www.w3.org/2000/svg" xmlns:xlink="http://www.w3.org/1999/xlink" contentStyleType="text/css" data-diagram-type="DESCRIPTION" height="655px" preserveAspectRatio="none" style="width:1529px;height:655px;background:#FFFFFF;" version="1.1" viewBox="0 0 1529 655" width="1529px" zoomAndPan="magnify"><defs/><g><!--cluster patition3--><g class="cluster" data-entity="patition3" data-source-line="8" data-uid="ent0002" id="cluster_patition3"><path d="M906.5,6 L965.8311,6 A3.75,3.75 0 0 1 968.3311,8.5 L975.3311,29.6094 L1519.5,29.6094 A2.5,2.5 0 0 1 1522,32.1094 L1522,231.5 A2.5,2.5 0 0 1 1519.5,234 L906.5,234 A2.5,2.5 0 0 1 904,231.5 L904,8.5 A2.5,2.5 0 0 1 906.5,6" fill="#DDDDDD" style="stroke:#000000;stroke-width:1.5;"/><line style="stroke:#000000;stroke-width:1.5;" x1="904" x2="975.3311" y1="29.6094" y2="29.6094"/><text fill="#000000" font-family="Helvetica" font-size="14" font-weight="bold" lengthAdjust="spacing" textLength="58.3311" x="908" y="22.5332">patition3</text></g><!--cluster patition0--><g class="cluster" data-entity="patition0" data-source-line="17" data-uid="ent0009" id="cluster_patition0"><path d="M8.5,144 L67.8311,144 A3.75,3.75 0 0 1 70.3311,146.5 L77.3311,167.6094 L447.5,167.6094 A2.5,2.5 0 0 1 450,170.1094 L450,369.5 A2.5,2.5 0 0 1 447.5,372 L8.5,372 A2.5,2.5 0 0 1 6,369.5 L6,146.5 A2.5,2.5 0 0 1 8.5,144" fill="#DDDDDD" style="stroke:#000000;stroke-width:1.5;"/><line style="stroke:#000000;stroke-width:1.5;" x1="6" x2="77.3311" y1="167.6094" y2="167.6094"/><text fill="#000000" font-family="Helvetica" font-size="14" font-weight="bold" lengthAdjust="spacing" textLength="58.3311" x="10" y="160.5332">patition0</text></g><!--cluster patition2--><g class="cluster" data-entity="patition2" data-source-line="25" data-uid="ent0015" id="cluster_patition2"><path d="M476.5,144 L535.8311,144 A3.75,3.75 0 0 1 538.3311,146.5 L545.3311,167.6094 L877.5,167.6094 A2.5,2.5 0 0 1 880,170.1094 L880,645.5 A2.5,2.5 0 0 1 877.5,648 L476.5,648 A2.5,2.5 0 0 1 474,645.5 L474,146.5 A2.5,2.5 0 0 1 476.5,144" fill="#DDDDDD" style="stroke:#000000;stroke-width:1.5;"/><line style="stroke:#000000;stroke-width:1.5;" x1="474" x2="545.3311" y1="167.6094" y2="167.6094"/><text fill="#000000" font-family="Helvetica" font-size="14" font-weight="bold" lengthAdjust="spacing" textLength="58.3311" x="478" y="160.5332">patition2</text></g><!--entity PORT_patition3--><!--entity PetController--><g class="entity" data-entity="PetController" data-source-line="10" data-uid="ent0004" id="entity_PetController"><rect fill="#DDDDDD" height="37.6094" rx="2.5" ry="2.5" style="stroke:#181818;stroke-width:0.5;" width="101.7031" x="1114" y="42"/><text fill="#000000" font-family="Helvetica" font-size="14" lengthAdjust="spacing" textLength="81.7031" x="1124" y="66.5332">PetController</text></g><!--entity PetTypeFormatter--><g class="entity" data-entity="PetTypeFormatter" data-source-line="11" data-uid="ent0005" id="entity_PetTypeFormatter"><rect fill="#DDDDDD" height="37.6094" rx="2.5" ry="2.5" style="stroke:#181818;stroke-width:0.5;" width="132.8135" x="920.5" y="42"/><text fill="#000000" font-family="Helvetica" font-size="14" lengthAdjust="spacing" textLength="112.8135" x="930.5" y="66.5332">PetTypeFormatter</text></g><!--entity VisitController--><g class="entity" data-entity="VisitController" data-source-line="12" data-uid="ent0006" id="entity_VisitController"><rect fill="#DDDDDD" height="37.6094" rx="2.5" ry="2.5" style="stroke:#181818;stroke-width:0.5;" width="107.1377" x="1276.5" y="42"/><text fill="#000000" font-family="Helvetica" font-size="14" lengthAdjust="spacing" textLength="87.1377" x="1286.5" y="66.5332">VisitController</text></g><!--entity PetValidator--><g class="entity" data-entity="PetValidator" data-source-line="13" data-uid="ent0007" id="entity_PetValidator"><rect fill="#DDDDDD" height="37.6094" rx="2.5" ry="2.5" style="stroke:#181818;stroke-width:0.5;" width="96.2686" x="1125" y="180"/><text fill="#000000" font-family="Helvetica" font-size="14" lengthAdjust="spacing" textLength="76.2686" x="1135" y="204.5332">PetValidator</text></g><!--entity Visit--><g class="entity" data-entity="Visit" data-source-line="14" data-uid="ent0008" id="entity_Visit"><rect fill="#DDDDDD" height="37.6094" rx="2.5" ry="2.5" style="stroke:#181818;stroke-width:0.5;" width="46.4482" x="1298" y="180"/><text fill="#000000" font-family="Helvetica" font-size="14" lengthAdjust="spacing" textLength="26.4482" x="1308" y="204.5332">Visit</text></g><!--entity PORT_patition0--><!--entity OwnerRepository--><g class="entity" data-entity="OwnerRepository" data-source-line="19" data-uid="ent0011" id="entity_OwnerRepository"><rect fill="#DDDDDD" height="37.6094" rx="2.5" ry="2.5" style="stroke:#181818;stroke-width:0.5;" width="128.1514" x="184" y="180"/><text fill="#000000" font-family="Helvetica" font-size="14" lengthAdjust="spacing" textLength="108.1514" x="194" y="204.5332">OwnerRepository</text></g><!--entity VetController--><g class="entity" data-entity="VetController" data-source-line="20" data-uid="ent0012" id="entity_VetController"><rect fill="#DDDDDD" height="37.6094" rx="2.5" ry="2.5" style="stroke:#181818;stroke-width:0.5;" width="101.7031" x="22" y="180"/><text fill="#000000" font-family="Helvetica" font-size="14" lengthAdjust="spacing" textLength="81.7031" x="32" y="204.5332">VetController</text></g><!--entity VetRepository--><g class="entity" data-entity="VetRepository" data-source-line="21" data-uid="ent0013" id="entity_VetRepository"><rect fill="#DDDDDD" height="37.6094" rx="2.5" ry="2.5" style="stroke:#181818;stroke-width:0.5;" width="107.9307" x="143" y="318"/><text fill="#000000" font-family="Helvetica" font-size="14" lengthAdjust="spacing" textLength="87.9307" x="153" y="342.5332">VetRepository</text></g><!--entity Vets--><g class="entity" data-entity="Vets" data-source-line="22" data-uid="ent0014" id="entity_Vets"><rect fill="#DDDDDD" height="37.6094" rx="2.5" ry="2.5" style="stroke:#181818;stroke-width:0.5;" width="48.0137" x="35" y="318"/><text fill="#000000" font-family="Helvetica" font-size="14" lengthAdjust="spacing" textLength="28.0137" x="45" y="342.5332">Vets</text></g><!--entity PORT_patition2--><!--entity Owner--><g class="entity" data-entity="Owner" data-source-line="27" data-uid="ent0017" id="entity_Owner"><rect fill="#DDDDDD" height="37.6094" rx="2.5" ry="2.5" style="stroke:#181818;stroke-width:0.5;" width="61.2344" x="515.5" y="180"/><text fill="#000000" font-family="Helvetica" font-size="14" lengthAdjust="spacing" textLength="41.2344" x="525.5" y="204.5332">Owner</text></g><!--entity PetType--><g class="entity" data-entity="PetType" data-source-line="28" data-uid="ent0018" id="entity_PetType"><rect fill="#DDDDDD" height="37.6094" rx="2.5" ry="2.5" style="stroke:#181818;stroke-width:0.5;" width="72.1377" x="690" y="318"/><text fill="#000000" font-family="Helvetica" font-size="14" lengthAdjust="spacing" textLength="52.1377" x="700" y="342.5332">PetType</text></g><!--entity Specialty--><g class="entity" data-entity="Specialty" data-source-line="29" data-uid="ent0019" id="entity_Specialty"><rect fill="#DDDDDD" height="37.6094" rx="2.5" ry="2.5" style="stroke:#181818;stroke-width:0.5;" width="76.8066" x="552.5" y="318"/><text fill="#000000" font-family="Helvetica" font-size="14" lengthAdjust="spacing" textLength="56.8066" x="562.5" y="342.5332">Specialty</text></g><!--entity Person--><g class="entity" data-entity="Person" data-source-line="30" data-uid="ent0020" id="entity_Person"><rect fill="#DDDDDD" height="37.6094" rx="2.5" ry="2.5" style="stroke:#181818;stroke-width:0.5;" width="64.3584" x="521" y="456"/><text fill="#000000" font-family="Helvetica" font-size="14" lengthAdjust="spacing" textLength="44.3584" x="531" y="480.5332">Person</text></g><!--entity Pet--><g class="entity" data-entity="Pet" data-source-line="31" data-uid="ent0021" id="entity_Pet"><rect fill="#DDDDDD" height="37.6094" rx="2.5" ry="2.5" style="stroke:#181818;stroke-width:0.5;" width="41.0137" x="822.5" y="318"/><text fill="#000000" font-family="Helvetica" font-size="14" lengthAdjust="spacing" textLength="21.0137" x="832.5" y="342.5332">Pet</text></g><!--entity NamedEntity--><g class="entity" data-entity="NamedEntity" data-source-line="32" data-uid="ent0022" id="entity_NamedEntity"><rect fill="#DDDDDD" height="37.6094" rx="2.5" ry="2.5" style="stroke:#181818;stroke-width:0.5;" width="100.1445" x="676" y="456"/><text fill="#000000" font-family="Helvetica" font-size="14" lengthAdjust="spacing" textLength="80.1445" x="686" y="480.5332">NamedEntity</text></g><!--entity BaseEntity--><g class="entity" data-entity="BaseEntity" data-source-line="33" data-uid="ent0023" id="entity_BaseEntity"><rect fill="#DDDDDD" height="37.6094" rx="2.5" ry="2.5" style="stroke:#181818;stroke-width:0.5;" width="86.9238" x="682.5" y="594"/><text fill="#000000" font-family="Helvetica" font-size="14" lengthAdjust="spacing" textLength="66.9238" x="692.5" y="618.5332">BaseEntity</text></g><!--link NamedEntity to BaseEntity--><g class="link" data-entity-1="NamedEntity" data-entity-2="BaseEntity" data-source-line="36" data-uid="lnk24" id="link_NamedEntity_BaseEntity"><path d="M726,494.19 C726,520.55 726,561.7 726,587.97" fill="none" id="NamedEntity-to-BaseEntity" style="stroke:#181818;stroke-width:1;"/><polygon fill="#181818" points="726,593.97,730,584.97,726,588.97,722,584.97,726,593.97" style="stroke:#181818;stroke-width:1;"/></g><!--link Person to BaseEntity--><g class="link" data-entity-1="Person" data-entity-2="BaseEntity" data-source-line="37" data-uid="lnk25" id="link_Person_BaseEntity"><path d="M553,494.19 C553,532.11 553,613 553,613 C553,613 625.09,613 676.34,613" fill="none" id="Person-to-BaseEntity" style="stroke:#181818;stroke-width:1;"/><polygon fill="#181818" points="682.34,613,673.34,609,677.34,613,673.34,617,682.34,613" style="stroke:#181818;stroke-width:1;"/></g><!--link Owner to Person--><g class="link" data-entity-1="Owner" data-entity-2="Person" data-source-line="38" data-uid="lnk26" id="link_Owner_Person"><path d="M536.75,218.41 C536.75,269.21 536.75,399.62 536.75,449.98" fill="none" id="Owner-to-Person" style="stroke:#181818;stroke-width:1;"/><polygon fill="#181818" points="536.75,455.98,540.75,446.98,536.75,450.98,532.75,446.98,536.75,455.98" style="stroke:#181818;stroke-width:1;"/></g><!--link Owner to Pet--><g class="link" data-entity-1="Owner" data-entity-2="Pet" data-source-line="39" data-uid="lnk27" id="link_Owner_Pet"><path d="M564.5,218.22 C564.5,238.64 564.5,268 564.5,268 C564.5,268 836.17,268 836.17,268 C836.17,268 836.17,291.36 836.17,311.78" fill="none" id="Owner-to-Pet" style="stroke:#181818;stroke-width:3;"/><polygon fill="#181818" points="836.17,317.78,840.17,308.78,836.17,312.78,832.17,308.78,836.17,317.78" style="stroke:#181818;stroke-width:3;"/></g><!--link Pet to NamedEntity--><g class="link" data-entity-1="Pet" data-entity-2="NamedEntity" data-source-line="40" data-uid="lnk28" id="link_Pet_NamedEntity"><path d="M822.39,337 C800.49,337 769,337 769,337 C769,337 769,411.89 769,449.81" fill="none" id="Pet-to-NamedEntity" style="stroke:#181818;stroke-width:1;"/><polygon fill="#181818" points="769,455.81,773,446.81,769,450.81,765,446.81,769,455.81" style="stroke:#181818;stroke-width:1;"/></g><!--link PetController to OwnerRepository--><g class="link" data-entity-1="PetController" data-entity-2="OwnerRepository" data-source-line="41" data-uid="lnk29" id="link_PetController_OwnerRepository"><path d="M1116.75,80.04 C1116.75,89.94 1116.75,100 1116.75,100 C1116.75,100 248,100 248,100 C248,100 248,145.14 248,173.91" fill="none" id="PetController-to-OwnerRepository" style="stroke:#181818;stroke-width:3;"/><polygon fill="#181818" points="248,179.91,252,170.91,248,174.91,244,170.91,248,179.91" style="stroke:#181818;stroke-width:3;"/><text fill="#000000" font-family="Helvetica" font-size="13" lengthAdjust="spacing" textLength="7.23" x="644.4" y="96.4951">5</text></g><!--link PetController to Owner--><g class="link" data-entity-1="PetController" data-entity-2="Owner" data-source-line="42" data-uid="lnk30" id="link_PetController_Owner"><path d="M1119.5,80.12 C1119.5,103.5 1119.5,140 1119.5,140 C1119.5,140 535.83,140 535.83,140 C535.83,140 535.83,156.47 535.83,173.68" fill="none" id="PetController-to-Owner" style="stroke:#181818;stroke-width:3;"/><polygon fill="#181818" points="535.83,179.68,539.83,170.68,535.83,174.68,531.83,170.68,535.83,179.68" style="stroke:#181818;stroke-width:3;"/><text fill="#000000" font-family="Helvetica" font-size="13" lengthAdjust="spacing" textLength="7.23" x="829.76" y="136.4951">6</text></g><!--link PetController to Pet--><g class="link" data-entity-1="PetController" data-entity-2="Pet" data-source-line="43" data-uid="lnk31" id="link_PetController_Pet"><path d="M1122.25,80.42 C1122.25,142.33 1122.25,331 1122.25,331 C1122.25,331 934.02,331 869.53,331" fill="none" id="PetController-to-Pet" style="stroke:#181818;stroke-width:2;"/><polygon fill="#181818" points="863.53,331,872.53,335,868.53,331,872.53,327,863.53,331" style="stroke:#181818;stroke-width:2;"/><text fill="#000000" font-family="Helvetica" font-size="13" lengthAdjust="spacing" textLength="7.23" x="1110.18" y="327.4951">4</text></g><!--link PetController to PetValidator--><g class="link" data-entity-1="PetController" data-entity-2="PetValidator" data-source-line="44" data-uid="lnk32" id="link_PetController_PetValidator"><path d="M1170.5,80.19 C1170.5,106.55 1170.5,147.7 1170.5,173.97" fill="none" id="PetController-to-PetValidator" style="stroke:#181818;stroke-width:1;"/><polygon fill="#181818" points="1170.5,179.97,1174.5,170.97,1170.5,174.97,1166.5,170.97,1170.5,179.97" style="stroke:#181818;stroke-width:1;"/></g><!--link PetType to NamedEntity--><g class="link" data-entity-1="PetType" data-entity-2="NamedEntity" data-source-line="45" data-uid="lnk33" id="link_PetType_NamedEntity"><path d="M726,356.19 C726,382.55 726,423.7 726,449.97" fill="none" id="PetType-to-NamedEntity" style="stroke:#181818;stroke-width:1;"/><polygon fill="#181818" points="726,455.97,730,446.97,726,450.97,722,446.97,726,455.97" style="stroke:#181818;stroke-width:1;"/></g><!--link PetTypeFormatter to OwnerRepository--><g class="link" data-entity-1="PetTypeFormatter" data-entity-2="OwnerRepository" data-source-line="46" data-uid="lnk34" id="link_PetTypeFormatter_OwnerRepository"><path d="M920.26,55 C732.96,55 216,55 216,55 C216,55 216,134.71 216,173.88" fill="none" id="PetTypeFormatter-to-OwnerRepository" style="stroke:#181818;stroke-width:1;"/><polygon fill="#181818" points="216,179.88,220,170.88,216,174.88,212,170.88,216,179.88" style="stroke:#181818;stroke-width:1;"/><text fill="#000000" font-family="Helvetica" font-size="13" lengthAdjust="spacing" textLength="7.23" x="497.69" y="51.4951">1</text></g><!--link PetTypeFormatter to PetType--><g class="link" data-entity-1="PetTypeFormatter" data-entity-2="PetType" data-source-line="47" data-uid="lnk35" id="link_PetTypeFormatter_PetType"><path d="M920.28,68 C844.28,68 730.5,68 730.5,68 C730.5,68 730.5,249.97 730.5,311.65" fill="none" id="PetTypeFormatter-to-PetType" style="stroke:#181818;stroke-width:1;"/><polygon fill="#181818" points="730.5,317.65,734.5,308.65,730.5,312.65,726.5,308.65,730.5,317.65" style="stroke:#181818;stroke-width:1;"/><text fill="#000000" font-family="Helvetica" font-size="13" lengthAdjust="spacing" textLength="7.23" x="722.5" y="94.4351">2</text></g><!--link PetValidator to Pet--><g class="link" data-entity-1="PetValidator" data-entity-2="Pet" data-source-line="48" data-uid="lnk36" id="link_PetValidator_Pet"><path d="M1124.97,199 C1034.94,199 849.83,199 849.83,199 C849.83,199 849.83,273.89 849.83,311.81" fill="none" id="PetValidator-to-Pet" style="stroke:#181818;stroke-width:2;"/><polygon fill="#181818" points="849.83,317.81,853.83,308.81,849.83,312.81,845.83,308.81,849.83,317.81" style="stroke:#181818;stroke-width:2;"/><text fill="#000000" font-family="Helvetica" font-size="13" lengthAdjust="spacing" textLength="7.23" x="919.99" y="195.4951">4</text></g><!--link Visit to BaseEntity--><g class="link" data-entity-1="Visit" data-entity-2="BaseEntity" data-source-line="49" data-uid="lnk37" id="link_Visit_BaseEntity"><path d="M1321,218.14 C1321,299.56 1321,613 1321,613 C1321,613 913.16,613 775.75,613" fill="none" id="Visit-to-BaseEntity" style="stroke:#181818;stroke-width:1;"/><polygon fill="#181818" points="769.75,613,778.75,617,774.75,613,778.75,609,769.75,613" style="stroke:#181818;stroke-width:1;"/><text fill="#000000" font-family="Helvetica" font-size="13" lengthAdjust="spacing" textLength="7.23" x="1234.81" y="609.4951">1</text></g><!--link VisitController to Owner--><g class="link" data-entity-1="VisitController" data-entity-2="Owner" data-source-line="50" data-uid="lnk38" id="link_VisitController_Owner"><path d="M1287.25,80.09 C1287.25,108.86 1287.25,160 1287.25,160 C1287.25,160 556.17,160 556.17,160 C556.17,160 556.17,164.06 556.17,173.96" fill="none" id="VisitController-to-Owner" style="stroke:#181818;stroke-width:1;"/><polygon fill="#181818" points="556.17,179.96,560.17,170.96,556.17,174.96,552.17,170.96,556.17,179.96" style="stroke:#181818;stroke-width:1;"/><text fill="#000000" font-family="Helvetica" font-size="13" lengthAdjust="spacing" textLength="7.23" x="943.69" y="156.4951">2</text></g><!--link VisitController to OwnerRepository--><g class="link" data-entity-1="VisitController" data-entity-2="OwnerRepository" data-source-line="51" data-uid="lnk39" id="link_VisitController_OwnerRepository"><path d="M1281.88,80.32 C1281.88,97.53 1281.88,120 1281.88,120 C1281.88,120 280,120 280,120 C280,120 280,150.5 280,173.88" fill="none" id="VisitController-to-OwnerRepository" style="stroke:#181818;stroke-width:1;"/><polygon fill="#181818" points="280,179.88,284,170.88,280,174.88,276,170.88,280,179.88" style="stroke:#181818;stroke-width:1;"/><text fill="#000000" font-family="Helvetica" font-size="13" lengthAdjust="spacing" textLength="7.23" x="762.84" y="116.4951">2</text></g><!--link VisitController to Pet--><g class="link" data-entity-1="VisitController" data-entity-2="Pet" data-source-line="52" data-uid="lnk40" id="link_VisitController_Pet"><path d="M1292.62,80.01 C1292.62,143.46 1292.62,344 1292.62,344 C1292.62,344 958.21,344 869.78,344" fill="none" id="VisitController-to-Pet" style="stroke:#181818;stroke-width:1;"/><polygon fill="#181818" points="863.78,344,872.78,348,868.78,344,872.78,340,863.78,344" style="stroke:#181818;stroke-width:1;"/><text fill="#000000" font-family="Helvetica" font-size="13" lengthAdjust="spacing" textLength="7.23" x="1202.2" y="340.4951">1</text></g><!--link VisitController to Visit--><g class="link" data-entity-1="VisitController" data-entity-2="Visit" data-source-line="53" data-uid="lnk41" id="link_VisitController_Visit"><path d="M1321,80.19 C1321,106.55 1321,147.7 1321,173.97" fill="none" id="VisitController-to-Visit" style="stroke:#181818;stroke-width:1;"/><polygon fill="#181818" points="1321,179.97,1325,170.97,1321,174.97,1317,170.97,1321,179.97" style="stroke:#181818;stroke-width:1;"/></g><!--link Specialty to NamedEntity--><g class="link" data-entity-1="Specialty" data-entity-2="NamedEntity" data-source-line="54" data-uid="lnk42" id="link_Specialty_NamedEntity"><path d="M629.75,337 C654.89,337 683,337 683,337 C683,337 683,411.89 683,449.81" fill="none" id="Specialty-to-NamedEntity" style="stroke:#181818;stroke-width:1;"/><polygon fill="#181818" points="683,455.81,687,446.81,683,450.81,679,446.81,683,455.81" style="stroke:#181818;stroke-width:1;"/></g><!--link VetController to VetRepository--><g class="link" data-entity-1="VetController" data-entity-2="VetRepository" data-source-line="55" data-uid="lnk43" id="link_VetController_VetRepository"><path d="M124.07,199 C144.6,199 163.5,199 163.5,199 C163.5,199 163.5,273.89 163.5,311.81" fill="none" id="VetController-to-VetRepository" style="stroke:#181818;stroke-width:1;"/><polygon fill="#181818" points="163.5,317.81,167.5,308.81,163.5,312.81,159.5,308.81,163.5,317.81" style="stroke:#181818;stroke-width:1;"/></g><!--link VetController to Vets--><g class="link" data-entity-1="VetController" data-entity-2="Vets" data-source-line="56" data-uid="lnk44" id="link_VetController_Vets"><path d="M59,218.19 C59,244.55 59,285.7 59,311.97" fill="none" id="VetController-to-Vets" style="stroke:#181818;stroke-width:2;"/><polygon fill="#181818" points="59,317.97,63,308.97,59,312.97,55,308.97,59,317.97" style="stroke:#181818;stroke-width:2;"/></g><!--SRC=[bLJBRi8m4BpxAonwHWgXvO0e1sXHJmLHnAMgAYlPWeMn8zkqGbN_lIPFvsL2E0IlPtPcrywg0-KHaUI8G_WY9wONWkjNSWJy0kmRD0q8sjCGy6GI2QcdKwHoHaI20zd1pBnsKfnuE1TCI7pt53yMK4AW2T-n3b16EUXp1DY8xOMrmKK82Y8yykp4X1ykmO7deTGDxaL4Kqq57_Qo_FWNuS84xfaVKNYrN6y-St1UO6wgH5c1dflEIC4Oo8HkHrf96rFBGiWZqRhWbOBDr2rLjAfOYRLgRWcZ8T4Yryi33gr28GVzeNfJlLkQwbrfwlA7Wrn398ogaESuGINMuhXs6jlhfs4W5QrIf9MaCgnoTiQ_fJD-byuK_N1UB_jMDGFV8WWeOJgfEb-rPPLAy3JfvM-hU2RS3BWCaV2PcteJMMlTJ9WH1HQ-MDfjjxFqt_MU1WSEIZqEFlfJYu9Iwov8qjaQ8c4sx0wJNOqk9TTebZ5K7Wsr7DKhFiOFdIW6E780_TIVWTqxO6cHnL10sTsvLbDvRDNGzR867LYP-1Zxg3IgMajBXfJZP6Fbwh1ijXlBTeEMAkj0IknsC183KF5LEezXwpxNqaHpWFqKhFu1]--></g></svg>