<svg xmlns="http://www.w3.org/2000/svg" xmlns:xlink="http://www.w3.org/1999/xlink" contentStyleType="text/css" data-diagram-type="DESCRIPTION" height="655px" preserveAspectRatio="none" style="width:1357px;height:655px;background:#FFFFFF;" version="1.1" viewBox="0 0 1357 655" width="1357px" zoomAndPan="magnify"><defs/><g><!--cluster partition0--><g class="cluster" data-entity="partition0" data-source-line="8" data-uid="ent0002" id="cluster_partition0"><path d="M8.5,144 L73.2793,144 A3.75,3.75 0 0 1 75.7793,146.5 L82.7793,167.6094 L447.5,167.6094 A2.5,2.5 0 0 1 450,170.1094 L450,645.5 A2.5,2.5 0 0 1 447.5,648 L8.5,648 A2.5,2.5 0 0 1 6,645.5 L6,146.5 A2.5,2.5 0 0 1 8.5,144" fill="#DDDDDD" style="stroke:#000000;stroke-width:1.5;"/><line style="stroke:#000000;stroke-width:1.5;" x1="6" x2="82.7793" y1="167.6094" y2="167.6094"/><text fill="#000000" font-family="Helvetica" font-size="14" font-weight="bold" lengthAdjust="spacing" textLength="63.7793" x="10" y="160.5332">partition0</text></g><!--cluster partition1--><g class="cluster" data-entity="partition1" data-source-line="19" data-uid="ent0011" id="cluster_partition1"><path d="M892.5,6 L957.2793,6 A3.75,3.75 0 0 1 959.7793,8.5 L966.7793,29.6094 L1347.5,29.6094 A2.5,2.5 0 0 1 1350,32.1094 L1350,231.5 A2.5,2.5 0 0 1 1347.5,234 L892.5,234 A2.5,2.5 0 0 1 890,231.5 L890,8.5 A2.5,2.5 0 0 1 892.5,6" fill="#DDDDDD" style="stroke:#000000;stroke-width:1.5;"/><line style="stroke:#000000;stroke-width:1.5;" x1="890" x2="966.7793" y1="29.6094" y2="29.6094"/><text fill="#000000" font-family="Helvetica" font-size="14" font-weight="bold" lengthAdjust="spacing" textLength="63.7793" x="894" y="22.5332">partition1</text></g><!--cluster partition2--><g class="cluster" data-entity="partition2" data-source-line="26" data-uid="ent0016" id="cluster_partition2"><path d="M480.5,6 L545.2793,6 A3.75,3.75 0 0 1 547.7793,8.5 L554.7793,29.6094 L859.5,29.6094 A2.5,2.5 0 0 1 862,32.1094 L862,507.5 A2.5,2.5 0 0 1 859.5,510 L480.5,510 A2.5,2.5 0 0 1 478,507.5 L478,8.5 A2.5,2.5 0 0 1 480.5,6" fill="#DDDDDD" style="stroke:#000000;stroke-width:1.5;"/><line style="stroke:#000000;stroke-width:1.5;" x1="478" x2="554.7793" y1="29.6094" y2="29.6094"/><text fill="#000000" font-family="Helvetica" font-size="14" font-weight="bold" lengthAdjust="spacing" textLength="63.7793" x="482" y="22.5332">partition2</text></g><!--entity PORT_partition0--><!--entity OwnerController--><g class="entity" data-entity="OwnerController" data-source-line="10" data-uid="ent0004" id="entity_OwnerController"><rect fill="#DDDDDD" height="37.6094" rx="2.5" ry="2.5" style="stroke:#181818;stroke-width:0.5;" width="121.9238" x="22" y="180"/><text fill="#000000" font-family="Helvetica" font-size="14" lengthAdjust="spacing" textLength="101.9238" x="32" y="204.5332">OwnerController</text></g><!--entity Vet--><g class="entity" data-entity="Vet" data-source-line="11" data-uid="ent0005" id="entity_Vet"><rect fill="#DDDDDD" height="37.6094" rx="2.5" ry="2.5" style="stroke:#181818;stroke-width:0.5;" width="41.0137" x="218.5" y="318"/><text fill="#000000" font-family="Helvetica" font-size="14" lengthAdjust="spacing" textLength="21.0137" x="228.5" y="342.5332">Vet</text></g><!--entity VisitController--><g class="entity" data-entity="VisitController" data-source-line="12" data-uid="ent0006" id="entity_VisitController"><rect fill="#DDDDDD" height="37.6094" rx="2.5" ry="2.5" style="stroke:#181818;stroke-width:0.5;" width="107.1377" x="204.5" y="180"/><text fill="#000000" font-family="Helvetica" font-size="14" lengthAdjust="spacing" textLength="87.1377" x="214.5" y="204.5332">VisitController</text></g><!--entity Owner--><g class="entity" data-entity="Owner" data-source-line="13" data-uid="ent0007" id="entity_Owner"><rect fill="#DDDDDD" height="37.6094" rx="2.5" ry="2.5" style="stroke:#181818;stroke-width:0.5;" width="61.2344" x="97.5" y="318"/><text fill="#000000" font-family="Helvetica" font-size="14" lengthAdjust="spacing" textLength="41.2344" x="107.5" y="342.5332">Owner</text></g><!--entity Visit--><g class="entity" data-entity="Visit" data-source-line="14" data-uid="ent0008" id="entity_Visit"><rect fill="#DDDDDD" height="37.6094" rx="2.5" ry="2.5" style="stroke:#181818;stroke-width:0.5;" width="46.4482" x="322" y="456"/><text fill="#000000" font-family="Helvetica" font-size="14" lengthAdjust="spacing" textLength="26.4482" x="332" y="480.5332">Visit</text></g><!--entity Person--><g class="entity" data-entity="Person" data-source-line="15" data-uid="ent0009" id="entity_Person"><rect fill="#DDDDDD" height="37.6094" rx="2.5" ry="2.5" style="stroke:#181818;stroke-width:0.5;" width="64.3584" x="198" y="456"/><text fill="#000000" font-family="Helvetica" font-size="14" lengthAdjust="spacing" textLength="44.3584" x="208" y="480.5332">Person</text></g><!--entity BaseEntity--><g class="entity" data-entity="BaseEntity" data-source-line="16" data-uid="ent0010" id="entity_BaseEntity"><rect fill="#DDDDDD" height="37.6094" rx="2.5" ry="2.5" style="stroke:#181818;stroke-width:0.5;" width="86.9238" x="301.5" y="594"/><text fill="#000000" font-family="Helvetica" font-size="14" lengthAdjust="spacing" textLength="66.9238" x="311.5" y="618.5332">BaseEntity</text></g><!--entity PORT_partition1--><!--entity PetClinicApplication--><g class="entity" data-entity="PetClinicApplication" data-source-line="21" data-uid="ent0013" id="entity_PetClinicApplication"><rect fill="#DDDDDD" height="37.6094" rx="2.5" ry="2.5" style="stroke:#181818;stroke-width:0.5;" width="143.7305" x="1068" y="42"/><text fill="#000000" font-family="Helvetica" font-size="14" lengthAdjust="spacing" textLength="123.7305" x="1078" y="66.5332">PetClinicApplication</text></g><!--entity VetController--><g class="entity" data-entity="VetController" data-source-line="22" data-uid="ent0014" id="entity_VetController"><rect fill="#DDDDDD" height="37.6094" rx="2.5" ry="2.5" style="stroke:#181818;stroke-width:0.5;" width="101.7031" x="906" y="42"/><text fill="#000000" font-family="Helvetica" font-size="14" lengthAdjust="spacing" textLength="81.7031" x="916" y="66.5332">VetController</text></g><!--entity Vets--><g class="entity" data-entity="Vets" data-source-line="23" data-uid="ent0015" id="entity_Vets"><rect fill="#DDDDDD" height="37.6094" rx="2.5" ry="2.5" style="stroke:#181818;stroke-width:0.5;" width="48.0137" x="933" y="180"/><text fill="#000000" font-family="Helvetica" font-size="14" lengthAdjust="spacing" textLength="28.0137" x="943" y="204.5332">Vets</text></g><!--entity PORT_partition2--><!--entity PetController--><g class="entity" data-entity="PetController" data-source-line="28" data-uid="ent0018" id="entity_PetController"><rect fill="#DDDDDD" height="37.6094" rx="2.5" ry="2.5" style="stroke:#181818;stroke-width:0.5;" width="101.7031" x="622" y="42"/><text fill="#000000" font-family="Helvetica" font-size="14" lengthAdjust="spacing" textLength="81.7031" x="632" y="66.5332">PetController</text></g><!--entity PetTypeFormatter--><g class="entity" data-entity="PetTypeFormatter" data-source-line="29" data-uid="ent0019" id="entity_PetTypeFormatter"><rect fill="#DDDDDD" height="37.6094" rx="2.5" ry="2.5" style="stroke:#181818;stroke-width:0.5;" width="132.8135" x="494.5" y="180"/><text fill="#000000" font-family="Helvetica" font-size="14" lengthAdjust="spacing" textLength="112.8135" x="504.5" y="204.5332">PetTypeFormatter</text></g><!--entity Specialty--><g class="entity" data-entity="Specialty" data-source-line="30" data-uid="ent0020" id="entity_Specialty"><rect fill="#DDDDDD" height="37.6094" rx="2.5" ry="2.5" style="stroke:#181818;stroke-width:0.5;" width="76.8066" x="494.5" y="318"/><text fill="#000000" font-family="Helvetica" font-size="14" lengthAdjust="spacing" textLength="56.8066" x="504.5" y="342.5332">Specialty</text></g><!--entity PetValidator--><g class="entity" data-entity="PetValidator" data-source-line="31" data-uid="ent0021" id="entity_PetValidator"><rect fill="#DDDDDD" height="37.6094" rx="2.5" ry="2.5" style="stroke:#181818;stroke-width:0.5;" width="96.2686" x="688" y="180"/><text fill="#000000" font-family="Helvetica" font-size="14" lengthAdjust="spacing" textLength="76.2686" x="698" y="204.5332">PetValidator</text></g><!--entity PetType--><g class="entity" data-entity="PetType" data-source-line="32" data-uid="ent0022" id="entity_PetType"><rect fill="#DDDDDD" height="37.6094" rx="2.5" ry="2.5" style="stroke:#181818;stroke-width:0.5;" width="72.1377" x="632" y="318"/><text fill="#000000" font-family="Helvetica" font-size="14" lengthAdjust="spacing" textLength="52.1377" x="642" y="342.5332">PetType</text></g><!--entity Pet--><g class="entity" data-entity="Pet" data-source-line="33" data-uid="ent0023" id="entity_Pet"><rect fill="#DDDDDD" height="37.6094" rx="2.5" ry="2.5" style="stroke:#181818;stroke-width:0.5;" width="41.0137" x="764.5" y="318"/><text fill="#000000" font-family="Helvetica" font-size="14" lengthAdjust="spacing" textLength="21.0137" x="774.5" y="342.5332">Pet</text></g><!--entity NamedEntity--><g class="entity" data-entity="NamedEntity" data-source-line="34" data-uid="ent0024" id="entity_NamedEntity"><rect fill="#DDDDDD" height="37.6094" rx="2.5" ry="2.5" style="stroke:#181818;stroke-width:0.5;" width="100.1445" x="556" y="456"/><text fill="#000000" font-family="Helvetica" font-size="14" lengthAdjust="spacing" textLength="80.1445" x="566" y="480.5332">NamedEntity</text></g><!--link NamedEntity to BaseEntity--><g class="link" data-entity-1="NamedEntity" data-entity-2="BaseEntity" data-source-line="37" data-uid="lnk25" id="link_NamedEntity_BaseEntity"><path d="M555.9,475 C489.39,475 380.25,475 380.25,475 C380.25,475 380.25,549.89 380.25,587.81" fill="none" id="NamedEntity-to-BaseEntity" style="stroke:#181818;stroke-width:1;"/><polygon fill="#181818" points="380.25,593.81,384.25,584.81,380.25,588.81,376.25,584.81,380.25,593.81" style="stroke:#181818;stroke-width:1;"/><text fill="#000000" font-family="Helvetica" font-size="13" lengthAdjust="spacing" textLength="7.23" x="400.67" y="471.4951">1</text></g><!--link Person to BaseEntity--><g class="link" data-entity-1="Person" data-entity-2="BaseEntity" data-source-line="38" data-uid="lnk26" id="link_Person_BaseEntity"><path d="M262.44,482 C283.29,482 306.5,482 306.5,482 C306.5,482 306.5,551.62 306.5,587.95" fill="none" id="Person-to-BaseEntity" style="stroke:#181818;stroke-width:1;"/><polygon fill="#181818" points="306.5,593.95,310.5,584.95,306.5,588.95,302.5,584.95,306.5,593.95" style="stroke:#181818;stroke-width:1;"/></g><!--link Owner to Person--><g class="link" data-entity-1="Owner" data-entity-2="Person" data-source-line="39" data-uid="lnk27" id="link_Owner_Person"><path d="M158.5,344 C183.17,344 213.83,344 213.83,344 C213.83,344 213.83,413.62 213.83,449.95" fill="none" id="Owner-to-Person" style="stroke:#181818;stroke-width:1;"/><polygon fill="#181818" points="213.83,455.95,217.83,446.95,213.83,450.95,209.83,446.95,213.83,455.95" style="stroke:#181818;stroke-width:1;"/></g><!--link Owner to Pet--><g class="link" data-entity-1="Owner" data-entity-2="Pet" data-source-line="40" data-uid="lnk28" id="link_Owner_Pet"><path d="M148.83,317.93 C148.83,303.09 148.83,285 148.83,285 C148.83,285 769.38,285 769.38,285 C769.38,285 769.38,297.09 769.38,311.93" fill="none" id="Owner-to-Pet" style="stroke:#181818;stroke-width:3;"/><polygon fill="#181818" points="769.38,317.93,773.38,308.93,769.38,312.93,765.38,308.93,769.38,317.93" style="stroke:#181818;stroke-width:3;"/><text fill="#000000" font-family="Helvetica" font-size="13" lengthAdjust="spacing" textLength="7.23" x="451.1" y="281.4951">6</text></g><!--link OwnerController to Owner--><g class="link" data-entity-1="OwnerController" data-entity-2="Owner" data-source-line="41" data-uid="lnk29" id="link_OwnerController_Owner"><path d="M120.75,218.19 C120.75,244.55 120.75,285.7 120.75,311.97" fill="none" id="OwnerController-to-Owner" style="stroke:#181818;stroke-width:3;"/><polygon fill="#181818" points="120.75,317.97,124.75,308.97,120.75,312.97,116.75,308.97,120.75,317.97" style="stroke:#181818;stroke-width:3;"/></g><!--link Pet to NamedEntity--><g class="link" data-entity-1="Pet" data-entity-2="NamedEntity" data-source-line="42" data-uid="lnk30" id="link_Pet_NamedEntity"><path d="M785,356.19 C785,394.11 785,475 785,475 C785,475 715.28,475 662.34,475" fill="none" id="Pet-to-NamedEntity" style="stroke:#181818;stroke-width:1;"/><polygon fill="#181818" points="656.34,475,665.34,479,661.34,475,665.34,471,656.34,475" style="stroke:#181818;stroke-width:1;"/></g><!--link PetController to Owner--><g class="link" data-entity-1="PetController" data-entity-2="Owner" data-source-line="43" data-uid="lnk31" id="link_PetController_Owner"><path d="M621.78,61 C490.76,61 153.67,61 153.67,61 C153.67,61 153.67,248.77 153.67,311.59" fill="none" id="PetController-to-Owner" style="stroke:#181818;stroke-width:3;"/><polygon fill="#181818" points="153.67,317.59,157.67,308.59,153.67,312.59,149.67,308.59,153.67,317.59" style="stroke:#181818;stroke-width:3;"/><text fill="#000000" font-family="Helvetica" font-size="13" lengthAdjust="spacing" textLength="7.23" x="251.43" y="57.4951">6</text></g><!--link PetController to Pet--><g class="link" data-entity-1="PetController" data-entity-2="Pet" data-source-line="44" data-uid="lnk32" id="link_PetController_Pet"><path d="M712,80.22 C712,100.64 712,130 712,130 C712,130 794.75,130 794.75,130 C794.75,130 794.75,260.65 794.75,311.9" fill="none" id="PetController-to-Pet" style="stroke:#181818;stroke-width:2;"/><polygon fill="#181818" points="794.75,317.9,798.75,308.9,794.75,312.9,790.75,308.9,794.75,317.9" style="stroke:#181818;stroke-width:2;"/></g><!--link PetController to PetValidator--><g class="link" data-entity-1="PetController" data-entity-2="PetValidator" data-source-line="45" data-uid="lnk33" id="link_PetController_PetValidator"><path d="M700,80.19 C700,106.55 700,147.7 700,173.97" fill="none" id="PetController-to-PetValidator" style="stroke:#181818;stroke-width:1;"/><polygon fill="#181818" points="700,179.97,704,170.97,700,174.97,696,170.97,700,179.97" style="stroke:#181818;stroke-width:1;"/></g><!--link PetType to NamedEntity--><g class="link" data-entity-1="PetType" data-entity-2="NamedEntity" data-source-line="46" data-uid="lnk34" id="link_PetType_NamedEntity"><path d="M644,356.19 C644,382.55 644,423.7 644,449.97" fill="none" id="PetType-to-NamedEntity" style="stroke:#181818;stroke-width:1;"/><polygon fill="#181818" points="644,455.97,648,446.97,644,450.97,640,446.97,644,455.97" style="stroke:#181818;stroke-width:1;"/></g><!--link PetTypeFormatter to PetType--><g class="link" data-entity-1="PetTypeFormatter" data-entity-2="PetType" data-source-line="47" data-uid="lnk35" id="link_PetTypeFormatter_PetType"><path d="M627.58,199 C645.49,199 660,199 660,199 C660,199 660,273.89 660,311.81" fill="none" id="PetTypeFormatter-to-PetType" style="stroke:#181818;stroke-width:1;"/><polygon fill="#181818" points="660,317.81,664,308.81,660,312.81,656,308.81,660,317.81" style="stroke:#181818;stroke-width:1;"/></g><!--link PetValidator to Pet--><g class="link" data-entity-1="PetValidator" data-entity-2="Pet" data-source-line="48" data-uid="lnk36" id="link_PetValidator_Pet"><path d="M779.12,218.19 C779.12,244.55 779.12,285.7 779.12,311.97" fill="none" id="PetValidator-to-Pet" style="stroke:#181818;stroke-width:2;"/><polygon fill="#181818" points="779.12,317.97,783.12,308.97,779.12,312.97,775.12,308.97,779.12,317.97" style="stroke:#181818;stroke-width:2;"/></g><!--link Visit to BaseEntity--><g class="link" data-entity-1="Visit" data-entity-2="BaseEntity" data-source-line="49" data-uid="lnk37" id="link_Visit_BaseEntity"><path d="M345,494.19 C345,520.55 345,561.7 345,587.97" fill="none" id="Visit-to-BaseEntity" style="stroke:#181818;stroke-width:1;"/><polygon fill="#181818" points="345,593.97,349,584.97,345,588.97,341,584.97,345,593.97" style="stroke:#181818;stroke-width:1;"/></g><!--link VisitController to Owner--><g class="link" data-entity-1="VisitController" data-entity-2="Owner" data-source-line="50" data-uid="lnk38" id="link_VisitController_Owner"><path d="M209.17,218.19 C209.17,254.8 209.17,331 209.17,331 C209.17,331 187.67,331 164.69,331" fill="none" id="VisitController-to-Owner" style="stroke:#181818;stroke-width:1;"/><polygon fill="#181818" points="158.69,331,167.69,335,163.69,331,167.69,327,158.69,331" style="stroke:#181818;stroke-width:1;"/></g><!--link VisitController to Pet--><g class="link" data-entity-1="VisitController" data-entity-2="Pet" data-source-line="51" data-uid="lnk39" id="link_VisitController_Pet"><path d="M304,218.13 C304,233.32 304,252 304,252 C304,252 774.25,252 774.25,252 C774.25,252 774.25,286.63 774.25,311.71" fill="none" id="VisitController-to-Pet" style="stroke:#181818;stroke-width:1;"/><polygon fill="#181818" points="774.25,317.71,778.25,308.71,774.25,312.71,770.25,308.71,774.25,317.71" style="stroke:#181818;stroke-width:1;"/><text fill="#000000" font-family="Helvetica" font-size="13" lengthAdjust="spacing" textLength="7.23" x="547.05" y="248.4951">1</text></g><!--link VisitController to Visit--><g class="link" data-entity-1="VisitController" data-entity-2="Visit" data-source-line="52" data-uid="lnk40" id="link_VisitController_Visit"><path d="M309,218.42 C309,280.33 309,469 309,469 C309,469 308.94,469 316,469" fill="none" id="VisitController-to-Visit" style="stroke:#181818;stroke-width:1;"/><polygon fill="#181818" points="322,469,313,465,317,469,313,473,322,469" style="stroke:#181818;stroke-width:1;"/></g><!--link Specialty to NamedEntity--><g class="link" data-entity-1="Specialty" data-entity-2="NamedEntity" data-source-line="53" data-uid="lnk41" id="link_Specialty_NamedEntity"><path d="M563.75,356.19 C563.75,382.55 563.75,423.7 563.75,449.97" fill="none" id="Specialty-to-NamedEntity" style="stroke:#181818;stroke-width:1;"/><polygon fill="#181818" points="563.75,455.97,567.75,446.97,563.75,450.97,559.75,446.97,563.75,455.97" style="stroke:#181818;stroke-width:1;"/></g><!--link Vet to Person--><g class="link" data-entity-1="Vet" data-entity-2="Person" data-source-line="54" data-uid="lnk42" id="link_Vet_Person"><path d="M239,356.19 C239,382.55 239,423.7 239,449.97" fill="none" id="Vet-to-Person" style="stroke:#181818;stroke-width:1;"/><polygon fill="#181818" points="239,455.97,243,446.97,239,450.97,235,446.97,239,455.97" style="stroke:#181818;stroke-width:1;"/></g><!--link VetController to Vets--><g class="link" data-entity-1="VetController" data-entity-2="Vets" data-source-line="55" data-uid="lnk43" id="link_VetController_Vets"><path d="M957,80.19 C957,106.55 957,147.7 957,173.97" fill="none" id="VetController-to-Vets" style="stroke:#181818;stroke-width:2;"/><polygon fill="#181818" points="957,179.97,961,170.97,957,174.97,953,170.97,957,179.97" style="stroke:#181818;stroke-width:2;"/></g><!--SRC=[bPHTIyCm58Rlyol2l1RM2Lw83jnqUAL3nsv49BJ7BInBId9KHFplfXzhqpPDj-sYRVASSzxaFOdPSPaopVOqWG_sAN2X93woFT0745-0F6PaonEWrzUfqZYT4bD5f2pUiGtCx6EZrQTCvaeeJS_kyfy3QeYHoOqu0XLS0lwaG6snhN8cf4h0G4elnsvY9dVPO3GUar8D7TafvCYL78yE1UWleRKAEh9_PkZowNdrNjFL4YjPZPYdRmbwRdT7Ao50vnbQO_x0DM0EssSFm0t7LkRMM41IBIIGlSxfXvQWZPB5hkIlVcp63DnBkry_ELf_LlWVyHWHdMH4D6344d1ksuJ7jsagR7zcCQNoxaIl9Utz1Zp2HtDWJNZ1avCMF3bYmKsros6r5bdPSxHGUiyGwxZ6e3_q9OMOCr6QN7trrbapmHE6ggfH3GIbkOfwmGFa1xABAd4Qqlbs3NA7przno-ET16DkehVpgTl4LpGYPVi7C58SjWvHH7fcBufPjFalIVlAw80vG3AyKy5P1scsW3zBNh0Vd9Iw0aYviDfHSZ1iI5opptmvCu8qkiKhhhYrGdwqxyeEMspf85PO50s3EK3gWn7SYxNFoR9Nrc5lielc7m00]--></g></svg>