<svg xmlns="http://www.w3.org/2000/svg" xmlns:xlink="http://www.w3.org/1999/xlink" contentStyleType="text/css" data-diagram-type="DESCRIPTION" height="655px" preserveAspectRatio="none" style="width:2491px;height:655px;background:#FFFFFF;" version="1.1" viewBox="0 0 2491 655" width="2491px" zoomAndPan="magnify"><defs/><g><!--cluster partition0--><g class="cluster" data-entity="partition0" data-source-line="8" data-uid="ent0002" id="cluster_partition0"><path d="M8.5,6 L73.2793,6 A3.75,3.75 0 0 1 75.7793,8.5 L82.7793,29.6094 L1387.5,29.6094 A2.5,2.5 0 0 1 1390,32.1094 L1390,369.5 A2.5,2.5 0 0 1 1387.5,372 L8.5,372 A2.5,2.5 0 0 1 6,369.5 L6,8.5 A2.5,2.5 0 0 1 8.5,6" fill="#DDDDDD" style="stroke:#000000;stroke-width:1.5;"/><line style="stroke:#000000;stroke-width:1.5;" x1="6" x2="82.7793" y1="29.6094" y2="29.6094"/><text fill="#000000" font-family="Helvetica" font-size="14" font-weight="bold" lengthAdjust="spacing" textLength="63.7793" x="10" y="22.5332">partition0</text></g><!--cluster partition1--><g class="cluster" data-entity="partition1" data-source-line="20" data-uid="ent0012" id="cluster_partition1"><path d="M1416.5,6 L1481.2793,6 A3.75,3.75 0 0 1 1483.7793,8.5 L1490.7793,29.6094 L2481.5,29.6094 A2.5,2.5 0 0 1 2484,32.1094 L2484,645.5 A2.5,2.5 0 0 1 2481.5,648 L1416.5,648 A2.5,2.5 0 0 1 1414,645.5 L1414,8.5 A2.5,2.5 0 0 1 1416.5,6" fill="#DDDDDD" style="stroke:#000000;stroke-width:1.5;"/><line style="stroke:#000000;stroke-width:1.5;" x1="1414" x2="1490.7793" y1="29.6094" y2="29.6094"/><text fill="#000000" font-family="Helvetica" font-size="14" font-weight="bold" lengthAdjust="spacing" textLength="63.7793" x="1418" y="22.5332">partition1</text></g><!--entity PORT_partition0--><!--entity Specialty_partition0_partition0--><g class="entity" data-entity="Specialty_partition0_partition0" data-source-line="10" data-uid="ent0004" id="entity_Specialty_partition0_partition0"><rect fill="#DDDDDD" height="37.6094" rx="2.5" ry="2.5" style="stroke:#181818;stroke-width:0.5;" width="220.416" x="1032" y="42"/><text fill="#000000" font-family="Helvetica" font-size="14" lengthAdjust="spacing" textLength="200.416" x="1042" y="66.5332">Specialty@partition0@partition0</text></g><!--entity Vet_partition0_partition0--><g class="entity" data-entity="Vet_partition0_partition0" data-source-line="11" data-uid="ent0005" id="entity_Vet_partition0_partition0"><rect fill="#DDDDDD" height="37.6094" rx="2.5" ry="2.5" style="stroke:#181818;stroke-width:0.5;" width="184.623" x="666.5" y="42"/><text fill="#000000" font-family="Helvetica" font-size="14" lengthAdjust="spacing" textLength="164.623" x="676.5" y="66.5332">Vet@partition0@partition0</text></g><!--entity VetController_partition0_partition0--><g class="entity" data-entity="VetController_partition0_partition0" data-source-line="12" data-uid="ent0006" id="entity_VetController_partition0_partition0"><rect fill="#DDDDDD" height="37.6094" rx="2.5" ry="2.5" style="stroke:#181818;stroke-width:0.5;" width="245.3125" x="166.5" y="42"/><text fill="#000000" font-family="Helvetica" font-size="14" lengthAdjust="spacing" textLength="225.3125" x="176.5" y="66.5332">VetController@partition0@partition0</text></g><!--entity _duplicate__partition0___NamedEntity_partition0_partition0--><g class="entity" data-entity="_duplicate__partition0___NamedEntity_partition0_partition0" data-source-line="13" data-uid="ent0007" id="entity__duplicate__partition0___NamedEntity_partition0_partition0"><rect fill="#DDDDDD" height="37.6094" rx="2.5" ry="2.5" style="stroke:#181818;stroke-width:0.5;" width="382.2705" x="992" y="180"/><text fill="#000000" font-family="Helvetica" font-size="14" lengthAdjust="spacing" textLength="362.2705" x="1002" y="204.5332">[duplicate (partition0)] NamedEntity@partition0@partition0</text></g><!--entity _duplicate__partition0___Person_partition0_partition0--><g class="entity" data-entity="_duplicate__partition0___Person_partition0_partition0" data-source-line="14" data-uid="ent0008" id="entity__duplicate__partition0___Person_partition0_partition0"><rect fill="#DDDDDD" height="37.6094" rx="2.5" ry="2.5" style="stroke:#181818;stroke-width:0.5;" width="346.4844" x="586" y="180"/><text fill="#000000" font-family="Helvetica" font-size="14" lengthAdjust="spacing" textLength="326.4844" x="596" y="204.5332">[duplicate (partition0)] Person@partition0@partition0</text></g><!--entity VetRepository_partition0_partition0--><g class="entity" data-entity="VetRepository_partition0_partition0" data-source-line="15" data-uid="ent0009" id="entity_VetRepository_partition0_partition0"><rect fill="#DDDDDD" height="37.6094" rx="2.5" ry="2.5" style="stroke:#181818;stroke-width:0.5;" width="251.54" x="22" y="180"/><text fill="#000000" font-family="Helvetica" font-size="14" lengthAdjust="spacing" textLength="231.54" x="32" y="204.5332">VetRepository@partition0@partition0</text></g><!--entity Vets_partition0_partition0--><g class="entity" data-entity="Vets_partition0_partition0" data-source-line="16" data-uid="ent0010" id="entity_Vets_partition0_partition0"><rect fill="#DDDDDD" height="37.6094" rx="2.5" ry="2.5" style="stroke:#181818;stroke-width:0.5;" width="191.623" x="334" y="180"/><text fill="#000000" font-family="Helvetica" font-size="14" lengthAdjust="spacing" textLength="171.623" x="344" y="204.5332">Vets@partition0@partition0</text></g><!--entity _duplicate__partition0___BaseEntity_partition0_partition0--><g class="entity" data-entity="_duplicate__partition0___BaseEntity_partition0_partition0" data-source-line="17" data-uid="ent0011" id="entity__duplicate__partition0___BaseEntity_partition0_partition0"><rect fill="#DDDDDD" height="37.6094" rx="2.5" ry="2.5" style="stroke:#181818;stroke-width:0.5;" width="369.0498" x="786.5" y="318"/><text fill="#000000" font-family="Helvetica" font-size="14" lengthAdjust="spacing" textLength="349.0498" x="796.5" y="342.5332">[duplicate (partition0)] BaseEntity@partition0@partition0</text></g><!--entity PORT_partition1--><!--entity OwnerController_partition1_partition1--><g class="entity" data-entity="OwnerController_partition1_partition1" data-source-line="22" data-uid="ent0014" id="entity_OwnerController_partition1_partition1"><rect fill="#DDDDDD" height="37.6094" rx="2.5" ry="2.5" style="stroke:#181818;stroke-width:0.5;" width="265.5332" x="1768" y="42"/><text fill="#000000" font-family="Helvetica" font-size="14" lengthAdjust="spacing" textLength="245.5332" x="1778" y="66.5332">OwnerController@partition1@partition1</text></g><!--entity PetController_partition1_partition1--><g class="entity" data-entity="PetController_partition1_partition1" data-source-line="23" data-uid="ent0015" id="entity_PetController_partition1_partition1"><rect fill="#DDDDDD" height="37.6094" rx="2.5" ry="2.5" style="stroke:#181818;stroke-width:0.5;" width="245.3125" x="1462.5" y="42"/><text fill="#000000" font-family="Helvetica" font-size="14" lengthAdjust="spacing" textLength="225.3125" x="1472.5" y="66.5332">PetController@partition1@partition1</text></g><!--entity PetType_partition1_partition1--><g class="entity" data-entity="PetType_partition1_partition1" data-source-line="24" data-uid="ent0016" id="entity_PetType_partition1_partition1"><rect fill="#DDDDDD" height="37.6094" rx="2.5" ry="2.5" style="stroke:#181818;stroke-width:0.5;" width="215.7471" x="1919" y="318"/><text fill="#000000" font-family="Helvetica" font-size="14" lengthAdjust="spacing" textLength="195.7471" x="1929" y="342.5332">PetType@partition1@partition1</text></g><!--entity VisitController_partition1_partition1--><g class="entity" data-entity="VisitController_partition1_partition1" data-source-line="25" data-uid="ent0017" id="entity_VisitController_partition1_partition1"><rect fill="#DDDDDD" height="37.6094" rx="2.5" ry="2.5" style="stroke:#181818;stroke-width:0.5;" width="250.7471" x="2094.5" y="42"/><text fill="#000000" font-family="Helvetica" font-size="14" lengthAdjust="spacing" textLength="230.7471" x="2104.5" y="66.5332">VisitController@partition1@partition1</text></g><!--entity Owner_partition1_partition1--><g class="entity" data-entity="Owner_partition1_partition1" data-source-line="26" data-uid="ent0018" id="entity_Owner_partition1_partition1"><rect fill="#DDDDDD" height="37.6094" rx="2.5" ry="2.5" style="stroke:#181818;stroke-width:0.5;" width="204.8438" x="1633.5" y="180"/><text fill="#000000" font-family="Helvetica" font-size="14" lengthAdjust="spacing" textLength="184.8438" x="1643.5" y="204.5332">Owner@partition1@partition1</text></g><!--entity OwnerRepository_partition1_partition1--><g class="entity" data-entity="OwnerRepository_partition1_partition1" data-source-line="27" data-uid="ent0019" id="entity_OwnerRepository_partition1_partition1"><rect fill="#DDDDDD" height="37.6094" rx="2.5" ry="2.5" style="stroke:#181818;stroke-width:0.5;" width="271.7607" x="1899" y="180"/><text fill="#000000" font-family="Helvetica" font-size="14" lengthAdjust="spacing" textLength="251.7607" x="1909" y="204.5332">OwnerRepository@partition1@partition1</text></g><!--entity Visit_partition1_partition1--><g class="entity" data-entity="Visit_partition1_partition1" data-source-line="28" data-uid="ent0020" id="entity_Visit_partition1_partition1"><rect fill="#DDDDDD" height="37.6094" rx="2.5" ry="2.5" style="stroke:#181818;stroke-width:0.5;" width="190.0576" x="2278" y="456"/><text fill="#000000" font-family="Helvetica" font-size="14" lengthAdjust="spacing" textLength="170.0576" x="2288" y="480.5332">Visit@partition1@partition1</text></g><!--entity Pet_partition1_partition1--><g class="entity" data-entity="Pet_partition1_partition1" data-source-line="29" data-uid="ent0021" id="entity_Pet_partition1_partition1"><rect fill="#DDDDDD" height="37.6094" rx="2.5" ry="2.5" style="stroke:#181818;stroke-width:0.5;" width="184.623" x="1669.5" y="318"/><text fill="#000000" font-family="Helvetica" font-size="14" lengthAdjust="spacing" textLength="164.623" x="1679.5" y="342.5332">Pet@partition1@partition1</text></g><!--entity _duplicate__partition1___Person_partition1_partition1--><g class="entity" data-entity="_duplicate__partition1___Person_partition1_partition1" data-source-line="30" data-uid="ent0022" id="entity__duplicate__partition1___Person_partition1_partition1"><rect fill="#DDDDDD" height="37.6094" rx="2.5" ry="2.5" style="stroke:#181818;stroke-width:0.5;" width="346.4844" x="1430" y="456"/><text fill="#000000" font-family="Helvetica" font-size="14" lengthAdjust="spacing" textLength="326.4844" x="1440" y="480.5332">[duplicate (partition1)] Person@partition1@partition1</text></g><!--entity _duplicate__partition1___NamedEntity_partition1_partition1--><g class="entity" data-entity="_duplicate__partition1___NamedEntity_partition1_partition1" data-source-line="31" data-uid="ent0023" id="entity__duplicate__partition1___NamedEntity_partition1_partition1"><rect fill="#DDDDDD" height="37.6094" rx="2.5" ry="2.5" style="stroke:#181818;stroke-width:0.5;" width="382.2705" x="1836" y="456"/><text fill="#000000" font-family="Helvetica" font-size="14" lengthAdjust="spacing" textLength="362.2705" x="1846" y="480.5332">[duplicate (partition1)] NamedEntity@partition1@partition1</text></g><!--entity _duplicate__partition1___BaseEntity_partition1_partition1--><g class="entity" data-entity="_duplicate__partition1___BaseEntity_partition1_partition1" data-source-line="32" data-uid="ent0024" id="entity__duplicate__partition1___BaseEntity_partition1_partition1"><rect fill="#DDDDDD" height="37.6094" rx="2.5" ry="2.5" style="stroke:#181818;stroke-width:0.5;" width="369.0498" x="1842.5" y="594"/><text fill="#000000" font-family="Helvetica" font-size="14" lengthAdjust="spacing" textLength="349.0498" x="1852.5" y="618.5332">[duplicate (partition1)] BaseEntity@partition1@partition1</text></g><!--link Owner_partition1_partition1 to Pet_partition1_partition1--><g class="link" data-entity-1="Owner_partition1_partition1" data-entity-2="Pet_partition1_partition1" data-source-line="35" data-uid="lnk25" id="link_Owner_partition1_partition1_Pet_partition1_partition1"><path d="M1754,218.19 C1754,244.55 1754,285.7 1754,311.97" fill="none" id="Owner_partition1_partition1-to-Pet_partition1_partition1" style="stroke:#181818;stroke-width:3;"/><polygon fill="#181818" points="1754,317.97,1758,308.97,1754,312.97,1750,308.97,1754,317.97" style="stroke:#181818;stroke-width:3;"/></g><!--link Owner_partition1_partition1 to _duplicate__partition1___Person_partition1_partition1--><g class="link" data-entity-1="Owner_partition1_partition1" data-entity-2="_duplicate__partition1___Person_partition1_partition1" data-source-line="36" data-uid="lnk26" id="link_Owner_partition1_partition1__duplicate__partition1___Person_partition1_partition1"><path d="M1651.5,218.41 C1651.5,269.21 1651.5,399.62 1651.5,449.98" fill="none" id="Owner_partition1_partition1-to-_duplicate__partition1___Person_partition1_partition1" style="stroke:#181818;stroke-width:1;"/><polygon fill="#181818" points="1651.5,455.98,1655.5,446.98,1651.5,450.98,1647.5,446.98,1651.5,455.98" style="stroke:#181818;stroke-width:1;"/></g><!--link OwnerController_partition1_partition1 to Owner_partition1_partition1--><g class="link" data-entity-1="OwnerController_partition1_partition1" data-entity-2="Owner_partition1_partition1" data-source-line="37" data-uid="lnk27" id="link_OwnerController_partition1_partition1_Owner_partition1_partition1"><path d="M1791.5,80.19 C1791.5,106.55 1791.5,147.7 1791.5,173.97" fill="none" id="OwnerController_partition1_partition1-to-Owner_partition1_partition1" style="stroke:#181818;stroke-width:3;"/><polygon fill="#181818" points="1791.5,179.97,1795.5,170.97,1791.5,174.97,1787.5,170.97,1791.5,179.97" style="stroke:#181818;stroke-width:3;"/></g><!--link OwnerController_partition1_partition1 to OwnerRepository_partition1_partition1--><g class="link" data-entity-1="OwnerController_partition1_partition1" data-entity-2="OwnerRepository_partition1_partition1" data-source-line="38" data-uid="lnk28" id="link_OwnerController_partition1_partition1_OwnerRepository_partition1_partition1"><path d="M1989,80.19 C1989,106.55 1989,147.7 1989,173.97" fill="none" id="OwnerController_partition1_partition1-to-OwnerRepository_partition1_partition1" style="stroke:#181818;stroke-width:3;"/><polygon fill="#181818" points="1989,179.97,1993,170.97,1989,174.97,1985,170.97,1989,179.97" style="stroke:#181818;stroke-width:3;"/></g><!--link Pet_partition1_partition1 to _duplicate__partition1___NamedEntity_partition1_partition1--><g class="link" data-entity-1="Pet_partition1_partition1" data-entity-2="_duplicate__partition1___NamedEntity_partition1_partition1" data-source-line="39" data-uid="lnk29" id="link_Pet_partition1_partition1__duplicate__partition1___NamedEntity_partition1_partition1"><path d="M1845.25,356.19 C1845.25,382.55 1845.25,423.7 1845.25,449.97" fill="none" id="Pet_partition1_partition1-to-_duplicate__partition1___NamedEntity_partition1_partition1" style="stroke:#181818;stroke-width:1;"/><polygon fill="#181818" points="1845.25,455.97,1849.25,446.97,1845.25,450.97,1841.25,446.97,1845.25,455.97" style="stroke:#181818;stroke-width:1;"/></g><!--link PetController_partition1_partition1 to Owner_partition1_partition1--><g class="link" data-entity-1="PetController_partition1_partition1" data-entity-2="Owner_partition1_partition1" data-source-line="40" data-uid="lnk30" id="link_PetController_partition1_partition1_Owner_partition1_partition1"><path d="M1658.17,80.19 C1658.17,106.55 1658.17,147.7 1658.17,173.97" fill="none" id="PetController_partition1_partition1-to-Owner_partition1_partition1" style="stroke:#181818;stroke-width:3;"/><polygon fill="#181818" points="1658.17,179.97,1662.17,170.97,1658.17,174.97,1654.17,170.97,1658.17,179.97" style="stroke:#181818;stroke-width:3;"/></g><!--link PetController_partition1_partition1 to OwnerRepository_partition1_partition1--><g class="link" data-entity-1="PetController_partition1_partition1" data-entity-2="OwnerRepository_partition1_partition1" data-source-line="41" data-uid="lnk31" id="link_PetController_partition1_partition1_OwnerRepository_partition1_partition1"><path d="M1682.83,80.02 C1682.83,107.49 1682.83,155 1682.83,155 C1682.83,155 1944,155 1944,155 C1944,155 1944,161.97 1944,173.83" fill="none" id="PetController_partition1_partition1-to-OwnerRepository_partition1_partition1" style="stroke:#181818;stroke-width:2;"/><polygon fill="#181818" points="1944,179.83,1948,170.83,1944,174.83,1940,170.83,1944,179.83" style="stroke:#181818;stroke-width:2;"/></g><!--link PetController_partition1_partition1 to Pet_partition1_partition1--><g class="link" data-entity-1="PetController_partition1_partition1" data-entity-2="Pet_partition1_partition1" data-source-line="42" data-uid="lnk32" id="link_PetController_partition1_partition1_Pet_partition1_partition1"><path d="M1548,80.41 C1548,143.23 1548,337 1548,337 C1548,337 1605.55,337 1663.38,337" fill="none" id="PetController_partition1_partition1-to-Pet_partition1_partition1" style="stroke:#181818;stroke-width:2;"/><polygon fill="#181818" points="1669.38,337,1660.38,333,1664.38,337,1660.38,341,1669.38,337" style="stroke:#181818;stroke-width:2;"/></g><!--link PetType_partition1_partition1 to _duplicate__partition1___NamedEntity_partition1_partition1--><g class="link" data-entity-1="PetType_partition1_partition1" data-entity-2="_duplicate__partition1___NamedEntity_partition1_partition1" data-source-line="43" data-uid="lnk33" id="link_PetType_partition1_partition1__duplicate__partition1___NamedEntity_partition1_partition1"><path d="M2027,356.19 C2027,382.55 2027,423.7 2027,449.97" fill="none" id="PetType_partition1_partition1-to-_duplicate__partition1___NamedEntity_partition1_partition1" style="stroke:#181818;stroke-width:1;"/><polygon fill="#181818" points="2027,455.97,2031,446.97,2027,450.97,2023,446.97,2027,455.97" style="stroke:#181818;stroke-width:1;"/></g><!--link Specialty_partition0_partition0 to _duplicate__partition0___NamedEntity_partition0_partition0--><g class="link" data-entity-1="Specialty_partition0_partition0" data-entity-2="_duplicate__partition0___NamedEntity_partition0_partition0" data-source-line="44" data-uid="lnk34" id="link_Specialty_partition0_partition0__duplicate__partition0___NamedEntity_partition0_partition0"><path d="M1142,80.19 C1142,106.55 1142,147.7 1142,173.97" fill="none" id="Specialty_partition0_partition0-to-_duplicate__partition0___NamedEntity_partition0_partition0" style="stroke:#181818;stroke-width:1;"/><polygon fill="#181818" points="1142,179.97,1146,170.97,1142,174.97,1138,170.97,1142,179.97" style="stroke:#181818;stroke-width:1;"/></g><!--link Vet_partition0_partition0 to _duplicate__partition0___Person_partition0_partition0--><g class="link" data-entity-1="Vet_partition0_partition0" data-entity-2="_duplicate__partition0___Person_partition0_partition0" data-source-line="45" data-uid="lnk35" id="link_Vet_partition0_partition0__duplicate__partition0___Person_partition0_partition0"><path d="M759,80.19 C759,106.55 759,147.7 759,173.97" fill="none" id="Vet_partition0_partition0-to-_duplicate__partition0___Person_partition0_partition0" style="stroke:#181818;stroke-width:1;"/><polygon fill="#181818" points="759,179.97,763,170.97,759,174.97,755,170.97,759,179.97" style="stroke:#181818;stroke-width:1;"/></g><!--link VetController_partition0_partition0 to VetRepository_partition0_partition0--><g class="link" data-entity-1="VetController_partition0_partition0" data-entity-2="VetRepository_partition0_partition0" data-source-line="46" data-uid="lnk36" id="link_VetController_partition0_partition0_VetRepository_partition0_partition0"><path d="M220.25,80.19 C220.25,106.55 220.25,147.7 220.25,173.97" fill="none" id="VetController_partition0_partition0-to-VetRepository_partition0_partition0" style="stroke:#181818;stroke-width:1;"/><polygon fill="#181818" points="220.25,179.97,224.25,170.97,220.25,174.97,216.25,170.97,220.25,179.97" style="stroke:#181818;stroke-width:1;"/></g><!--link VetController_partition0_partition0 to Vets_partition0_partition0--><g class="link" data-entity-1="VetController_partition0_partition0" data-entity-2="Vets_partition0_partition0" data-source-line="47" data-uid="lnk37" id="link_VetController_partition0_partition0_Vets_partition0_partition0"><path d="M372.75,80.19 C372.75,106.55 372.75,147.7 372.75,173.97" fill="none" id="VetController_partition0_partition0-to-Vets_partition0_partition0" style="stroke:#181818;stroke-width:2;"/><polygon fill="#181818" points="372.75,179.97,376.75,170.97,372.75,174.97,368.75,170.97,372.75,179.97" style="stroke:#181818;stroke-width:2;"/></g><!--link Visit_partition1_partition1 to _duplicate__partition1___BaseEntity_partition1_partition1--><g class="link" data-entity-1="Visit_partition1_partition1" data-entity-2="_duplicate__partition1___BaseEntity_partition1_partition1" data-source-line="48" data-uid="lnk38" id="link_Visit_partition1_partition1__duplicate__partition1___BaseEntity_partition1_partition1"><path d="M2373,494.19 C2373,532.11 2373,613 2373,613 C2373,613 2300.1,613 2217.65,613" fill="none" id="Visit_partition1_partition1-to-_duplicate__partition1___BaseEntity_partition1_partition1" style="stroke:#181818;stroke-width:1;"/><polygon fill="#181818" points="2211.65,613,2220.65,617,2216.65,613,2220.65,609,2211.65,613" style="stroke:#181818;stroke-width:1;"/></g><!--link VisitController_partition1_partition1 to Owner_partition1_partition1--><g class="link" data-entity-1="VisitController_partition1_partition1" data-entity-2="Owner_partition1_partition1" data-source-line="49" data-uid="lnk39" id="link_VisitController_partition1_partition1_Owner_partition1_partition1"><path d="M2113.62,80.17 C2113.62,92.03 2113.62,105 2113.62,105 C2113.62,105 1815,105 1815,105 C1815,105 1815,146.51 1815,173.98" fill="none" id="VisitController_partition1_partition1-to-Owner_partition1_partition1" style="stroke:#181818;stroke-width:1;"/><polygon fill="#181818" points="1815,179.98,1819,170.98,1815,174.98,1811,170.98,1815,179.98" style="stroke:#181818;stroke-width:1;"/></g><!--link VisitController_partition1_partition1 to OwnerRepository_partition1_partition1--><g class="link" data-entity-1="VisitController_partition1_partition1" data-entity-2="OwnerRepository_partition1_partition1" data-source-line="50" data-uid="lnk40" id="link_VisitController_partition1_partition1_OwnerRepository_partition1_partition1"><path d="M2151.88,80.19 C2151.88,106.55 2151.88,147.7 2151.88,173.97" fill="none" id="VisitController_partition1_partition1-to-OwnerRepository_partition1_partition1" style="stroke:#181818;stroke-width:1;"/><polygon fill="#181818" points="2151.88,179.97,2155.88,170.97,2151.88,174.97,2147.88,170.97,2151.88,179.97" style="stroke:#181818;stroke-width:1;"/></g><!--link VisitController_partition1_partition1 to Pet_partition1_partition1--><g class="link" data-entity-1="VisitController_partition1_partition1" data-entity-2="Pet_partition1_partition1" data-source-line="51" data-uid="lnk41" id="link_VisitController_partition1_partition1_Pet_partition1_partition1"><path d="M2132.75,80.22 C2132.75,100.64 2132.75,130 2132.75,130 C2132.75,130 1846.5,130 1846.5,130 C1846.5,130 1846.5,260.65 1846.5,311.9" fill="none" id="VisitController_partition1_partition1-to-Pet_partition1_partition1" style="stroke:#181818;stroke-width:1;"/><polygon fill="#181818" points="1846.5,317.9,1850.5,308.9,1846.5,312.9,1842.5,308.9,1846.5,317.9" style="stroke:#181818;stroke-width:1;"/></g><!--link VisitController_partition1_partition1 to Visit_partition1_partition1--><g class="link" data-entity-1="VisitController_partition1_partition1" data-entity-2="Visit_partition1_partition1" data-source-line="52" data-uid="lnk42" id="link_VisitController_partition1_partition1_Visit_partition1_partition1"><path d="M2311.75,80.14 C2311.75,149.31 2311.75,379.97 2311.75,449.59" fill="none" id="VisitController_partition1_partition1-to-Visit_partition1_partition1" style="stroke:#181818;stroke-width:1;"/><polygon fill="#181818" points="2311.75,455.59,2315.75,446.59,2311.75,450.59,2307.75,446.59,2311.75,455.59" style="stroke:#181818;stroke-width:1;"/></g><!--link _duplicate__partition0___NamedEntity_partition0_partition0 to _duplicate__partition0___BaseEntity_partition0_partition0--><g class="link" data-entity-1="_duplicate__partition0___NamedEntity_partition0_partition0" data-entity-2="_duplicate__partition0___BaseEntity_partition0_partition0" data-source-line="53" data-uid="lnk43" id="link__duplicate__partition0___NamedEntity_partition0_partition0__duplicate__partition0___BaseEntity_partition0_partition0"><path d="M1073.75,218.19 C1073.75,244.55 1073.75,285.7 1073.75,311.97" fill="none" id="_duplicate__partition0___NamedEntity_partition0_partition0-to-_duplicate__partition0___BaseEntity_partition0_partition0" style="stroke:#181818;stroke-width:1;"/><polygon fill="#181818" points="1073.75,317.97,1077.75,308.97,1073.75,312.97,1069.75,308.97,1073.75,317.97" style="stroke:#181818;stroke-width:1;"/></g><!--link _duplicate__partition0___Person_partition0_partition0 to _duplicate__partition0___BaseEntity_partition0_partition0--><g class="link" data-entity-1="_duplicate__partition0___Person_partition0_partition0" data-entity-2="_duplicate__partition0___BaseEntity_partition0_partition0" data-source-line="54" data-uid="lnk44" id="link__duplicate__partition0___Person_partition0_partition0__duplicate__partition0___BaseEntity_partition0_partition0"><path d="M859.25,218.19 C859.25,244.55 859.25,285.7 859.25,311.97" fill="none" id="_duplicate__partition0___Person_partition0_partition0-to-_duplicate__partition0___BaseEntity_partition0_partition0" style="stroke:#181818;stroke-width:1;"/><polygon fill="#181818" points="859.25,317.97,863.25,308.97,859.25,312.97,855.25,308.97,859.25,317.97" style="stroke:#181818;stroke-width:1;"/></g><!--link _duplicate__partition1___NamedEntity_partition1_partition1 to _duplicate__partition1___BaseEntity_partition1_partition1--><g class="link" data-entity-1="_duplicate__partition1___NamedEntity_partition1_partition1" data-entity-2="_duplicate__partition1___BaseEntity_partition1_partition1" data-source-line="55" data-uid="lnk45" id="link__duplicate__partition1___NamedEntity_partition1_partition1__duplicate__partition1___BaseEntity_partition1_partition1"><path d="M2027,494.19 C2027,520.55 2027,561.7 2027,587.97" fill="none" id="_duplicate__partition1___NamedEntity_partition1_partition1-to-_duplicate__partition1___BaseEntity_partition1_partition1" style="stroke:#181818;stroke-width:1;"/><polygon fill="#181818" points="2027,593.97,2031,584.97,2027,588.97,2023,584.97,2027,593.97" style="stroke:#181818;stroke-width:1;"/></g><!--link _duplicate__partition1___Person_partition1_partition1 to _duplicate__partition1___BaseEntity_partition1_partition1--><g class="link" data-entity-1="_duplicate__partition1___Person_partition1_partition1" data-entity-2="_duplicate__partition1___BaseEntity_partition1_partition1" data-source-line="56" data-uid="lnk46" id="link__duplicate__partition1___Person_partition1_partition1__duplicate__partition1___BaseEntity_partition1_partition1"><path d="M1603,494.19 C1603,532.11 1603,613 1603,613 C1603,613 1722,613 1836.26,613" fill="none" id="_duplicate__partition1___Person_partition1_partition1-to-_duplicate__partition1___BaseEntity_partition1_partition1" style="stroke:#181818;stroke-width:1;"/><polygon fill="#181818" points="1842.26,613,1833.26,609,1837.26,613,1833.26,617,1842.26,613" style="stroke:#181818;stroke-width:1;"/></g><!--SRC=[jLTHRzCm47xthx3A2pnCQeR4qwYg3H1Fh1hJNgOfifAZjUhPaUs2AiH_nnqZCOjZdvFGFbHApj_tzUw-oyNikMoOPe-qXc_i8Emd9UqNzWZqCuZlO7d5o8xNG2yk6gNjQaLCUw9XrPvjuTBzRBKwoFfA2QNfgmzF7ozGGsMPt0f4gE0IxB41wiXsohiXLGq66lfkwGCpkJzTB9PBygo6BjmjoorNShduIq1_4jgfe0ltPOPkhczkooww_Okjh7_EV6sWuapOuxexilQv768Ruy7w347WEx0HI7St4-pALL0h8K37ORku78Bx-j08rnKMwEikziq3FJLD_L6w2x4CbUtnqcSjI-_uB78se8sIOvJyEPcPz1jebE5MwMCywLrS9e69uvfPadR938mlONSw8UON2RYro79haN3hzGy9EkI4OkqpEjmNaHw5pnOasOJDrgFOXCs68hXrmp0EVOh80RtZhW5Hkbz4vf0yPJMLzMp0aCl2q26V8LEJIaXc0UF5om4BshO8pBeUKT2oHM3MJH0HdFzu9S7vFq5EQ9JXrOH6ML2C6sMnLZwxjpjUxIKOy_xjmzbgkEHecE84CwgW13VgUfeZoYP1fZnAXls1JqYohmXcEcVb91VmF2iZ-T33FHT_UioPvDHcZED2BOfaU6N6iyIMG89PddjKYEKl6_Zy6TWCuKMUL_ZgfeOXmUq9FSAOXwP09bqq4dpOHoC18-KX4rwKy5sUsjZ9k9Ua_oq0jo_CsE3ZzgVv1Fm6]--></g></svg>