<svg xmlns="http://www.w3.org/2000/svg" xmlns:xlink="http://www.w3.org/1999/xlink" contentStyleType="text/css" data-diagram-type="DESCRIPTION" height="379px" preserveAspectRatio="none" style="width:3348px;height:379px;background:#FFFFFF;" version="1.1" viewBox="0 0 3348 379" width="3348px" zoomAndPan="magnify"><defs/><g><!--cluster microservice2--><g class="cluster" data-entity="microservice2" data-source-line="8" data-uid="ent0002" id="cluster_microservice2"><path d="M8.5,6 L103.6787,6 A3.75,3.75 0 0 1 106.1787,8.5 L113.1787,29.6094 L1309.5,29.6094 A2.5,2.5 0 0 1 1312,32.1094 L1312,231.5 A2.5,2.5 0 0 1 1309.5,234 L8.5,234 A2.5,2.5 0 0 1 6,231.5 L6,8.5 A2.5,2.5 0 0 1 8.5,6" fill="#DDDDDD" style="stroke:#000000;stroke-width:1.5;"/><line style="stroke:#000000;stroke-width:1.5;" x1="6" x2="113.1787" y1="29.6094" y2="29.6094"/><text fill="#000000" font-family="Helvetica" font-size="14" font-weight="bold" lengthAdjust="spacing" textLength="94.1787" x="10" y="22.5332">microservice2</text></g><!--cluster microservice0--><g class="cluster" data-entity="microservice0" data-source-line="19" data-uid="ent0011" id="cluster_microservice0"><path d="M2785.5,6 L2880.6787,6 A3.75,3.75 0 0 1 2883.1787,8.5 L2890.1787,29.6094 L3338.5,29.6094 A2.5,2.5 0 0 1 3341,32.1094 L3341,231.5 A2.5,2.5 0 0 1 3338.5,234 L2785.5,234 A2.5,2.5 0 0 1 2783,231.5 L2783,8.5 A2.5,2.5 0 0 1 2785.5,6" fill="#DDDDDD" style="stroke:#000000;stroke-width:1.5;"/><line style="stroke:#000000;stroke-width:1.5;" x1="2783" x2="2890.1787" y1="29.6094" y2="29.6094"/><text fill="#000000" font-family="Helvetica" font-size="14" font-weight="bold" lengthAdjust="spacing" textLength="94.1787" x="2787" y="22.5332">microservice0</text></g><!--cluster microservice1--><g class="cluster" data-entity="microservice1" data-source-line="26" data-uid="ent0016" id="cluster_microservice1"><path d="M1342.5,6 L1437.6787,6 A3.75,3.75 0 0 1 1440.1787,8.5 L1447.1787,29.6094 L2752.5,29.6094 A2.5,2.5 0 0 1 2755,32.1094 L2755,369.5 A2.5,2.5 0 0 1 2752.5,372 L1342.5,372 A2.5,2.5 0 0 1 1340,369.5 L1340,8.5 A2.5,2.5 0 0 1 1342.5,6" fill="#DDDDDD" style="stroke:#000000;stroke-width:1.5;"/><line style="stroke:#000000;stroke-width:1.5;" x1="1340" x2="1447.1787" y1="29.6094" y2="29.6094"/><text fill="#000000" font-family="Helvetica" font-size="14" font-weight="bold" lengthAdjust="spacing" textLength="94.1787" x="1344" y="22.5332">microservice1</text></g><!--entity PORT_microservice2--><!--entity Owner_microservice2--><g class="entity" data-entity="Owner_microservice2" data-source-line="10" data-uid="ent0004" id="entity_Owner_microservice2"><rect fill="#DDDDDD" height="37.6094" rx="2.5" ry="2.5" style="stroke:#181818;stroke-width:0.5;" width="161.7979" x="144" y="42"/><text fill="#000000" font-family="Helvetica" font-size="14" lengthAdjust="spacing" textLength="141.7979" x="154" y="66.5332">Owner@microservice2</text></g><!--entity Pet_microservice2--><g class="entity" data-entity="Pet_microservice2" data-source-line="11" data-uid="ent0005" id="entity_Pet_microservice2"><rect fill="#DDDDDD" height="37.6094" rx="2.5" ry="2.5" style="stroke:#181818;stroke-width:0.5;" width="141.5771" x="366" y="42"/><text fill="#000000" font-family="Helvetica" font-size="14" lengthAdjust="spacing" textLength="121.5771" x="376" y="66.5332">Pet@microservice2</text></g><!--entity PetController_microservice2--><g class="entity" data-entity="PetController_microservice2" data-source-line="12" data-uid="ent0006" id="entity_PetController_microservice2"><rect fill="#DDDDDD" height="37.6094" rx="2.5" ry="2.5" style="stroke:#181818;stroke-width:0.5;" width="202.2666" x="1094" y="42"/><text fill="#000000" font-family="Helvetica" font-size="14" lengthAdjust="spacing" textLength="182.2666" x="1104" y="66.5332">PetController@microservice2</text></g><!--entity PetTypeFormatter_microservice2--><g class="entity" data-entity="PetTypeFormatter_microservice2" data-source-line="13" data-uid="ent0007" id="entity_PetTypeFormatter_microservice2"><rect fill="#DDDDDD" height="37.6094" rx="2.5" ry="2.5" style="stroke:#181818;stroke-width:0.5;" width="233.377" x="22.5" y="180"/><text fill="#000000" font-family="Helvetica" font-size="14" lengthAdjust="spacing" textLength="213.377" x="32.5" y="204.5332">PetTypeFormatter@microservice2</text></g><!--entity PetValidator_microservice2--><g class="entity" data-entity="PetValidator_microservice2" data-source-line="14" data-uid="ent0008" id="entity_PetValidator_microservice2"><rect fill="#DDDDDD" height="37.6094" rx="2.5" ry="2.5" style="stroke:#181818;stroke-width:0.5;" width="196.832" x="568.5" y="42"/><text fill="#000000" font-family="Helvetica" font-size="14" lengthAdjust="spacing" textLength="176.832" x="578.5" y="66.5332">PetValidator@microservice2</text></g><!--entity Visit_microservice2--><g class="entity" data-entity="Visit_microservice2" data-source-line="15" data-uid="ent0009" id="entity_Visit_microservice2"><rect fill="#DDDDDD" height="37.6094" rx="2.5" ry="2.5" style="stroke:#181818;stroke-width:0.5;" width="147.0117" x="315.5" y="180"/><text fill="#000000" font-family="Helvetica" font-size="14" lengthAdjust="spacing" textLength="127.0117" x="325.5" y="204.5332">Visit@microservice2</text></g><!--entity VisitController_microservice2--><g class="entity" data-entity="VisitController_microservice2" data-source-line="16" data-uid="ent0010" id="entity_VisitController_microservice2"><rect fill="#DDDDDD" height="37.6094" rx="2.5" ry="2.5" style="stroke:#181818;stroke-width:0.5;" width="207.7012" x="826" y="42"/><text fill="#000000" font-family="Helvetica" font-size="14" lengthAdjust="spacing" textLength="187.7012" x="836" y="66.5332">VisitController@microservice2</text></g><!--entity PORT_microservice0--><!--entity Vet_microservice0--><g class="entity" data-entity="Vet_microservice0" data-source-line="21" data-uid="ent0013" id="entity_Vet_microservice0"><rect fill="#DDDDDD" height="37.6094" rx="2.5" ry="2.5" style="stroke:#181818;stroke-width:0.5;" width="141.5771" x="3061" y="42"/><text fill="#000000" font-family="Helvetica" font-size="14" lengthAdjust="spacing" textLength="121.5771" x="3071" y="66.5332">Vet@microservice0</text></g><!--entity VetController_microservice0--><g class="entity" data-entity="VetController_microservice0" data-source-line="22" data-uid="ent0014" id="entity_VetController_microservice0"><rect fill="#DDDDDD" height="37.6094" rx="2.5" ry="2.5" style="stroke:#181818;stroke-width:0.5;" width="202.2666" x="2799" y="42"/><text fill="#000000" font-family="Helvetica" font-size="14" lengthAdjust="spacing" textLength="182.2666" x="2809" y="66.5332">VetController@microservice0</text></g><!--entity Vets_microservice0--><g class="entity" data-entity="Vets_microservice0" data-source-line="23" data-uid="ent0015" id="entity_Vets_microservice0"><rect fill="#DDDDDD" height="37.6094" rx="2.5" ry="2.5" style="stroke:#181818;stroke-width:0.5;" width="148.5771" x="2825.5" y="180"/><text fill="#000000" font-family="Helvetica" font-size="14" lengthAdjust="spacing" textLength="128.5771" x="2835.5" y="204.5332">Vets@microservice0</text></g><!--entity PORT_microservice1--><!--entity BaseEntity_microservice1--><g class="entity" data-entity="BaseEntity_microservice1" data-source-line="28" data-uid="ent0018" id="entity_BaseEntity_microservice1"><rect fill="#DDDDDD" height="37.6094" rx="2.5" ry="2.5" style="stroke:#181818;stroke-width:0.5;" width="187.4873" x="2290.5" y="42"/><text fill="#000000" font-family="Helvetica" font-size="14" lengthAdjust="spacing" textLength="167.4873" x="2300.5" y="66.5332">BaseEntity@microservice1</text></g><!--entity NamedEntity_microservice1--><g class="entity" data-entity="NamedEntity_microservice1" data-source-line="29" data-uid="ent0019" id="entity_NamedEntity_microservice1"><rect fill="#DDDDDD" height="37.6094" rx="2.5" ry="2.5" style="stroke:#181818;stroke-width:0.5;" width="200.708" x="2537.5" y="42"/><text fill="#000000" font-family="Helvetica" font-size="14" lengthAdjust="spacing" textLength="180.708" x="2547.5" y="66.5332">NamedEntity@microservice1</text></g><!--entity OwnerController_microservice1--><g class="entity" data-entity="OwnerController_microservice1" data-source-line="30" data-uid="ent0020" id="entity_OwnerController_microservice1"><rect fill="#DDDDDD" height="37.6094" rx="2.5" ry="2.5" style="stroke:#181818;stroke-width:0.5;" width="222.4873" x="1886" y="42"/><text fill="#000000" font-family="Helvetica" font-size="14" lengthAdjust="spacing" textLength="202.4873" x="1896" y="66.5332">OwnerController@microservice1</text></g><!--entity Person_microservice1--><g class="entity" data-entity="Person_microservice1" data-source-line="31" data-uid="ent0021" id="entity_Person_microservice1"><rect fill="#DDDDDD" height="37.6094" rx="2.5" ry="2.5" style="stroke:#181818;stroke-width:0.5;" width="164.9219" x="2109.5" y="180"/><text fill="#000000" font-family="Helvetica" font-size="14" lengthAdjust="spacing" textLength="144.9219" x="2119.5" y="204.5332">Person@microservice1</text></g><!--entity PetController_microservice1--><g class="entity" data-entity="PetController_microservice1" data-source-line="32" data-uid="ent0022" id="entity_PetController_microservice1"><rect fill="#DDDDDD" height="37.6094" rx="2.5" ry="2.5" style="stroke:#181818;stroke-width:0.5;" width="202.2666" x="1624" y="42"/><text fill="#000000" font-family="Helvetica" font-size="14" lengthAdjust="spacing" textLength="182.2666" x="1634" y="66.5332">PetController@microservice1</text></g><!--entity PetValidator_microservice1--><g class="entity" data-entity="PetValidator_microservice1" data-source-line="33" data-uid="ent0023" id="entity_PetValidator_microservice1"><rect fill="#DDDDDD" height="37.6094" rx="2.5" ry="2.5" style="stroke:#181818;stroke-width:0.5;" width="196.832" x="2334.5" y="180"/><text fill="#000000" font-family="Helvetica" font-size="14" lengthAdjust="spacing" textLength="176.832" x="2344.5" y="204.5332">PetValidator@microservice1</text></g><!--entity Visit_microservice1--><g class="entity" data-entity="Visit_microservice1" data-source-line="34" data-uid="ent0024" id="entity_Visit_microservice1"><rect fill="#DDDDDD" height="37.6094" rx="2.5" ry="2.5" style="stroke:#181818;stroke-width:0.5;" width="147.0117" x="2591.5" y="180"/><text fill="#000000" font-family="Helvetica" font-size="14" lengthAdjust="spacing" textLength="127.0117" x="2601.5" y="204.5332">Visit@microservice1</text></g><!--entity VisitController_microservice1--><g class="entity" data-entity="VisitController_microservice1" data-source-line="35" data-uid="ent0025" id="entity_VisitController_microservice1"><rect fill="#DDDDDD" height="37.6094" rx="2.5" ry="2.5" style="stroke:#181818;stroke-width:0.5;" width="207.7012" x="1356" y="42"/><text fill="#000000" font-family="Helvetica" font-size="14" lengthAdjust="spacing" textLength="187.7012" x="1366" y="66.5332">VisitController@microservice1</text></g><!--entity Owner_microservice1--><g class="entity" data-entity="Owner_microservice1" data-source-line="36" data-uid="ent0026" id="entity_Owner_microservice1"><rect fill="#DDDDDD" height="37.6094" rx="2.5" ry="2.5" style="stroke:#181818;stroke-width:0.5;" width="161.7979" x="1356" y="180"/><text fill="#000000" font-family="Helvetica" font-size="14" lengthAdjust="spacing" textLength="141.7979" x="1366" y="204.5332">Owner@microservice1</text></g><!--entity OwnerRepository_microservice1--><g class="entity" data-entity="OwnerRepository_microservice1" data-source-line="37" data-uid="ent0027" id="entity_OwnerRepository_microservice1"><rect fill="#DDDDDD" height="37.6094" rx="2.5" ry="2.5" style="stroke:#181818;stroke-width:0.5;" width="228.7148" x="1594.5" y="180"/><text fill="#000000" font-family="Helvetica" font-size="14" lengthAdjust="spacing" textLength="208.7148" x="1604.5" y="204.5332">OwnerRepository@microservice1</text></g><!--entity Pet_microservice1--><g class="entity" data-entity="Pet_microservice1" data-source-line="38" data-uid="ent0028" id="entity_Pet_microservice1"><rect fill="#DDDDDD" height="37.6094" rx="2.5" ry="2.5" style="stroke:#181818;stroke-width:0.5;" width="141.5771" x="1356" y="318"/><text fill="#000000" font-family="Helvetica" font-size="14" lengthAdjust="spacing" textLength="121.5771" x="1366" y="342.5332">Pet@microservice1</text></g><!--link Owner_microservice1 to Pet_microservice1--><g class="link" data-entity-1="Owner_microservice1" data-entity-2="Pet_microservice1" data-source-line="41" data-uid="lnk29" id="link_Owner_microservice1_Pet_microservice1"><path d="M1427,218.19 C1427,244.55 1427,285.7 1427,311.97" fill="none" id="Owner_microservice1-to-Pet_microservice1" style="stroke:#181818;stroke-width:1;"/><polygon fill="#181818" points="1427,317.97,1431,308.97,1427,312.97,1423,308.97,1427,317.97" style="stroke:#181818;stroke-width:1;"/></g><!--link OwnerController_microservice1 to OwnerRepository_microservice1--><g class="link" data-entity-1="OwnerController_microservice1" data-entity-2="OwnerRepository_microservice1" data-source-line="42" data-uid="lnk30" id="link_OwnerController_microservice1_OwnerRepository_microservice1"><path d="M1997,80.19 C1997,118.11 1997,199 1997,199 C1997,199 1909.97,199 1829.65,199" fill="none" id="OwnerController_microservice1-to-OwnerRepository_microservice1" style="stroke:#181818;stroke-width:2;"/><polygon fill="#181818" points="1823.65,199,1832.65,203,1828.65,199,1832.65,195,1823.65,199" style="stroke:#181818;stroke-width:2;"/></g><!--link PetController_microservice1 to Owner_microservice1--><g class="link" data-entity-1="PetController_microservice1" data-entity-2="Owner_microservice1" data-source-line="43" data-uid="lnk31" id="link_PetController_microservice1_Owner_microservice1"><path d="M1623.77,55 C1598.9,55 1579.25,55 1579.25,55 C1579.25,55 1579.25,199 1579.25,199 C1579.25,199 1556.04,199 1524.1,199" fill="none" id="PetController_microservice1-to-Owner_microservice1" style="stroke:#181818;stroke-width:3;"/><polygon fill="#181818" points="1518.1,199,1527.1,203,1523.1,199,1527.1,195,1518.1,199" style="stroke:#181818;stroke-width:3;"/></g><!--link PetController_microservice1 to OwnerRepository_microservice1--><g class="link" data-entity-1="PetController_microservice1" data-entity-2="OwnerRepository_microservice1" data-source-line="44" data-uid="lnk32" id="link_PetController_microservice1_OwnerRepository_microservice1"><path d="M1723.75,80.19 C1723.75,106.55 1723.75,147.7 1723.75,173.97" fill="none" id="PetController_microservice1-to-OwnerRepository_microservice1" style="stroke:#181818;stroke-width:1;"/><polygon fill="#181818" points="1723.75,179.97,1727.75,170.97,1723.75,174.97,1719.75,170.97,1723.75,179.97" style="stroke:#181818;stroke-width:1;"/></g><!--link PetController_microservice2 to Owner_microservice1--><g class="link" data-entity-1="PetController_microservice2" data-entity-2="Owner_microservice1" data-source-line="45" data-uid="lnk33" id="link_PetController_microservice2_Owner_microservice1"><path d="M1228.67,80.19 C1228.67,116.8 1228.67,193 1228.67,193 C1228.67,193 1291.36,193 1349.86,193" fill="none" id="PetController_microservice2-to-Owner_microservice1" style="stroke:#181818;stroke-width:3;"/><polygon fill="#181818" points="1355.86,193,1346.86,189,1350.86,193,1346.86,197,1355.86,193" style="stroke:#181818;stroke-width:3;"/><text fill="#000000" font-family="Helvetica" font-size="13" lengthAdjust="spacing" textLength="7.23" x="1227.86" y="189.4951">3</text></g><!--link PetController_microservice2 to OwnerRepository_microservice1--><g class="link" data-entity-1="PetController_microservice2" data-entity-2="OwnerRepository_microservice1" data-source-line="46" data-uid="lnk34" id="link_PetController_microservice2_OwnerRepository_microservice1"><path d="M1161.33,80.22 C1161.33,100.64 1161.33,130 1161.33,130 C1161.33,130 1604.33,130 1604.33,130 C1604.33,130 1604.33,153.36 1604.33,173.78" fill="none" id="PetController_microservice2-to-OwnerRepository_microservice1" style="stroke:#181818;stroke-width:1;"/><polygon fill="#181818" points="1604.33,179.78,1608.33,170.78,1604.33,174.78,1600.33,170.78,1604.33,179.78" style="stroke:#181818;stroke-width:1;"/><text fill="#000000" font-family="Helvetica" font-size="13" lengthAdjust="spacing" textLength="7.23" x="1374.83" y="126.4951">1</text></g><!--link PetValidator_microservice2 to Pet_microservice1--><g class="link" data-entity-1="PetValidator_microservice2" data-entity-2="Pet_microservice1" data-source-line="47" data-uid="lnk35" id="link_PetValidator_microservice2_Pet_microservice1"><path d="M667,80.01 C667,143.46 667,344 667,344 C667,344 1160.91,344 1349.84,344" fill="none" id="PetValidator_microservice2-to-Pet_microservice1" style="stroke:#181818;stroke-width:2;"/><polygon fill="#181818" points="1355.84,344,1346.84,340,1350.84,344,1346.84,348,1355.84,344" style="stroke:#181818;stroke-width:2;"/><text fill="#000000" font-family="Helvetica" font-size="13" lengthAdjust="spacing" textLength="7.23" x="871.43" y="340.4951">2</text></g><!--link VetController_microservice0 to Vets_microservice0--><g class="link" data-entity-1="VetController_microservice0" data-entity-2="Vets_microservice0" data-source-line="48" data-uid="lnk36" id="link_VetController_microservice0_Vets_microservice0"><path d="M2900,80.19 C2900,106.55 2900,147.7 2900,173.97" fill="none" id="VetController_microservice0-to-Vets_microservice0" style="stroke:#181818;stroke-width:2;"/><polygon fill="#181818" points="2900,179.97,2904,170.97,2900,174.97,2896,170.97,2900,179.97" style="stroke:#181818;stroke-width:2;"/></g><!--link VisitController_microservice1 to Owner_microservice1--><g class="link" data-entity-1="VisitController_microservice1" data-entity-2="Owner_microservice1" data-source-line="49" data-uid="lnk37" id="link_VisitController_microservice1_Owner_microservice1"><path d="M1437,80.19 C1437,106.55 1437,147.7 1437,173.97" fill="none" id="VisitController_microservice1-to-Owner_microservice1" style="stroke:#181818;stroke-width:1;"/><polygon fill="#181818" points="1437,179.97,1441,170.97,1437,174.97,1433,170.97,1437,179.97" style="stroke:#181818;stroke-width:1;"/></g><!--link VisitController_microservice1 to OwnerRepository_microservice1--><g class="link" data-entity-1="VisitController_microservice1" data-entity-2="OwnerRepository_microservice1" data-source-line="50" data-uid="lnk38" id="link_VisitController_microservice1_OwnerRepository_microservice1"><path d="M1564.11,68 C1591.8,68 1614.17,68 1614.17,68 C1614.17,68 1614.17,137.62 1614.17,173.95" fill="none" id="VisitController_microservice1-to-OwnerRepository_microservice1" style="stroke:#181818;stroke-width:1;"/><polygon fill="#181818" points="1614.17,179.95,1618.17,170.95,1614.17,174.95,1610.17,170.95,1614.17,179.95" style="stroke:#181818;stroke-width:1;"/></g><!--link VisitController_microservice2 to Owner_microservice1--><g class="link" data-entity-1="VisitController_microservice2" data-entity-2="Owner_microservice1" data-source-line="51" data-uid="lnk39" id="link_VisitController_microservice2_Owner_microservice1"><path d="M964.67,80.25 C964.67,119.7 964.67,206 964.67,206 C964.67,206 1214.76,206 1349.8,206" fill="none" id="VisitController_microservice2-to-Owner_microservice1" style="stroke:#181818;stroke-width:1;"/><polygon fill="#181818" points="1355.8,206,1346.8,202,1350.8,206,1346.8,210,1355.8,206" style="stroke:#181818;stroke-width:1;"/><text fill="#000000" font-family="Helvetica" font-size="13" lengthAdjust="spacing" textLength="7.23" x="1089.36" y="202.4951">1</text></g><!--link VisitController_microservice2 to Pet_microservice1--><g class="link" data-entity-1="VisitController_microservice2" data-entity-2="Pet_microservice1" data-source-line="52" data-uid="lnk40" id="link_VisitController_microservice2_Pet_microservice1"><path d="M895.33,80.42 C895.33,142.33 895.33,331 895.33,331 C895.33,331 1204.97,331 1349.85,331" fill="none" id="VisitController_microservice2-to-Pet_microservice1" style="stroke:#181818;stroke-width:1;"/><polygon fill="#181818" points="1355.85,331,1346.85,327,1350.85,331,1346.85,335,1355.85,331" style="stroke:#181818;stroke-width:1;"/><text fill="#000000" font-family="Helvetica" font-size="13" lengthAdjust="spacing" textLength="7.23" x="992.3" y="327.4951">1</text></g><!--SRC=[fPN1JW8n48RlVOe6poPRI3mG9GQKU59231TZJBCxGiFIRjgg8SPtjwowBBkTqaKua7GwN__-dHdCMiY2QxwX6RpojznEbRJtV0Fq3l9ti2BbP2Koe9UNXT9sD2AcoYXukkPB6BkVfLPlCfkeN6bwTbD-QXirf9RBPHwnDHSIxBO0wWvRgLf0gWmC5FGYgOEvNEyMMPAGNpMqjn6fLWRqkqYXt_ixWtuIkXT2U-xB3Pqzp1zV3XAgYrRY3j8UFYJewyOH3bIkDqXUm0oi9zsjHYPFtFjebUTU5GVnIE2ZStkgz8PRYp4FjaHY5pmN6RSAGLRX6Dn26E5phLoF1WITQ-n0e5_4NsP9rp9BZfJPeb4boO_8HfKaQ39ormg3t1G76Z_78EcOKQohKUo8KMDku5PQORVNZNCSRHziCBsetTJBK5Oj6WChvm7o2cm_CP1tO5XRQQEaX_KJY4FOe2fyWh2EhSx2hSvYMvqXhSwwjpexskeiTkepPEg707Ceb3jQwIs6sk-8jDxlE9Bicj8d-Fp9haIwbc3C5Ni-7xK995ohTK1_1mZUXOHAh8uQLAWJ0Um_MlfHMkYG3g8Xn_KuNAa9-tTiETr-x27jaz20Ro7QKvo4EyH_fOQnfo3GLmh_ESVeAOtjYF5voxu1]--></g></svg>