<svg xmlns="http://www.w3.org/2000/svg" xmlns:xlink="http://www.w3.org/1999/xlink" contentStyleType="text/css" data-diagram-type="DESCRIPTION" height="793px" preserveAspectRatio="none" style="width:3088px;height:793px;background:#FFFFFF;" version="1.1" viewBox="0 0 3088 793" width="3088px" zoomAndPan="magnify"><defs/><g><!--cluster partition2--><g class="cluster" data-entity="partition2" data-source-line="8" data-uid="ent0002" id="cluster_partition2"><path d="M10,6 L74.7793,6 A3.75,3.75 0 0 1 77.2793,8.5 L84.2793,29.6094 L353,29.6094 A2.5,2.5 0 0 1 355.5,32.1094 L355.5,369.5 A2.5,2.5 0 0 1 353,372 L10,372 A2.5,2.5 0 0 1 7.5,369.5 L7.5,8.5 A2.5,2.5 0 0 1 10,6" fill="#DDDDDD" style="stroke:#000000;stroke-width:1.5;"/><line style="stroke:#000000;stroke-width:1.5;" x1="7.5" x2="84.2793" y1="29.6094" y2="29.6094"/><text fill="#000000" font-family="Helvetica" font-size="14" font-weight="bold" lengthAdjust="spacing" textLength="63.7793" x="11.5" y="22.5332">partition2</text></g><!--cluster partition0--><g class="cluster" data-entity="partition0" data-source-line="16" data-uid="ent0008" id="cluster_partition0"><path d="M2359,6 L2423.7793,6 A3.75,3.75 0 0 1 2426.2793,8.5 L2433.2793,29.6094 L2751,29.6094 A2.5,2.5 0 0 1 2753.5,32.1094 L2753.5,231.5 A2.5,2.5 0 0 1 2751,234 L2359,234 A2.5,2.5 0 0 1 2356.5,231.5 L2356.5,8.5 A2.5,2.5 0 0 1 2359,6" fill="#DDDDDD" style="stroke:#000000;stroke-width:1.5;"/><line style="stroke:#000000;stroke-width:1.5;" x1="2356.5" x2="2433.2793" y1="29.6094" y2="29.6094"/><text fill="#000000" font-family="Helvetica" font-size="14" font-weight="bold" lengthAdjust="spacing" textLength="63.7793" x="2360.5" y="22.5332">partition0</text></g><!--cluster partition3--><g class="cluster" data-entity="partition3" data-source-line="24" data-uid="ent0014" id="cluster_partition3"><path d="M2782,6 L2846.7793,6 A3.75,3.75 0 0 1 2849.2793,8.5 L2856.2793,29.6094 L3079,29.6094 A2.5,2.5 0 0 1 3081.5,32.1094 L3081.5,231.5 A2.5,2.5 0 0 1 3079,234 L2782,234 A2.5,2.5 0 0 1 2779.5,231.5 L2779.5,8.5 A2.5,2.5 0 0 1 2782,6" fill="#DDDDDD" style="stroke:#000000;stroke-width:1.5;"/><line style="stroke:#000000;stroke-width:1.5;" x1="2779.5" x2="2856.2793" y1="29.6094" y2="29.6094"/><text fill="#000000" font-family="Helvetica" font-size="14" font-weight="bold" lengthAdjust="spacing" textLength="63.7793" x="2783.5" y="22.5332">partition3</text></g><!--cluster partition1--><g class="cluster" data-entity="partition1" data-source-line="31" data-uid="ent0019" id="cluster_partition1"><path d="M382,6 L446.7793,6 A3.75,3.75 0 0 1 449.2793,8.5 L456.2793,29.6094 L2326,29.6094 A2.5,2.5 0 0 1 2328.5,32.1094 L2328.5,783.5 A2.5,2.5 0 0 1 2326,786 L382,786 A2.5,2.5 0 0 1 379.5,783.5 L379.5,8.5 A2.5,2.5 0 0 1 382,6" fill="#DDDDDD" style="stroke:#000000;stroke-width:1.5;"/><line style="stroke:#000000;stroke-width:1.5;" x1="379.5" x2="456.2793" y1="29.6094" y2="29.6094"/><text fill="#000000" font-family="Helvetica" font-size="14" font-weight="bold" lengthAdjust="spacing" textLength="63.7793" x="383.5" y="22.5332">partition1</text></g><!--entity PORT_partition2--><!--entity RegisterServlet--><g class="entity" data-entity="RegisterServlet" data-source-line="10" data-uid="ent0004" id="entity_RegisterServlet"><rect fill="#DDDDDD" height="37.6094" rx="2.5" ry="2.5" style="stroke:#181818;stroke-width:0.5;" width="115.7031" x="93.5" y="42"/><text fill="#000000" font-family="Helvetica" font-size="14" lengthAdjust="spacing" textLength="95.7031" x="103.5" y="66.5332">RegisterServlet</text></g><!--entity RegistrationUtils--><g class="entity" data-entity="RegistrationUtils" data-source-line="11" data-uid="ent0005" id="entity_RegistrationUtils"><rect fill="#DDDDDD" height="37.6094" rx="2.5" ry="2.5" style="stroke:#181818;stroke-width:0.5;" width="121.9238" x="89.5" y="180"/><text fill="#000000" font-family="Helvetica" font-size="14" lengthAdjust="spacing" textLength="101.9238" x="99.5" y="204.5332">RegistrationUtils</text></g><!--entity PasswordResult--><g class="entity" data-entity="PasswordResult" data-source-line="12" data-uid="ent0006" id="entity_PasswordResult"><rect fill="#DDDDDD" height="37.6094" rx="2.5" ry="2.5" style="stroke:#181818;stroke-width:0.5;" width="121.1514" x="24" y="318"/><text fill="#000000" font-family="Helvetica" font-size="14" lengthAdjust="spacing" textLength="101.1514" x="34" y="342.5332">PasswordResult</text></g><!--entity RegistrationResult--><g class="entity" data-entity="RegistrationResult" data-source-line="13" data-uid="ent0007" id="entity_RegistrationResult"><rect fill="#DDDDDD" height="37.6094" rx="2.5" ry="2.5" style="stroke:#181818;stroke-width:0.5;" width="134.3857" x="205.5" y="318"/><text fill="#000000" font-family="Helvetica" font-size="14" lengthAdjust="spacing" textLength="114.3857" x="215.5" y="342.5332">RegistrationResult</text></g><!--entity PORT_partition0--><!--entity AckServlet--><g class="entity" data-entity="AckServlet" data-source-line="18" data-uid="ent0010" id="entity_AckServlet"><rect fill="#DDDDDD" height="37.6094" rx="2.5" ry="2.5" style="stroke:#181818;stroke-width:0.5;" width="86.9102" x="2528" y="42"/><text fill="#000000" font-family="Helvetica" font-size="14" lengthAdjust="spacing" textLength="66.9102" x="2538" y="66.5332">AckServlet</text></g><!--entity MathServlet--><g class="entity" data-entity="MathServlet" data-source-line="19" data-uid="ent0011" id="entity_MathServlet"><rect fill="#DDDDDD" height="37.6094" rx="2.5" ry="2.5" style="stroke:#181818;stroke-width:0.5;" width="94.6963" x="2373" y="42"/><text fill="#000000" font-family="Helvetica" font-size="14" lengthAdjust="spacing" textLength="74.6963" x="2383" y="66.5332">MathServlet</text></g><!--entity Ackermann--><g class="entity" data-entity="Ackermann" data-source-line="20" data-uid="ent0012" id="entity_Ackermann"><rect fill="#DDDDDD" height="37.6094" rx="2.5" ry="2.5" style="stroke:#181818;stroke-width:0.5;" width="90.8066" x="2526" y="180"/><text fill="#000000" font-family="Helvetica" font-size="14" lengthAdjust="spacing" textLength="70.8066" x="2536" y="204.5332">Ackermann</text></g><!--entity Calculator--><g class="entity" data-entity="Calculator" data-source-line="21" data-uid="ent0013" id="entity_Calculator"><rect fill="#DDDDDD" height="37.6094" rx="2.5" ry="2.5" style="stroke:#181818;stroke-width:0.5;" width="83.0273" x="2379" y="180"/><text fill="#000000" font-family="Helvetica" font-size="14" lengthAdjust="spacing" textLength="63.0273" x="2389" y="204.5332">Calculator</text></g><!--entity PORT_partition3--><!--entity FibServlet--><g class="entity" data-entity="FibServlet" data-source-line="26" data-uid="ent0016" id="entity_FibServlet"><rect fill="#DDDDDD" height="37.6094" rx="2.5" ry="2.5" style="stroke:#181818;stroke-width:0.5;" width="83.0205" x="2798" y="42"/><text fill="#000000" font-family="Helvetica" font-size="14" lengthAdjust="spacing" textLength="63.0205" x="2808" y="66.5332">FibServlet</text></g><!--entity Fibonacci--><g class="entity" data-entity="Fibonacci" data-source-line="27" data-uid="ent0017" id="entity_Fibonacci"><rect fill="#DDDDDD" height="37.6094" rx="2.5" ry="2.5" style="stroke:#181818;stroke-width:0.5;" width="79.917" x="2795.5" y="180"/><text fill="#000000" font-family="Helvetica" font-size="14" lengthAdjust="spacing" textLength="59.917" x="2805.5" y="204.5332">Fibonacci</text></g><!--entity FibonacciIterative--><g class="entity" data-entity="FibonacciIterative" data-source-line="28" data-uid="ent0018" id="entity_FibonacciIterative"><rect fill="#DDDDDD" height="37.6094" rx="2.5" ry="2.5" style="stroke:#181818;stroke-width:0.5;" width="129.7168" x="2935.5" y="180"/><text fill="#000000" font-family="Helvetica" font-size="14" lengthAdjust="spacing" textLength="109.7168" x="2945.5" y="204.5332">FibonacciIterative</text></g><!--entity PORT_partition1--><!--entity DbServlet--><g class="entity" data-entity="DbServlet" data-source-line="33" data-uid="ent0021" id="entity_DbServlet"><rect fill="#DDDDDD" height="37.6094" rx="2.5" ry="2.5" style="stroke:#181818;stroke-width:0.5;" width="81.4688" x="2109" y="42"/><text fill="#000000" font-family="Helvetica" font-size="14" lengthAdjust="spacing" textLength="61.4688" x="2119" y="66.5332">DbServlet</text></g><!--entity LibraryBookListAvailableServlet--><g class="entity" data-entity="LibraryBookListAvailableServlet" data-source-line="34" data-uid="ent0022" id="entity_LibraryBookListAvailableServlet"><rect fill="#DDDDDD" height="37.6094" rx="2.5" ry="2.5" style="stroke:#181818;stroke-width:0.5;" width="216.875" x="1409" y="42"/><text fill="#000000" font-family="Helvetica" font-size="14" lengthAdjust="spacing" textLength="196.875" x="1419" y="66.5332">LibraryBookListAvailableServlet</text></g><!--entity LibraryBookListSearchServlet--><g class="entity" data-entity="LibraryBookListSearchServlet" data-source-line="35" data-uid="ent0023" id="entity_LibraryBookListSearchServlet"><rect fill="#DDDDDD" height="37.6094" rx="2.5" ry="2.5" style="stroke:#181818;stroke-width:0.5;" width="204.4199" x="1686.5" y="42"/><text fill="#000000" font-family="Helvetica" font-size="14" lengthAdjust="spacing" textLength="184.4199" x="1696.5" y="66.5332">LibraryBookListSearchServlet</text></g><!--entity LibraryBorrowerListSearchServlet--><g class="entity" data-entity="LibraryBorrowerListSearchServlet" data-source-line="36" data-uid="ent0024" id="entity_LibraryBorrowerListSearchServlet"><rect fill="#DDDDDD" height="37.6094" rx="2.5" ry="2.5" style="stroke:#181818;stroke-width:0.5;" width="229.3027" x="396" y="42"/><text fill="#000000" font-family="Helvetica" font-size="14" lengthAdjust="spacing" textLength="209.3027" x="406" y="66.5332">LibraryBorrowerListSearchServlet</text></g><!--entity LibraryLendServlet--><g class="entity" data-entity="LibraryLendServlet" data-source-line="37" data-uid="ent0025" id="entity_LibraryLendServlet"><rect fill="#DDDDDD" height="37.6094" rx="2.5" ry="2.5" style="stroke:#181818;stroke-width:0.5;" width="137.5098" x="1210.5" y="42"/><text fill="#000000" font-family="Helvetica" font-size="14" lengthAdjust="spacing" textLength="117.5098" x="1220.5" y="66.5332">LibraryLendServlet</text></g><!--entity LibraryRegisterBookServlet--><g class="entity" data-entity="LibraryRegisterBookServlet" data-source-line="38" data-uid="ent0026" id="entity_LibraryRegisterBookServlet"><rect fill="#DDDDDD" height="37.6094" rx="2.5" ry="2.5" style="stroke:#181818;stroke-width:0.5;" width="190.4063" x="960.5" y="42"/><text fill="#000000" font-family="Helvetica" font-size="14" lengthAdjust="spacing" textLength="170.4063" x="970.5" y="66.5332">LibraryRegisterBookServlet</text></g><!--entity LibraryRegisterBorrowerServlet--><g class="entity" data-entity="LibraryRegisterBorrowerServlet" data-source-line="39" data-uid="ent0027" id="entity_LibraryRegisterBorrowerServlet"><rect fill="#DDDDDD" height="37.6094" rx="2.5" ry="2.5" style="stroke:#181818;stroke-width:0.5;" width="215.2891" x="685" y="42"/><text fill="#000000" font-family="Helvetica" font-size="14" lengthAdjust="spacing" textLength="195.2891" x="695" y="66.5332">LibraryRegisterBorrowerServlet</text></g><!--entity LoginServlet--><g class="entity" data-entity="LoginServlet" data-source-line="40" data-uid="ent0028" id="entity_LoginServlet"><rect fill="#DDDDDD" height="37.6094" rx="2.5" ry="2.5" style="stroke:#181818;stroke-width:0.5;" width="97.8271" x="1950.5" y="42"/><text fill="#000000" font-family="Helvetica" font-size="14" lengthAdjust="spacing" textLength="77.8271" x="1960.5" y="66.5332">LoginServlet</text></g><!--entity LibraryUtils--><g class="entity" data-entity="LibraryUtils" data-source-line="41" data-uid="ent0029" id="entity_LibraryUtils"><rect fill="#DDDDDD" height="37.6094" rx="2.5" ry="2.5" style="stroke:#181818;stroke-width:0.5;" width="90.0137" x="1213.5" y="180"/><text fill="#000000" font-family="Helvetica" font-size="14" lengthAdjust="spacing" textLength="70.0137" x="1223.5" y="204.5332">LibraryUtils</text></g><!--entity LoginUtils--><g class="entity" data-entity="LoginUtils" data-source-line="42" data-uid="ent0030" id="entity_LoginUtils"><rect fill="#DDDDDD" height="37.6094" rx="2.5" ry="2.5" style="stroke:#181818;stroke-width:0.5;" width="81.4756" x="1515" y="180"/><text fill="#000000" font-family="Helvetica" font-size="14" lengthAdjust="spacing" textLength="61.4756" x="1525" y="204.5332">LoginUtils</text></g><!--entity ServletUtils--><g class="entity" data-entity="ServletUtils" data-source-line="43" data-uid="ent0031" id="entity_ServletUtils"><rect fill="#DDDDDD" height="37.6094" rx="2.5" ry="2.5" style="stroke:#181818;stroke-width:0.5;" width="90.793" x="1364" y="180"/><text fill="#000000" font-family="Helvetica" font-size="14" lengthAdjust="spacing" textLength="70.793" x="1374" y="204.5332">ServletUtils</text></g><!--entity PersistenceLayer--><g class="entity" data-entity="PersistenceLayer" data-source-line="44" data-uid="ent0032" id="entity_PersistenceLayer"><rect fill="#DDDDDD" height="37.6094" rx="2.5" ry="2.5" style="stroke:#181818;stroke-width:0.5;" width="128.165" x="1491.5" y="318"/><text fill="#000000" font-family="Helvetica" font-size="14" lengthAdjust="spacing" textLength="108.165" x="1501.5" y="342.5332">PersistenceLayer</text></g><!--entity SqlData--><g class="entity" data-entity="SqlData" data-source-line="45" data-uid="ent0033" id="entity_SqlData"><rect fill="#DDDDDD" height="37.6094" rx="2.5" ry="2.5" style="stroke:#181818;stroke-width:0.5;" width="69.8066" x="1765.5" y="456"/><text fill="#000000" font-family="Helvetica" font-size="14" lengthAdjust="spacing" textLength="49.8066" x="1775.5" y="480.5332">SqlData</text></g><!--entity CheckUtils--><g class="entity" data-entity="CheckUtils" data-source-line="46" data-uid="ent0034" id="entity_CheckUtils"><rect fill="#DDDDDD" height="37.6094" rx="2.5" ry="2.5" style="stroke:#181818;stroke-width:0.5;" width="86.9033" x="1320" y="456"/><text fill="#000000" font-family="Helvetica" font-size="14" lengthAdjust="spacing" textLength="66.9033" x="1330" y="480.5332">CheckUtils</text></g><!--entity Loan--><g class="entity" data-entity="Loan" data-source-line="47" data-uid="ent0035" id="entity_Loan"><rect fill="#DDDDDD" height="37.6094" rx="2.5" ry="2.5" style="stroke:#181818;stroke-width:0.5;" width="51.1445" x="1530" y="456"/><text fill="#000000" font-family="Helvetica" font-size="14" lengthAdjust="spacing" textLength="31.1445" x="1540" y="480.5332">Loan</text></g><!--entity ParameterObject--><g class="entity" data-entity="ParameterObject" data-source-line="48" data-uid="ent0036" id="entity_ParameterObject"><rect fill="#DDDDDD" height="37.6094" rx="2.5" ry="2.5" style="stroke:#181818;stroke-width:0.5;" width="125.8203" x="1709.5" y="594"/><text fill="#000000" font-family="Helvetica" font-size="14" lengthAdjust="spacing" textLength="105.8203" x="1719.5" y="618.5332">ParameterObject</text></g><!--entity Book--><g class="entity" data-entity="Book" data-source-line="49" data-uid="ent0037" id="entity_Book"><rect fill="#DDDDDD" height="37.6094" rx="2.5" ry="2.5" style="stroke:#181818;stroke-width:0.5;" width="51.9102" x="1529.5" y="594"/><text fill="#000000" font-family="Helvetica" font-size="14" lengthAdjust="spacing" textLength="31.9102" x="1539.5" y="618.5332">Book</text></g><!--entity Borrower--><g class="entity" data-entity="Borrower" data-source-line="50" data-uid="ent0038" id="entity_Borrower"><rect fill="#DDDDDD" height="37.6094" rx="2.5" ry="2.5" style="stroke:#181818;stroke-width:0.5;" width="76.793" x="1275" y="594"/><text fill="#000000" font-family="Helvetica" font-size="14" lengthAdjust="spacing" textLength="56.793" x="1285" y="618.5332">Borrower</text></g><!--entity StringUtils--><g class="entity" data-entity="StringUtils" data-source-line="51" data-uid="ent0039" id="entity_StringUtils"><rect fill="#DDDDDD" height="37.6094" rx="2.5" ry="2.5" style="stroke:#181818;stroke-width:0.5;" width="83.793" x="1271.5" y="732"/><text fill="#000000" font-family="Helvetica" font-size="14" lengthAdjust="spacing" textLength="63.793" x="1281.5" y="756.5332">StringUtils</text></g><!--link LoginServlet to LoginUtils--><g class="link" data-entity-1="LoginServlet" data-entity-2="LoginUtils" data-source-line="54" data-uid="lnk40" id="link_LoginServlet_LoginUtils"><path d="M1999.5,80.19 C1999.5,118.11 1999.5,199 1999.5,199 C1999.5,199 1711.69,199 1602.08,199" fill="none" id="LoginServlet-to-LoginUtils" style="stroke:#181818;stroke-width:1;"/><polygon fill="#181818" points="1596.08,199,1605.08,203,1601.08,199,1605.08,195,1596.08,199" style="stroke:#181818;stroke-width:1;"/></g><!--link LoginServlet to ServletUtils--><g class="link" data-entity-1="LoginServlet" data-entity-2="ServletUtils" data-source-line="55" data-uid="lnk41" id="link_LoginServlet_ServletUtils"><path d="M1975,80.17 C1975,92.03 1975,105 1975,105 C1975,105 1426.25,105 1426.25,105 C1426.25,105 1426.25,146.51 1426.25,173.98" fill="none" id="LoginServlet-to-ServletUtils" style="stroke:#181818;stroke-width:1;"/><polygon fill="#181818" points="1426.25,179.98,1430.25,170.98,1426.25,174.98,1422.25,170.98,1426.25,179.98" style="stroke:#181818;stroke-width:1;"/></g><!--link LoginServlet to StringUtils--><g class="link" data-entity-1="LoginServlet" data-entity-2="StringUtils" data-source-line="56" data-uid="lnk42" id="link_LoginServlet_StringUtils"><path d="M2024,80 C2024,191.71 2024,758 2024,758 C2024,758 1514.18,758 1361.55,758" fill="none" id="LoginServlet-to-StringUtils" style="stroke:#181818;stroke-width:1;"/><polygon fill="#181818" points="1355.55,758,1364.55,762,1360.55,758,1364.55,754,1355.55,758" style="stroke:#181818;stroke-width:1;"/></g><!--link LoginUtils to PersistenceLayer--><g class="link" data-entity-1="LoginUtils" data-entity-2="PersistenceLayer" data-source-line="57" data-uid="lnk43" id="link_LoginUtils_PersistenceLayer"><path d="M1555.5,218.19 C1555.5,244.55 1555.5,285.7 1555.5,311.97" fill="none" id="LoginUtils-to-PersistenceLayer" style="stroke:#181818;stroke-width:1;"/><polygon fill="#181818" points="1555.5,317.97,1559.5,308.97,1555.5,312.97,1551.5,308.97,1555.5,317.97" style="stroke:#181818;stroke-width:1;"/></g><!--link LoginUtils to CheckUtils--><g class="link" data-entity-1="LoginUtils" data-entity-2="CheckUtils" data-source-line="58" data-uid="lnk44" id="link_LoginUtils_CheckUtils"><path d="M1514.86,199 C1494.14,199 1473.25,199 1473.25,199 C1473.25,199 1473.25,466 1473.25,466 C1473.25,466 1443.8,466 1413.19,466" fill="none" id="LoginUtils-to-CheckUtils" style="stroke:#181818;stroke-width:1;"/><polygon fill="#181818" points="1407.19,466,1416.19,470,1412.19,466,1416.19,462,1407.19,466" style="stroke:#181818;stroke-width:1;"/></g><!--link RegisterServlet to RegistrationUtils--><g class="link" data-entity-1="RegisterServlet" data-entity-2="RegistrationUtils" data-source-line="59" data-uid="lnk45" id="link_RegisterServlet_RegistrationUtils"><path d="M132.17,80.19 C132.17,106.55 132.17,147.7 132.17,173.97" fill="none" id="RegisterServlet-to-RegistrationUtils" style="stroke:#181818;stroke-width:1;"/><polygon fill="#181818" points="132.17,179.97,136.17,170.97,132.17,174.97,128.17,170.97,132.17,179.97" style="stroke:#181818;stroke-width:1;"/></g><!--link RegisterServlet to RegistrationResult--><g class="link" data-entity-1="RegisterServlet" data-entity-2="RegistrationResult" data-source-line="60" data-uid="lnk46" id="link_RegisterServlet_RegistrationResult"><path d="M209.52,61 C226.93,61 241.5,61 241.5,61 C241.5,61 241.5,248.77 241.5,311.59" fill="none" id="RegisterServlet-to-RegistrationResult" style="stroke:#181818;stroke-width:1;"/><polygon fill="#181818" points="241.5,317.59,245.5,308.59,241.5,312.59,237.5,308.59,241.5,317.59" style="stroke:#181818;stroke-width:1;"/></g><!--link RegisterServlet to StringUtils--><g class="link" data-entity-1="RegisterServlet" data-entity-2="StringUtils" data-source-line="61" data-uid="lnk47" id="link_RegisterServlet_StringUtils"><path d="M93.16,61 C52.68,61 6,61 6,61 C6,61 6,764 6,764 C6,764 1041.68,764 1265.48,764" fill="none" id="RegisterServlet-to-StringUtils" style="stroke:#181818;stroke-width:1;"/><polygon fill="#181818" points="1271.48,764,1262.48,760,1266.48,764,1262.48,768,1271.48,764" style="stroke:#181818;stroke-width:1;"/><text fill="#000000" font-family="Helvetica" font-size="13" lengthAdjust="spacing" textLength="7.23" x="235.66" y="760.4951">1</text></g><!--link RegisterServlet to ServletUtils--><g class="link" data-entity-1="RegisterServlet" data-entity-2="ServletUtils" data-source-line="62" data-uid="lnk48" id="link_RegisterServlet_ServletUtils"><path d="M170.83,80.08 C170.83,111.82 170.83,172 170.83,172 C170.83,172 1373,172 1373,172 C1373,172 1373,169.49 1373,173.95" fill="none" id="RegisterServlet-to-ServletUtils" style="stroke:#181818;stroke-width:1;"/><polygon fill="#181818" points="1373,179.95,1377,170.95,1373,174.95,1369,170.95,1373,179.95" style="stroke:#181818;stroke-width:1;"/><text fill="#000000" font-family="Helvetica" font-size="13" lengthAdjust="spacing" textLength="7.23" x="721.93" y="168.4951">1</text></g><!--link RegistrationUtils to PersistenceLayer--><g class="link" data-entity-1="RegistrationUtils" data-entity-2="PersistenceLayer" data-source-line="63" data-uid="lnk49" id="link_RegistrationUtils_PersistenceLayer"><path d="M211.7,211 C295.09,211 434.17,211 434.17,211 C434.17,211 434.17,344 434.17,344 C434.17,344 1246.92,344 1485.18,344" fill="none" id="RegistrationUtils-to-PersistenceLayer" style="stroke:#181818;stroke-width:1;"/><polygon fill="#181818" points="1491.18,344,1482.18,340,1486.18,344,1482.18,348,1491.18,344" style="stroke:#181818;stroke-width:1;"/><text fill="#000000" font-family="Helvetica" font-size="13" lengthAdjust="spacing" textLength="7.23" x="776.94" y="340.4951">2</text></g><!--link RegistrationUtils to PasswordResult--><g class="link" data-entity-1="RegistrationUtils" data-entity-2="PasswordResult" data-source-line="64" data-uid="lnk50" id="link_RegistrationUtils_PasswordResult"><path d="M117.25,218.19 C117.25,244.55 117.25,285.7 117.25,311.97" fill="none" id="RegistrationUtils-to-PasswordResult" style="stroke:#181818;stroke-width:1;"/><polygon fill="#181818" points="117.25,317.97,121.25,308.97,117.25,312.97,113.25,308.97,117.25,317.97" style="stroke:#181818;stroke-width:1;"/></g><!--link RegistrationUtils to CheckUtils--><g class="link" data-entity-1="RegistrationUtils" data-entity-2="CheckUtils" data-source-line="65" data-uid="lnk51" id="link_RegistrationUtils_CheckUtils"><path d="M165.17,218.41 C165.17,281.23 165.17,475 165.17,475 C165.17,475 1098.27,475 1313.79,475" fill="none" id="RegistrationUtils-to-CheckUtils" style="stroke:#181818;stroke-width:1;"/><polygon fill="#181818" points="1319.79,475,1310.79,471,1314.79,475,1310.79,479,1319.79,475" style="stroke:#181818;stroke-width:1;"/><text fill="#000000" font-family="Helvetica" font-size="13" lengthAdjust="spacing" textLength="7.23" x="606.18" y="471.4951">3</text></g><!--link RegistrationUtils to RegistrationResult--><g class="link" data-entity-1="RegistrationUtils" data-entity-2="RegistrationResult" data-source-line="66" data-uid="lnk52" id="link_RegistrationUtils_RegistrationResult"><path d="M185.33,218.19 C185.33,256.11 185.33,337 185.33,337 C185.33,337 187.63,337 199.11,337" fill="none" id="RegistrationUtils-to-RegistrationResult" style="stroke:#181818;stroke-width:1;"/><polygon fill="#181818" points="205.11,337,196.11,333,200.11,337,196.11,341,205.11,337" style="stroke:#181818;stroke-width:1;"/></g><!--link LibraryBookListAvailableServlet to ServletUtils--><g class="link" data-entity-1="LibraryBookListAvailableServlet" data-entity-2="ServletUtils" data-source-line="67" data-uid="lnk53" id="link_LibraryBookListAvailableServlet_ServletUtils"><path d="M1414.75,80.19 C1414.75,106.55 1414.75,147.7 1414.75,173.97" fill="none" id="LibraryBookListAvailableServlet-to-ServletUtils" style="stroke:#181818;stroke-width:1;"/><polygon fill="#181818" points="1414.75,179.97,1418.75,170.97,1414.75,174.97,1410.75,170.97,1414.75,179.97" style="stroke:#181818;stroke-width:1;"/></g><!--link LibraryBookListAvailableServlet to LibraryUtils--><g class="link" data-entity-1="LibraryBookListAvailableServlet" data-entity-2="LibraryUtils" data-source-line="68" data-uid="lnk54" id="link_LibraryBookListAvailableServlet_LibraryUtils"><path d="M1408.6,61 C1379.64,61 1356.25,61 1356.25,61 C1356.25,61 1356.25,206 1356.25,206 C1356.25,206 1335.27,206 1309.66,206" fill="none" id="LibraryBookListAvailableServlet-to-LibraryUtils" style="stroke:#181818;stroke-width:1;"/><polygon fill="#181818" points="1303.66,206,1312.66,210,1308.66,206,1312.66,202,1303.66,206" style="stroke:#181818;stroke-width:1;"/></g><!--link LibraryBookListSearchServlet to ServletUtils--><g class="link" data-entity-1="LibraryBookListSearchServlet" data-entity-2="ServletUtils" data-source-line="69" data-uid="lnk55" id="link_LibraryBookListSearchServlet_ServletUtils"><path d="M1695.7,80.26 C1695.7,88.82 1695.7,97 1695.7,97 C1695.7,97 1420.5,97 1420.5,97 C1420.5,97 1420.5,144.27 1420.5,173.81" fill="none" id="LibraryBookListSearchServlet-to-ServletUtils" style="stroke:#181818;stroke-width:1;"/><polygon fill="#181818" points="1420.5,179.81,1424.5,170.81,1420.5,174.81,1416.5,170.81,1420.5,179.81" style="stroke:#181818;stroke-width:1;"/></g><!--link LibraryBookListSearchServlet to StringUtils--><g class="link" data-entity-1="LibraryBookListSearchServlet" data-entity-2="StringUtils" data-source-line="70" data-uid="lnk56" id="link_LibraryBookListSearchServlet_StringUtils"><path d="M1704.9,80.17 C1704.9,191.61 1704.9,751 1704.9,751 C1704.9,751 1462.97,751 1361.76,751" fill="none" id="LibraryBookListSearchServlet-to-StringUtils" style="stroke:#181818;stroke-width:1;"/><polygon fill="#181818" points="1355.76,751,1364.76,755,1360.76,751,1364.76,747,1355.76,751" style="stroke:#181818;stroke-width:1;"/></g><!--link LibraryBookListSearchServlet to LibraryUtils--><g class="link" data-entity-1="LibraryBookListSearchServlet" data-entity-2="LibraryUtils" data-source-line="71" data-uid="lnk57" id="link_LibraryBookListSearchServlet_LibraryUtils"><path d="M1691.1,80.14 C1691.1,85.06 1691.1,89 1691.1,89 C1691.1,89 1273.5,89 1273.5,89 C1273.5,89 1273.5,142.32 1273.5,173.84" fill="none" id="LibraryBookListSearchServlet-to-LibraryUtils" style="stroke:#181818;stroke-width:1;"/><polygon fill="#181818" points="1273.5,179.84,1277.5,170.84,1273.5,174.84,1269.5,170.84,1273.5,179.84" style="stroke:#181818;stroke-width:1;"/></g><!--link LibraryBookListSearchServlet to Book--><g class="link" data-entity-1="LibraryBookListSearchServlet" data-entity-2="Book" data-source-line="72" data-uid="lnk58" id="link_LibraryBookListSearchServlet_Book"><path d="M1700.3,80.24 C1700.3,178.54 1700.3,620 1700.3,620 C1700.3,620 1629.45,620 1587.72,620" fill="none" id="LibraryBookListSearchServlet-to-Book" style="stroke:#181818;stroke-width:1;"/><polygon fill="#181818" points="1581.72,620,1590.72,624,1586.72,620,1590.72,616,1581.72,620" style="stroke:#181818;stroke-width:1;"/></g><!--link LibraryBorrowerListSearchServlet to ServletUtils--><g class="link" data-entity-1="LibraryBorrowerListSearchServlet" data-entity-2="ServletUtils" data-source-line="73" data-uid="lnk59" id="link_LibraryBorrowerListSearchServlet_ServletUtils"><path d="M548.67,80.37 C548.67,110.21 548.67,164 548.67,164 C548.67,164 1382,164 1382,164 C1382,164 1382,165.69 1382,173.86" fill="none" id="LibraryBorrowerListSearchServlet-to-ServletUtils" style="stroke:#181818;stroke-width:1;"/><polygon fill="#181818" points="1382,179.86,1386,170.86,1382,174.86,1378,170.86,1382,179.86" style="stroke:#181818;stroke-width:1;"/></g><!--link LibraryBorrowerListSearchServlet to StringUtils--><g class="link" data-entity-1="LibraryBorrowerListSearchServlet" data-entity-2="StringUtils" data-source-line="74" data-uid="lnk60" id="link_LibraryBorrowerListSearchServlet_StringUtils"><path d="M472.33,80 C472.33,191.71 472.33,758 472.33,758 C472.33,758 1095.35,758 1265.5,758" fill="none" id="LibraryBorrowerListSearchServlet-to-StringUtils" style="stroke:#181818;stroke-width:1;"/><polygon fill="#181818" points="1271.5,758,1262.5,754,1266.5,758,1262.5,762,1271.5,758" style="stroke:#181818;stroke-width:1;"/></g><!--link LibraryBorrowerListSearchServlet to LibraryUtils--><g class="link" data-entity-1="LibraryBorrowerListSearchServlet" data-entity-2="LibraryUtils" data-source-line="75" data-uid="lnk61" id="link_LibraryBorrowerListSearchServlet_LibraryUtils"><path d="M586.83,80.15 C586.83,118.91 586.83,203 586.83,203 C586.83,203 1056.79,203 1207.39,203" fill="none" id="LibraryBorrowerListSearchServlet-to-LibraryUtils" style="stroke:#181818;stroke-width:1;"/><polygon fill="#181818" points="1213.39,203,1204.39,199,1208.39,203,1204.39,207,1213.39,203" style="stroke:#181818;stroke-width:1;"/></g><!--link LibraryBorrowerListSearchServlet to Borrower--><g class="link" data-entity-1="LibraryBorrowerListSearchServlet" data-entity-2="Borrower" data-source-line="76" data-uid="lnk62" id="link_LibraryBorrowerListSearchServlet_Borrower"><path d="M510.5,80 C510.5,177.06 510.5,613 510.5,613 C510.5,613 1108.37,613 1268.77,613" fill="none" id="LibraryBorrowerListSearchServlet-to-Borrower" style="stroke:#181818;stroke-width:1;"/><polygon fill="#181818" points="1274.77,613,1265.77,609,1269.77,613,1265.77,617,1274.77,613" style="stroke:#181818;stroke-width:1;"/></g><!--link LibraryLendServlet to ServletUtils--><g class="link" data-entity-1="LibraryLendServlet" data-entity-2="ServletUtils" data-source-line="77" data-uid="lnk63" id="link_LibraryLendServlet_ServletUtils"><path d="M1334.25,80.19 C1334.25,116.8 1334.25,193 1334.25,193 C1334.25,193 1342.14,193 1357.99,193" fill="none" id="LibraryLendServlet-to-ServletUtils" style="stroke:#181818;stroke-width:1;"/><polygon fill="#181818" points="1363.99,193,1354.99,189,1358.99,193,1354.99,197,1363.99,193" style="stroke:#181818;stroke-width:1;"/></g><!--link LibraryLendServlet to StringUtils--><g class="link" data-entity-1="LibraryLendServlet" data-entity-2="StringUtils" data-source-line="78" data-uid="lnk64" id="link_LibraryLendServlet_StringUtils"><path d="M1210.47,61 C1193.71,61 1180.5,61 1180.5,61 C1180.5,61 1180.5,739 1180.5,739 C1180.5,739 1226.45,739 1265.42,739" fill="none" id="LibraryLendServlet-to-StringUtils" style="stroke:#181818;stroke-width:1;"/><polygon fill="#181818" points="1271.42,739,1262.42,735,1266.42,739,1262.42,743,1271.42,739" style="stroke:#181818;stroke-width:1;"/></g><!--link LibraryLendServlet to LibraryUtils--><g class="link" data-entity-1="LibraryLendServlet" data-entity-2="LibraryUtils" data-source-line="79" data-uid="lnk65" id="link_LibraryLendServlet_LibraryUtils"><path d="M1243.5,80.19 C1243.5,106.55 1243.5,147.7 1243.5,173.97" fill="none" id="LibraryLendServlet-to-LibraryUtils" style="stroke:#181818;stroke-width:1;"/><polygon fill="#181818" points="1243.5,179.97,1247.5,170.97,1243.5,174.97,1239.5,170.97,1243.5,179.97" style="stroke:#181818;stroke-width:1;"/></g><!--link LibraryRegisterBookServlet to ServletUtils--><g class="link" data-entity-1="LibraryRegisterBookServlet" data-entity-2="ServletUtils" data-source-line="80" data-uid="lnk66" id="link_LibraryRegisterBookServlet_ServletUtils"><path d="M1055.5,80.09 C1055.5,105.42 1055.5,147 1055.5,147 C1055.5,147 1400,147 1400,147 C1400,147 1400,159.09 1400,173.93" fill="none" id="LibraryRegisterBookServlet-to-ServletUtils" style="stroke:#181818;stroke-width:1;"/><polygon fill="#181818" points="1400,179.93,1404,170.93,1400,174.93,1396,170.93,1400,179.93" style="stroke:#181818;stroke-width:1;"/></g><!--link LibraryRegisterBookServlet to StringUtils--><g class="link" data-entity-1="LibraryRegisterBookServlet" data-entity-2="StringUtils" data-source-line="81" data-uid="lnk67" id="link_LibraryRegisterBookServlet_StringUtils"><path d="M1008,80.01 C1008,190.48 1008,745 1008,745 C1008,745 1181.54,745 1265.34,745" fill="none" id="LibraryRegisterBookServlet-to-StringUtils" style="stroke:#181818;stroke-width:1;"/><polygon fill="#181818" points="1271.34,745,1262.34,741,1266.34,745,1262.34,749,1271.34,745" style="stroke:#181818;stroke-width:1;"/></g><!--link LibraryRegisterBookServlet to LibraryUtils--><g class="link" data-entity-1="LibraryRegisterBookServlet" data-entity-2="LibraryUtils" data-source-line="82" data-uid="lnk68" id="link_LibraryRegisterBookServlet_LibraryUtils"><path d="M1103,80.01 C1103,115.44 1103,188 1103,188 C1103,188 1161.21,188 1207.1,188" fill="none" id="LibraryRegisterBookServlet-to-LibraryUtils" style="stroke:#181818;stroke-width:1;"/><polygon fill="#181818" points="1213.1,188,1204.1,184,1208.1,188,1204.1,192,1213.1,188" style="stroke:#181818;stroke-width:1;"/></g><!--link LibraryRegisterBorrowerServlet to ServletUtils--><g class="link" data-entity-1="LibraryRegisterBorrowerServlet" data-entity-2="ServletUtils" data-source-line="83" data-uid="lnk69" id="link_LibraryRegisterBorrowerServlet_ServletUtils"><path d="M792.5,80.02 C792.5,107.49 792.5,155 792.5,155 C792.5,155 1391,155 1391,155 C1391,155 1391,161.97 1391,173.83" fill="none" id="LibraryRegisterBorrowerServlet-to-ServletUtils" style="stroke:#181818;stroke-width:1;"/><polygon fill="#181818" points="1391,179.83,1395,170.83,1391,174.83,1387,170.83,1391,179.83" style="stroke:#181818;stroke-width:1;"/></g><!--link LibraryRegisterBorrowerServlet to StringUtils--><g class="link" data-entity-1="LibraryRegisterBorrowerServlet" data-entity-2="StringUtils" data-source-line="84" data-uid="lnk70" id="link_LibraryRegisterBorrowerServlet_StringUtils"><path d="M738.75,80.17 C738.75,191.61 738.75,751 738.75,751 C738.75,751 1132.51,751 1265.24,751" fill="none" id="LibraryRegisterBorrowerServlet-to-StringUtils" style="stroke:#181818;stroke-width:1;"/><polygon fill="#181818" points="1271.24,751,1262.24,747,1266.24,751,1262.24,755,1271.24,751" style="stroke:#181818;stroke-width:1;"/></g><!--link LibraryRegisterBorrowerServlet to LibraryUtils--><g class="link" data-entity-1="LibraryRegisterBorrowerServlet" data-entity-2="LibraryUtils" data-source-line="85" data-uid="lnk71" id="link_LibraryRegisterBorrowerServlet_LibraryUtils"><path d="M846.25,80.06 C846.25,117.27 846.25,196 846.25,196 C846.25,196 1100.11,196 1207.2,196" fill="none" id="LibraryRegisterBorrowerServlet-to-LibraryUtils" style="stroke:#181818;stroke-width:1;"/><polygon fill="#181818" points="1213.2,196,1204.2,192,1208.2,196,1204.2,200,1213.2,196" style="stroke:#181818;stroke-width:1;"/></g><!--link LibraryUtils to PersistenceLayer--><g class="link" data-entity-1="LibraryUtils" data-entity-2="PersistenceLayer" data-source-line="86" data-uid="lnk72" id="link_LibraryUtils_PersistenceLayer"><path d="M1297.8,218.19 C1297.8,254.8 1297.8,331 1297.8,331 C1297.8,331 1409.15,331 1485.47,331" fill="none" id="LibraryUtils-to-PersistenceLayer" style="stroke:#181818;stroke-width:1;"/><polygon fill="#181818" points="1491.47,331,1482.47,327,1486.47,331,1482.47,335,1491.47,331" style="stroke:#181818;stroke-width:1;"/></g><!--link LibraryUtils to Book--><g class="link" data-entity-1="LibraryUtils" data-entity-2="Book" data-source-line="87" data-uid="lnk73" id="link_LibraryUtils_Book"><path d="M1286.4,218.04 C1286.4,290.37 1286.4,544 1286.4,544 C1286.4,544 1547,544 1547,544 C1547,544 1547,567.36 1547,587.78" fill="none" id="LibraryUtils-to-Book" style="stroke:#181818;stroke-width:2;"/><polygon fill="#181818" points="1547,593.78,1551,584.78,1547,588.78,1543,584.78,1547,593.78" style="stroke:#181818;stroke-width:2;"/></g><!--link LibraryUtils to Borrower--><g class="link" data-entity-1="LibraryUtils" data-entity-2="Borrower" data-source-line="88" data-uid="lnk74" id="link_LibraryUtils_Borrower"><path d="M1280.7,218.14 C1280.7,287.31 1280.7,517.97 1280.7,587.59" fill="none" id="LibraryUtils-to-Borrower" style="stroke:#181818;stroke-width:2;"/><polygon fill="#181818" points="1280.7,593.59,1284.7,584.59,1280.7,588.59,1276.7,584.59,1280.7,593.59" style="stroke:#181818;stroke-width:2;"/></g><!--link LibraryUtils to Loan--><g class="link" data-entity-1="LibraryUtils" data-entity-2="Loan" data-source-line="89" data-uid="lnk75" id="link_LibraryUtils_Loan"><path d="M1292.1,218.1 C1292.1,269.35 1292.1,406 1292.1,406 C1292.1,406 1547,406 1547,406 C1547,406 1547,429.36 1547,449.78" fill="none" id="LibraryUtils-to-Loan" style="stroke:#181818;stroke-width:1;"/><polygon fill="#181818" points="1547,455.78,1551,446.78,1547,450.78,1543,446.78,1547,455.78" style="stroke:#181818;stroke-width:1;"/></g><!--link Book to StringUtils--><g class="link" data-entity-1="Book" data-entity-2="StringUtils" data-source-line="90" data-uid="lnk76" id="link_Book_StringUtils"><path d="M1555.5,632.19 C1555.5,668.8 1555.5,745 1555.5,745 C1555.5,745 1430.99,745 1361.65,745" fill="none" id="Book-to-StringUtils" style="stroke:#181818;stroke-width:1;"/><polygon fill="#181818" points="1355.65,745,1364.65,749,1360.65,745,1364.65,741,1355.65,745" style="stroke:#181818;stroke-width:1;"/></g><!--link Borrower to StringUtils--><g class="link" data-entity-1="Borrower" data-entity-2="StringUtils" data-source-line="91" data-uid="lnk77" id="link_Borrower_StringUtils"><path d="M1313.5,632.19 C1313.5,658.55 1313.5,699.7 1313.5,725.97" fill="none" id="Borrower-to-StringUtils" style="stroke:#181818;stroke-width:1;"/><polygon fill="#181818" points="1313.5,731.97,1317.5,722.97,1313.5,726.97,1309.5,722.97,1313.5,731.97" style="stroke:#181818;stroke-width:1;"/></g><!--link Loan to Book--><g class="link" data-entity-1="Loan" data-entity-2="Book" data-source-line="92" data-uid="lnk78" id="link_Loan_Book"><path d="M1564,494.19 C1564,520.55 1564,561.7 1564,587.97" fill="none" id="Loan-to-Book" style="stroke:#181818;stroke-width:1;"/><polygon fill="#181818" points="1564,593.97,1568,584.97,1564,588.97,1560,584.97,1564,593.97" style="stroke:#181818;stroke-width:1;"/></g><!--link Loan to Borrower--><g class="link" data-entity-1="Loan" data-entity-2="Borrower" data-source-line="93" data-uid="lnk79" id="link_Loan_Borrower"><path d="M1529.69,485 C1525.18,485 1521.9,485 1521.9,485 C1521.9,485 1521.9,620 1521.9,620 C1521.9,620 1418.48,620 1358.21,620" fill="none" id="Loan-to-Borrower" style="stroke:#181818;stroke-width:1;"/><polygon fill="#181818" points="1352.21,620,1361.21,624,1357.21,620,1361.21,616,1352.21,620" style="stroke:#181818;stroke-width:1;"/></g><!--link AckServlet to ServletUtils--><g class="link" data-entity-1="AckServlet" data-entity-2="ServletUtils" data-source-line="94" data-uid="lnk80" id="link_AckServlet_ServletUtils"><path d="M2557,80.22 C2557,100.64 2557,130 2557,130 C2557,130 1443.5,130 1443.5,130 C1443.5,130 1443.5,153.36 1443.5,173.78" fill="none" id="AckServlet-to-ServletUtils" style="stroke:#181818;stroke-width:1;"/><polygon fill="#181818" points="1443.5,179.78,1447.5,170.78,1443.5,174.78,1439.5,170.78,1443.5,179.78" style="stroke:#181818;stroke-width:1;"/><text fill="#000000" font-family="Helvetica" font-size="13" lengthAdjust="spacing" textLength="7.23" x="1992.25" y="126.4951">1</text></g><!--link AckServlet to Ackermann--><g class="link" data-entity-1="AckServlet" data-entity-2="Ackermann" data-source-line="95" data-uid="lnk81" id="link_AckServlet_Ackermann"><path d="M2586,80.19 C2586,106.55 2586,147.7 2586,173.97" fill="none" id="AckServlet-to-Ackermann" style="stroke:#181818;stroke-width:1;"/><polygon fill="#181818" points="2586,179.97,2590,170.97,2586,174.97,2582,170.97,2586,179.97" style="stroke:#181818;stroke-width:1;"/></g><!--link FibServlet to Fibonacci--><g class="link" data-entity-1="FibServlet" data-entity-2="Fibonacci" data-source-line="96" data-uid="lnk82" id="link_FibServlet_Fibonacci"><path d="M2849.67,80.19 C2849.67,106.55 2849.67,147.7 2849.67,173.97" fill="none" id="FibServlet-to-Fibonacci" style="stroke:#181818;stroke-width:1;"/><polygon fill="#181818" points="2849.67,179.97,2853.67,170.97,2849.67,174.97,2845.67,170.97,2849.67,179.97" style="stroke:#181818;stroke-width:1;"/></g><!--link FibServlet to ServletUtils--><g class="link" data-entity-1="FibServlet" data-entity-2="ServletUtils" data-source-line="97" data-uid="lnk83" id="link_FibServlet_ServletUtils"><path d="M2823.83,80.28 C2823.83,103.38 2823.83,139 2823.83,139 C2823.83,139 1449.25,139 1449.25,139 C1449.25,139 1449.25,156.15 1449.25,173.69" fill="none" id="FibServlet-to-ServletUtils" style="stroke:#181818;stroke-width:1;"/><polygon fill="#181818" points="1449.25,179.69,1453.25,170.69,1449.25,174.69,1445.25,170.69,1449.25,179.69" style="stroke:#181818;stroke-width:1;"/><text fill="#000000" font-family="Helvetica" font-size="13" lengthAdjust="spacing" textLength="7.23" x="2137.56" y="135.4951">1</text></g><!--link FibServlet to FibonacciIterative--><g class="link" data-entity-1="FibServlet" data-entity-2="FibonacciIterative" data-source-line="98" data-uid="lnk84" id="link_FibServlet_FibonacciIterative"><path d="M2881.16,61 C2913.9,61 2954,61 2954,61 C2954,61 2954,135.89 2954,173.81" fill="none" id="FibServlet-to-FibonacciIterative" style="stroke:#181818;stroke-width:1;"/><polygon fill="#181818" points="2954,179.81,2958,170.81,2954,174.81,2950,170.81,2954,179.81" style="stroke:#181818;stroke-width:1;"/></g><!--link MathServlet to ServletUtils--><g class="link" data-entity-1="MathServlet" data-entity-2="ServletUtils" data-source-line="99" data-uid="lnk85" id="link_MathServlet_ServletUtils"><path d="M2406.67,80.3 C2406.67,98.17 2406.67,122 2406.67,122 C2406.67,122 1437.75,122 1437.75,122 C1437.75,122 1437.75,151.16 1437.75,173.97" fill="none" id="MathServlet-to-ServletUtils" style="stroke:#181818;stroke-width:1;"/><polygon fill="#181818" points="1437.75,179.97,1441.75,170.97,1437.75,174.97,1433.75,170.97,1437.75,179.97" style="stroke:#181818;stroke-width:1;"/><text fill="#000000" font-family="Helvetica" font-size="13" lengthAdjust="spacing" textLength="7.23" x="1906.07" y="118.4951">1</text></g><!--link MathServlet to Calculator--><g class="link" data-entity-1="MathServlet" data-entity-2="Calculator" data-source-line="100" data-uid="lnk86" id="link_MathServlet_Calculator"><path d="M2434.33,80.19 C2434.33,106.55 2434.33,147.7 2434.33,173.97" fill="none" id="MathServlet-to-Calculator" style="stroke:#181818;stroke-width:1;"/><polygon fill="#181818" points="2434.33,179.97,2438.33,170.97,2434.33,174.97,2430.33,170.97,2434.33,179.97" style="stroke:#181818;stroke-width:1;"/></g><!--link DbServlet to PersistenceLayer--><g class="link" data-entity-1="DbServlet" data-entity-2="PersistenceLayer" data-source-line="101" data-uid="lnk87" id="link_DbServlet_PersistenceLayer"><path d="M2149.5,80.41 C2149.5,143.23 2149.5,337 2149.5,337 C2149.5,337 1779.23,337 1625.63,337" fill="none" id="DbServlet-to-PersistenceLayer" style="stroke:#181818;stroke-width:1;"/><polygon fill="#181818" points="1619.63,337,1628.63,341,1624.63,337,1628.63,333,1619.63,337" style="stroke:#181818;stroke-width:1;"/></g><!--link DbServlet to ServletUtils--><g class="link" data-entity-1="DbServlet" data-entity-2="ServletUtils" data-source-line="102" data-uid="lnk88" id="link_DbServlet_ServletUtils"><path d="M2129.25,80.13 C2129.25,95.32 2129.25,114 2129.25,114 C2129.25,114 1432,114 1432,114 C1432,114 1432,148.63 1432,173.71" fill="none" id="DbServlet-to-ServletUtils" style="stroke:#181818;stroke-width:1;"/><polygon fill="#181818" points="1432,179.71,1436,170.71,1432,174.71,1428,170.71,1432,179.71" style="stroke:#181818;stroke-width:1;"/></g><!--link DbServlet to StringUtils--><g class="link" data-entity-1="DbServlet" data-entity-2="StringUtils" data-source-line="103" data-uid="lnk89" id="link_DbServlet_StringUtils"><path d="M2169.75,80.17 C2169.75,192.84 2169.75,764 2169.75,764 C2169.75,764 1534.01,764 1361.67,764" fill="none" id="DbServlet-to-StringUtils" style="stroke:#181818;stroke-width:1;"/><polygon fill="#181818" points="1355.67,764,1364.67,768,1360.67,764,1364.67,760,1355.67,764" style="stroke:#181818;stroke-width:1;"/></g><!--link PersistenceLayer to SqlData--><g class="link" data-entity-1="PersistenceLayer" data-entity-2="SqlData" data-source-line="104" data-uid="lnk90" id="link_PersistenceLayer_SqlData"><path d="M1606.83,356.19 C1606.83,394.11 1606.83,475 1606.83,475 C1606.83,475 1703.62,475 1759.43,475" fill="none" id="PersistenceLayer-to-SqlData" style="stroke:#181818;stroke-width:3;"/><polygon fill="#181818" points="1765.43,475,1756.43,471,1760.43,475,1756.43,479,1765.43,475" style="stroke:#181818;stroke-width:3;"/></g><!--link PersistenceLayer to CheckUtils--><g class="link" data-entity-1="PersistenceLayer" data-entity-2="CheckUtils" data-source-line="105" data-uid="lnk91" id="link_PersistenceLayer_CheckUtils"><path d="M1499.1,356.19 C1499.1,394.11 1499.1,475 1499.1,475 C1499.1,475 1452.79,475 1413.15,475" fill="none" id="PersistenceLayer-to-CheckUtils" style="stroke:#181818;stroke-width:2;"/><polygon fill="#181818" points="1407.15,475,1416.15,479,1412.15,475,1416.15,471,1407.15,475" style="stroke:#181818;stroke-width:2;"/></g><!--link PersistenceLayer to Book--><g class="link" data-entity-1="PersistenceLayer" data-entity-2="Book" data-source-line="106" data-uid="lnk92" id="link_PersistenceLayer_Book"><path d="M1594.17,356.42 C1594.17,418.33 1594.17,607 1594.17,607 C1594.17,607 1594.5,607 1587.51,607" fill="none" id="PersistenceLayer-to-Book" style="stroke:#181818;stroke-width:1;"/><polygon fill="#181818" points="1581.51,607,1590.51,611,1586.51,607,1590.51,603,1581.51,607" style="stroke:#181818;stroke-width:1;"/></g><!--link PersistenceLayer to Borrower--><g class="link" data-entity-1="PersistenceLayer" data-entity-2="Borrower" data-source-line="107" data-uid="lnk93" id="link_PersistenceLayer_Borrower"><path d="M1506.7,356.42 C1506.7,418.33 1506.7,607 1506.7,607 C1506.7,607 1414.51,607 1358.13,607" fill="none" id="PersistenceLayer-to-Borrower" style="stroke:#181818;stroke-width:1;"/><polygon fill="#181818" points="1352.13,607,1361.13,611,1357.13,607,1361.13,603,1352.13,607" style="stroke:#181818;stroke-width:1;"/></g><!--link PersistenceLayer to StringUtils--><g class="link" data-entity-1="PersistenceLayer" data-entity-2="StringUtils" data-source-line="108" data-uid="lnk94" id="link_PersistenceLayer_StringUtils"><path d="M1514.3,356.12 C1514.3,436.01 1514.3,739 1514.3,739 C1514.3,739 1420.48,739 1361.59,739" fill="none" id="PersistenceLayer-to-StringUtils" style="stroke:#181818;stroke-width:2;"/><polygon fill="#181818" points="1355.59,739,1364.59,743,1360.59,739,1364.59,735,1355.59,739" style="stroke:#181818;stroke-width:2;"/></g><!--link PersistenceLayer to Loan--><g class="link" data-entity-1="PersistenceLayer" data-entity-2="Loan" data-source-line="109" data-uid="lnk95" id="link_PersistenceLayer_Loan"><path d="M1564,356.19 C1564,382.55 1564,423.7 1564,449.97" fill="none" id="PersistenceLayer-to-Loan" style="stroke:#181818;stroke-width:1;"/><polygon fill="#181818" points="1564,455.97,1568,446.97,1564,450.97,1560,446.97,1564,455.97" style="stroke:#181818;stroke-width:1;"/></g><!--link SqlData to ParameterObject--><g class="link" data-entity-1="SqlData" data-entity-2="ParameterObject" data-source-line="110" data-uid="lnk96" id="link_SqlData_ParameterObject"><path d="M1800.5,494.19 C1800.5,520.55 1800.5,561.7 1800.5,587.97" fill="none" id="SqlData-to-ParameterObject" style="stroke:#181818;stroke-width:1;"/><polygon fill="#181818" points="1800.5,593.97,1804.5,584.97,1800.5,588.97,1796.5,584.97,1800.5,593.97" style="stroke:#181818;stroke-width:1;"/></g><!--SRC=[fLTBRnCn4BxxLrZbN2aFYKDLAj565KY1LYsS44BEPaZCRktWTLDLYF-EDxjPZxD-hKWEYMU_RrwUzOphaeiTK-o9hk4dUwxqhHJwCti2-W6gFMXUCBBbQw2NbpkfzDKLgNl6ZXKbsy2r-Tae-IpMDxAIYhvP73u8gA3GJ6og36Z51UZN7L1ZR2lH0o7NKCEElfrWnKoKZN0wcP3E6tfc7cckkHIpiwC1-eTGwmKzCrzMq_kxXoy_BBeFiNVBuJp0XjSQr2EeVGNweE545YCgrXZvgdbL8ogI-idthAvVf5e_G6qsftNR4QLj8kfGtDF_4ay69wCoE4bay7rHukJPfH_-YUajngDrK3-e9oR4KNsxyeDlM5KyLqnBTK3RPJmZyr4PcISoSijNE4Ax3CAbO4N1Z-XsbG1_D0LgTdmFBgiNnmEUZWfucWXuuSIxY8Uxv2l5rEkrbENIbEtxFUCLMrM0LIGmMOeVWQbY6z7g018gbP8le19g0w2ewYM8jKSP4aVfnwEgYScZnlCuKrqRIrIb0mcebHik72L84FN47gbO4B622FtI3-_CMm8M1CvhK7KJjIXWoLwXFLnEXG5hlwi5qwmrrFuF75rRA4hhb5s6WcQY2vU9K9SntHJCNjsjVXbfrsOScP_ObCi1tVm9GThjxs3j8f01hRZOe7JRDJwadD8u_wQtl2W5rFMxwVVpAxIf2I3Up1JKEa9GqGnmfniT1Tjz8wTpn00xc1R6KTfUd-RWX5_GQGO1ln2MWSUQP98CRvR5S-QU70PwCoxeF8VXILggmoJgQYmR7s8aseT66KvHSO6FOlw7lmsC97jYPfZvT5-esMn_kDdq8vHukdTMe772CBGetXUCRn38yYoFEFGmYnVtr9qlHdgR8iSyJd1zNcTtZX1yTlhg125kgGKCDqC1ENJlQEXzuqxqHZDX1DxpmAFEINGPJ3UP6BY_zX5qcngW-bjG53KmdAMolrWHV6DDAu-YxVsKBC8-3AfeaHTS58VsTz2wCNf-GBU3QnmvEnb_ec1RGZcmhfpIvhF3ic_9SIZtJ2REgFmF]--></g></svg>