<svg xmlns="http://www.w3.org/2000/svg" xmlns:xlink="http://www.w3.org/1999/xlink" contentStyleType="text/css" data-diagram-type="DESCRIPTION" height="517px" preserveAspectRatio="none" style="width:4367px;height:517px;background:#FFFFFF;" version="1.1" viewBox="0 0 4367 517" width="4367px" zoomAndPan="magnify"><defs/><g><!--cluster partition0--><g class="cluster" data-entity="partition0" data-source-line="8" data-uid="ent0002" id="cluster_partition0"><path d="M2022.5,6 L2087.2793,6 A3.75,3.75 0 0 1 2089.7793,8.5 L2096.7793,29.6094 L4357.5,29.6094 A2.5,2.5 0 0 1 4360,32.1094 L4360,507.5 A2.5,2.5 0 0 1 4357.5,510 L2022.5,510 A2.5,2.5 0 0 1 2020,507.5 L2020,8.5 A2.5,2.5 0 0 1 2022.5,6" fill="#DDDDDD" style="stroke:#000000;stroke-width:1.5;"/><line style="stroke:#000000;stroke-width:1.5;" x1="2020" x2="2096.7793" y1="29.6094" y2="29.6094"/><text fill="#000000" font-family="Helvetica" font-size="14" font-weight="bold" lengthAdjust="spacing" textLength="63.7793" x="2024" y="22.5332">partition0</text></g><!--cluster partition1--><g class="cluster" data-entity="partition1" data-source-line="23" data-uid="ent0015" id="cluster_partition1"><path d="M8.5,6 L73.2793,6 A3.75,3.75 0 0 1 75.7793,8.5 L82.7793,29.6094 L947.5,29.6094 A2.5,2.5 0 0 1 950,32.1094 L950,369.5 A2.5,2.5 0 0 1 947.5,372 L8.5,372 A2.5,2.5 0 0 1 6,369.5 L6,8.5 A2.5,2.5 0 0 1 8.5,6" fill="#DDDDDD" style="stroke:#000000;stroke-width:1.5;"/><line style="stroke:#000000;stroke-width:1.5;" x1="6" x2="82.7793" y1="29.6094" y2="29.6094"/><text fill="#000000" font-family="Helvetica" font-size="14" font-weight="bold" lengthAdjust="spacing" textLength="63.7793" x="10" y="22.5332">partition1</text></g><!--cluster partition2--><g class="cluster" data-entity="partition2" data-source-line="36" data-uid="ent0026" id="cluster_partition2"><path d="M978.5,6 L1043.2793,6 A3.75,3.75 0 0 1 1045.7793,8.5 L1052.7793,29.6094 L1281.5,29.6094 A2.5,2.5 0 0 1 1284,32.1094 L1284,231.5 A2.5,2.5 0 0 1 1281.5,234 L978.5,234 A2.5,2.5 0 0 1 976,231.5 L976,8.5 A2.5,2.5 0 0 1 978.5,6" fill="#DDDDDD" style="stroke:#000000;stroke-width:1.5;"/><line style="stroke:#000000;stroke-width:1.5;" x1="976" x2="1052.7793" y1="29.6094" y2="29.6094"/><text fill="#000000" font-family="Helvetica" font-size="14" font-weight="bold" lengthAdjust="spacing" textLength="63.7793" x="980" y="22.5332">partition2</text></g><!--cluster partition3--><g class="cluster" data-entity="partition3" data-source-line="42" data-uid="ent0030" id="cluster_partition3"><path d="M976.5,282 L1041.2793,282 A3.75,3.75 0 0 1 1043.7793,284.5 L1050.7793,305.6094 L1993.5,305.6094 A2.5,2.5 0 0 1 1996,308.1094 L1996,507.5 A2.5,2.5 0 0 1 1993.5,510 L976.5,510 A2.5,2.5 0 0 1 974,507.5 L974,284.5 A2.5,2.5 0 0 1 976.5,282" fill="#DDDDDD" style="stroke:#000000;stroke-width:1.5;"/><line style="stroke:#000000;stroke-width:1.5;" x1="974" x2="1050.7793" y1="305.6094" y2="305.6094"/><text fill="#000000" font-family="Helvetica" font-size="14" font-weight="bold" lengthAdjust="spacing" textLength="63.7793" x="978" y="298.5332">partition3</text></g><!--entity PORT_partition0--><!--entity LibraryBookListAvailableServlet_partition0--><g class="entity" data-entity="LibraryBookListAvailableServlet_partition0" data-source-line="10" data-uid="ent0004" id="entity_LibraryBookListAvailableServlet_partition0"><rect fill="#DDDDDD" height="37.6094" rx="2.5" ry="2.5" style="stroke:#181818;stroke-width:0.5;" width="288.6797" x="3596.5" y="42"/><text fill="#000000" font-family="Helvetica" font-size="14" lengthAdjust="spacing" textLength="268.6797" x="3606.5" y="66.5332">LibraryBookListAvailableServlet@partition0</text></g><!--entity LibraryBookListSearchServlet_partition0--><g class="entity" data-entity="LibraryBookListSearchServlet_partition0" data-source-line="11" data-uid="ent0005" id="entity_LibraryBookListSearchServlet_partition0"><rect fill="#DDDDDD" height="37.6094" rx="2.5" ry="2.5" style="stroke:#181818;stroke-width:0.5;" width="276.2246" x="3946" y="42"/><text fill="#000000" font-family="Helvetica" font-size="14" lengthAdjust="spacing" textLength="256.2246" x="3956" y="66.5332">LibraryBookListSearchServlet@partition0</text></g><!--entity LibraryBorrowerListSearchServlet_partition0--><g class="entity" data-entity="LibraryBorrowerListSearchServlet_partition0" data-source-line="12" data-uid="ent0006" id="entity_LibraryBorrowerListSearchServlet_partition0"><rect fill="#DDDDDD" height="37.6094" rx="2.5" ry="2.5" style="stroke:#181818;stroke-width:0.5;" width="301.1074" x="2296.5" y="42"/><text fill="#000000" font-family="Helvetica" font-size="14" lengthAdjust="spacing" textLength="281.1074" x="2306.5" y="66.5332">LibraryBorrowerListSearchServlet@partition0</text></g><!--entity LibraryLendServlet_partition0--><g class="entity" data-entity="LibraryLendServlet_partition0" data-source-line="13" data-uid="ent0007" id="entity_LibraryLendServlet_partition0"><rect fill="#DDDDDD" height="37.6094" rx="2.5" ry="2.5" style="stroke:#181818;stroke-width:0.5;" width="209.3145" x="3327.5" y="42"/><text fill="#000000" font-family="Helvetica" font-size="14" lengthAdjust="spacing" textLength="189.3145" x="3337.5" y="66.5332">LibraryLendServlet@partition0</text></g><!--entity LibraryRegisterBookServlet_partition0--><g class="entity" data-entity="LibraryRegisterBookServlet_partition0" data-source-line="14" data-uid="ent0008" id="entity_LibraryRegisterBookServlet_partition0"><rect fill="#DDDDDD" height="37.6094" rx="2.5" ry="2.5" style="stroke:#181818;stroke-width:0.5;" width="262.2109" x="3005" y="42"/><text fill="#000000" font-family="Helvetica" font-size="14" lengthAdjust="spacing" textLength="242.2109" x="3015" y="66.5332">LibraryRegisterBookServlet@partition0</text></g><!--entity LibraryRegisterBorrowerServlet_partition0--><g class="entity" data-entity="LibraryRegisterBorrowerServlet_partition0" data-source-line="15" data-uid="ent0009" id="entity_LibraryRegisterBorrowerServlet_partition0"><rect fill="#DDDDDD" height="37.6094" rx="2.5" ry="2.5" style="stroke:#181818;stroke-width:0.5;" width="287.0938" x="2657.5" y="42"/><text fill="#000000" font-family="Helvetica" font-size="14" lengthAdjust="spacing" textLength="267.0938" x="2667.5" y="66.5332">LibraryRegisterBorrowerServlet@partition0</text></g><!--entity PersistenceLayer_partition0--><g class="entity" data-entity="PersistenceLayer_partition0" data-source-line="16" data-uid="ent0010" id="entity_PersistenceLayer_partition0"><rect fill="#DDDDDD" height="37.6094" rx="2.5" ry="2.5" style="stroke:#181818;stroke-width:0.5;" width="199.9697" x="2036" y="42"/><text fill="#000000" font-family="Helvetica" font-size="14" lengthAdjust="spacing" textLength="179.9697" x="2046" y="66.5332">PersistenceLayer@partition0</text></g><!--entity LibraryUtils_partition0--><g class="entity" data-entity="LibraryUtils_partition0" data-source-line="17" data-uid="ent0011" id="entity_LibraryUtils_partition0"><rect fill="#DDDDDD" height="37.6094" rx="2.5" ry="2.5" style="stroke:#181818;stroke-width:0.5;" width="161.8184" x="3203" y="180"/><text fill="#000000" font-family="Helvetica" font-size="14" lengthAdjust="spacing" textLength="141.8184" x="3213" y="204.5332">LibraryUtils@partition0</text></g><!--entity Loan_partition0--><g class="entity" data-entity="Loan_partition0" data-source-line="18" data-uid="ent0012" id="entity_Loan_partition0"><rect fill="#DDDDDD" height="37.6094" rx="2.5" ry="2.5" style="stroke:#181818;stroke-width:0.5;" width="122.9492" x="3222.5" y="318"/><text fill="#000000" font-family="Helvetica" font-size="14" lengthAdjust="spacing" textLength="102.9492" x="3232.5" y="342.5332">Loan@partition0</text></g><!--entity Book_partition0--><g class="entity" data-entity="Book_partition0" data-source-line="19" data-uid="ent0013" id="entity_Book_partition0"><rect fill="#DDDDDD" height="37.6094" rx="2.5" ry="2.5" style="stroke:#181818;stroke-width:0.5;" width="123.7148" x="3345" y="456"/><text fill="#000000" font-family="Helvetica" font-size="14" lengthAdjust="spacing" textLength="103.7148" x="3355" y="480.5332">Book@partition0</text></g><!--entity Borrower_partition0--><g class="entity" data-entity="Borrower_partition0" data-source-line="20" data-uid="ent0014" id="entity_Borrower_partition0"><rect fill="#DDDDDD" height="37.6094" rx="2.5" ry="2.5" style="stroke:#181818;stroke-width:0.5;" width="148.5977" x="3086.5" y="456"/><text fill="#000000" font-family="Helvetica" font-size="14" lengthAdjust="spacing" textLength="128.5977" x="3096.5" y="480.5332">Borrower@partition0</text></g><!--entity PORT_partition1--><!--entity LibraryUtils_partition1--><g class="entity" data-entity="LibraryUtils_partition1" data-source-line="25" data-uid="ent0017" id="entity_LibraryUtils_partition1"><rect fill="#DDDDDD" height="37.6094" rx="2.5" ry="2.5" style="stroke:#181818;stroke-width:0.5;" width="161.8184" x="770" y="42"/><text fill="#000000" font-family="Helvetica" font-size="14" lengthAdjust="spacing" textLength="141.8184" x="780" y="66.5332">LibraryUtils@partition1</text></g><!--entity LoginServlet_partition1--><g class="entity" data-entity="LoginServlet_partition1" data-source-line="26" data-uid="ent0018" id="entity_LoginServlet_partition1"><rect fill="#DDDDDD" height="37.6094" rx="2.5" ry="2.5" style="stroke:#181818;stroke-width:0.5;" width="169.6318" x="330" y="42"/><text fill="#000000" font-family="Helvetica" font-size="14" lengthAdjust="spacing" textLength="149.6318" x="340" y="66.5332">LoginServlet@partition1</text></g><!--entity PersistenceLayer_partition1--><g class="entity" data-entity="PersistenceLayer_partition1" data-source-line="27" data-uid="ent0019" id="entity_PersistenceLayer_partition1"><rect fill="#DDDDDD" height="37.6094" rx="2.5" ry="2.5" style="stroke:#181818;stroke-width:0.5;" width="199.9697" x="552" y="180"/><text fill="#000000" font-family="Helvetica" font-size="14" lengthAdjust="spacing" textLength="179.9697" x="562" y="204.5332">PersistenceLayer@partition1</text></g><!--entity RegisterServlet_partition1--><g class="entity" data-entity="RegisterServlet_partition1" data-source-line="28" data-uid="ent0020" id="entity_RegisterServlet_partition1"><rect fill="#DDDDDD" height="37.6094" rx="2.5" ry="2.5" style="stroke:#181818;stroke-width:0.5;" width="187.5078" x="53" y="42"/><text fill="#000000" font-family="Helvetica" font-size="14" lengthAdjust="spacing" textLength="167.5078" x="63" y="66.5332">RegisterServlet@partition1</text></g><!--entity User_partition1--><g class="entity" data-entity="User_partition1" data-source-line="29" data-uid="ent0021" id="entity_User_partition1"><rect fill="#DDDDDD" height="37.6094" rx="2.5" ry="2.5" style="stroke:#181818;stroke-width:0.5;" width="121.3633" x="812.5" y="180"/><text fill="#000000" font-family="Helvetica" font-size="14" lengthAdjust="spacing" textLength="101.3633" x="822.5" y="204.5332">User@partition1</text></g><!--entity LoginUtils_partition1--><g class="entity" data-entity="LoginUtils_partition1" data-source-line="30" data-uid="ent0022" id="entity_LoginUtils_partition1"><rect fill="#DDDDDD" height="37.6094" rx="2.5" ry="2.5" style="stroke:#181818;stroke-width:0.5;" width="153.2803" x="338.5" y="180"/><text fill="#000000" font-family="Helvetica" font-size="14" lengthAdjust="spacing" textLength="133.2803" x="348.5" y="204.5332">LoginUtils@partition1</text></g><!--entity RegistrationUtils_partition1--><g class="entity" data-entity="RegistrationUtils_partition1" data-source-line="31" data-uid="ent0023" id="entity_RegistrationUtils_partition1"><rect fill="#DDDDDD" height="37.6094" rx="2.5" ry="2.5" style="stroke:#181818;stroke-width:0.5;" width="193.7285" x="22" y="180"/><text fill="#000000" font-family="Helvetica" font-size="14" lengthAdjust="spacing" textLength="173.7285" x="32" y="204.5332">RegistrationUtils@partition1</text></g><!--entity PasswordResult_partition1--><g class="entity" data-entity="PasswordResult_partition1" data-source-line="32" data-uid="ent0024" id="entity_PasswordResult_partition1"><rect fill="#DDDDDD" height="37.6094" rx="2.5" ry="2.5" style="stroke:#181818;stroke-width:0.5;" width="192.9561" x="22.5" y="318"/><text fill="#000000" font-family="Helvetica" font-size="14" lengthAdjust="spacing" textLength="172.9561" x="32.5" y="342.5332">PasswordResult@partition1</text></g><!--entity RegistrationResult_partition1--><g class="entity" data-entity="RegistrationResult_partition1" data-source-line="33" data-uid="ent0025" id="entity_RegistrationResult_partition1"><rect fill="#DDDDDD" height="37.6094" rx="2.5" ry="2.5" style="stroke:#181818;stroke-width:0.5;" width="206.1904" x="276" y="318"/><text fill="#000000" font-family="Helvetica" font-size="14" lengthAdjust="spacing" textLength="186.1904" x="286" y="342.5332">RegistrationResult@partition1</text></g><!--entity PORT_partition2--><!--entity DbServlet_partition2--><g class="entity" data-entity="DbServlet_partition2" data-source-line="38" data-uid="ent0028" id="entity_DbServlet_partition2"><rect fill="#DDDDDD" height="37.6094" rx="2.5" ry="2.5" style="stroke:#181818;stroke-width:0.5;" width="153.2734" x="1114.5" y="42"/><text fill="#000000" font-family="Helvetica" font-size="14" lengthAdjust="spacing" textLength="133.2734" x="1124.5" y="66.5332">DbServlet@partition2</text></g><!--entity PersistenceLayer_partition2--><g class="entity" data-entity="PersistenceLayer_partition2" data-source-line="39" data-uid="ent0029" id="entity_PersistenceLayer_partition2"><rect fill="#DDDDDD" height="37.6094" rx="2.5" ry="2.5" style="stroke:#181818;stroke-width:0.5;" width="199.9697" x="994" y="180"/><text fill="#000000" font-family="Helvetica" font-size="14" lengthAdjust="spacing" textLength="179.9697" x="1004" y="204.5332">PersistenceLayer@partition2</text></g><!--entity PORT_partition3--><!--entity AckServlet_partition3--><g class="entity" data-entity="AckServlet_partition3" data-source-line="44" data-uid="ent0032" id="entity_AckServlet_partition3"><rect fill="#DDDDDD" height="37.6094" rx="2.5" ry="2.5" style="stroke:#181818;stroke-width:0.5;" width="158.7148" x="1466.5" y="318"/><text fill="#000000" font-family="Helvetica" font-size="14" lengthAdjust="spacing" textLength="138.7148" x="1476.5" y="342.5332">AckServlet@partition3</text></g><!--entity AlcoholCalculator_partition3--><g class="entity" data-entity="AlcoholCalculator_partition3" data-source-line="45" data-uid="ent0033" id="entity_AlcoholCalculator_partition3"><rect fill="#DDDDDD" height="37.6094" rx="2.5" ry="2.5" style="stroke:#181818;stroke-width:0.5;" width="200.749" x="1205.5" y="318"/><text fill="#000000" font-family="Helvetica" font-size="14" lengthAdjust="spacing" textLength="180.749" x="1215.5" y="342.5332">AlcoholCalculator@partition3</text></g><!--entity DinnerPrices_partition3--><g class="entity" data-entity="DinnerPrices_partition3" data-source-line="46" data-uid="ent0034" id="entity_DinnerPrices_partition3"><rect fill="#DDDDDD" height="37.6094" rx="2.5" ry="2.5" style="stroke:#181818;stroke-width:0.5;" width="171.9424" x="1808" y="318"/><text fill="#000000" font-family="Helvetica" font-size="14" lengthAdjust="spacing" textLength="151.9424" x="1818" y="342.5332">DinnerPrices@partition3</text></g><!--entity FibServlet_partition3--><g class="entity" data-entity="FibServlet_partition3" data-source-line="47" data-uid="ent0035" id="entity_FibServlet_partition3"><rect fill="#DDDDDD" height="37.6094" rx="2.5" ry="2.5" style="stroke:#181818;stroke-width:0.5;" width="154.8252" x="990.5" y="318"/><text fill="#000000" font-family="Helvetica" font-size="14" lengthAdjust="spacing" textLength="134.8252" x="1000.5" y="342.5332">FibServlet@partition3</text></g><!--entity MathServlet_partition3--><g class="entity" data-entity="MathServlet_partition3" data-source-line="48" data-uid="ent0036" id="entity_MathServlet_partition3"><rect fill="#DDDDDD" height="37.6094" rx="2.5" ry="2.5" style="stroke:#181818;stroke-width:0.5;" width="166.501" x="1682.5" y="456"/><text fill="#000000" font-family="Helvetica" font-size="14" lengthAdjust="spacing" textLength="146.501" x="1692.5" y="480.5332">MathServlet@partition3</text></g><!--entity Ackermann_partition3--><g class="entity" data-entity="Ackermann_partition3" data-source-line="49" data-uid="ent0037" id="entity_Ackermann_partition3"><rect fill="#DDDDDD" height="37.6094" rx="2.5" ry="2.5" style="stroke:#181818;stroke-width:0.5;" width="162.6113" x="1459.5" y="456"/><text fill="#000000" font-family="Helvetica" font-size="14" lengthAdjust="spacing" textLength="142.6113" x="1469.5" y="480.5332">Ackermann@partition3</text></g><!--entity AlcoholResult_partition3--><g class="entity" data-entity="AlcoholResult_partition3" data-source-line="50" data-uid="ent0038" id="entity_AlcoholResult_partition3"><rect fill="#DDDDDD" height="37.6094" rx="2.5" ry="2.5" style="stroke:#181818;stroke-width:0.5;" width="177.4043" x="1217.5" y="456"/><text fill="#000000" font-family="Helvetica" font-size="14" lengthAdjust="spacing" textLength="157.4043" x="1227.5" y="480.5332">AlcoholResult@partition3</text></g><!--entity Fibonacci_partition3--><g class="entity" data-entity="Fibonacci_partition3" data-source-line="51" data-uid="ent0039" id="entity_Fibonacci_partition3"><rect fill="#DDDDDD" height="37.6094" rx="2.5" ry="2.5" style="stroke:#181818;stroke-width:0.5;" width="151.7217" x="992" y="456"/><text fill="#000000" font-family="Helvetica" font-size="14" lengthAdjust="spacing" textLength="131.7217" x="1002" y="480.5332">Fibonacci@partition3</text></g><!--link AckServlet_partition3 to Ackermann_partition3--><g class="link" data-entity-1="AckServlet_partition3" data-entity-2="Ackermann_partition3" data-source-line="54" data-uid="lnk40" id="link_AckServlet_partition3_Ackermann_partition3"><path d="M1544.5,356.19 C1544.5,382.55 1544.5,423.7 1544.5,449.97" fill="none" id="AckServlet_partition3-to-Ackermann_partition3" style="stroke:#181818;stroke-width:1;"/><polygon fill="#181818" points="1544.5,455.97,1548.5,446.97,1544.5,450.97,1540.5,446.97,1544.5,455.97" style="stroke:#181818;stroke-width:1;"/></g><!--link AlcoholCalculator_partition3 to AlcoholResult_partition3--><g class="link" data-entity-1="AlcoholCalculator_partition3" data-entity-2="AlcoholResult_partition3" data-source-line="55" data-uid="lnk41" id="link_AlcoholCalculator_partition3_AlcoholResult_partition3"><path d="M1306,356.19 C1306,382.55 1306,423.7 1306,449.97" fill="none" id="AlcoholCalculator_partition3-to-AlcoholResult_partition3" style="stroke:#181818;stroke-width:1;"/><polygon fill="#181818" points="1306,455.97,1310,446.97,1306,450.97,1302,446.97,1306,455.97" style="stroke:#181818;stroke-width:1;"/></g><!--link FibServlet_partition3 to Fibonacci_partition3--><g class="link" data-entity-1="FibServlet_partition3" data-entity-2="Fibonacci_partition3" data-source-line="56" data-uid="lnk42" id="link_FibServlet_partition3_Fibonacci_partition3"><path d="M1068,356.19 C1068,382.55 1068,423.7 1068,449.97" fill="none" id="FibServlet_partition3-to-Fibonacci_partition3" style="stroke:#181818;stroke-width:1;"/><polygon fill="#181818" points="1068,455.97,1072,446.97,1068,450.97,1064,446.97,1068,455.97" style="stroke:#181818;stroke-width:1;"/></g><!--link LibraryBookListAvailableServlet_partition0 to LibraryUtils_partition0--><g class="link" data-entity-1="LibraryBookListAvailableServlet_partition0" data-entity-2="LibraryUtils_partition0" data-source-line="57" data-uid="lnk43" id="link_LibraryBookListAvailableServlet_partition0_LibraryUtils_partition0"><path d="M3741,80.19 C3741,116.8 3741,193 3741,193 C3741,193 3502.5,193 3371.18,193" fill="none" id="LibraryBookListAvailableServlet_partition0-to-LibraryUtils_partition0" style="stroke:#181818;stroke-width:1;"/><polygon fill="#181818" points="3365.18,193,3374.18,197,3370.18,193,3374.18,189,3365.18,193" style="stroke:#181818;stroke-width:1;"/></g><!--link LibraryBookListSearchServlet_partition0 to Book_partition0--><g class="link" data-entity-1="LibraryBookListSearchServlet_partition0" data-entity-2="Book_partition0" data-source-line="58" data-uid="lnk44" id="link_LibraryBookListSearchServlet_partition0_Book_partition0"><path d="M4130,80.14 C4130,161.56 4130,475 4130,475 C4130,475 3650.64,475 3475.27,475" fill="none" id="LibraryBookListSearchServlet_partition0-to-Book_partition0" style="stroke:#181818;stroke-width:2;"/><polygon fill="#181818" points="3469.27,475,3478.27,479,3474.27,475,3478.27,471,3469.27,475" style="stroke:#181818;stroke-width:2;"/></g><!--link LibraryBookListSearchServlet_partition0 to LibraryUtils_partition0--><g class="link" data-entity-1="LibraryBookListSearchServlet_partition0" data-entity-2="LibraryUtils_partition0" data-source-line="59" data-uid="lnk45" id="link_LibraryBookListSearchServlet_partition0_LibraryUtils_partition0"><path d="M4038,80.25 C4038,119.7 4038,206 4038,206 C4038,206 3565.79,206 3371.05,206" fill="none" id="LibraryBookListSearchServlet_partition0-to-LibraryUtils_partition0" style="stroke:#181818;stroke-width:2;"/><polygon fill="#181818" points="3365.05,206,3374.05,210,3370.05,206,3374.05,202,3365.05,206" style="stroke:#181818;stroke-width:2;"/></g><!--link LibraryBorrowerListSearchServlet_partition0 to Borrower_partition0--><g class="link" data-entity-1="LibraryBorrowerListSearchServlet_partition0" data-entity-2="Borrower_partition0" data-source-line="60" data-uid="lnk46" id="link_LibraryBorrowerListSearchServlet_partition0_Borrower_partition0"><path d="M2396.83,80.14 C2396.83,161.56 2396.83,475 2396.83,475 C2396.83,475 2888.05,475 3080.34,475" fill="none" id="LibraryBorrowerListSearchServlet_partition0-to-Borrower_partition0" style="stroke:#181818;stroke-width:2;"/><polygon fill="#181818" points="3086.34,475,3077.34,471,3081.34,475,3077.34,479,3086.34,475" style="stroke:#181818;stroke-width:2;"/></g><!--link LibraryBorrowerListSearchServlet_partition0 to LibraryUtils_partition0--><g class="link" data-entity-1="LibraryBorrowerListSearchServlet_partition0" data-entity-2="LibraryUtils_partition0" data-source-line="61" data-uid="lnk47" id="link_LibraryBorrowerListSearchServlet_partition0_LibraryUtils_partition0"><path d="M2497.17,80.25 C2497.17,119.7 2497.17,206 2497.17,206 C2497.17,206 2995.72,206 3196.76,206" fill="none" id="LibraryBorrowerListSearchServlet_partition0-to-LibraryUtils_partition0" style="stroke:#181818;stroke-width:2;"/><polygon fill="#181818" points="3202.76,206,3193.76,202,3197.76,206,3193.76,210,3202.76,206" style="stroke:#181818;stroke-width:2;"/></g><!--link LibraryLendServlet_partition0 to LibraryUtils_partition0--><g class="link" data-entity-1="LibraryLendServlet_partition0" data-entity-2="LibraryUtils_partition0" data-source-line="62" data-uid="lnk48" id="link_LibraryLendServlet_partition0_LibraryUtils_partition0"><path d="M3346.25,80.19 C3346.25,106.55 3346.25,147.7 3346.25,173.97" fill="none" id="LibraryLendServlet_partition0-to-LibraryUtils_partition0" style="stroke:#181818;stroke-width:1;"/><polygon fill="#181818" points="3346.25,179.97,3350.25,170.97,3346.25,174.97,3342.25,170.97,3346.25,179.97" style="stroke:#181818;stroke-width:1;"/></g><!--link LibraryRegisterBookServlet_partition0 to LibraryUtils_partition0--><g class="link" data-entity-1="LibraryRegisterBookServlet_partition0" data-entity-2="LibraryUtils_partition0" data-source-line="63" data-uid="lnk49" id="link_LibraryRegisterBookServlet_partition0_LibraryUtils_partition0"><path d="M3235,80.19 C3235,106.55 3235,147.7 3235,173.97" fill="none" id="LibraryRegisterBookServlet_partition0-to-LibraryUtils_partition0" style="stroke:#181818;stroke-width:1;"/><polygon fill="#181818" points="3235,179.97,3239,170.97,3235,174.97,3231,170.97,3235,179.97" style="stroke:#181818;stroke-width:1;"/></g><!--link LibraryRegisterBorrowerServlet_partition0 to LibraryUtils_partition0--><g class="link" data-entity-1="LibraryRegisterBorrowerServlet_partition0" data-entity-2="LibraryUtils_partition0" data-source-line="64" data-uid="lnk50" id="link_LibraryRegisterBorrowerServlet_partition0_LibraryUtils_partition0"><path d="M2801,80.19 C2801,116.8 2801,193 2801,193 C2801,193 3059.31,193 3196.88,193" fill="none" id="LibraryRegisterBorrowerServlet_partition0-to-LibraryUtils_partition0" style="stroke:#181818;stroke-width:1;"/><polygon fill="#181818" points="3202.88,193,3193.88,189,3197.88,193,3193.88,197,3202.88,193" style="stroke:#181818;stroke-width:1;"/></g><!--link LibraryUtils_partition0 to Book_partition0--><g class="link" data-entity-1="LibraryUtils_partition0" data-entity-2="Book_partition0" data-source-line="65" data-uid="lnk51" id="link_LibraryUtils_partition0_Book_partition0"><path d="M3358.5,218.41 C3358.5,269.21 3358.5,399.62 3358.5,449.98" fill="none" id="LibraryUtils_partition0-to-Book_partition0" style="stroke:#181818;stroke-width:3;"/><polygon fill="#181818" points="3358.5,455.98,3362.5,446.98,3358.5,450.98,3354.5,446.98,3358.5,455.98" style="stroke:#181818;stroke-width:3;"/></g><!--link LibraryUtils_partition0 to Borrower_partition0--><g class="link" data-entity-1="LibraryUtils_partition0" data-entity-2="Borrower_partition0" data-source-line="66" data-uid="lnk52" id="link_LibraryUtils_partition0_Borrower_partition0"><path d="M3212.75,218.41 C3212.75,269.21 3212.75,399.62 3212.75,449.98" fill="none" id="LibraryUtils_partition0-to-Borrower_partition0" style="stroke:#181818;stroke-width:3;"/><polygon fill="#181818" points="3212.75,455.98,3216.75,446.98,3212.75,450.98,3208.75,446.98,3212.75,455.98" style="stroke:#181818;stroke-width:3;"/></g><!--link LibraryUtils_partition0 to Loan_partition0--><g class="link" data-entity-1="LibraryUtils_partition0" data-entity-2="Loan_partition0" data-source-line="67" data-uid="lnk53" id="link_LibraryUtils_partition0_Loan_partition0"><path d="M3284,218.19 C3284,244.55 3284,285.7 3284,311.97" fill="none" id="LibraryUtils_partition0-to-Loan_partition0" style="stroke:#181818;stroke-width:1;"/><polygon fill="#181818" points="3284,317.97,3288,308.97,3284,312.97,3280,308.97,3284,317.97" style="stroke:#181818;stroke-width:1;"/></g><!--link Loan_partition0 to Book_partition0--><g class="link" data-entity-1="Loan_partition0" data-entity-2="Book_partition0" data-source-line="68" data-uid="lnk54" id="link_Loan_partition0_Book_partition0"><path d="M3345.72,337 C3349.61,337 3352,337 3352,337 C3352,337 3352,411.89 3352,449.81" fill="none" id="Loan_partition0-to-Book_partition0" style="stroke:#181818;stroke-width:1;"/><polygon fill="#181818" points="3352,455.81,3356,446.81,3352,450.81,3348,446.81,3352,455.81" style="stroke:#181818;stroke-width:1;"/></g><!--link Loan_partition0 to Borrower_partition0--><g class="link" data-entity-1="Loan_partition0" data-entity-2="Borrower_partition0" data-source-line="69" data-uid="lnk55" id="link_Loan_partition0_Borrower_partition0"><path d="M3229,356.19 C3229,382.55 3229,423.7 3229,449.97" fill="none" id="Loan_partition0-to-Borrower_partition0" style="stroke:#181818;stroke-width:1;"/><polygon fill="#181818" points="3229,455.97,3233,446.97,3229,450.97,3225,446.97,3229,455.97" style="stroke:#181818;stroke-width:1;"/></g><!--link LoginServlet_partition1 to LoginUtils_partition1--><g class="link" data-entity-1="LoginServlet_partition1" data-entity-2="LoginUtils_partition1" data-source-line="70" data-uid="lnk56" id="link_LoginServlet_partition1_LoginUtils_partition1"><path d="M415,80.19 C415,106.55 415,147.7 415,173.97" fill="none" id="LoginServlet_partition1-to-LoginUtils_partition1" style="stroke:#181818;stroke-width:1;"/><polygon fill="#181818" points="415,179.97,419,170.97,415,174.97,411,170.97,415,179.97" style="stroke:#181818;stroke-width:1;"/></g><!--link RegisterServlet_partition1 to RegistrationResult_partition1--><g class="link" data-entity-1="RegisterServlet_partition1" data-entity-2="RegistrationResult_partition1" data-source-line="71" data-uid="lnk57" id="link_RegisterServlet_partition1_RegistrationResult_partition1"><path d="M228.5,80.41 C228.5,143.23 228.5,337 228.5,337 C228.5,337 243.44,337 269.71,337" fill="none" id="RegisterServlet_partition1-to-RegistrationResult_partition1" style="stroke:#181818;stroke-width:1;"/><polygon fill="#181818" points="275.71,337,266.71,333,270.71,337,266.71,341,275.71,337" style="stroke:#181818;stroke-width:1;"/></g><!--link RegisterServlet_partition1 to RegistrationUtils_partition1--><g class="link" data-entity-1="RegisterServlet_partition1" data-entity-2="RegistrationUtils_partition1" data-source-line="72" data-uid="lnk58" id="link_RegisterServlet_partition1_RegistrationUtils_partition1"><path d="M134.5,80.19 C134.5,106.55 134.5,147.7 134.5,173.97" fill="none" id="RegisterServlet_partition1-to-RegistrationUtils_partition1" style="stroke:#181818;stroke-width:1;"/><polygon fill="#181818" points="134.5,179.97,138.5,170.97,134.5,174.97,130.5,170.97,134.5,179.97" style="stroke:#181818;stroke-width:1;"/></g><!--link RegistrationUtils_partition1 to PasswordResult_partition1--><g class="link" data-entity-1="RegistrationUtils_partition1" data-entity-2="PasswordResult_partition1" data-source-line="73" data-uid="lnk59" id="link_RegistrationUtils_partition1_PasswordResult_partition1"><path d="M119,218.19 C119,244.55 119,285.7 119,311.97" fill="none" id="RegistrationUtils_partition1-to-PasswordResult_partition1" style="stroke:#181818;stroke-width:2;"/><polygon fill="#181818" points="119,317.97,123,308.97,119,312.97,115,308.97,119,317.97" style="stroke:#181818;stroke-width:2;"/></g><!--link RegistrationUtils_partition1 to RegistrationResult_partition1--><g class="link" data-entity-1="RegistrationUtils_partition1" data-entity-2="RegistrationResult_partition1" data-source-line="74" data-uid="lnk60" id="link_RegistrationUtils_partition1_RegistrationResult_partition1"><path d="M216.12,199 C260.35,199 303,199 303,199 C303,199 303,273.89 303,311.81" fill="none" id="RegistrationUtils_partition1-to-RegistrationResult_partition1" style="stroke:#181818;stroke-width:1;"/><polygon fill="#181818" points="303,317.81,307,308.81,303,312.81,299,308.81,303,317.81" style="stroke:#181818;stroke-width:1;"/></g><!--SRC=[fPRVRzem4CVVyrT4xBaI2TAUEhIsgDe3sn1TdwQfEfmRiM9iP1igDEr_Nm8jEB4TEumy8FdkFlSZb-IhAigt866J5lWRTam_2gw_mGRJByZsg2c1fAG5fhUtMo7rT9geSyGMI0LhlA__rbBiUF4Wc93fXzdnPpXA91hucaMuCifH7xQOribAOHYuA53XDlquDi70g-Om6u-JjshIKMtIL5F1nwFt1EcV9BrKaOxg2rIw-BxyyNBnFhTuBgiLCwSh2V9mBqGrfqhVxO4oM35yGhbdg3-RQMjumDtC6vFk2K6ICYvNopS-aPJY5MLyCez_RC8vyg8_XU4H2rtYkgu7PJEAVhZ3StYIqmXY4xMyWyaMA5KJo0dEuO2oY-_QOwj_rfGfJwr7MnWaW5k0-YmOsCow6zYSHGIUPcS7dyvTWB-9uvMG3NebP76lXCv4ivw9Phw9hYctrkWDPDY28F_IP86byG3VjzTJNCSSn3qhkwRcB6v2xa6VBP7DI6XSd2pB8JnmKEfLo6A9glvuMkDkMGVLvmRQ7YweS_NpGQkV1rP_jh8s8ZzYpWQJDN1Nyy2kvlsTJWPrEWbqUaViBydaoBbOJ9eRmeWe1Ni0HdOCj90Mg-iGHCuevoWNaX9KNPff2u8UwShJuCKIX7m5NNeeXYay9rAXt03dZbcV3B6ZxZu_hJ5t7nt_P0G7GgXZC2U32r7lf7ipRdxgafAAerAVibytKsTJIUycs0XFGudxtbdnhawI0ThL0dgKH1AhKKrWtW0x0k5wKB2o247hgCvI8Fy735JfqSH3RqD0_LwFyshSeKXBYfg0ISzYn0HwxrblyAdijj1DkiBN2h3A30SuolE8G4Tv3ZMKzCWqYz0hCQucUKhoI2thgV0AgNXEkBb_]--></g></svg>